<svg xmlns="http://www.w3.org/2000/svg" xmlns:xlink="http://www.w3.org/1999/xlink" width="154.574" height="146.411" viewBox="0 0 154.574 146.411">
  <defs>
    <clipPath id="clip-path">
      <path id="Path_7062" data-name="Path 7062" d="M0,70.132l36.318,45.556L49.634,55.4,13.317,9.841Z" transform="translate(0 -9.841)" fill="none"/>
    </clipPath>
  </defs>
  <g id="Group_412" data-name="Group 412" transform="matrix(-0.469, -0.883, 0.883, -0.469, 51.426, 151.563)">
    <path id="Path_7025" data-name="Path 7025" d="M0,70.132l36.318,45.556L49.634,55.4,13.317,9.842Z" transform="translate(0 1.134)" fill="#3b6dab"/>
    <g id="Group_395" data-name="Group 395" transform="translate(0 10.975)">
      <g id="Group_394" data-name="Group 394" clip-path="url(#clip-path)">
        <path id="Path_7026" data-name="Path 7026" d="M14.711,23.583a2.13,2.13,0,1,0-2.993-.339,2.132,2.132,0,0,0,2.993.339" transform="translate(1.297 -8.695)"/>
        <path id="Path_7027" data-name="Path 7027" d="M17.082,26.554a2.13,2.13,0,1,0,2.992.339,2.133,2.133,0,0,0-2.992-.339" transform="translate(1.876 -7.969)"/>
        <path id="Path_7028" data-name="Path 7028" d="M22.106,32.858A2.13,2.13,0,1,0,25.1,33.2a2.131,2.131,0,0,0-2.994-.339" transform="translate(2.455 -7.242)"/>
        <path id="Path_7029" data-name="Path 7029" d="M27.131,39.16a2.13,2.13,0,1,0,2.993.338,2.13,2.13,0,0,0-2.993-.338" transform="translate(3.034 -6.516)"/>
        <path id="Path_7030" data-name="Path 7030" d="M32.155,45.463a2.13,2.13,0,1,0,2.994.339,2.13,2.13,0,0,0-2.994-.339" transform="translate(3.613 -5.79)"/>
        <path id="Path_7031" data-name="Path 7031" d="M37.181,51.767a2.13,2.13,0,1,0,2.992.337,2.13,2.13,0,0,0-2.992-.337" transform="translate(4.192 -5.063)"/>
        <path id="Path_7032" data-name="Path 7032" d="M41.867,61.059a2.144,2.144,0,0,0,.441.4l.842-3.816a2.1,2.1,0,0,0-.945.42,2.13,2.13,0,0,0-.338,2.993" transform="translate(4.771 -4.332)"/>
        <path id="Path_7033" data-name="Path 7033" d="M8.512,25.671,7.854,28.65a1.8,1.8,0,0,0,.22-.143,2.12,2.12,0,0,0,.438-2.836" transform="translate(0.905 -8.017)"/>
        <path id="Path_7034" data-name="Path 7034" d="M10.778,31.58a2.13,2.13,0,1,0,2.993.336,2.131,2.131,0,0,0-2.993-.336" transform="translate(1.15 -7.389)"/>
        <path id="Path_7035" data-name="Path 7035" d="M15.8,37.882a2.13,2.13,0,1,0,2.994.339,2.131,2.131,0,0,0-2.994-.339" transform="translate(1.729 -6.663)"/>
        <path id="Path_7036" data-name="Path 7036" d="M20.827,44.186a2.13,2.13,0,1,0,2.994.338,2.132,2.132,0,0,0-2.994-.338" transform="translate(2.308 -5.937)"/>
        <path id="Path_7037" data-name="Path 7037" d="M25.851,50.489a2.13,2.13,0,1,0,2.994.338,2.132,2.132,0,0,0-2.994-.338" transform="translate(2.887 -5.21)"/>
        <path id="Path_7038" data-name="Path 7038" d="M30.877,56.792a2.13,2.13,0,1,0,2.994.337,2.131,2.131,0,0,0-2.994-.337" transform="translate(3.466 -4.484)"/>
        <path id="Path_7039" data-name="Path 7039" d="M35.9,63.1a2.129,2.129,0,1,0,2.994.336A2.131,2.131,0,0,0,35.9,63.1" transform="translate(4.045 -3.758)"/>
        <path id="Path_7040" data-name="Path 7040" d="M40.927,69.4a2.13,2.13,0,1,0,2.992.34,2.13,2.13,0,0,0-2.992-.34" transform="translate(4.624 -3.031)"/>
        <path id="Path_7041" data-name="Path 7041" d="M5.294,40.36a2.124,2.124,0,0,0,.914-4.14Z" transform="translate(0.61 -6.801)"/>
        <path id="Path_7042" data-name="Path 7042" d="M9.5,42.906a2.13,2.13,0,1,0,2.993.338A2.132,2.132,0,0,0,9.5,42.906" transform="translate(1.002 -6.084)"/>
        <path id="Path_7043" data-name="Path 7043" d="M14.524,49.209a2.13,2.13,0,1,0,2.994.338,2.129,2.129,0,0,0-2.994-.338" transform="translate(1.581 -5.358)"/>
        <path id="Path_7044" data-name="Path 7044" d="M19.549,55.514a2.13,2.13,0,1,0,2.994.337,2.132,2.132,0,0,0-2.994-.337" transform="translate(2.16 -4.631)"/>
        <path id="Path_7045" data-name="Path 7045" d="M24.574,61.817a2.13,2.13,0,1,0,2.993.338,2.128,2.128,0,0,0-2.993-.338" transform="translate(2.739 -3.905)"/>
        <path id="Path_7046" data-name="Path 7046" d="M29.6,68.119a2.129,2.129,0,1,0,2.993.338,2.13,2.13,0,0,0-2.993-.338" transform="translate(3.319 -3.179)"/>
        <path id="Path_7047" data-name="Path 7047" d="M34.623,74.422a2.13,2.13,0,1,0,2.994.338,2.129,2.129,0,0,0-2.994-.338" transform="translate(3.897 -2.452)"/>
        <path id="Path_7048" data-name="Path 7048" d="M3.677,47.628,2.92,51.047a2.124,2.124,0,1,0,.757-3.419" transform="translate(0.336 -5.504)"/>
        <path id="Path_7049" data-name="Path 7049" d="M8.222,54.235a2.131,2.131,0,1,0,2.993.34,2.13,2.13,0,0,0-2.993-.34" transform="translate(0.855 -4.779)"/>
        <path id="Path_7050" data-name="Path 7050" d="M13.246,60.535a2.13,2.13,0,1,0,2.993.34,2.134,2.134,0,0,0-2.993-.34" transform="translate(1.434 -4.053)"/>
        <path id="Path_7051" data-name="Path 7051" d="M18.271,66.84a2.13,2.13,0,1,0,2.993.338,2.135,2.135,0,0,0-2.993-.338" transform="translate(2.013 -3.326)"/>
        <path id="Path_7052" data-name="Path 7052" d="M23.3,73.143a2.13,2.13,0,1,0,2.992.34,2.134,2.134,0,0,0-2.992-.34" transform="translate(2.592 -2.6)"/>
        <path id="Path_7053" data-name="Path 7053" d="M28.32,79.447a2.13,2.13,0,1,0,2.993.338,2.13,2.13,0,0,0-2.993-.338" transform="translate(3.171 -1.873)"/>
        <path id="Path_7054" data-name="Path 7054" d="M33.346,85.75a2.129,2.129,0,1,0,2.991.338,2.13,2.13,0,0,0-2.991-.338" transform="translate(3.75 -1.147)"/>
        <path id="Path_7055" data-name="Path 7055" d="M1.919,59.258a2.13,2.13,0,1,0,2.992.339,2.134,2.134,0,0,0-2.992-.339" transform="translate(0.129 -4.2)"/>
        <path id="Path_7056" data-name="Path 7056" d="M6.943,65.561a2.131,2.131,0,1,0,2.993.34,2.132,2.132,0,0,0-2.993-.34" transform="translate(0.708 -3.473)"/>
        <path id="Path_7057" data-name="Path 7057" d="M11.969,71.865a2.129,2.129,0,1,0,2.992.338,2.131,2.131,0,0,0-2.992-.338" transform="translate(1.287 -2.747)"/>
        <path id="Path_7058" data-name="Path 7058" d="M16.993,78.168a2.13,2.13,0,1,0,2.993.34,2.13,2.13,0,0,0-2.993-.34" transform="translate(1.866 -2.021)"/>
        <path id="Path_7059" data-name="Path 7059" d="M22.018,84.471a2.13,2.13,0,1,0,2.992.34,2.132,2.132,0,0,0-2.992-.34" transform="translate(2.445 -1.294)"/>
        <path id="Path_7060" data-name="Path 7060" d="M27.043,90.776a2.129,2.129,0,1,0,2.992.336,2.13,2.13,0,0,0-2.992-.336" transform="translate(3.024 -0.568)"/>
        <path id="Path_7061" data-name="Path 7061" d="M32.066,97.078a2.124,2.124,0,0,0,1.721,3.751l.842-3.81a2.125,2.125,0,0,0-2.563.059" transform="translate(3.603 0.159)"/>
      </g>
    </g>
    <path id="Path_7063" data-name="Path 7063" d="M71.847,0,11.941,10.976,48.257,56.532l59.907-10.974Z" transform="translate(1.376)" fill="#fff36a"/>
    <path id="Path_7064" data-name="Path 7064" d="M45.881,51.825l-13.316,60.29,59.9-10.975,13.318-60.289Z" transform="translate(3.753 4.707)" fill="#e96687"/>
  </g>
</svg>
