<svg id="Group_419" data-name="Group 419" xmlns="http://www.w3.org/2000/svg" xmlns:xlink="http://www.w3.org/1999/xlink" width="242.5" height="144.822" viewBox="0 0 242.5 144.822">
  <defs>
    <clipPath id="clip-path">
      <rect id="Rectangle_761" data-name="Rectangle 761" width="242.5" height="144.822" fill="#e96687"/>
    </clipPath>
  </defs>
  <g id="Group_416" data-name="Group 416" clip-path="url(#clip-path)">
    <path id="Path_7114" data-name="Path 7114" d="M217.2,65.172a25.291,25.291,0,0,0-7.629,1.176,32.715,32.715,0,0,0-45.394-26.614c.045-.749.113-1.492.113-2.253A37.479,37.479,0,0,0,91.12,26.04,25.208,25.208,0,0,0,58.487,40.663,25.276,25.276,0,0,0,22.152,71.917a33.777,33.777,0,1,0,37.294,53.668,46.147,46.147,0,0,0,45.681,8.225,41.2,41.2,0,0,0,63.252-8.795,25.238,25.238,0,0,0,36.993-12.181A25.3,25.3,0,1,0,217.2,65.172" fill="#e96687"/>
  </g>
</svg>
