<svg xmlns="http://www.w3.org/2000/svg" xmlns:xlink="http://www.w3.org/1999/xlink" width="136" height="136" viewBox="0 0 136 136">
  <defs>
    <clipPath id="clip-path">
      <rect id="Rectangle_764" data-name="Rectangle 764" width="66" height="66" transform="translate(-0.066 -0.066)" fill="none"/>
    </clipPath>
  </defs>
  <g id="Group_429" data-name="Group 429" transform="translate(-283 -1392)">
    <circle id="Ellipse_1" data-name="Ellipse 1" cx="68" cy="68" r="68" transform="translate(283 1392)" fill="#fcc351"/>
    <g id="Group_431" data-name="Group 431" transform="translate(318.066 1427.066)">
      <g id="Group_430" data-name="Group 430" clip-path="url(#clip-path)">
        <path id="Path_7120" data-name="Path 7120" d="M253.992,286.151V253.992h32.159V280.92a5.237,5.237,0,0,1-5.231,5.231Zm16.079-23.117c-.9,1.719-4.2,8.116-4.2,10.17a4.2,4.2,0,1,0,8.4,0c0-2.054-3.294-8.451-4.2-10.17" transform="translate(-221.317 -221.317)" fill="#ccc"/>
        <path id="Path_7121" data-name="Path 7121" d="M253.992,40.19V8.031H280.92a5.236,5.236,0,0,1,5.231,5.231V40.19Zm12.3-12.16a5.447,5.447,0,0,0,7.677-7.727l-.044-.044a5.446,5.446,0,1,0-7.7,7.7Z" transform="translate(-221.317 -6.998)" fill="#fbc640"/>
        <path id="Path_7122" data-name="Path 7122" d="M338.592,98.594a5.923,5.923,0,0,1-4.216-1.746l-.076-.076v0a5.962,5.962,0,0,1,8.431-8.431h0l.077.076a5.962,5.962,0,0,1-4.217,10.179" transform="translate(-289.837 -75.518)" fill="#ff4f4f"/>
        <path id="Path_7123" data-name="Path 7123" d="M347.042,331.743a4.721,4.721,0,0,1-4.715-4.715c0-2.5,4.3-10.5,4.488-10.844l.227-.421.227.421c.183.34,4.488,8.345,4.488,10.844a4.721,4.721,0,0,1-4.715,4.715" transform="translate(-298.288 -275.141)" fill="#8ce0ff"/>
        <path id="Path_7124" data-name="Path 7124" d="M13.262,286.151a5.236,5.236,0,0,1-5.231-5.231V253.992H40.19v32.159H13.262Z" transform="translate(-6.998 -221.317)" fill="#efefef"/>
        <path id="Path_7125" data-name="Path 7125" d="M8.031,40.19V13.262a5.236,5.236,0,0,1,5.231-5.231H40.19V40.19ZM25.012,16.645A6.033,6.033,0,0,0,19,22.277l-.015.235-.235.007a4.529,4.529,0,0,0,.138,9.056H29.332a4.53,4.53,0,0,0,1.856-8.662l-.152-.069v-.167a6.033,6.033,0,0,0-6.024-6.033" transform="translate(-6.998 -6.998)" fill="#8ce0ff"/>
        <path id="Path_7126" data-name="Path 7126" d="M58.254,86.94a5.046,5.046,0,0,1-.385-10.077,6.541,6.541,0,0,1,13.047.5A5.046,5.046,0,0,1,68.7,86.94H58.254Z" transform="translate(-46.363 -61.846)" fill="#efefef"/>
        <path id="Path_7127" data-name="Path 7127" d="M64.912,69.736a7.575,7.575,0,0,0-14.944-.783,6.081,6.081,0,0,0,1.288,12.023H61.7a6.079,6.079,0,0,0,3.213-11.24M61.7,78.393H51.256a3.5,3.5,0,0,1-.107-6.99,1.292,1.292,0,0,0,1.25-1.208,4.991,4.991,0,0,1,9.971.334,1.292,1.292,0,0,0,.761,1.178A3.5,3.5,0,0,1,61.7,78.393" transform="translate(-39.365 -54.848)"/>
        <path id="Path_7128" data-name="Path 7128" d="M299.046,63.534h2.282a6.92,6.92,0,0,0,1.1,2.658l-1.615,1.615a1.292,1.292,0,0,0,1.827,1.827l1.614-1.614a6.912,6.912,0,0,0,2.657,1.1V71.4a1.291,1.291,0,0,0,2.583,0V69.119a6.921,6.921,0,0,0,2.658-1.1l1.614,1.614a1.292,1.292,0,1,0,1.827-1.827l-1.614-1.614a6.918,6.918,0,0,0,1.1-2.658h2.283a1.291,1.291,0,0,0,0-2.583h-2.283a6.915,6.915,0,0,0-1.1-2.657l1.614-1.614a1.292,1.292,0,0,0-1.827-1.827l-1.614,1.615a6.919,6.919,0,0,0-2.658-1.1V53.084a1.291,1.291,0,0,0-2.583,0v2.282a6.914,6.914,0,0,0-2.657,1.1l-1.614-1.614a1.292,1.292,0,0,0-1.827,1.827l1.614,1.614a6.913,6.913,0,0,0-1.1,2.657h-2.282a1.291,1.291,0,0,0,0,2.583m6.038-4.412h0a4.412,4.412,0,0,1,6.24,0l.009.008a4.415,4.415,0,0,1,0,6.223l-.01.009-.008.009a4.415,4.415,0,0,1-6.224,0l-.008-.009a4.412,4.412,0,0,1,0-6.24h0" transform="translate(-259.45 -45.13)"/>
        <path id="Path_7129" data-name="Path 7129" d="M340.044,309.951a1.292,1.292,0,0,0-1.137.678c-.77,1.427-4.612,8.681-4.612,11.334a5.749,5.749,0,0,0,11.5,0c0-2.653-3.842-9.907-4.612-11.334a1.292,1.292,0,0,0-1.137-.678m0,15.178a3.169,3.169,0,0,1-3.165-3.165c0-1.176,1.608-4.816,3.165-7.92,1.558,3.1,3.165,6.743,3.165,7.92a3.169,3.169,0,0,1-3.165,3.165" transform="translate(-291.289 -270.077)"/>
        <path id="Path_7130" data-name="Path 7130" d="M59.6,0H6.264A6.271,6.271,0,0,0,0,6.264V59.6a6.271,6.271,0,0,0,6.264,6.264H59.6A6.271,6.271,0,0,0,65.867,59.6V6.264A6.271,6.271,0,0,0,59.6,0m3.681,6.264V31.642H34.225V2.583H59.6a3.685,3.685,0,0,1,3.681,3.681m-60.7,0A3.685,3.685,0,0,1,6.264,2.583H31.642V31.642H2.583Zm0,53.34V34.225H31.642V63.284H6.264A3.685,3.685,0,0,1,2.583,59.6M59.6,63.284H34.225V34.225H63.284V59.6A3.685,3.685,0,0,1,59.6,63.284"/>
        <path id="Path_7131" data-name="Path 7131" d="M73.174,311.622l2.008-1.822a1.292,1.292,0,0,0-1.736-1.913l-2.693,2.443h-3.8v-3.8l2.443-2.693a1.291,1.291,0,1,0-1.913-1.736l-1.822,2.008L63.84,302.1a1.291,1.291,0,0,0-1.913,1.736l2.443,2.693v3.8h-3.8l-2.693-2.443A1.292,1.292,0,0,0,56.14,309.8l2.008,1.822-2.008,1.822a1.291,1.291,0,1,0,1.736,1.913l2.692-2.443h3.8v3.8l-2.443,2.693a1.291,1.291,0,1,0,1.913,1.736l1.822-2.008,1.822,2.008a1.292,1.292,0,1,0,1.913-1.736l-2.443-2.693v-3.8h3.8l2.692,2.443a1.291,1.291,0,1,0,1.736-1.913Z" transform="translate(-48.549 -262.867)"/>
        <path id="Path_7132" data-name="Path 7132" d="M97.632,344.474a1.292,1.292,0,0,0,0-2.583,1.292,1.292,0,0,0,0,2.583" transform="translate(-83.985 -297.908)"/>
        <path id="Path_7133" data-name="Path 7133" d="M149.47,341.891a1.292,1.292,0,0,0,0,2.583,1.292,1.292,0,0,0,0-2.583" transform="translate(-129.154 -297.908)"/>
        <path id="Path_7134" data-name="Path 7134" d="M97.632,396.907a1.292,1.292,0,0,0,0,2.583,1.292,1.292,0,0,0,0-2.583" transform="translate(-83.985 -345.846)"/>
        <path id="Path_7135" data-name="Path 7135" d="M149.469,399.491a1.292,1.292,0,0,0,0-2.583,1.292,1.292,0,0,0,0,2.583" transform="translate(-129.153 -345.847)"/>
        <path id="Path_7136" data-name="Path 7136" d="M458.41,351.518a1.292,1.292,0,0,0-1.291,1.292v7.921a1.291,1.291,0,0,0,2.583,0v-7.921a1.292,1.292,0,0,0-1.292-1.291" transform="translate(-398.312 -306.296)"/>
        <path id="Path_7137" data-name="Path 7137" d="M458.708,325.159a1.292,1.292,0,0,0,0-2.583,1.292,1.292,0,0,0,0,2.583" transform="translate(-398.609 -281.078)"/>
      </g>
    </g>
  </g>
</svg>
