<svg id="Group_356" data-name="Group 356" xmlns="http://www.w3.org/2000/svg" xmlns:xlink="http://www.w3.org/1999/xlink" width="483.657" height="539.224" viewBox="0 0 483.657 539.224">
  <defs>
    <clipPath id="clip-path">
      <rect id="Rectangle_517" data-name="Rectangle 517" width="483.657" height="539.224" fill="none"/>
    </clipPath>
  </defs>
  <g id="Group_356-2" data-name="Group 356" clip-path="url(#clip-path)">
    <path id="Path_4199" data-name="Path 4199" d="M483.528,151.8V116.176c-.212-.265-.419-.528-.648-.813-.766-.964-1.621-2.035-2.58-3.239-1.934-2.4-4.287-5.335-7.207-8.974,8.412,10.611,8.882,12.585,3.832,8.284-1.263-1.076-2.873-2.543-4.793-4.365l-3.158-3.021-2.219-1.912q-1.006-.83-2.082-1.719c-5.718-4.7-12.861-9.958-20.519-15.762-6.953-5.542-13.227-11.014-19.065-15.919-5.819-4.924-11.165-9.382-16.181-13.4l-3.7-2.929q-1.614-1.308-3.158-2.554l-6.408-5.307a80.871,80.871,0,0,0-14.485-9.767l-36.6-18.431,8.555,16.318-7.646,7.4c-3.239-3.815-6.97-8.158-10.737-12.476-5.254-6.023-10.55-11.989-14.527-16.441-1.948-2.177-3.572-3.988-4.709-5.257-1.241-1.339-1.948-2.1-1.948-2.1C311.626,1.951,310.349.757,309.5,0h-1.042c.067.226-.042.3-.537,0H267.78l2.585,3.9,1.409-1.344c.05.053.106.1.154.154L270.488,4.08l.017.022-5.726,5.464-.02-.02-.548.523C258.831,6.54,253.588,3.06,248.826,0h-4.01c1.163.8,2.334,1.613,3.533,2.457,4.39,3.138,8.982,6.417,13.635,9.74L260.7,13.417l.022.02-.537.511.014.014.537-.511c2.546,2.308,3.994,3.625,4.972,4.511-3.348-2.728,5.682,6.584,12.822,15.195,3.985,4.743,7.5,9.03,8.194,10.265l-.047-.022-.338-.137-.252-.1-.24-.081c-.816-.7-2.138-1.965-4.156-3.982,1.168,1.3,2.3,2.554,3.4,3.781a14.171,14.171,0,0,0-1.8-.4c-.383-.053-.766-.089-1.143-.112-.257-.008-.232-.017-.715-.017h-.022c-.24-.263-.486-.531-.724-.8-9.385-10.377-18.216-20.222-27.237-29.339-.115-.17-.246-.358-.349-.514l-.467-.743c-.034.02.117-.064-.226.123l-.05.028q-2.159-2.163-4.337-4.27L240.934,0h-2.879L230.32,6a13.913,13.913,0,0,0-3.58,4.2,13.245,13.245,0,0,0-.623,1.28c-1.322-1.755-2.652-3.507-3.927-5.279l-.933.886a34.883,34.883,0,0,0-2.624-2.56L213.415,0h-27.48l14.152,22.117c.671,1.048,1.358,2.076,2.04,3.113l-.559.528a8.018,8.018,0,0,1,.953.917c.145.165.285.335.422.52l.2.282.844,1.3,2.286,2.627.637.931a10.361,10.361,0,0,0-1.07,1.26c-4.022-3.15-8.124-6.869-12.333-10.7L189.3,19.091l-4.29-3.781q-3.974-3.521-7.778-6.886c-.386-.344-.749-.662-1.132-1-2.331-2.593-4.706-5.047-7.082-7.423H168.1c1.082,1.068,2.155,2.1,3.245,3.225L167.7,0H130.462l2.5,2.213,2.859,4.98,1.02,2.392c-.347-.084-.707-.168-1.084-.254-.31-.073-.637-.151-.964-.229L129.663,0h-.486l5.07,8.974c-1.207-.288-2.512-.59-3.862-.816-1.942-.327-3.927-.5-5.693-.668a17.32,17.32,0,0,0-5.137.182c-.3.073-.609.176-.911.279-.254-.238-.8-.727-1.154-1.023l-.729-.612-.978-.841-.089-.075c-.011.006.014-.022-.028.011l-.632.646-.646.646c-3.281-2.267-6.369-4.494-9.334-6.7H88.447L90.94,11.931l-4.416,4.812a38.477,38.477,0,0,1,2.6,3.189c-2.076-1.272-4.019-2.454-6.07-3.644,0,0,1.8,1.224,3.6,2.451,1.249.827,2.482,1.646,3.138,2.082l.039.05c-3.088-1.842-6.132-3.717-9.1-5.615q-4.615-2.947-9.077-6.039C67.294,6.21,63.074,3.116,58.9,0H0V12.674L20.994,43.159a41.334,41.334,0,0,0,5.749,6.623c1.736,1.652,3.289,2.971,4.5,4.05l.833.749.864.81,2.037,1.926,4.077,3.848,16.366,15.4c1.079,1,2.171,1.965,3.256,2.951l.444,1.856a22.326,22.326,0,0,0,4.676,8.985c-.369.567-.738,1.1-1.207,1.775l-.117.168,0,0,0,0,.008.006.022.017.307.254c.626.509,1.64,1.554,3.681,3.233l7.121,5.656.274.215,6.6,7.568,2.057,4.578a14.839,14.839,0,0,0,3.214,4.254c1.129,1.154,2.294,2.261,3.474,3.34,2.359,2.158,4.779,4.195,7.127,6.238,1.028.905,2.06,1.853,3.088,2.778a18.688,18.688,0,0,0,1.165,1.629l-.62-1.137c3.426,3.085,6.853,6.227,10.276,9.318,9.267,8.46,18.56,16.813,27.788,25.348,9.239,8.555,18.618,17.059,28.461,25.194l14.9,11.752,1.255.987,3.533,3.443a31.658,31.658,0,0,1,4.195,4.969l1.135-1.459c.592.416,1.218.836,1.914,1.255a22.1,22.1,0,0,0,7.252,2.806l17.453,3.256L213.222,207.7l2.311.883,4.209-5.55a13.617,13.617,0,0,0,.984-1.492,12.359,12.359,0,0,0,.824-1.878,11.157,11.157,0,0,0,.531-4.262,11.9,11.9,0,0,0-1.8-5.408,16.546,16.546,0,0,0-1.668-2.23l-.822-.905-.483-.534-.475-.4c-.145-.123-.277-.232-.419-.355l.766-1.341a19.206,19.206,0,0,1-2.6-1.224c-.416-.235-.822-.483-1.224-.752-.475-.324-.453-.293-1.99-1.462l-1.906-1.09-.878-.738c-2.6-2.065-5-3.963-7.146-5.662-4.29-3.356-7.722-5.858-9.675-7.152-11.562-9.3-21.81-18.6-31.32-27.458-2.174-2.046-4.3-4.055-6.414-6.042l16.274,8.42c9.189,5.584,18.6,11.128,28.036,16.427l17.053,9.566c5.62,3.169,11.229,6.308,16.83,9.231,0,0-2.009-.861-4.019-1.724l-3.982-1.749c7.652,4.153,15.569,8.283,24.163,12.062l16.458,7.233v-.02c.4.388.808.78,1.207,1.165.495.461,1.031.959,1.6,1.473l.034.073.022-.022a33.1,33.1,0,0,0,8.963,5.989l27.475,12.277-2.415-6.221c.148.112.3.226.442.341q3.136,2.4,6.243,4.785a34.59,34.59,0,0,0,5.022,3.3,19.977,19.977,0,0,0,4.276,1.682,16.055,16.055,0,0,0,7.079.285l5.176-.967,2.5-4.407c.324-.573.623-1.129.908-1.741a17.98,17.98,0,0,0,.785-2.11,15.368,15.368,0,0,0-.57-10.4,16.863,16.863,0,0,0-2.219-3.728,20.588,20.588,0,0,0-4.407-4.119,7.712,7.712,0,0,0-.81-.528c2.974.64,5.327,1.241,8.311,1.878.816-.852,1.7-1.805,2.708-3.049l.771-.97a.949.949,0,0,0,.2-.377l.193-.492.369-.964a35.038,35.038,0,0,0,1.1-3.457c.523-2.054.495-3.242.2-3.954-.028-.1-.092-.123-.1-.293l.006-.545v-1.11c0-.752-.031-1.557-.067-2.381a48.158,48.158,0,0,0-.763-6.324c4.3,3.75,8.624,7.423,12.97,10.972q3.626,2.972,7.269,5.844c2.431,1.92,4.8,3.748,7.456,5.771.886.626,1.758,1.238,2.635,1.858,4.259,4.416,8.633,8.848,13.174,13.294q6.2,5.861,12.92,12.216a98.8,98.8,0,0,0,8.423,7.171,57.986,57.986,0,0,0,5.545,3.655,42.776,42.776,0,0,0,7.18,3.25l26.407,9.035,6.38,3.982.2-1.73,11.441,3.915-10.164-14.893.889-7.618a16.516,16.516,0,0,0-.307-5.545c-.09-.38-.19-.794-.293-1.132l-.327-.964a17.124,17.124,0,0,0-.7-1.671,23.29,23.29,0,0,0-2.524-4.066c-.7-.911-1.244-1.545-1.6-1.987-.134-.162-.263-.321-.386-.47l-.117-.162c-2.834-3.9-5.88-7.588-8.809-10.972-2.957-3.41-5.765-6.531-8.619-9.714-.134-.148-.266-.291-.4-.436l-.847-23.99a24.847,24.847,0,0,1,0-3.513c-.282-1.2-.579-2.264-.878-3.22l4.581-1.861-1.059-2.8,2.535,1.2,5.478-8.451a15.5,15.5,0,0,0,2.4-8.211,17.455,17.455,0,0,0-.7-5,79.31,79.31,0,0,0,9.125,7.713l13.552,9.41.992-4.782a95.7,95.7,0,0,0,9.066,5l11.685,5.684V151.8Zm-348.9-67.839c-2.63-2.613-5.355-5.268-8.194-7.889-11.313-10.558-24.155-20.96-36.84-30.923q-4.754-3.714-9.46-7.395c-2.062-1.613-4.161-3.225-6.26-4.815-.112-.17-.229-.335-.344-.5,8.406,4.835,15.307,8.328,15.307,8.328,8.124,4.4-.271.537-5.5-1.987-2.619-1.255-4.455-2.141-3.138-1.263,1.336.838,5.765,3.56,16.131,8.714,5.707,2.7,9.536,4.329,12.288,5.4C114.9,56.741,121.122,62.068,127.3,67.54c2.51,5.617,5.218,11.422,8.18,17.28-.285-.285-.573-.579-.858-.861m36.208,25.253-1.171-2.635c-.075-.17-.156-.327-.235-.5q3.37,3.194,6.718,6.417c-1.772-1.1-3.549-2.177-5.313-3.284m32.052-63.021.581-.816c-.078-.064-.168-.134-.246-.2l.467-.651.475.4.651,2.213c.14.481.282.961.422,1.439Zm89.967-10.016c.416.291.838.615,1.258.917.523.685,1.056,1.383,1.613,2.11.718.939,1.473,1.956,2.25,3.024l-4.089-4.382-1.342-1.45c.1-.073.215-.148.31-.218m-10.424-13.3c-4.7-3.647-9.541-7.015-14.354-10.237q-1.61-1.534-3.278-3.06l5.721-5.461,4.075,6.14c4.091,6.16,7.3,10.681,10.058,14.407-.741-.6-1.476-1.2-2.222-1.789m-.76,110.891-.442-.271c-.271-.31-.553-.632-.852-.97l.534-.173c.38.514.81,1.1,1.3,1.749Zm6.347,3.524a.566.566,0,0,1-.047.092l-.112-.022-.221-.05a4.265,4.265,0,0,1-.836-.341l-3.762-2.35c-.674-.861-1.3-1.654-1.85-2.356l3.465-1.123.88,1.327q.977,1.476,1.819,2.948c.2.525.794.85.755,1.464a1.111,1.111,0,0,1-.092.411m12.875-90.451c-1.068-1.079-2.048-2.071-3.572-3.686-2.8-3-5.922-6.344-9.312-9.974-.578-.62-1.174-1.26-1.766-1.9.973.791,1.942,1.585,2.909,2.37l-.042.036c.145.092.291.2.436.291.349.3.674.581.978.861.676.78,1.406,1.615,2.211,2.54,1.515,1.719,3.256,3.7,5.251,5.958q1.337,1.488,2.848,3.164c.212.235.458.5.676.738.154.226.307.45.467.685l-1.084-1.084m4.089,3.544,2.666,1.786,3.82,5.19c-1.945-2.121-4.089-4.43-6.486-6.976m37.907-13.043c.83.947,1.655,1.9,2.468,2.834l-1.875,1.811c-3.644-4.15-7.616-8.722-12.045-13.9l-1.339-5.181s6.442,7.152,12.791,14.435m5.514,62.981c-4.393-3.7-8.664-7.414-12.9-11.17-.056-.129-.109-.254-.145-.369-.531-1.258-1.109-2.4-1.671-3.454-3.049-5.542-6.146-9.432-10.427-14.608-.6-.71-1.221-1.45-1.872-2.208.425-.632,4.913,3.753,19.873,21.455l4.1,4.961c2.5,2.971,5.894,6.872,9.39,10.681l.293.316c-2.211-1.861-4.413-3.717-6.643-5.6" fill="#fcc351"/>
    <path id="Path_4200" data-name="Path 4200" d="M67.289,9.774l.014-.017c1.3,1.188,2.294,2.124,3.041,2.859Z" transform="translate(120.764 17.511)" fill="#a9ded9"/>
    <path id="Path_4201" data-name="Path 4201" d="M108.536,17.632l.117.078.428.467-.545-.545" transform="translate(194.79 31.644)" fill="#a9ded9"/>
    <path id="Path_4202" data-name="Path 4202" d="M111.428,75.837l-.008-.006h-.006l0,0c-.1.148-.067.1,0,0l.034.017Z" transform="translate(199.838 136.09)" fill="#a9ded9"/>
    <path id="Path_4203" data-name="Path 4203" d="M119.613,31.543c.092-.143.3.017.721.643-.24-.212-.481-.428-.721-.643" transform="translate(214.67 56.523)" fill="#a9ded9"/>
    <path id="Path_4204" data-name="Path 4204" d="M157.93,47.331l0,.006c-.109.061-.1.05,0-.006" transform="translate(283.304 84.945)" fill="#a9ded9"/>
    <path id="Path_4205" data-name="Path 4205" d="M137.159,27.586q-.549.591-1.028,1.1l-.02-.036.02.036c.3-.321.62-.665.967-1.034Z" transform="translate(244.279 49.509)" fill="#ffb49d"/>
    <path id="Path_4206" data-name="Path 4206" d="M137.207,27.992c-.648.693-1.213,1.291-1.713,1.814.492-.514,1.056-1.112,1.713-1.814" transform="translate(243.171 50.237)" fill="#ffb49d"/>
    <path id="Path_4207" data-name="Path 4207" d="M146.158,42.136c-.187-.154-.4-.327-.668-.525.243.184.444.349.668.525" transform="translate(261.111 74.679)" fill="#ffb49d"/>
    <path id="Path_4208" data-name="Path 4208" d="M168.588,1.618c.794.889,1.445,1.78,1.445,1.78s-.02-.52-.036-1.3A15.924,15.924,0,0,0,169.72,0h-2.848a15.25,15.25,0,0,1,1.716,1.618" transform="translate(299.486)" fill="#ffb49d"/>
    <path id="Path_4209" data-name="Path 4209" d="M170.518,1l-1.864.131s.567.964,1.14,2.054c.612,1.174,1.224,2.35,1.224,2.35.6-1.017.433-2.867-.006-4.715-.067-.263-.156-.545-.238-.819h-.592c.109.33.224.66.335,1" transform="translate(302.684)" fill="#ffb49d"/>
    <path id="Path_4210" data-name="Path 4210" d="M265.68,156.2l-.092-.4-.182-.646a1.416,1.416,0,0,1-.053-.26,3.487,3.487,0,0,1-.131-.551,8.8,8.8,0,0,1-.159-1.769c7.711-6.352,11.162-9.2,12.467-10.273v0c-1.1.906-2.94,2.42-.517.422L277,142.7l-.034-.05-.509-.816-1.023-1.627q-1.551-2.448-3.052-4.807c.8-.084,1.523-.179,2.426-.344s1.817-.408,2.725-.66V79.97a3.948,3.948,0,0,1-.333-.425,1.84,1.84,0,0,1-.145-.26c.355-4.625-1.051-2.194-2.417-5.5-.034-.414-.059-.8-.064-1.132v-.461c.006-.07.008-.137.011-.2a.337.337,0,0,1,.011-.084l.073.12c.45-1.814,1.534-2.227,2.789-3.485a3.54,3.54,0,0,0,.075.383v-8.04c-.087-.333-.176-.646-.26-.88-.235-.752-.4-1.143-.4-1.143l-.162-.307a3.9,3.9,0,0,0-1.076-.933.68.68,0,0,0-.869.17,2.8,2.8,0,0,0-.657,1.193c-.07.243-.143.486-.207.71a1.43,1.43,0,0,0-.089.383c.028.338.053.646.075.914.1,1.322-.02,1.965-.551.785-.713-1.763-1.054-1.671-1.582-2.976l.629-.545a20.631,20.631,0,0,1,2.244-1.61c-1.023.084-1.892-2.1-2.8-4.533A42.4,42.4,0,0,1,268.5,38.352c-.8,1.367-1.741,1.914-2.993.542.615-.011.875-.556,1.017-1.263a17.668,17.668,0,0,0,.165-2.566c.056-1.9.218-3.77,1.582-2.906.293,1.425-1.188,3.34.238,4.91a5.018,5.018,0,0,1-.061-3.127c.129-.341.3-.648.472-1.051a7.3,7.3,0,0,0,.265-.687c.045-.134.089-.265.131-.439.031-.26.062-.542.1-.844-1.515-5.251-1.912-3.533-2.4-2.518-.489,1.09-.978,1.409-2.7-5.151-.405-2.244-.271-4.636-.559-6.9-.252-2.269-.693-4.452-1.118-6.467C261.608,5.88,261.8,2.932,260.253,0H135.324c.917,1.037,1.912,2.1,2.968,3.183-.143.014-.288.02-.43.036-.6.075-1.126.154-1.775.279-.785.151-1.576.341-2.362.57a26.241,26.241,0,0,0-12.26,7.747,25.7,25.7,0,0,0-2.387,3.124,27.218,27.218,0,0,0-1.73,3.088c-.249.525-.489,1.082-.69,1.587l-.377,1.012c-.238.679-.447,1.372-.629,2.068s-.338,1.4-.461,2.107c-.1.534-.143.88-.2,1.333-.106.855-.171,1.719-.2,2.574-.02.7-.014,1.121,0,1.694.017.523.053,1.1.1,1.571l.117,1.054.151,1.042.137.769c.087.456.21,1.014.3,1.369.492,1.892.38,1.456.458,1.817.039.187.078.363.112.528.129.612.215,1.02.215,1.02-.045-.453-.087-.864-.123-1.238-.022-.212-.045-.414-.064-.606.087.143-.271-1.068-.534-2.434q-.092-.532-.184-1.048c-.067-.414-.14-.953-.19-1.411a29.028,29.028,0,0,1-.17-3.711,28.024,28.024,0,0,1,.235-3.071,27.549,27.549,0,0,1,.95-4.323l.4-1.193c.162-.436.235-.646.539-1.369a26.381,26.381,0,0,1,1.858-3.558c.352-.565.724-1.112,1.112-1.638l.6-.788c.274-.347.562-.687.858-1.023a25.8,25.8,0,0,1,13.345-8.012c.411-.1.822-.187,1.232-.265l.914-.151c.495-.075.995-.126,1.5-.17q1.358,1.371,2.784,2.756c-.444-.008-.891-.006-1.305.017a22.316,22.316,0,0,0-5.522.905A22.962,22.962,0,0,0,120.26,19.591c-.187.4-.366.813-.525,1.221l-.291.771q-.277.78-.5,1.59c-.148.539-.279,1.087-.391,1.638l-.14.769-.078.5c-.1.676-.165,1.364-.2,2.057l-.034.97v.662c.006.442.022.889.053,1.336a25.445,25.445,0,0,0,.478,3.426c.089.383.179.769.271,1.157l.26.953c.106.425.218.875.33,1.327l.883,3.365c-.668-2.761-.02-3.412,1.065-2.865a35.639,35.639,0,0,0,1.984,5.693c.408,1.031.819,2.085,1.213,3.3a31.565,31.565,0,0,1,1.079,3.862c-1.881-1.311-1.445,1.35-3.963-2.278.374.861.755,1.7,1.151,2.521.193.411.411.808.615,1.207s.428.827.565,1.062q.8,1.421,1.559,2.789l2.94,5.221c1.981,3.471,4.077,7.017,6.71,11.187-1.663-3.253-7.481-13.565-2.893-9.958l3.292,6.475,2.208-3.334c-.235,6.984,7.627,17.939,11.441,22.754,2.5-1.076,5.126,6.593,6.1,2.06-.26,1.383,1.976,6.758,4.265,10.094-3.639-4.114-4.1-1.336-3.387,2.635,3.63.031,2.325,5.377,3.737,7.174.69-.115-1.481-6.883,2.725-.492.822,4.975-3.066,6.411,1.442,14.882a2.873,2.873,0,0,1,1.993,1.068,16.9,16.9,0,0,1,1.906,2.473c1.255,1.886,2.457,3.991,3.446,4.748-.442-3.194-5.212-7.632-3.742-9.373,8.644,8.979,4.829,11.428,9.4,19.23,1.92.891,4.863,4.052,6.936,6.489,2.13,2.521,3.225,4.432,3.264,5.24,0,0,.162-.355.293-.738s.274-.757.274-.757.97,1.286,1.548,2.174c.6.908,1.191,1.814,1.635,2.493l1.012,1.467a6.043,6.043,0,0,0-.651-2.342c-.226-.509-.469-1.051-.713-1.593a3.539,3.539,0,0,1-.145-.693c-.168-.85-.31-1.621.777-1.313,0,0,.238.333.592.836.383.562.827,1.216,1.3,1.917.517.718,1.07,1.487,1.621,2.255,2.16,2.94,4.214,5.461,4.214,5.461-.629-1.316-3.3-3.837-2.412-4.39l2.247,3.08c1.341,1.8,3.1,4.1,4.9,6.355q.679.847,1.35,1.682l.676.836.349.425.193.235.028.031.014.017c-1.92,1.7,16.637-14.714,8.842-7.811l.117-.089.936-.727c.394-.31.8-.62,1.2-.933-.025-.006-.034-.028-.053-.039-.05-.028-.277-.266-.4-.377l-1.677-1.677c-1.084-1.121-2.1-2.264-3.046-3.443a26.445,26.445,0,0,1-4.427-7.7c-.187.654-.928.327-1.881-.467-.905-.7-2.266-2.342-2.884-2.867-.771-.732-1.467-1.339-1.766-1.336s-.14.648.514,2.261l1.288-.341c5.008,5.785,7.873,14.613,7.641,16.505-3.809-5.888-6.243-9.066-9.019-12.853l-1.065-1.5c-.224-.3-.45-.6-.685-.917-.523-.668-1.073-1.369-1.677-2.135-1.283-1.621-2.976-3.639-5.335-6.833.931,3.183-.539,1.66-2.311-.405-.883-1.031-1.839-2.253-2.532-2.92-.612-.556-.97-.534-.987.439-1.987-2.535-3.549-5.841-5.321-7.772,6,4.67-1.1-6.042,1.325-6.255,2.688,3.412,4.027,8.107,2.677,9.365,1.557,2.317,2.9,1.045,3.574-.087l1.255,1.6c.433.551.939,1.191,1.481,1.878.573.707,1.182,1.434,1.786,2.127,2.437,2.792,4.575,5.064,4.575,5.064-1.694-2.141-2.37-3.588-2.387-4.485a1.762,1.762,0,0,1,1.126-1.641c1.149-.732,2.239-.984-1.534-5.123-1.859-2.035-2.485,2.144-5.852-4.145-.7-1.048-.486-1.593.075-1.635a19.4,19.4,0,0,1-6.394-7.976c-.752.38-.9,2.585-3.977-1.825-4.284-6.213.981-4.955.7-6.582l1.16,1.107c-1.554-3.138,1.442-1.758-.419-6.78.341,1.5-1.182,1.059-2.909-1.951-.5-1.347-.156-1.872.461-2.076l.7.509q1.446,1.111,2.856,2.2c1.811,1.434,3.463,2.817,4.935,4.1s2.767,2.468,3.957,3.616a38.933,38.933,0,0,1,3.549,3.764c-.7,3-5.461-2.638-2.18,2.208,0,0-1.548-1.028-3.1-2.06l-2.943-1.892c.824,2.543,2.677,3.183,4.779,3.834a12.056,12.056,0,0,1,6.783,4.192c.66,1.52-4.975-1.691-.078,2.241l.235-.841a53.247,53.247,0,0,1,7.367,8.06c.984,1.266,1.923,2.5,2.926,3.7.478.578,1.054,1.218,1.671,1.878s1.224,1.294,1.872,1.934c.975-.531,1.006-1.557.349-2.948a14.357,14.357,0,0,0-1.464-2.325c-.537-.766-1.179-1.585-1.886-2.457-2.828-3.465-6.76-7.73-9.3-11.556l1.428,1.082c-1.942-1.657,2.7.456.089-1.7a23.389,23.389,0,0,1,5.964,6.5,28.52,28.52,0,0,0,2.563,3.4,44.266,44.266,0,0,0,5.321,4.877c2.758.349,3.01-.492,6.084.411,1.213,3.077.76,3.024,3.552,6.766-1.819-.344-4.533-5.19-4.729-2.985.47,1.97,3.049,3.5,2.487,5.128a9.207,9.207,0,0,1-3.192-1.52c-.679-.576-1.311-1.423-3.2-3.345-.369,1.269,1.1,3.521-1.392,2.814a44.779,44.779,0,0,0,7.034,6.308c1.308.947,2.63,1.853,3.952,2.742a10.739,10.739,0,0,0,.531,1.68,4.1,4.1,0,0,0,.69-.861c.894.6,1.791,1.193,2.669,1.786.07.045.187.131.215.14h.022l-.106.131.858-1.042c.112.109.226.221.344.347.039.1.07.176.112.277,0,0,.056.008.14.025,1.174,1.61,2.4,4.094,3.731,5.989q.679,2.021,1.406,4.175.377,1.1.769,2.225l.394,1.132a1.168,1.168,0,0,1,.089.349l.042.249.182.981.1.481.014.061.006.028,0,.008v0c-1.4.59,3.449-1.442,8.585-3.588.011.081.028.165.036.249,2.426.827,2.937-.506,3.56-1.49a4,4,0,0,1,.274-.38l1.179-.492a2.877,2.877,0,0,1,1,.31,7.806,7.806,0,0,1,.81.469l.467.324c.022.006.126.112.081.036l.243.232c.19.179.38.366.777.71l.335.3a7.767,7.767,0,0,0,.64.486,8.024,8.024,0,0,0,.707.408l.419.193a6.765,6.765,0,0,0,.97.307,6.259,6.259,0,0,0,1.009.159,6.553,6.553,0,0,0,2.18-.221,6.271,6.271,0,0,0,2.057-1,6.411,6.411,0,0,0,1.613-1.736,6.008,6.008,0,0,0,.62-1.277,7.16,7.16,0,0,0,.271-1.023l.067-.472.02-.215.017-.433a7.134,7.134,0,0,0-.078-1.14ZM147.635,45.733c5.863,12.179-4.667,4.79,1.953,17.017-5.43-3.015-5.223-9.742-9.337-15.6l2.1,2.44a4.064,4.064,0,0,0-1.23-1.858c.657-2.708,4.877,4.776,6.132,2.968l-2.77-2.325c.942-.433-2.046-6.053-.307-4.919l2.107,5.036q-1.073-2.662-2-5.248a28.518,28.518,0,0,1-1.431-5.394c-.246-1.395-.422-2.772-.576-4.142.324.609.651,1.221,1.006,1.811.995,1.621,1.861,2.965,2.711,4.444,1.383,2.35,2.781,4.81,4.435,7.356-.422,1.372-.891,2.75-2.792-1.587m5.863,5.894a6.9,6.9,0,0,1-1.14-1.791c.333.321.648.651,1.014.956.117.1.249.17.366.263a.79.79,0,0,1-.24.573m.852.537a3.8,3.8,0,0,0,.031-.646c.274.2.534.408.822.592.249.159.52.282.777.43-.215.5-.414,1.014-1.629-.377m26.93,37.3s-.3-.176-.576-.383c-.034-.014-.232-.193-.433-.372-.156-.145-.293-.268-.43-.394-1.218-2.138-1.59-3.144-2.375-4.74a21.1,21.1,0,0,1,2.593,1.406c.126.084-1.6-1.395-3.236-2.652-.489-.908-1.143-2.051-2.065-3.563l.022.031a28.751,28.751,0,0,0,2.5,1.886c.632.467,1.383,1.048,2.152,1.7.394.335.769.671,1.118,1,.386.361.634.615.822.819.8.878,1.031,1.436.783,1.953.238.129.481.263.729.4.151.056.17,0,.249.017a.33.33,0,0,1,.277.123Zm12.993,4.745a10.7,10.7,0,0,1-2.532-2.4c2.607,3.588-4,1.716-3.166,3.178a42.3,42.3,0,0,1-3.9-3.485,18.081,18.081,0,0,1-1.6-1.811c-.377-.537-.777-1.109-.525-1.305a2.45,2.45,0,0,1,.171-.3l.022.008,1.157.679c.38.218.724.394,1,.528a2.914,2.914,0,0,0,1.193.374c.495-.017.469-.514.229-1.193-.444-1.35-1.9-3.465-1.249-3.784l-.045-.036a.787.787,0,0,1,.145-.453,17.451,17.451,0,0,0-1.355-1.772,43.734,43.734,0,0,0-3.06-3.222A34.135,34.135,0,0,0,177.01,75.9a.722.722,0,0,0-.31-.123l-.087.031c-.017.006-.036.011-.039.031L175.523,77l.363-.4c.053-.059.067-.075.076-.087l-.006.014.014.061a1.008,1.008,0,0,0,.12.2c.265.349.9.981,1.629,1.738a8.812,8.812,0,0,1,1.613,2.051c.215.514-.179.6-1.23.291,0,0-1.168-1.054-2.334-2.11a4.8,4.8,0,0,1-.919-.956c-.224.279-.327.464-.263.674-.062-.1-.112-.184-.176-.285l-.031.034.031-.034c.067.1.117.19.176.288a.767.767,0,0,0,.151.252c.869,1.476.931,2.149.735,2.6-.123-.084-.254-.182-.366-.254A9.092,9.092,0,0,0,173,79.758a1.316,1.316,0,0,0-.467,1.286c-.143-.162-.274-.3-.405-.436.151-.157.31-.321.472-.492-.168.173-.319.333-.472.489-1.076-1.1-1.791-1.33-3.781-3.4,5.978,2.951-2.211-8.862,5.45-1.9-2.289-5.874-1.165-5.724-4.555-10.762-1.923,2.929,1.752,6.615.282,10.821l-5.877-6.006c-.567,2.739,4.815,11.475.157,9.256-5.246-6.134-.83,5.137-5.324-3.144,4.086-1.64-3.535-14.368,1.065-14.736,1.783,3.711,3.077,6.47,4.458,5.274-5.712-8.04.908-5.061-5.114-11.455l-.584,1.719c-.794-.905-.785-1.928-1.093-3.052a17.014,17.014,0,0,0,2.141.841l-2.831-2.73c5.472,4.5,6.162,1.02,11.21,2.144,4.877,6.137.162,4.164,7.769,11.679.836,2.116-1.763.341-2.926-.95,4.625,6.576,6.347.674,10.567,8.188,2.853,3.829-1.45.847,2.023,4.458.674-.226-3.449-6.378-.892-5.922,1.023,2.988,3.493,4.131,5.466,6.112-2.675-3.569-4.293-7.906-2.932-8.334,1.207,2.286,2.512,3.9,3.966,3.806,2.264,4.058-1,4.164,2.317,9.248-5.064-3.806-3.784,2.311-5.726,2.979l-3.879-5.246c5.357,8.138,2.633,5.763,8.552,14.032a7.607,7.607,0,0,1-.827-2.325c-.235-.268-.481-.551-.76-.878.3.3.534.556.755.81-.064-2.183,6.109,4.114,8.5,3.873a20.223,20.223,0,0,1,3.8,5.69c-.718-.509-1.436-1.017-2.1-1.49s-1.409-1-1.783-1.238c-.8-.511-1.358-.8-1.322-.469a17.479,17.479,0,0,0-4.019-3.292m21.785,33.461c-.422-.405-.819-.788-1.2-1.149-.319-.293-.62-.567-.9-.827a14.432,14.432,0,0,0-1.627-1.26,5.6,5.6,0,0,0-3.024-1.028c.922-1.344-1.395-3.681-3.507-6.031s-4-4.664-1.8-5.7c-1.747.472-4.678-3.491-6.7-4.919,6.922,4.522,1.5-1.467,6.936,1.775l2.339,3.806c-2.015-3.421-.321-2.831,2.009-1.786.648,1.143,1.308,2.292,2.026,3.446q.646,1.01,1.3,2.029l1.291,1.906a6,6,0,0,1-.95-2.1,11.362,11.362,0,0,1,3.259,3.275,25.732,25.732,0,0,1,1.853,3.418l-.028-.025c-2.308-2.04-4.505-3.482-6.545-2.334,2.823,1.107,3.893,2.663,6.023,3.966,2.3,3.013-.472,2.2-.752,3.53m11.265-96.551-2-2.009-1.931-1.993c-1.789-1.842-3.572-3.56-5.332-5.187a28.067,28.067,0,0,1,4.991.338c1.269.207,2.512.489,3.764.662,1.252.21,2.51.126,3.756.254a4.793,4.793,0,0,1,1.8.495,1.982,1.982,0,0,1,1.054,1.5,12.581,12.581,0,0,1-.036,1.92,14.375,14.375,0,0,0,.165,1.9c.2,1.255.243,2.524.327,3.781l.134,1.884.207,2.166.157,1.347c-.889-.919-1.763-1.811-2.613-2.661Zm6.09,122.467a.583.583,0,0,1,.665-.1c.078.316.154.629.232.956l.084.349.067.2a10.322,10.322,0,0,1-1.048-1.4" transform="translate(205.999)" fill="#a2e3dd"/>
    <path id="Path_4211" data-name="Path 4211" d="M134.8,29.408l.087-.084-.087.084" transform="translate(241.919 52.628)" fill="#ffb49d"/>
    <path id="Path_4212" data-name="Path 4212" d="M134.962,29.313l.193-.193-.193.193" transform="translate(242.217 52.262)" fill="#ffb49d"/>
    <path id="Path_4213" data-name="Path 4213" d="M135.187,29.073l.173-.176-.173.176" transform="translate(242.62 51.861)" fill="#ffb49d"/>
    <path id="Path_4214" data-name="Path 4214" d="M136.119,30.111a.622.622,0,0,1,.316-.344,4.963,4.963,0,0,0,.425,1.439c-.268-.4-.511-.76-.741-1.1" transform="translate(244.293 53.423)" fill="#ffb49d"/>
    <path id="Path_4215" data-name="Path 4215" d="M60.579,119.542Z" transform="translate(108.721 214.542)" fill="#fcc351"/>
    <path id="Path_4216" data-name="Path 4216" d="M8.845,234.938c1.207,1.048,2.116,1.959,3.362,3.015,4.586,3.941,7.641,6.57,7.641,6.57a8.452,8.452,0,0,1-1.135-1.316,169.752,169.752,0,0,1,19.359,9.686q4.381,2.595,8.306,5.377c1.132.8,2.185,1.593,3.217,2.389L70.8,287.523l8.778,11.148c3.6,4.636,7.1,8.6,10.181,12.149,1.543,1.772,2.985,3.44,4.3,5.019l1.878,2.306L98,320.774c3.231,4.136,6.526,8.124,9.823,11.975,3.932,4.212,7.859,8.253,11.727,12.179L130.789,356.3a1.824,1.824,0,0,1,.285.154,13.316,13.316,0,0,1,1.012,1.35c.838,1.224,1.839,2.859,2.948,4.734s2.328,3.966,3.778,6.313a76.342,76.342,0,0,0,5.886,8.4,39.26,39.26,0,0,0,6.447,6.294l1.255.922c.458.319,1.068.7,1.61,1.029.559.338,1.126.662,1.7.967.634.333,1.442.7,2.177,1.009.766.319,1.49.6,2.317.872.936.288,1.892.537,2.856.741a26.915,26.915,0,0,0,6.308.57,27.985,27.985,0,0,0,6.478-.956,30.631,30.631,0,0,0,5.461-2.155,31.113,31.113,0,0,0,5.246-3.549l.165-.14.036-.036.078-.07.151-.145.3-.288,1.643-1.573,0,0,.025.011c3.007,1.277,6.037,2.429,9.063,3.474,1.515.523,3.024,1,4.533,1.548,1.5.567,3.01,1.151,4.525,1.66a58.724,58.724,0,0,0,8.912,2.325,36.716,36.716,0,0,0,15.34-.291,22.758,22.758,0,0,0,7.3-3.236,25.739,25.739,0,0,0,5.81-5.243,37.268,37.268,0,0,0,7.048-13.107,51.184,51.184,0,0,0,1.836-8.024c.439-2.775.671-5.581.942-8.3a88.93,88.93,0,0,0,.21-15.938c-.084-1.244-.2-2.4-.335-3.577-.073-.66-.131-.947-.2-1.375l-.2-1.188c-.282-1.562-.6-3.066-.975-4.488,0,0,.319-2.451.567-4.877.232-2.42.461-4.84.461-4.84q-.671-2.792-1.369-5.71c-.361-1.666-.679-3.647-1.042-5.967s-.777-4.966-1.409-7.94c-.307-1.445-.727-3.164-1.107-4.53-.388-1.409-.78-2.719-1.151-3.935-.746-2.434-1.4-4.508-1.853-6.218-.383-1.473-.847-3.563-1.255-5.542-.095-.47-.179-.97-.271-1.445l.254-.193,0,0,3.7-2.809q-2.943-4.054-5.894-8.121l-.006-.036c-.7-4.379-1.4-8.912-2.241-13.512-.425-2.311-.869-4.617-1.383-6.95-.408-1.789-.813-3.56-1.213-5.3-.565-2.4-.931-7.263-2.876-13.856a45.557,45.557,0,0,0-4.969-10.969c-.1-.425-.156-.774-.2-1.073-.031-.159-.025-.266-.048-.4l-.257-1.509a55.9,55.9,0,0,0-1.618-6.691,62.622,62.622,0,0,0-4.986-11.718,84.889,84.889,0,0,0-5.886-9.234c-.978-1.355-1.981-2.661-2.9-3.843q-1.165-1.518-2.311-3.013c-6.118-8.032-11.959-16.033-18.216-24.093-3.13-4.033-6.364-8.085-9.807-12.171q-2.578-3.064-5.341-6.148c-1.878-2.1-3.672-4.038-5.83-6.274-5.042-5.089-9.907-8.837-13.345-11.891l-1.232-1.107-.961-.928q-1.132-1.149-2.286-2.322c-1.7-1.758-3.725-3.943-6.3-6.475q-1.865-1.635-3.848-3.37c-1.093-.975-2.213-1.979-3.354-3-2.227-2.043-4.46-4.17-6.59-6.336s-4.186-4.368-6.1-6.559l-6.786-7.889A182.354,182.354,0,0,0,107.168,61.3,62.6,62.6,0,0,0,94.3,51.843c-2.205-1.749-4.413-3.412-6.6-5l-5.5-3.854c-2.837-2.04-5.86-4.567-9.2-7.227-1.671-1.327-3.424-2.689-5.265-4.027l-1.4-1-1.624-1.1c-1.079-.713-2.1-1.341-3.069-1.931-1.937-1.163-3.636-2.118-5.128-2.979-1.565-.928-3.108-1.845-4.642-2.753a36.505,36.505,0,0,0-15.631-5.3c-1.386-.159-2.786-.246-4.195-.293l-2.124-.036-1.833,0c-.827-.011-1.411-.036-1.914-.067l-.646-.059-1.174-.061c-6.263-.327-12.895-.534-20.273-.453l-.042,0a4.1,4.1,0,0,1,.039.43c.436.5.4.889-.008,1.182-.1.26-.022.458-.791.553-.573.089-1.531.064-3.289.12v96.185c.456.715.905,1.425,1.361,2.144,3.432,5.327,7.107,10.575,10.016,14.449,1.163,1.559,2.18,2.884,2.993,3.929l-.752.562c-.914.685-2.012,1.456-2.82,2.018-.372.277-.788.559-1.2.836-.961-1.213-1.92-2.42-2.823-3.608-1.012-1.336-1.967-2.652-2.9-3.957h0l.126.031-.123-.036-.011,0c-.117-.165-.249-.333-.361-.495l-1.926-2.8Q.815,126.16,0,125.117v74.42H0c.615.693,1.207,1.406,1.819,2.1-.654-.17-1.252-.33-1.822-.486v26.5c1.749,1.383,3.451,2.739,5.025,4.033,1.361,1.129,2.658,2.213,3.82,3.25m127.992,21.827c-.436-.2-.85-.419-1.274-.629l1.361-1.2c.383.249.766.509,1.143.746Zm1.652-7.068a8.79,8.79,0,0,1,1.048,1.235ZM162.274,375.83c-.022.045-.017.033-.014.025l.014-.022.011-.02-.011.017m.623-1.146.249-.458c.137-.246.271-.492.419-.763.02-.039.045-.084.064-.12q-.4.729-.732,1.341m2.177-3.854.321-.539-.321.539m.623-1.051.056-.092.022-.036c.2-.338.433-.687.674-1.048-.268.4-.523.8-.752,1.177m3.605-63.814v-.014a.845.845,0,0,1-.036-.089l-.045-.131-.061-.2c.048.145.1.279.137.405l-.028-.148.031.148v0l0,.011v.014Zm15.024,4.989c.45-.869.78-1.6,1.031-2.191.115-.285.218-.553.319-.8.07-.2.148-.422.274-.732a13.111,13.111,0,0,0,.78-2.549,18.851,18.851,0,0,0,.168-2.912,31.635,31.635,0,0,1,1.157-5.3c.749-2.859,1.895-7.2,3.063-13.923.19-1.52.4-2.993.612-4.471q6.175,7.277,11.992,14.65c.383,1.319.763,2.549,1.121,3.669.822,2.56,1.518,4.653,1.959,6.257.238.864.344,1.336.481,2s.265,1.459.4,2.348c.26,1.769.5,4,.819,6.632.159,1.311.344,2.747.576,4.276l.506,3.426c.612,4.34,1.042,8.546,1.249,12.565a11.913,11.913,0,0,1-.017,1.545c-.025.377-.067.746-.123,1.109a18.167,18.167,0,0,1-.442,2.09,1.928,1.928,0,0,1-.573.861,1.193,1.193,0,0,1-1.031.173,21.161,21.161,0,0,1-3.734-1.755c-.193-.129-3.661-2.264-5.76-3.4-2.582-1.437-4.994-2.672-7.221-3.815s-4.231-2.16-6.025-3.133c-.9-.489-1.727-.956-2.518-1.414l-.894-.539L179,317.694c.226-.184.388-.333.62-.537.347-.3.629-.6.964-.945a27.04,27.04,0,0,0,3.739-5.26m-6.176,4.712c.316-.313.559-.6.8-.892a19.536,19.536,0,0,0,1.238-1.654c1.386-1.73,1.459-1.568,1.224-.718a14.644,14.644,0,0,1-2.406,4.181l-.324.391-.562-1.28ZM156.269,175.55c5.374,6.285,10.72,12.959,16.279,19.89q2.268,2.8,4.547,5.617-.646-.461-1.294-.919c-.668-.883-1.336-1.763-1.993-2.647A205.276,205.276,0,0,0,158.613,179.4c-1.126-1.232-2.188-2.4-3.164-3.5-.52-.732-1.045-1.467-1.551-2.2Zm-22.33,53.057s1.763,1.9,3.527,3.8l3.482,3.868c-.422-1.3-1.411-3.384-.679-4.2.729-.8,3.208-.433,9.734,3.535l5.838,3.8c1.459.975,2.918,1.953,4.013,2.688L161,243.383l-4.036.419a51.037,51.037,0,0,0,6.786,2.677l2.141,2.409,1.694,1.878a79.471,79.471,0,0,1-.084,20.717c-.372,2.82-.752,5.234-1.171,7.328a50.576,50.576,0,0,1-1.654,6.338l-11.8-26.815a50.353,50.353,0,0,0-7.314-11.578c-2.3-2.75-3.82-4.343-4.6-5.329l1.179,1.529-4.268-5.534-2.216-2.837-1.364-1.722c-.229-.277-.528-.7-.816-1.017l-.989-.917-1.246-1.165Zm-5.067-1.056c-.26-.268-.523-.511-.78-.729.257.218.52.461.78.729M15.53,133.82l-.721.539-.355-.657c.226-.408.6-.307,1.076.117" transform="translate(0 28.133)" fill="#ffb49d"/>
    <path id="Path_4217" data-name="Path 4217" d="M60.579,119.543l0,.011Z" transform="translate(108.721 214.544)" fill="#fcc351"/>
    <path id="Path_4218" data-name="Path 4218" d="M144.827,22.35c-2.742.184-3.7-1.881-4.846-3.8-1.037-1.724-1.185-3.088.7-4.4a5.422,5.422,0,0,0,2.566-4.242c.193-2.568,2.035-3.147,4.206-2.362,2.965,1.073,6.64,1.671,7.071,5.615.335,3.077-6.2,8.932-9.692,9.181" transform="translate(249.868 12.975)" fill="#3d3f3c"/>
    <path id="Path_4219" data-name="Path 4219" d="M103.522,23.312c.053,3.9-2.2,7.325-4.782,7.272-4.508-.092-7.459-3.4-7.4-8.281.045-3.485,3.119-7.78,5.542-7.75,2.92.042,6.584,4.877,6.637,8.759" transform="translate(163.931 26.118)" fill="#3d3f3c"/>
    <path id="Path_4220" data-name="Path 4220" d="M16.215,93.863c.246,2.317.777,4.681-2.16,5.573-2.4.729-7-1.545-7.9-4.122A33.079,33.079,0,0,1,4.8,88.939,4.214,4.214,0,0,1,7.492,84.2a5.05,5.05,0,0,1,6.081.964c2.529,2.485,2.943,5.528,2.641,8.7" transform="translate(8.521 150.042)" fill="#3d3f3c"/>
    <path id="Path_4221" data-name="Path 4221" d="M140.279,62.191a15.113,15.113,0,0,0-1.99.472c-5.329,2.023-7,1.4-9.287-3.533-1.828-3.929-.282-7.973,3.952-10.125,1.867-.947,3.264-.008,4.536,1.358,2.113,2.267,2.378,3.253,2.789,11.827" transform="translate(230.162 87.261)" fill="#3d3f3c"/>
    <path id="Path_4222" data-name="Path 4222" d="M22.611,119.552c.442-4.664,3.158-7.624,6.6-7.182,2.982.383,5.983,4.908,5.6,8.44a6.632,6.632,0,0,1-7.283,5.561c-3.488-.534-5.268-3.007-4.907-6.819" transform="translate(40.499 201.592)" fill="#3d3f3c"/>
    <path id="Path_4223" data-name="Path 4223" d="M76.271,6.551c2.979-.162,6.7,2.7,6.922,5.321.321,3.7-3.622,8.82-7.062,9.172-2.577.265-4.731-2.342-5.022-6.076-.358-4.614,1.864-8.239,5.162-8.418" transform="translate(127.552 11.746)" fill="#3d3f3c"/>
    <path id="Path_4224" data-name="Path 4224" d="M110.175,12.649a17.741,17.741,0,0,1-.735,4.161,4.537,4.537,0,0,1-8.158.844A11.035,11.035,0,0,1,99.34,9.189c.464-2.487,2.029-4.947,4.589-5.142,2.887-.221,5.047,1.78,5.858,4.706a23.544,23.544,0,0,1,.388,3.9" transform="translate(177.953 7.233)" fill="#3d3f3c"/>
    <path id="Path_4225" data-name="Path 4225" d="M123.128,84.128c-3.4.1-5.536-1.794-5.665-5.03-.117-2.948,4-6.934,7.272-7.043,3.368-.115,7.135,2.912,7.146,5.738.014,4.363-2.454,6.148-8.753,6.336" transform="translate(210.808 129.312)" fill="#3d3f3c"/>
    <path id="Path_4226" data-name="Path 4226" d="M83.275,113.561c-.084,3.812-2.283,7.082-4.88,7.258-3.879.26-7.509-4.343-7.255-9.2.117-2.152,4.212-5.729,6.414-5.6,2.666.157,5.793,4.276,5.721,7.537" transform="translate(127.653 190.274)" fill="#3d3f3c"/>
    <path id="Path_4227" data-name="Path 4227" d="M92.353,4.945a25.1,25.1,0,0,1,4.329.573c3.275,1.012,3.982,3.138,2.079,6.162a23.331,23.331,0,0,1-2.789,3.368c-1.9,2.04-3.935,3.739-6.953,1.981-2.554-1.49-4.153-3.728-3.111-6.559C86.94,7.676,87.82,4,92.353,4.945" transform="translate(153.6 8.604)" fill="#3d3f3c"/>
    <path id="Path_4228" data-name="Path 4228" d="M156.934,36.313c2.255.2,4.318,3.669,4.133,6.962-.218,3.915-3.007,7.657-5.609,7.518-3.147-.17-7.409-4.53-7.171-7.342.179-2.09,6.523-7.328,8.647-7.138" transform="translate(266.114 65.162)" fill="#3d3f3c"/>
    <path id="Path_4229" data-name="Path 4229" d="M142.617,97.717a7.555,7.555,0,0,1-1.364,4.835c-1.263,1.839-2.568,4.1-4.938,3.848-2.236-.235-3.555-2.445-4.508-4.452-1.777-3.737,1.028-9.656,4.963-10.676,3.334-.864,5.852,1.909,5.846,6.445" transform="translate(235.576 163.526)" fill="#3d3f3c"/>
    <path id="Path_4230" data-name="Path 4230" d="M150.051,175.386c.129-3.158,4.17-7.532,7.051-7.713a5.328,5.328,0,0,1,2.739.718c2.974,1.652,3.337,4.572,1.249,9.03-1.878,4-5.1,5.964-7.99,4.645-3-1.369-2.317-4.516-3.049-6.679" transform="translate(269.297 300.912)" fill="#3d3f3c"/>
    <path id="Path_4231" data-name="Path 4231" d="M137.343,45.477c.126,2.767-.808,4.955-3.77,5.369-2.11.3-9.024-6-8.954-7.822.115-2.918,4.67-7.825,7.082-7.627,3.164.257,5.788,4.944,5.643,10.08" transform="translate(223.652 63.516)" fill="#3d3f3c"/>
    <path id="Path_4232" data-name="Path 4232" d="M170.474,51.041c.081,3.689-3.5,8.535-6.5,8.8-1.551.137-7.249-3.887-7.261-5.128-.025-2.532,5.466-8.708,7.806-8.781,3.261-.1,5.888,2.155,5.953,5.109" transform="translate(281.258 82.429)" fill="#3d3f3c"/>
    <path id="Path_4233" data-name="Path 4233" d="M115.8,77.458c2.166-.089,5.1,3.373,5.232,6.182.117,2.5-3.683,7.333-5.983,7.61-2.9.347-6.738-3.166-6.791-6.213-.064-3.781,3.549-7.414,7.543-7.579" transform="translate(194.28 139.011)" fill="#3d3f3c"/>
    <path id="Path_4234" data-name="Path 4234" d="M8.383,50.09c4.712-.025,6.428,2.158,6.559,8.348.061,2.976-3.569,6.123-6.869,5.953-2.44-.129-4.768-2.884-4.757-5.637C3.338,52.446,4.7,50.11,8.383,50.09" transform="translate(5.951 89.896)" fill="#3d3f3c"/>
    <path id="Path_4235" data-name="Path 4235" d="M97.928,57.9c-.344,3.317-6.327,7.635-9.228,7-3.013-.665-4.622-6.277-2.512-9.158,1.618-2.211,4.089-3.479,6.436-4.667,2.04-1.031,3.9.137,4.653,2.158a19.725,19.725,0,0,1,.651,4.673" transform="translate(152.96 90.976)" fill="#3d3f3c"/>
    <path id="Path_4236" data-name="Path 4236" d="M130.455,17.468c-4.237-.008-5.654-1.14-5.777-4.614-.159-4.592,3.1-8.331,7.291-8.351,2.99-.011,5.257,2.482,5.237,5.763-.031,5.131-1.984,7.213-6.752,7.2" transform="translate(223.751 8.082)" fill="#3d3f3c"/>
    <path id="Path_4237" data-name="Path 4237" d="M103.383,173.231c-1.724-.263-3.521-.38-4.614-1.926-1.45-2.057.534-2.918,1.5-4.226.844-1.149,1.221-2.63,1.956-3.876,2.074-3.527,4.321-4.105,7.853-2.118,2.876,1.613,3.247,3.9,1.054,7.448-1.766,2.865-4.256,4.664-7.744,4.7" transform="translate(176.339 287.067)" fill="#3d3f3c"/>
    <path id="Path_4238" data-name="Path 4238" d="M42.716,155.617c-.386-5.754-4.407-7.213-6.671-11.025a14.223,14.223,0,0,1,9.306,7.521c1.856,3.4,1.1,6.674-1.749,8.3-2.694,1.537-7.467.539-9.2-1.931a5.894,5.894,0,0,1-.755-1.255c-.858-2.3-1.836-5.165.492-6.587,2.035-1.241,4.709-.442,6.134,2.155a25.979,25.979,0,0,0,2.445,2.823" transform="translate(58.667 259.5)" fill="#3d3f3c"/>
    <path id="Path_4239" data-name="Path 4239" d="M130.919,21.767c-.162.85-.3,1.579-.439,2.3q-2.071,10.6-10.885,4.36c-1.842-1.294-1.752-1.872.679-4.156a4.945,4.945,0,0,0,1.221-4.089c-.212-3.941,2.314-3.728,4.846-3.457,3.574.386,4.824,1.884,4.578,5.039" transform="translate(212.346 29.792)" fill="#3d3f3c"/>
    <path id="Path_4240" data-name="Path 4240" d="M95.974,61.7c4.125-.123,5.738,1.448,5.833,5.684.075,3.292-3.01,7.367-5.746,7.588-2.786.229-6.422-3.566-6.607-6.889-.182-3.247,2.912-6.274,6.52-6.383" transform="translate(160.529 110.723)" fill="#3d3f3c"/>
    <path id="Path_4241" data-name="Path 4241" d="M115.869,18.286c-3.13-.232-5.732-3.915-5.385-7.618.279-2.974,4.39-5.858,8.334-5.57,2.356.17,4.2,1.191,4.05,4.108-.235,4.536-3.865,9.312-7,9.08" transform="translate(198.23 9.113)" fill="#3d3f3c"/>
    <path id="Path_4242" data-name="Path 4242" d="M132.237,27.625c.017-3.907,2.817-7.906,5.366-7.655,2.7.266,6.626,4.547,6.528,7.121-.117,3.116-4.259,7.09-7.409,7.107-2.5.014-4.5-2.926-4.485-6.573" transform="translate(237.326 35.82)" fill="#3d3f3c"/>
    <path id="Path_4243" data-name="Path 4243" d="M114.812,48.97c2.2-.358,7.358,4.935,4.382-2.549-.419-1.056.724-1.685,1.708-1.987,2.784-.852,6.531.615,7.736,3.007,1.165,2.322.249,6.6-1.914,8.116a5.627,5.627,0,0,1-7.5-.377c-1.7-1.61-3.924-3.08-4.413-6.21" transform="translate(206.053 79.307)" fill="#3d3f3c"/>
    <path id="Path_4244" data-name="Path 4244" d="M67.794,18.45a5.272,5.272,0,0,1,5.234,5.81c-.148,2.926-4.3,6.755-7.56,6.973-2.806.187-4.614-3.091-4.4-7.968.157-3.488,2.163-4.927,6.721-4.815" transform="translate(109.575 33.101)" fill="#3d3f3c"/>
    <path id="Path_4245" data-name="Path 4245" d="M68.086,47.57c-4.063-.025-5.584-1.889-5.447-6.679.117-4.077,2.2-6.492,5.4-6.263,2.426.173,5.936,3.994,6.081,6.621a5.973,5.973,0,0,1-6.039,6.322" transform="translate(112.404 62.119)" fill="#3d3f3c"/>
    <path id="Path_4246" data-name="Path 4246" d="M65.769,182.682c-2.032-.358-4.712.352-4.871-3.041-.246-5.265,2.627-9.619,6.551-9.888,3.25-.221,5.508,1.956,5.564,5.36a7.055,7.055,0,0,1-7.244,7.568" transform="translate(109.266 304.63)" fill="#3d3f3c"/>
    <path id="Path_4247" data-name="Path 4247" d="M141.534,83.854c-.405,4.8-2.074,7.219-4.863,7.065-3.287-.179-6.57-4.88-6.157-8.817.355-3.4,2.714-5.327,5.995-4.9,3.86.5,5.377,2.507,5.025,6.657" transform="translate(234.171 138.442)" fill="#3d3f3c"/>
    <path id="Path_4248" data-name="Path 4248" d="M173.29,10.08c.073,2.677-4.234,7.448-6.981,7.73-2.454.249-5.03-2.37-5.075-5.165-.056-3.25,3.586-7.4,6.677-7.613,2.423-.165,5.31,2.546,5.38,5.047" transform="translate(289.365 9.019)" fill="#3d3f3c"/>
    <path id="Path_4249" data-name="Path 4249" d="M167.611,87.917a31.293,31.293,0,0,1-.671,3.1c-.8,2.624-2.023,5.48-4.751,6.011-2.848.553-3.9-2.5-4.782-4.614-1.151-2.761-1.529-5.7,1.537-7.8,1.931-1.322,3.546-3.65,6.378-2.211,2.049,1.04,2.107,3.085,2.289,5.517" transform="translate(280.986 147.07)" fill="#3d3f3c"/>
    <path id="Path_4250" data-name="Path 4250" d="M143.75,45.481c-2.437-.014-8.04-6.4-7.884-8.373.157-1.92,3.555-5.634,5.279-5.377,1.632.243,3.7.648,4.645,1.769,1.909,2.272,1.2,5.581,2.806,8.44,1.291,2.294-3.929,1.579-4.846,3.541" transform="translate(243.833 56.925)" fill="#3d3f3c"/>
    <path id="Path_4251" data-name="Path 4251" d="M143.974,170.841c2.99-.45,4.986.687,5.019,4.273.034,3.893-3.2,8.5-5.793,8.247-1.386-.137-6.512-6.883-6.447-8.488.087-2.188,3.194-4,7.222-4.033" transform="translate(245.429 306.441)" fill="#3d3f3c"/>
    <path id="Path_4252" data-name="Path 4252" d="M51.148,141.727c-.039,4.268-1.325,5.274-6.688,5.246-3.091-.017-6.366-3.194-6.14-5.955.285-3.485,3.046-5.441,7.523-5.327,4.321.112,5.349,1.283,5.3,6.037" transform="translate(68.753 243.515)" fill="#3d3f3c"/>
    <path id="Path_4253" data-name="Path 4253" d="M35.261,103.65c-.075,2.694-6.478,9.382-9.27,9.5a3.784,3.784,0,0,1-4.105-3.315c-.878-3.96,1.073-6.28,6.106-7.227.824-.154.914-.685,1.207-1.336,1.09-2.42,2.92-.777,4.374-.514,1.417.257,1.52,1.688,1.688,2.9" transform="translate(38.913 179.409)" fill="#3d3f3c"/>
    <path id="Path_4254" data-name="Path 4254" d="M141.188,72.891c-.176-3.569,1.814-5.732,4.133-7.576,1.065-.847,2.308-.179,3.337.573a6.659,6.659,0,0,1,2.6,7.775c-.8,2.784-1.641,5.891-5.31,6.129-2.688.173-4.8-3.192-4.757-6.9" transform="translate(253.371 116.512)" fill="#3d3f3c"/>
    <path id="Path_4255" data-name="Path 4255" d="M128.114,36.12c-.067,2.728-4.036,6.911-6.674,7.031-2.482.115-5.3-2.543-5.321-5.008-.025-4.351,3.328-8.44,6.738-8.214,2.633.176,5.327,3.345,5.257,6.19" transform="translate(208.399 53.699)" fill="#3d3f3c"/>
    <path id="Path_4256" data-name="Path 4256" d="M134.576,65.2c4.041-1.327,5.492.279,5.919,3.166.576,3.885-1.311,6.928-4.357,7.258-3.773.408-8.538-2.99-8.474-6.512.106-5.581,5.17-2.778,6.911-3.913" transform="translate(229.118 116.171)" fill="#3d3f3c"/>
    <path id="Path_4257" data-name="Path 4257" d="M59.788,167.472c.232-4.8,2.909-8.747,5.57-8.784,3-.039,5.444,3.052,5.246,6.623-.235,4.226-2.971,6.861-7.068,6.688-3.342-.143-3.586-2.63-3.748-4.527" transform="translate(107.302 284.797)" fill="#3d3f3c"/>
    <path id="Path_4258" data-name="Path 4258" d="M104.528,23.221c-.291-1.786,1.9-3.887,4.05-5.056,2.322-1.263,4.614.6,6.319,2.479,2.1,2.325.95,4.522-.358,6.685a12.048,12.048,0,0,1-1.185,1.85c-1.428,1.6-2.616,3.82-5.31,3.077-2.294-.634-2.269-2.985-2.962-4.726-.349-.875-.271-1.92-.553-4.309" transform="translate(187.549 31.859)" fill="#3d3f3c"/>
    <path id="Path_4259" data-name="Path 4259" d="M158.13,30.611c-.084,3.588-3.027,7.224-5.777,7.451-3.323.277-4.832-2.071-5.911-4.659-.922-2.205-.6-3.974,2.381-3.91,2.82.059,3.312-1.218,2.546-3.737a2.424,2.424,0,0,1,1.6-2.988c1.752-.559,2.887.674,3.432,2.032a53.61,53.61,0,0,1,1.724,5.81" transform="translate(262 40.615)" fill="#3d3f3c"/>
    <path id="Path_4260" data-name="Path 4260" d="M95.513,146.81a7.981,7.981,0,0,1-2.845-.059c-2.655-.813-5.293-2.074-5.044-5.427.235-3.127,2.63-4.65,5.427-5.232,3.742-.78,8.963,4.575,8.32,8.342-.347,2.032-1.607,2.638-5.858,2.376" transform="translate(157.229 244.108)" fill="#3d3f3c"/>
    <path id="Path_4261" data-name="Path 4261" d="M56.764,174.938c3.882.087,6.176,1.945,6.014,4.86-.165,2.879-4.2,6.883-6.769,6.716-2.663-.176-5.922-3.748-6.014-6.593-.1-3.063,2.635-5.075,6.769-4.983" transform="translate(89.723 313.956)" fill="#3d3f3c"/>
    <path id="Path_4262" data-name="Path 4262" d="M80.852,169.982c.048,4.234-1.554,6.143-5.165,6.154-3.516.011-6.051-2.387-5.67-6.134.238-2.348-.525-5.874,3.541-6.19,4.214-.327,7.249,2.3,7.294,6.171" transform="translate(125.592 293.944)" fill="#3d3f3c"/>
    <path id="Path_4263" data-name="Path 4263" d="M111.835,91.707c2.879.246,6.271,4.237,6.185,7.277-.089,3-3.96,7.208-6.467,7.029-2.742-.2-4.927-3.63-4.606-7.233.386-4.287,2.454-7.28,4.888-7.073" transform="translate(191.882 164.568)" fill="#3d3f3c"/>
    <path id="Path_4264" data-name="Path 4264" d="M168.637,63.285a12.179,12.179,0,0,1-1.878,5.545c-1.409,2.018-2.873,4.494-5.807,3.368-2.571-.987-3.281-3.644-3.172-6.157.157-3.479,2.336-5.914,5.293-7.378,2.9-1.431,5.645.989,5.564,4.622" transform="translate(283.149 104.532)" fill="#3d3f3c"/>
    <path id="Path_4265" data-name="Path 4265" d="M152.193,93.871a17.627,17.627,0,0,1-.5,2.364c-1.21,3.675-3.843,5.9-6.067,5.2-2.714-.847-4.421-5.52-3.485-8.77.746-2.58,4.748-2.479,4.491-5.872-.045-.612,1.182-.126,1.761.154,2.915,1.406,3.971,3.206,3.8,6.922" transform="translate(254.635 155.241)" fill="#3d3f3c"/>
    <path id="Path_4266" data-name="Path 4266" d="M34.886,106.5c3.572-.092,6.344,2.194,6.542,5.388.2,3.264-3.432,7.49-6.537,7.593-2.261.078-4.3-2.571-4.441-5.774-.154-3.468,2.11-7.149,4.435-7.208" transform="translate(54.637 191.129)" fill="#3d3f3c"/>
    <path id="Path_4267" data-name="Path 4267" d="M13.465,105.7c4.223-.075,6.928,2.043,8.954,4.927,2.443,3.479.676,5.844-3.711,6.548-3.326.534-5.888.039-7.655-2.672-.64-.978-3.292-3.748,1.6-3.136,1.758.221-.165-3.368.813-5.668" transform="translate(17.517 189.693)" fill="#3d3f3c"/>
    <path id="Path_4268" data-name="Path 4268" d="M114.27,71.24c.291,2.015-4.008,7.085-6.282,7.409a5.69,5.69,0,0,1-6.369-4.843c-.422-2.493,2-7.051,3.818-7.174,2.068-.14,8.644,3.289,8.834,4.608" transform="translate(182.287 119.577)" fill="#3d3f3c"/>
    <path id="Path_4269" data-name="Path 4269" d="M62.038,146.716c-.439,4.178-2.434,5.972-6.092,5.489-3.583-.475-5.911-2.817-5.52-5.556.411-2.884,5.153-7.135,7.512-6.732,2.789.475,4.472,3.267,4.1,6.8" transform="translate(90.424 251.06)" fill="#3d3f3c"/>
    <path id="Path_4270" data-name="Path 4270" d="M133.092,92.95c-.028,3.116-2.485,6.025-5.131,6.078-3.913.075-7.289-3.133-7.124-6.772a5.185,5.185,0,0,1,5.114-4.975c3.968-.075,7.171,2.462,7.14,5.668" transform="translate(216.855 156.642)" fill="#3d3f3c"/>
    <path id="Path_4271" data-name="Path 4271" d="M85.473,179.224a5.791,5.791,0,0,1-6-5.961c-.02-2.205,4.125-5.668,6.721-5.612s5.573,3.15,5.67,5.916c.112,3.217-2.476,5.506-6.391,5.656" transform="translate(142.63 300.883)" fill="#3d3f3c"/>
    <path id="Path_4272" data-name="Path 4272" d="M18.415,120.337c2.8-.131,6.635,4.024,6.892,7.462.226,3.1-1.747,5.427-4.586,5.4-3.533-.036-6.889-2.613-6.928-5.318-.034-2.331,3.119-7.473,4.622-7.543" transform="translate(24.752 215.964)" fill="#3d3f3c"/>
    <path id="Path_4273" data-name="Path 4273" d="M80.924,45.11c.1-3.152.293-5.995,3.8-6.489,2.621-.369,7.054,3.013,7.157,5.092.165,3.278-5.067,9.379-7.772,8.566-3.669-1.1-2.093-4.991-3.18-7.168" transform="translate(145.234 69.263)" fill="#3d3f3c"/>
    <path id="Path_4274" data-name="Path 4274" d="M110.145,54.677c-1.847-.087-3.552-.383-4.46-2.124a4.174,4.174,0,0,1,1.087-5.3,17.19,17.19,0,0,1,4.265-2.728c2.007-.936,4.22-3.387,6.171.081,1.61,2.867,1.529,5.559-1.037,7.957-1.749,1.629-3.955,1.749-6.025,2.118" transform="translate(188.726 76.82)" fill="#3d3f3c"/>
    <path id="Path_4275" data-name="Path 4275" d="M101.915,172.168c.1,4.963-2.574,8.1-6.336,8.035a4.754,4.754,0,0,1-4.989-5.047c.123-2.764,5.151-9.119,6.939-8.49a6.28,6.28,0,0,1,4.385,5.5" transform="translate(162.573 299.036)" fill="#3d3f3c"/>
    <path id="Path_4276" data-name="Path 4276" d="M77.044,35.9c-2.638.115-5.81-2.853-5.874-5.5C71.1,27.285,74.277,24.389,78.1,24.1c3.356-.254,5.095,1.339,5.075,4.656-.017,3.356-3.158,7.02-6.129,7.149" transform="translate(127.726 43.198)" fill="#3d3f3c"/>
    <path id="Path_4277" data-name="Path 4277" d="M75.431,140.224c.017,4.458-2.166,7.982-4.857,7.842-3.393-.179-7.308-2.873-7.258-4.994.081-3.314,3.946-6.716,7.663-6.741,2.585-.02,4.444,1.607,4.452,3.893" transform="translate(113.633 244.673)" fill="#3d3f3c"/>
    <path id="Path_4278" data-name="Path 4278" d="M45.946,128.414c-.2,3.275-4.318,8-6.663,7.649-1.649-.252-6.855-6.646-6.635-8.149.19-1.294,6.612-5.039,8.5-4.955a5.2,5.2,0,0,1,4.8,5.455m-4.536.456a1.874,1.874,0,0,0,.394-2.588c-.534-.794-1.079-2.225-2.571-1.065a7.458,7.458,0,0,0,2.177,3.653" transform="translate(58.582 220.672)" fill="#3d3f3c"/>
    <path id="Path_4279" data-name="Path 4279" d="M150.083,138.017c-2.322-.537-3.384-2.423-3.784-4.662-.7-3.876,2.638-8.532,6.512-9.2a3.07,3.07,0,0,1,2,.408c2.384,1.529,2.87,3.725,2.051,6.358-1.09,3.507-4.525,7.261-6.777,7.1" transform="translate(262.398 222.763)" fill="#3d3f3c"/>
    <path id="Path_4280" data-name="Path 4280" d="M94.538,105.091c2.82-.081,5.83,3.06,5.986,6.249.176,3.524-2.856,6.987-6.118,6.836-3.345-.154-4.558-2.482-4.818-5.369-.372-4.083,2-7.63,4.949-7.716" transform="translate(160.716 188.604)" fill="#3d3f3c"/>
    <path id="Path_4281" data-name="Path 4281" d="M15.877,153.26c.07,3.055-2.607,6.484-4.991,6.391-2.56-.1-6.411-4.17-6.744-7.127-.238-2.107,3.907-5,7.054-4.916,2.5.064,4.611,2.61,4.681,5.651" transform="translate(7.417 264.911)" fill="#3d3f3c"/>
    <path id="Path_4282" data-name="Path 4282" d="M123.909,124.412c3.79.034,5.715,1.85,5.514,5.2-.173,2.831-3.692,6.433-6.2,6.341-2.719-.1-5.508-3.834-5.7-7.638-.145-2.873,1.61-3.946,6.38-3.9" transform="translate(210.913 223.28)" fill="#3d3f3c"/>
    <path id="Path_4283" data-name="Path 4283" d="M98.726,27.288a5.653,5.653,0,0,1,5.956,6.017c-.07,3.39-2.982,6.545-5.894,6.391-2.54-.137-5.064-3.331-5.039-6.38.028-3.686,1.942-6,4.977-6.028" transform="translate(168.251 48.974)" fill="#3d3f3c"/>
    <path id="Path_4284" data-name="Path 4284" d="M107.744,57.544c-.168,3.859-2.04,6-5.173,5.9-3.2-.1-6.341-3.851-6-7.163.358-3.421,2.49-5.313,5.925-5.254,3.5.061,5.425,2.454,5.246,6.517" transform="translate(173.274 91.576)" fill="#3d3f3c"/>
    <path id="Path_4285" data-name="Path 4285" d="M24.693,139.667c-1.61-.017-4.083-4.371-3.968-6.99.12-2.809,2.5-5.433,4.787-5.285,3.569.229,6.788,2.831,6.721,5.436-.075,3.083-4.251,6.872-7.54,6.839" transform="translate(37.187 228.621)" fill="#3d3f3c"/>
    <path id="Path_4286" data-name="Path 4286" d="M123.043,172.426c-.193-2.188.9-3.845,2.062-5.43,1.615-2.205,3.952-1.831,5.978-1.065,1.7.643,2.35,2.381,1.948,4.256a23.077,23.077,0,0,0-.928,3.507c-.073,1.582,1.7,3.851-.363,4.578-2.518.883-5.346-.3-7.523-1.761-.9-.6-.81-2.68-1.174-4.086" transform="translate(220.786 296.726)" fill="#3d3f3c"/>
    <path id="Path_4287" data-name="Path 4287" d="M46.9,149.013c4.793-.24,8.351,2.124,8.529,5.114.19,3.2-3.837,7.54-7.062,7.154-3.407-.408-4.091-3.653-3.954-6.081.12-2.16-.838-5.8,2.487-6.187" transform="translate(79.633 267.403)" fill="#3d3f3c"/>
    <path id="Path_4288" data-name="Path 4288" d="M46.725,14.253c-.249.978-.279,1.224-.372,1.442-.911,2.13-9.069,5.262-11.145,4.287-3.474-1.629-3.72-3.683-1.613-7.769,1.5-2.9,4.008-2.831,6.21-2.253,2.744.718,3.055,5.187,6.92,4.293" transform="translate(57.88 17.302)" fill="#3d3f3c"/>
    <path id="Path_4289" data-name="Path 4289" d="M65.825,18.151a5,5,0,0,1-4.882-5.385c.073-3.485,3.6-6.243,7.892-6.21,2.244.017,3.915.794,4.147,3.256.3,3.214-4.1,8.267-7.157,8.339" transform="translate(109.372 11.766)" fill="#3d3f3c"/>
    <path id="Path_4290" data-name="Path 4290" d="M103.092,83.277c2.655-.056,4.69,2.2,4.662,5.162-.025,2.795-2.574,6.836-4.455,7.068-1.733.212-6.671-4.7-6.755-6.724-.145-3.527,2.1-5.416,6.548-5.506" transform="translate(173.256 149.455)" fill="#3d3f3c"/>
    <path id="Path_4291" data-name="Path 4291" d="M175.276,133.874a21.985,21.985,0,0,1-1.093,4.214c-.783,1.772-1.99,3.714-4.323,3.083-2.04-.553-4.228-1.322-4.963-3.818-.7-2.376,2.708-9.122,5.039-9.863,2.289-.729,5.221,2.384,5.341,6.383" transform="translate(295.774 228.616)" fill="#3d3f3c"/>
    <path id="Path_4292" data-name="Path 4292" d="M143.941,52.3c.131-2.538-.207-5.1,2.563-6.464,2.887-1.414,7.694-.7,8.666,1.545,1.375,3.169-.889,4.941-2.99,6.663a7.9,7.9,0,0,1-1.811,1.227c-1.668.718-2.658,3.482-4.866,2.25-1.926-1.076-1.423-3.437-1.562-5.221" transform="translate(258.331 80.95)" fill="#3d3f3c"/>
    <path id="Path_4293" data-name="Path 4293" d="M54.121,42.536c-.268,4.65-4.351,8.856-7.688,8.334-2.507-.394-4.745-1.64-4.812-4.692-.075-3.521,4.15-6.895,8.258-6.716,2.512.112,4.281,1.012,4.242,3.074" transform="translate(74.695 70.809)" fill="#3d3f3c"/>
    <path id="Path_4294" data-name="Path 4294" d="M63.741,70.011c2.493-.159,4.852,2.163,5.176,5.092.344,3.1-3.211,8.513-5.729,8.256-2.7-.277-4.29-2.25-4.6-4.913-.422-3.65,2.512-8.264,5.151-8.434" transform="translate(105.079 125.635)" fill="#3d3f3c"/>
    <path id="Path_4295" data-name="Path 4295" d="M125.754,107.912c.062-3.577,2.669-6.419,5.67-6.179,2.4.193,4.991,3.144,4.846,5.52-.21,3.4-4.058,7.733-6.816,7.68-2.289-.045-3.77-2.859-3.7-7.02" transform="translate(225.686 182.555)" fill="#3d3f3c"/>
    <path id="Path_4296" data-name="Path 4296" d="M160.917,120.64c.02-3.921,1.518-5.514,5.086-5.413,2.705.075,6.322,2.962,6.394,5.1.092,2.722-3.3,5.746-6.436,5.738-3.723-.011-5.061-1.453-5.044-5.427" transform="translate(288.798 206.79)" fill="#3d3f3c"/>
    <path id="Path_4297" data-name="Path 4297" d="M138.9,154.859c0,2.853-3.08,6.85-5.4,7.017-2.37.171-5.251-3.809-5.095-7.037.159-3.267,2.6-6.028,5.226-5.9a5.8,5.8,0,0,1,5.274,5.916" transform="translate(230.429 267.3)" fill="#3d3f3c"/>
    <path id="Path_4298" data-name="Path 4298" d="M110.1,42.573c-3.446.053-6.562-2-6.811-4.5-.277-2.775,3.767-7.174,6.439-7,2.454.159,5.218,3.015,5.173,5.346-.073,3.949-1.755,6.1-4.8,6.151" transform="translate(185.341 55.762)" fill="#3d3f3c"/>
    <path id="Path_4299" data-name="Path 4299" d="M45.845,54.593c-.064,1.2.151,4.24-3.9,3.971-4.184-.277-7.585-2.493-7.336-4.522.324-2.633,4.86-7.04,7.3-7.1,3.192-.073,4.145,1.4,3.938,7.646" transform="translate(62.087 84.251)" fill="#3d3f3c"/>
    <path id="Path_4300" data-name="Path 4300" d="M111.678,179.206c2.233-.059,4.712,2.711,4.935,5.514.221,2.756-3.655,7.191-6.3,7.2-2.18.008-4.838-3.094-4.843-5.654-.008-3.709,2.865-6.976,6.207-7.062" transform="translate(189.289 321.619)" fill="#3d3f3c"/>
    <path id="Path_4301" data-name="Path 4301" d="M40.6,165.44c2.507-.207,5.953,2.552,6.327,5.067a6.255,6.255,0,0,1-5.754,7.012c-3.122.148-5.212-1.7-5.3-4.687-.084-2.943,2.652-7.222,4.726-7.392" transform="translate(64.378 296.896)" fill="#3d3f3c"/>
    <path id="Path_4302" data-name="Path 4302" d="M54.9,14.413c-2.3.229-4.351-2.163-4.717-5.506-.307-2.82,2.289-6.092,4.874-6.143,2.557-.05,5.763,2.9,5.9,5.43C61.1,11,58.092,14.1,54.9,14.413" transform="translate(90.024 4.96)" fill="#3d3f3c"/>
    <path id="Path_4303" data-name="Path 4303" d="M161.514,14.545c-.117,3.667-3.175,7.093-6.221,6.964-2.465-.1-4.692-2.811-4.684-5.693.011-2.725,3.387-6.378,6-6.495,2.593-.115,4.991,2.437,4.9,5.223" transform="translate(270.298 16.722)" fill="#3d3f3c"/>
    <path id="Path_4304" data-name="Path 4304" d="M8.89,73.012c1.926.355,5.271-.249,5.221,3.8-.042,3.175-3.25,6.551-5.782,6.573-3.457.031-6.841-2.266-6.643-4.505.179-2.009,4.564-5.93,7.2-5.869" transform="translate(3.01 131.034)" fill="#3d3f3c"/>
    <path id="Path_4305" data-name="Path 4305" d="M91.7,20.149c.179,2.387-4.086,6.537-6.911,6.721-2.518.165-4.807-2.244-4.723-5.388.073-2.675.187-5.609,3.98-5.883,3.057-.224,7.5,2.423,7.655,4.55" transform="translate(143.693 27.973)" fill="#3d3f3c"/>
    <path id="Path_4306" data-name="Path 4306" d="M163.235,41.553c-2.711-.319-6.559-5.659-6.006-8.334.453-2.185,6-5.48,8.225-4.818,1.635.486,2.146,1.856,2.387,3.384.539,3.426-2.054,5.9-2.764,8.951a1.438,1.438,0,0,1-1.842.816" transform="translate(282.084 50.817)" fill="#3d3f3c"/>
    <path id="Path_4307" data-name="Path 4307" d="M43.594,172.773c.374-1.14-.168-2.853,1.836-3.435a5.05,5.05,0,0,1,5.45,1.168c1.562,1.593,3.147,3.289,2.127,5.8a16.946,16.946,0,0,1-2.062,3.915c-2.124,2.792-4.648,2.443-6.173-.833a11.325,11.325,0,0,1-1.177-6.618" transform="translate(78.045 303.349)" fill="#3d3f3c"/>
    <path id="Path_4308" data-name="Path 4308" d="M152.021,111.757c1.951.456,5.12-.483,5.24,3.233.092,2.747-4.48,7.783-6.872,7.957-2.443.173-5.3-3.8-5.05-7.029.238-3.147,1.948-4.256,6.682-4.161" transform="translate(260.813 200.56)" fill="#3d3f3c"/>
    <path id="Path_4309" data-name="Path 4309" d="M154.371,133.58c-1.822-1.685-.763-3.8-.961-5.682a6.247,6.247,0,0,1,7.467-6.948c1.858.442,3.035,1.59,2.675,3.734-.886,5.248-3.848,8.323-9.181,8.9" transform="translate(275.094 216.778)" fill="#3d3f3c"/>
    <path id="Path_4310" data-name="Path 4310" d="M147.081,85.142c-.045-4.382,2.448-7.825,5.9-7.984,2.431-.115,4.48.629,4.773,3.426.31,2.946-4.6,9.021-7.364,9.326-1.861.207-3.275-1.833-3.306-4.768" transform="translate(263.966 138.454)" fill="#3d3f3c"/>
    <path id="Path_4311" data-name="Path 4311" d="M165.024,17.139c1.895.5,3.616,1.319,3.552,3.767-.1,3.706-4.7,8.778-7.753,8.412-2.582-.313-3.762-2.082-3.63-4.594.168-3.214,4.916-7.8,7.831-7.585" transform="translate(282.097 30.746)" fill="#3d3f3c"/>
    <path id="Path_4312" data-name="Path 4312" d="M118.61,61.16c-.006,1.713.112,3.614-1.026,4.9-1.518,1.724-3.119,4.181-6.011,2.616-2.638-1.428-3.918-6.062-2.334-8.186a10.062,10.062,0,0,1,3.259-2.778c1.392-.735,2.378-2.7,4.444-1.78,1.3.581,1.71,1.872,1.668,5.223" transform="translate(194.808 99.958)" fill="#3d3f3c"/>
    <path id="Path_4313" data-name="Path 4313" d="M166.843,75.424c.134,2.926-3.144,7.473-5.623,7.8-2.054.271-4.293-2.152-4.48-4.854-.263-3.728,2.283-7.856,4.938-8.007a5.253,5.253,0,0,1,5.165,5.064" transform="translate(281.268 126.264)" fill="#3d3f3c"/>
    <path id="Path_4314" data-name="Path 4314" d="M173.1,123.232c-3.541-.123-5.371-1.688-5.3-4.533.081-3.519,3.792-7.177,7.085-6.936,2.479.184,3.222,1.66,3.035,3.991-.553,6.92-.961,7.613-4.815,7.479" transform="translate(301.144 200.56)" fill="#3d3f3c"/>
    <path id="Path_4315" data-name="Path 4315" d="M96.985,82.427c-.157,3.714-2.6,6.059-6.025,5.771-2.937-.246-4.335-1.981-4.416-4.793-.073-2.529,4-7.705,5.777-7.5,2.473.282,4.79,3.527,4.664,6.526" transform="translate(155.318 136.211)" fill="#3d3f3c"/>
    <path id="Path_4316" data-name="Path 4316" d="M153.943,180.37a6.393,6.393,0,0,0-5.768,5.665,7,7,0,0,0,2.742,5.726c1.94-1.436,3.9-2.831,5.922-4.147.651-.78,1.263-1.593,1.909-2.381-.3-2.529-2.54-4.882-4.8-4.863" transform="translate(265.916 323.71)" fill="#3d3f3c"/>
    <path id="Path_4317" data-name="Path 4317" d="M105.512,47.11c.1,2.348-2.487,5.285-4.952,5.626-2.4.333-5.589-3.178-5.863-6.5-.252-3.08,1.3-4.541,4.29-4.65,3.574-.134,6.391,2.253,6.526,5.525" transform="translate(169.904 74.622)" fill="#3d3f3c"/>
    <path id="Path_4318" data-name="Path 4318" d="M118.305,64.346c.193-2.311.045-4.709,2.5-5.813,2.269-1.023,4.284-.285,6.006,1.378,1.858,1.8,1.629,3.907.883,6.1-.967,2.845-3.225,4.919-5.891,4.642-3.306-.347-3.189-3.781-3.493-6.3" transform="translate(212.322 104.208)" fill="#3d3f3c"/>
    <path id="Path_4319" data-name="Path 4319" d="M108.443,160.894c-.123-2.306,1.529-3.843,3.1-5.436s3.183-.755,4.787-.156a3.249,3.249,0,0,1,2.241,3.4c.053,3.555-2.954,7.521-6.347,8.091-2.6.436-4.237-2.009-3.778-5.894" transform="translate(194.486 277.36)" fill="#3d3f3c"/>
    <path id="Path_4320" data-name="Path 4320" d="M120.695,120.158c.257-6.386,2.635-8.432,7.266-6.313,2.976,1.364,3.711,4,1.652,6.612a12.546,12.546,0,0,1-3.342,2.873c-1.364.824-2.63,2.736-4.536,1.423-1.618-1.118-1.7-2.87-1.04-4.595" transform="translate(215.911 202.873)" fill="#3d3f3c"/>
    <path id="Path_4321" data-name="Path 4321" d="M90.7,32.9c.226,3.13-3.952,7.406-7.149,7.213-2.756-.168-3.373-2.468-3.686-4.662-.553-3.859,1.931-6.64,5.838-6.735,2.988-.073,4.279,1.814,5,4.184" transform="translate(143.204 51.535)" fill="#3d3f3c"/>
    <path id="Path_4322" data-name="Path 4322" d="M15.99,33.056c-.176,3.315-2.7,6.067-5.383,5.86C7.656,38.69,5.677,36.1,5.772,32.58A5.848,5.848,0,0,1,11.613,27.3c2.655.078,4.544,2.568,4.377,5.757" transform="translate(10.353 48.989)" fill="#3d3f3c"/>
    <path id="Path_4323" data-name="Path 4323" d="M143.75,121.8c2.814-.028,4.251,1.722,4.561,4.516.377,3.39-2.048,5.872-5.852,6.134-3.267.226-5.341-1.557-5.36-4.606-.017-2.644,3.443-5.9,6.651-6.045" transform="translate(246.052 218.596)" fill="#3d3f3c"/>
    <path id="Path_4324" data-name="Path 4324" d="M147.423,67.2c-1.738-.022-5.612-5.086-5.483-7.171.056-.939,5.961-4.773,7.191-4.659,3.1.282,4.186,2.174,4,5.064-.226,3.443-3.057,6.8-5.7,6.766" transform="translate(254.734 99.36)" fill="#3d3f3c"/>
    <path id="Path_4325" data-name="Path 4325" d="M40.2,139.9c.145,3-2.353,6.151-5.011,6.319-2.747.176-6.243-2.7-6.31-5.184-.078-2.837,3.306-6.344,6.182-6.408,2.6-.059,5,2.4,5.139,5.274" transform="translate(51.827 241.615)" fill="#3d3f3c"/>
    <path id="Path_4326" data-name="Path 4326" d="M75.357,100.416c.123,3.426-1.97,5.919-4.963,5.911-2.923-.008-5.905-2.641-6.02-5.31-.1-2.239,2.672-5.181,4.891-5.2,4.136-.034,5.975,1.353,6.092,4.6" transform="translate(115.527 171.964)" fill="#3d3f3c"/>
    <path id="Path_4327" data-name="Path 4327" d="M81.058,43.555c-.184,3.2-3.957,8.155-5.905,8.253-2.691.134-4.963-2.867-4.729-6.249.249-3.583,2.87-5.922,6.375-5.52,2.353.271,4.231,1.232,4.259,3.516" transform="translate(126.36 71.777)" fill="#3d3f3c"/>
    <path id="Path_4328" data-name="Path 4328" d="M16.18,131.155c.1,2.381-.288,4.472-3.317,4.494-3.1.022-6.78-3.328-7.017-6.266a5.052,5.052,0,0,1,4.731-5.338c3.225-.154,5.5,2.736,5.6,7.11" transform="translate(10.462 222.613)" fill="#3d3f3c"/>
    <path id="Path_4329" data-name="Path 4329" d="M159.51,112.977c-2.255.036-5.276-2.823-5.411-5.12-.123-2.09,2.739-5.947,4.46-6.014,2.921-.112,7.015,3.787,6.836,6.509-.131,2-3.418,4.586-5.886,4.625" transform="translate(276.556 182.773)" fill="#3d3f3c"/>
    <path id="Path_4330" data-name="Path 4330" d="M41.831,97.975c3.871-.02,6.274,1.646,6.467,4.48.184,2.733-2.554,5.452-5.642,5.595-2.644.123-5.807-2.7-6.017-5.374s2-4.684,5.193-4.7" transform="translate(65.731 175.836)" fill="#3d3f3c"/>
    <path id="Path_4331" data-name="Path 4331" d="M124.528,111.566c-.126,3.186-5.156,7.5-8.32,6.724-3.242-.8-3.429-3.96-3.493-6.52-.084-3.5,2.982-6.512,5.768-6.324,3.418.232,6.168,3.018,6.045,6.12" transform="translate(202.287 189.228)" fill="#3d3f3c"/>
    <path id="Path_4332" data-name="Path 4332" d="M119.294,124.091a8.563,8.563,0,0,1-2.068,6.073c-1.987,2.529-3.728,2.308-5.321-.615a39.7,39.7,0,0,1-1.858-3.949c-.9-2.208-2.588-4.7.067-6.565,1.381-.964,3.071-2.635,5.288-1.392,2.532,1.42,4.125,3.373,3.893,6.447" transform="translate(195.054 210.34)" fill="#3d3f3c"/>
    <path id="Path_4333" data-name="Path 4333" d="M104.74,118.873c-3.074-.369-3.463-2.929-4.463-5.2-1.129-2.557.738-2.155,1.987-3.055a12.983,12.983,0,0,1,4.382-2.415c1.425-.369,2.853-1.252,4.1.084a3.923,3.923,0,0,1,.52,4.824c-1.582,2.462-3.342,4.963-6.528,5.763" transform="translate(179.341 193.063)" fill="#3d3f3c"/>
    <path id="Path_4334" data-name="Path 4334" d="M33.8,71.644c-2.677-.405-5.207-4.656-4.374-7.353,1.249-4.058,3.854-6.378,6.344-5.654,3.127.908,3.988,5.12,1.9,9.281-1.512,3-2.476,3.935-3.871,3.725" transform="translate(52.521 105.001)" fill="#3d3f3c"/>
    <path id="Path_4335" data-name="Path 4335" d="M115.091,147.336c-2.881.036-6.218-4.153-6.213-7.479.006-3.069,2.135-5.343,4.941-5.271,2.633.07,5.4,3.253,4.863,6.285-.442,2.476-.592,5.5-3.591,6.464" transform="translate(195.404 241.539)" fill="#3d3f3c"/>
    <path id="Path_4336" data-name="Path 4336" d="M68.689,187.59c-.5,4.645-2.688,7.166-6.383,6.587-4.349-.679-2.879-4.262-2.688-6.889.313-4.318,1.747-5.676,5.109-5.427,2.909.212,4.332,2.269,3.963,5.729" transform="translate(106.293 326.336)" fill="#3d3f3c"/>
    <path id="Path_4337" data-name="Path 4337" d="M36.908,76.041c3.124-.087,6.38,2.37,6.445,5.159.067,2.929-2.806,7.5-4.734,7.54-2.6.053-5.436-4.256-5.816-8.426-.265-2.906,1.135-4.016,4.105-4.273m-.187,3.426c-.316.263-.931.57-.9.785a1.816,1.816,0,0,0,1.92,1.691c.3,0,.878-.509.864-.752a1.828,1.828,0,0,0-1.884-1.724" transform="translate(58.813 136.468)" fill="#3d3f3c"/>
    <path id="Path_4338" data-name="Path 4338" d="M99.366,124.2c-1.794.707-3.572,1.548-5.43,2.1-3.25.964-5.274-.945-6.361-3.563-1.14-2.736.855-4.826,2.82-6.134,2.613-1.735,5.327-.293,5.679,2.322.349,2.568,4.142,2.331,3.292,5.274" transform="translate(156.573 207.908)" fill="#3d3f3c"/>
    <path id="Path_4339" data-name="Path 4339" d="M107.893,169.09c2.56-.031,5.008,2.487,5.128,5.274.134,3.027-3,6.772-5.626,6.713-2.244-.048-4.874-3.2-4.8-5.743.092-2.946,2.859-6.213,5.293-6.243" transform="translate(184.134 303.466)" fill="#3d3f3c"/>
    <path id="Path_4340" data-name="Path 4340" d="M68.137,72.5c-3.695-2.75-4.907-5.617-2.809-9.709.836-1.624.291-4.256,2.825-4.458,2.009-.162,2.529,1.965,3.39,3.446,3.147,5.422,3.178,5.4-3.407,10.72" transform="translate(115.405 104.672)" fill="#3d3f3c"/>
    <path id="Path_4341" data-name="Path 4341" d="M141.247,144.719c-.042,3.681-2.616,7.467-5.014,7.607-2,.117-3.971-2.993-3.966-6.249,0-3.588,2.6-6.906,5.332-6.615,3.309.352,3.421,3,3.647,5.257" transform="translate(237.382 250.262)" fill="#3d3f3c"/>
    <path id="Path_4342" data-name="Path 4342" d="M59.547,108.3c-.022,3.387-2.8,7.2-5.257,7.213-2.515.017-4.977-2.661-4.991-5.433-.014-2.473,3.859-5.975,6.629-5.645,2.057.243,3.762,1.319,3.619,3.865" transform="translate(88.477 187.385)" fill="#3d3f3c"/>
    <path id="Path_4343" data-name="Path 4343" d="M171.849,139.848c3.762,2.828,4.544,5.693,3.37,9.055-1.5,4.3-6.109,5.4-9.376,2.3-2.146-2.032-2-4.242.838-5.425a8.59,8.59,0,0,0,5.167-5.933" transform="translate(295.003 250.985)" fill="#3d3f3c"/>
    <path id="Path_4344" data-name="Path 4344" d="M28.547,26.39c3.046.1,3.935,2.392,4.318,4.916.509,3.351-2.2,7.124-4.9,7.1-2-.014-4.743-3.326-4.79-5.782-.056-2.839,2.641-6.045,5.377-6.238" transform="translate(41.581 47.362)" fill="#3d3f3c"/>
    <path id="Path_4345" data-name="Path 4345" d="M139.079,108.032c.126-3.334.33-5.983,4.226-6.042,3.3-.05,5.844,1.5,6.031,4.022.2,2.658-4.17,7.9-6.54,7.853-1.828-.039-3.653-3.152-3.717-5.833" transform="translate(249.605 183.039)" fill="#3d3f3c"/>
    <path id="Path_4346" data-name="Path 4346" d="M101.2,131.123a2.856,2.856,0,0,1-3.013-1.554,7.28,7.28,0,0,1-.525-6.324c1.143-2.9,5.422-5.016,7.708-3.89,2.378,1.171,2.593,4.245.531,7.658-1.945,3.219-2.82,3.982-4.7,4.111" transform="translate(174.38 213.654)" fill="#3d3f3c"/>
    <path id="Path_4347" data-name="Path 4347" d="M157.56,144.815a4.8,4.8,0,0,1,5.237,4.818,6.669,6.669,0,0,1-5.715,6.509,4.366,4.366,0,0,1-4.765-4.371c-.087-2.887,2.853-6.791,5.243-6.956" transform="translate(273.361 259.875)" fill="#3d3f3c"/>
    <path id="Path_4348" data-name="Path 4348" d="M6.567,64.558c-1.769-1.97.408-2.018,1-2.244,3.451-1.33,4.561,1.632,6.358,3.533,1.716,1.814,1.624,3.714.21,5.24a6.852,6.852,0,0,1-6.825,1.708c-2.568-.618-3.007-3.605-1.123-6.436.567-.852.567-.852.377-1.8" transform="translate(9.028 111.237)" fill="#3d3f3c"/>
    <path id="Path_4349" data-name="Path 4349" d="M97.639,140.849c-.279-2.951.942-4.868,3.971-5.053,2.75-.168,5.752,2.842,5.928,5.6.168,2.647-2.747,6.763-4.723,6.665-2.686-.131-5.019-3.382-5.176-7.213" transform="translate(175.163 243.702)" fill="#3d3f3c"/>
    <path id="Path_4350" data-name="Path 4350" d="M124.429,135.415c2.177.028,4.888,3.007,5.036,5.534.14,2.426-3.994,6.855-6.112,6.187a5.086,5.086,0,0,1-3.907-5.436c.187-3.281,2.557-6.316,4.983-6.285" transform="translate(214.35 243.029)" fill="#3d3f3c"/>
    <path id="Path_4351" data-name="Path 4351" d="M23.721,64.969c1.2-.042,3.351.738,3.655,2.764.338,2.236,2.948,4.335.953,6.718a5.148,5.148,0,0,1-5.288,1.627c-3.792-.827-3.955-3.8-3.982-6.791-.022-2.457.838-4.284,4.662-4.318" transform="translate(34.205 116.597)" fill="#3d3f3c"/>
    <path id="Path_4352" data-name="Path 4352" d="M159.035,132.525c3.588-.134,6.573,1.755,6.914,4.262.3,2.211-2.336,5.559-4.625,5.866-2.454.33-7-4.03-6.693-6.607s1.889-3.857,4.4-3.521" transform="translate(277.489 237.748)" fill="#3d3f3c"/>
    <path id="Path_4353" data-name="Path 4353" d="M59.276,139.386a4.291,4.291,0,0,1-4.684-4.527c.034-2.948,2.789-5.8,5.609-5.8s5.992,2.434,5.975,4.589c-.017,2.49-3.784,5.62-6.9,5.74" transform="translate(97.976 231.619)" fill="#3d3f3c"/>
    <path id="Path_4354" data-name="Path 4354" d="M40.05,118.749c-.553-3.041-.235-5.8,4.105-5.313a6.4,6.4,0,0,1,5.561,6.693c-.333,2.666-3.815,4.463-7.722,3.8-3.147-.537-3.13-2.579-1.945-5.179" transform="translate(70.558 203.483)" fill="#3d3f3c"/>
    <path id="Path_4355" data-name="Path 4355" d="M139.257,111.28a3.7,3.7,0,0,1,3.144,2.708c1.154,2.946-1.914,8.923-4.955,9.826a2.351,2.351,0,0,1-1.409,0c-1.4-.528-3.407-6.006-2.974-8.021.713-3.315,3.639-3.639,6.193-4.513" transform="translate(238.702 199.714)" fill="#3d3f3c"/>
    <path id="Path_4356" data-name="Path 4356" d="M72.7,58.73c.187-4.276,1.97-6.6,5.207-6.607,2.971,0,4.458,1.6,4.466,4.553.006,3.661-3.773,7.736-6.805,7.129-2.714-.539-3.172-2.666-2.867-5.075" transform="translate(130.336 93.545)" fill="#3d3f3c"/>
    <path id="Path_4357" data-name="Path 4357" d="M84.528,148.078c3.175-1.291,6.308-2.593,9.871-1.52s4.4,3.974,1.889,6.674c-3.89,4.184-9.181,1.9-11.76-5.153" transform="translate(151.703 262.315)" fill="#3d3f3c"/>
    <path id="Path_4358" data-name="Path 4358" d="M73.586,53.621c-.006,3.9-1.436,5.209-5.318,5.4-3.449.168-4.212-2.16-4.446-4.662a5.158,5.158,0,0,1,5.056-5.942c3.239.056,4.715,1.685,4.709,5.2" transform="translate(114.489 86.894)" fill="#3d3f3c"/>
    <path id="Path_4359" data-name="Path 4359" d="M75.02,129.921c.134,3.108-1.716,5.676-4.326,5.754-2.638.081-5.056-.405-5.207-3.781-.115-2.585,3.074-7.753,4.729-7.811,1.959-.07,4.692,3.253,4.8,5.838" transform="translate(117.524 222.69)" fill="#3d3f3c"/>
    <path id="Path_4360" data-name="Path 4360" d="M20.271,34.656a5.854,5.854,0,0,1,5.464,5.7c.126,3-1.749,4.849-4.98,4.916-3.264.067-5.52-2.607-5.33-6.319a4.763,4.763,0,0,1,4.846-4.3" transform="translate(27.664 62.197)" fill="#3d3f3c"/>
    <path id="Path_4361" data-name="Path 4361" d="M99.615,178.336c2.16-.274,4.882,2.61,5.064,5.363.2,2.957-2.269,6.741-4.634,6.626a5.292,5.292,0,0,1-5.125-4.474c-.581-2.577,2.387-7.222,4.7-7.515" transform="translate(170.219 320.027)" fill="#3d3f3c"/>
    <path id="Path_4362" data-name="Path 4362" d="M88.656,187.695c-2.222-.8-4.678-1.523-4.726-4.667-.042-2.627,3.451-7,5.511-6.99,2.3.011,4.81,3.06,4.65,5.657-.2,3.267-2.778,6.176-5.436,6" transform="translate(150.629 315.936)" fill="#3d3f3c"/>
    <path id="Path_4363" data-name="Path 4363" d="M81.046,103.984c.159-2.585.576-5.332,3.929-5.908,2.468-.425,5.564,3.284,5.612,6.576.042,2.764-1.107,4.715-4.15,4.9-3.354.207-5.338-1.811-5.391-5.573" transform="translate(145.453 175.958)" fill="#3d3f3c"/>
    <path id="Path_4364" data-name="Path 4364" d="M84.047,148.672c.316,3.5-.187,5.536-2.532,6.668-1.54.741-2.8.148-4-.866-1.892-1.6-2.716-3.7-1.736-5.894,1.048-2.339,1.906-6.037,4.743-5.819,3.667.282,3.314,4.178,3.527,5.911" transform="translate(135.251 256.197)" fill="#3d3f3c"/>
    <path id="Path_4365" data-name="Path 4365" d="M171.074,171.561c-.042,3.264-2.552,6.336-5.084,6.319-2.317-.017-4.715-2.823-4.818-5.648-.1-2.641,3.424-5.651,6.663-5.458,3.077.182,2.915,2.747,3.239,4.787" transform="translate(289.253 299.293)" fill="#3d3f3c"/>
    <path id="Path_4366" data-name="Path 4366" d="M99.285,160.779c-.26,2.571-4.228,6.048-6.746,5.911-2.13-.115-4.983-4.994-4.195-7.7.889-3.057,3.692-2.87,6.084-2.711,2.929.2,5.072,2.4,4.857,4.5" transform="translate(158.311 280.337)" fill="#3d3f3c"/>
    <path id="Path_4367" data-name="Path 4367" d="M82.545,166.179c-2.51-.073-4.276-1.33-4.807-3.725-.665-3,2.661-7.462,5.534-7.549,3.015-.089,4.3,1.769,4.564,4.569a6.1,6.1,0,0,1-5.29,6.7" transform="translate(139.363 278.003)" fill="#3d3f3c"/>
    <path id="Path_4368" data-name="Path 4368" d="M41.212,72.274c-.646,6.4-4.206,8.6-8.278,5.771-1.339-.928-1.587-1.9-.992-3.683.685-2.057,5.416-2.58,2.356-6.193-.5-.592,1.353-1.07,2.253-1.082,1.794-.017,3.485.509,4.189,2.336a11.092,11.092,0,0,1,.472,2.851" transform="translate(56.779 120.401)" fill="#3d3f3c"/>
    <path id="Path_4369" data-name="Path 4369" d="M75.839,117.2c3.764.545,5.075,2.459,6.677,3.932,1.694,1.559,3.222,3.3,1.576,5.715a5.07,5.07,0,0,1-5.754,2.275c-2.705-.715-3.854-2.655-4.077-5.436-.2-2.443,2.77-3.524,1.579-6.487" transform="translate(133.258 210.335)" fill="#3d3f3c"/>
    <path id="Path_4370" data-name="Path 4370" d="M150.645,101.2c-.184-4.2.95-6.014,4.1-6.02,3.331-.011,6.649,2.381,6.548,4.653-.1,2.071-4.259,5.718-6.822,5.975-2.5.252-3.8-1.752-3.823-4.608" transform="translate(270.329 170.827)" fill="#3d3f3c"/>
    <path id="Path_4371" data-name="Path 4371" d="M59.928,111.087c-.24-3.6,2.87-3.574,4.947-3.79,2.465-.257,4.963.743,5.355,3.8.327,2.54-3.7,6.66-6.506,6.92-2.51.235-3.348-1.305-3.8-6.925" transform="translate(107.53 192.498)" fill="#3d3f3c"/>
    <path id="Path_4372" data-name="Path 4372" d="M97.666,190.686c.1,2.233-4.173,8.5-5.919,8.465-2.554-.061-4-1.476-4.17-4.083-.226-3.533,3.152-7.87,6.14-7.887a3.91,3.91,0,0,1,3.949,3.5" transform="translate(157.155 335.934)" fill="#3d3f3c"/>
    <path id="Path_4373" data-name="Path 4373" d="M141.213,159.884a7.1,7.1,0,0,1-1.654-1.059c-2.233-2.471-1.859-7.328.78-9.209,2.236-1.6,4.608-1.6,6.632.377,1.75,1.7,1.112,3.541-.176,5.243-1.462,1.928-2.728,4.089-5.581,4.648" transform="translate(247.841 266.445)" fill="#3d3f3c"/>
    <path id="Path_4374" data-name="Path 4374" d="M87.478,66.672c.193,2.529-2.42,5.986-4.569,5.606-2.691-.475-5.005-1.708-5.276-5-.226-2.722.235-4.98,3.432-5.343,2.965-.338,6.218,2.18,6.414,4.74" transform="translate(139.239 111.094)" fill="#3d3f3c"/>
    <path id="Path_4375" data-name="Path 4375" d="M153.5,140.534c-.157,3.147-3.091,6.442-5.455,6.526-2.621.092-4.821-2.507-4.611-5.444.226-3.124,2.191-5.028,5.167-4.868,2.669.143,4.762,1.065,4.9,3.787" transform="translate(257.396 245.403)" fill="#3d3f3c"/>
    <path id="Path_4376" data-name="Path 4376" d="M53.275,18.372c-.031,3.586-3.328,7.339-6.266,6.956-2.568-.335-3.706-2.269-4.089-4.567-.254-1.523,5.419-6.665,6.953-6.414,2.222.366,3.538,1.607,3.4,4.024" transform="translate(77.014 25.734)" fill="#3d3f3c"/>
    <path id="Path_4377" data-name="Path 4377" d="M108,152.462c-.5,2.719-2.546,4.463-5.1,5.567-2.328,1-4.84,1.45-6.909-.637a2.917,2.917,0,0,1-.187-4.03c1.325-1.881,8.23-5.26,9.653-4.6a4.229,4.229,0,0,1,2.543,3.7" transform="translate(170.653 266.832)" fill="#3d3f3c"/>
    <path id="Path_4378" data-name="Path 4378" d="M44.083,156.228c2.012.087,3.748,1.109,3.639,3.949-.1,2.68-3.558,6.693-5.8,6.878-2.471.2-4.217-1.78-4.27-4.849-.067-3.734,2.191-6.025,6.433-5.978" transform="translate(67.568 280.382)" fill="#3d3f3c"/>
    <path id="Path_4379" data-name="Path 4379" d="M18.438,94.848c2.784.148,4.251,2.308,3.907,5.754-.282,2.8-4.1,5.95-6.777,5.346s-3.147-2.8-3-5.145c.226-3.709,2.655-6.126,5.874-5.955" transform="translate(22.507 170.209)" fill="#3d3f3c"/>
    <path id="Path_4380" data-name="Path 4380" d="M133.364,125.655c2.487-.131,5.732,2.526,5.8,4.757.075,2.269-2.739,5.126-5.3,5.383a5.079,5.079,0,0,1-5.517-4.757c-.19-2.384,2.482-5.248,5.016-5.383" transform="translate(230.328 225.505)" fill="#3d3f3c"/>
    <path id="Path_4381" data-name="Path 4381" d="M66.069,154.351c-.011,2.781-.989,4.793-4.142,4.782-2.915-.011-5.447-3.13-5.416-6.668a4.076,4.076,0,0,1,3.927-4.365c2.75-.335,5.6,2.912,5.631,6.252" transform="translate(101.42 265.751)" fill="#3d3f3c"/>
    <path id="Path_4382" data-name="Path 4382" d="M55.993,132.392c-.349,2.566-2.18,3.8-4.947,3.966-3.253.2-5.271-1.45-5.5-4.48-.229-3.077,1.587-4.53,4.27-4.9a5.881,5.881,0,0,1,6.173,5.413" transform="translate(81.713 227.82)" fill="#3d3f3c"/>
    <path id="Path_4383" data-name="Path 4383" d="M152.036,165.7c-.017,2.5-3.342,5.279-6.283,5.19-2.694-.084-3.982-1.629-4.1-4.226-.168-3.533,1.453-5.922,4.008-5.978,3.043-.067,6.392,2.566,6.378,5.014" transform="translate(254.199 288.383)" fill="#3d3f3c"/>
    <path id="Path_4384" data-name="Path 4384" d="M93.225,99.6c.02-3.781,2.616-7.115,5.436-6.85,2.367.224,4.072,1.487,4.15,4.217.089,3.057-3.138,7.562-5.765,7.551-3.354-.014-3.574-2.677-3.82-4.919" transform="translate(167.311 166.435)" fill="#3d3f3c"/>
    <path id="Path_4385" data-name="Path 4385" d="M50.658,75.338c-.967,2.057-.182,5.394-3.368,6.453-2.13.71-5.338-4.513-5.352-8.429-.008-1.948.6-3.281,2.806-3.443a5.543,5.543,0,0,1,5.914,5.419" transform="translate(75.266 125.458)" fill="#3d3f3c"/>
    <path id="Path_4386" data-name="Path 4386" d="M12.747,165.609c-.1,2.557-2.848,4.812-5.643,4.541-3.292-.319-3.488-3.133-3.725-5.385-.3-2.851,2.884-6.4,5.011-6.193,1.571.151,4.446,4.8,4.357,7.037" transform="translate(6.03 284.573)" fill="#3d3f3c"/>
    <path id="Path_4387" data-name="Path 4387" d="M6.624,45.832c.587-2.641.47-5.036,3.312-5.721,2.345-.567,3.6.936,4.989,2.314,1.9,1.889.71,3.544-.358,5.215a3.047,3.047,0,0,1-.422.6c-1.308,1.246-1.428,4.337-3.982,3.541-2.915-.908-3.493-3.681-3.538-5.944" transform="translate(11.888 71.767)" fill="#3d3f3c"/>
    <path id="Path_4388" data-name="Path 4388" d="M163.51,163.269a3.34,3.34,0,0,1-3.641-2.94c-.687-3.2,2.219-4.172,3.846-5.765a4.328,4.328,0,0,1,6.065-.159c1.789,1.417,2.289,3.108.718,5.1-1.269,1.615-5.044,3.72-6.987,3.762" transform="translate(286.731 275.029)" fill="#3d3f3c"/>
    <path id="Path_4389" data-name="Path 4389" d="M48.255,95.746c-2.412,1.682-4.332.481-6.14.075-2.046-.458-4.961-.777-4.9-3.552.056-2.512,2.512-4.069,4.449-5.4,1.8-1.235,3.485.184,4.209,1.722a57.188,57.188,0,0,1,2.381,7.152" transform="translate(66.789 155.067)" fill="#3d3f3c"/>
    <path id="Path_4390" data-name="Path 4390" d="M52.633,90.361c2.074-.034,5.12,3.155,5.218,5.461s-2.954,5.039-5.525,4.975c-2.457-.064-4.843-2.909-4.578-5.779.263-2.851,2.2-4.206,4.885-4.656" transform="translate(85.657 162.171)" fill="#3d3f3c"/>
    <path id="Path_4391" data-name="Path 4391" d="M173.975,106.546c.277,2.853-2.61,6.257-5.349,6.431-2.867.184-4.606-1.395-5.131-4.142-.442-2.3,2.222-5.475,4.8-5.413,2.4.059,4.941.475,5.682,3.124" transform="translate(293.338 185.609)" fill="#3d3f3c"/>
    <path id="Path_4392" data-name="Path 4392" d="M34.895,87.4c-.148,2.25-3.893,4.689-6.758,4.159-2.823-.523-4.063-2.51-3.938-5.31.112-2.568,2.915-4.617,5.724-4.268,2.666.33,5.128,3.013,4.972,5.419" transform="translate(43.415 147.067)" fill="#3d3f3c"/>
    <path id="Path_4393" data-name="Path 4393" d="M56.247,23.74c-2.443-.783-3.479-2.934-3.709-5.422-.254-2.8,2-4.835,5.109-4.894,2.384-.042,4.5.548,4.578,3.426.07,2.571-3.709,6.931-5.978,6.889" transform="translate(94.256 24.089)" fill="#3d3f3c"/>
    <path id="Path_4394" data-name="Path 4394" d="M51.456,160.555c2.926-.154,6.428,2.264,6.464,4.181.045,2.35-4.027,6.6-6.252,6.246-2.937-.461-3.77-2.892-3.9-5.377-.148-2.705,1.154-4.631,3.692-5.05" transform="translate(85.702 288.135)" fill="#3d3f3c"/>
    <path id="Path_4395" data-name="Path 4395" d="M88.116,86.762c2.811.087,5.056,2.127,4.754,4.326-.386,2.834-3.32,5.894-5.679,5.813-2.954-.106-4.41-1.9-4.6-4.659a5.381,5.381,0,0,1,5.528-5.48" transform="translate(148.201 155.707)" fill="#3d3f3c"/>
    <path id="Path_4396" data-name="Path 4396" d="M84.943,80.435c-.056,2.345-3.686,5.673-6.112,5.693a4.642,4.642,0,0,1-4.74-4.608A5.4,5.4,0,0,1,79.586,76.6c2.638.053,4.9.8,5.357,3.832" transform="translate(132.96 137.479)" fill="#3d3f3c"/>
    <path id="Path_4397" data-name="Path 4397" d="M20.922,28.852c-4.139-.313-6.855-2.532-6.791-5.452.056-2.5,2.641-4.033,6.092-3.619,2.8.335,5.123,3.834,4.6,7.1-.391,2.465-2.384,1.926-3.9,1.97" transform="translate(25.358 35.379)" fill="#3d3f3c"/>
    <path id="Path_4398" data-name="Path 4398" d="M23.534,54.517C23.187,57,21.357,58.038,18.9,58.038c-2.92,0-6.048-3.253-5.531-5.8A4.56,4.56,0,0,1,18.1,48.357c2.809-.05,5.645,3.122,5.43,6.16" transform="translate(23.893 86.786)" fill="#3d3f3c"/>
    <path id="Path_4399" data-name="Path 4399" d="M37.947,32.96c-2.479-.3-3.8-2.294-3.977-4.835-.187-2.677,1.084-4.687,4.061-5.03,2.468-.285,5.995,2.691,6.123,5.12.1,1.858-3.2,4.558-6.207,4.745" transform="translate(60.935 41.413)" fill="#3d3f3c"/>
    <path id="Path_4400" data-name="Path 4400" d="M29.537,15.771c1.66.439,3.379.791,3.356,3.083-.028,3.113-3.669,8.309-5.561,7.6a5.52,5.52,0,0,1-3.938-5.492c.087-2.322,3.79-5.324,6.143-5.2" transform="translate(41.979 28.296)" fill="#3d3f3c"/>
    <path id="Path_4401" data-name="Path 4401" d="M74.635,98.163c-2.222-.129-4.7-4.086-4.312-6.959.355-2.649,2.482-3.706,4.586-4.226,1.923-.472,4.432,3.379,4.262,6.092-.157,2.479-2.585,5.207-4.536,5.092" transform="translate(126.137 156.029)" fill="#3d3f3c"/>
    <path id="Path_4402" data-name="Path 4402" d="M13.839,82.84c-3.108-.718-3.479-3.507-3.7-6.176-.187-2.241.394-4.544,2.881-5.207,2.253-.6,5.564,2.929,5.634,5.623.075,2.884-2.208,5.785-4.818,5.76" transform="translate(18.143 128.124)" fill="#3d3f3c"/>
    <path id="Path_4403" data-name="Path 4403" d="M106.1,138.852c-1.87.031-2.585-1.082-2.7-2.758-.221-3.382,2.675-8.119,5.05-8a4.01,4.01,0,0,1,4.17,4.192c.14,3.228-3.18,6.534-6.523,6.562" transform="translate(185.565 229.893)" fill="#3d3f3c"/>
    <path id="Path_4404" data-name="Path 4404" d="M80,132.875c2.884-.81,3.429.883,3.418,3.183-.02,3.558-2.339,6.964-4.636,6.405a5.708,5.708,0,0,1-4.689-5.067c-.3-3.094,1.8-4.606,5.908-4.522" transform="translate(132.923 238.102)" fill="#3d3f3c"/>
    <path id="Path_4405" data-name="Path 4405" d="M57.614,84.386a6.224,6.224,0,0,1-5.458,6.056c-2.839.246-3.918-1.615-4.273-4.008-.416-2.814,2.747-6.154,5.682-6.255,3.024-.1,3.6,2.007,4.05,4.206" transform="translate(85.869 143.893)" fill="#3d3f3c"/>
    <path id="Path_4406" data-name="Path 4406" d="M75,67.738c2.032.148,3.641.869,3.535,3.482-.131,3.326-2.856,7.6-4.958,7.314-2.9-.388-3.927-2.764-4.281-5.271-.363-2.577,2.784-5.545,5.7-5.525" transform="translate(124.318 121.569)" fill="#3d3f3c"/>
    <path id="Path_4407" data-name="Path 4407" d="M65.946,48.706c-1.2.26-2.124.525-3.071.654-2.784.38-5.841.358-6.914-2.613-1.185-3.281,2.44-5.008,3.968-7.163,1.2-1.7,3.731.3,4.466,2.054.892,2.138,1.042,4.583,1.551,7.068" transform="translate(100.012 69.882)" fill="#3d3f3c"/>
    <path id="Path_4408" data-name="Path 4408" d="M61.259,55.779c-2.663.425-4.527.414-6.277,1.565-2.264,1.487-4.754,1.515-6.288-1.191-1.2-2.118-1.193-4.485,1.21-5.724s5.55-2.264,7.14.729c.987,1.853,2.577,2.7,4.214,4.62" transform="translate(85.983 88.313)" fill="#3d3f3c"/>
    <path id="Path_4409" data-name="Path 4409" d="M10.868,191.773c-2.563-.293-5.475-4.184-5.086-7.059.257-1.917.819-4,3.186-4.2,2.471-.207,5.751,4.494,5.531,7.582-.159,2.208-1.814,3.882-3.63,3.675" transform="translate(10.313 323.961)" fill="#3d3f3c"/>
    <path id="Path_4410" data-name="Path 4410" d="M49.438,61.787c.008,3.214-.293,5.894-3.982,6.084-2.845.145-5.45-2.334-5.276-4.849.151-2.227,4.6-5.886,6.878-5.478,2.652.478,2.208,2.756,2.381,4.242" transform="translate(72.095 103.218)" fill="#3d3f3c"/>
    <path id="Path_4411" data-name="Path 4411" d="M28.554,79.833c.2,2.317-2.588,4.846-4.815,4.365-3.164-.685-5.807-6.836-4.136-9.8a2.491,2.491,0,0,1,1.654-1.163c2.163-.165,7.11,4.416,7.3,6.593" transform="translate(34.252 131.438)" fill="#3d3f3c"/>
    <path id="Path_4412" data-name="Path 4412" d="M87.649,191.173a3.932,3.932,0,0,1-4.3,4.125c-2.739.014-4.664-1.305-4.815-4.307-.143-2.856,2.1-5.841,4.3-5.869,2.459-.034,4.748,2.549,4.815,6.051" transform="translate(140.932 332.239)" fill="#3d3f3c"/>
    <path id="Path_4413" data-name="Path 4413" d="M113.1,156.884c-4.117-1.585-7.926-1.61-8.085-6.308a5.194,5.194,0,0,1,3.164-5.338,3.877,3.877,0,0,1,4.692.984c1.252,1.272,1.288,2.865-.081,3.846-2.789,2.007-.411,3.753.31,6.816" transform="translate(188.459 259.929)" fill="#3d3f3c"/>
    <path id="Path_4414" data-name="Path 4414" d="M140.835,164.008c-.232,3.8-2.853,6.869-5.712,6.514a3.578,3.578,0,0,1-3.463-4.01c.036-3.069,3.055-6.492,5.975-6.481,2.557.011,3.334,1.685,3.2,3.977" transform="translate(236.29 287.208)" fill="#3d3f3c"/>
    <path id="Path_4415" data-name="Path 4415" d="M5.649,26.777c-2.124-.184-2.088-2.132-2.079-3.748.011-3.152,3.275-6.867,5.707-6.54,2.669.355,3.636,2.283,3.493,4.748-.165,2.884-3.65,5.643-7.121,5.539" transform="translate(6.404 29.558)" fill="#3d3f3c"/>
    <path id="Path_4416" data-name="Path 4416" d="M54.394,185.175c2.946.285,4.7,3.024,4.058,6.146-.576,2.823-2.322,5.212-5.313,5.044-3.516-.2-2.733-3.4-2.63-5.656.126-2.739.774-5.346,3.885-5.534" transform="translate(90.388 332.334)" fill="#3d3f3c"/>
    <path id="Path_4417" data-name="Path 4417" d="M121.407,169.612c.07,2.275-2.387,5.036-4.491,5.044-2.074.008-4.642-2.7-4.664-4.924-.031-2.823,2.381-5.444,4.955-5.385,2,.045,4.122,2.711,4.2,5.265" transform="translate(201.457 294.951)" fill="#3d3f3c"/>
    <path id="Path_4418" data-name="Path 4418" d="M48.745,36.858c-2.694.288-5.229-2.554-4.39-4.787a9.471,9.471,0,0,1,2.823-4.164c1.752-1.316,4.43-2.018,6.051-.458,1.587,1.526,1.132,3.957-.553,5.763-1.3,1.389-2.205,3.231-3.929,3.647" transform="translate(79.311 47.662)" fill="#3d3f3c"/>
    <path id="Path_4419" data-name="Path 4419" d="M77.412,182.8c-.07,2.51-2.591,5.139-4.72,5.1-2.227-.039-4.326-3.228-4.033-6.2.263-2.666,1.819-4.086,4.444-3.879,3.041.238,3.952,2.532,4.309,4.972" transform="translate(123.172 319.114)" fill="#3d3f3c"/>
    <path id="Path_4420" data-name="Path 4420" d="M68.95,152.552c1.945-2.5,4.206-3.256,7-1.316,2.5,1.733,1.562,3.935.6,5.886-1.4,2.856-4.29,2.691-6.911,2.786-1.864.067-3.485-.556-3.806-2.652-.391-2.557.662-4.279,3.3-4.832a10.683,10.683,0,0,0-1.381,1.708c-.467.894-.632,1.951.374,2.585a2.061,2.061,0,0,0,2.683-.229c.763-.824.38-1.836-.232-2.607a9.377,9.377,0,0,0-1.629-1.327" transform="translate(118.01 269.457)" fill="#3d3f3c"/>
    <path id="Path_4421" data-name="Path 4421" d="M159.89,68.053c-.05,3.108-2.94,5.262-6.151,5.341-3.415.078-4.072-1.981-3.968-4.7.1-2.412,3.035-5.268,5.26-4.866a6.206,6.206,0,0,1,4.86,4.22" transform="translate(268.775 114.492)" fill="#3d3f3c"/>
    <path id="Path_4422" data-name="Path 4422" d="M154.147,167.269c-2.328-.173-3.256-1.632-3.3-3.943-.056-3.253,2.443-6.028,5.408-5.715,2.789.293,3.535,2.392,3.569,4.787.034,2.476-2.73,4.824-5.679,4.871" transform="translate(270.728 282.82)" fill="#3d3f3c"/>
    <path id="Path_4423" data-name="Path 4423" d="M122.426,156.023c3.524-.131,6.059,1.914,6.224,4.525a4.9,4.9,0,0,1-4.74,5.318c-2.764.087-4.737-2.124-4.611-5.352.1-2.376,1.087-4.156,3.127-4.491" transform="translate(214.095 280.004)" fill="#3d3f3c"/>
    <path id="Path_4424" data-name="Path 4424" d="M24.59,88.327a3.517,3.517,0,0,1,3.178,4c-.143,2.806-3.15,6.383-5.318,6.229-2.856-.2-3.337-2.479-3.535-4.729-.246-2.8,2.526-5.494,5.676-5.5" transform="translate(33.917 158.521)" fill="#3d3f3c"/>
    <path id="Path_4425" data-name="Path 4425" d="M33.949,54.258c-.6,2.311-.075,5.466-3.859,5.008-2.348-.285-5.5-4.46-4.888-6.405.81-2.56,2.554-4.119,5.461-3.764,3.253.4,3.778,2.515,3.287,5.162" transform="translate(45.091 88.023)" fill="#3d3f3c"/>
    <path id="Path_4426" data-name="Path 4426" d="M15.325,187.42c.855-2.786-.76-4.39-2.5-6.221a2.037,2.037,0,0,1,1.014-3.491c2.96-.942,7.431,1.481,8.27,4.575.95,3.524-1.654,4-4.1,4.678-.919.257-1.708,1.006-2.689.458" transform="translate(21.879 318.564)" fill="#3d3f3c"/>
    <path id="Path_4427" data-name="Path 4427" d="M58.674,127.115c-2.574-.045-3.968-2.146-3.748-5.765.143-2.336,1.462-3.451,3.787-3.3,2.845.182,6.394,3.133,6.162,5.081-.257,2.141-3.211,4.041-6.2,3.988" transform="translate(98.536 211.835)" fill="#3d3f3c"/>
    <path id="Path_4428" data-name="Path 4428" d="M123.8,181.8a10.915,10.915,0,0,1-.981,3.354c-1.04,1.738-2.976,3-4.913,2.269-2.021-.76-2.026-2.837-1.917-4.991.137-2.736,3.116-3.331,3.594-5.846.224-1.168,2.149-.556,3.055.3,1.135,1.068,1.411,2.524,1.163,4.916" transform="translate(208.092 315.763)" fill="#3d3f3c"/>
    <path id="Path_4429" data-name="Path 4429" d="M95.916,128.915c2.023,1.177,3.194.651,4.15-.757.626-.922,1.445-1.378,2.255-.307a3.136,3.136,0,0,1,.6,2c-.134,1.456-7.1,7.618-8.359,7.342-2.264-.5-2.733-2.6-3.192-4.421s.179-3.457,2.185-3.971a6.662,6.662,0,0,1,2.364.12" transform="translate(163.721 228.34)" fill="#3d3f3c"/>
    <path id="Path_4430" data-name="Path 4430" d="M124.763,150.479c-.017,1.666-3.608,5.1-5.408,5.181-3.077.131-4.829-2.166-4.829-5.944,0-3.088,1.959-3.608,4.329-3.628,2.893-.025,5.93,2.3,5.908,4.39" transform="translate(205.54 262.184)" fill="#3d3f3c"/>
    <path id="Path_4431" data-name="Path 4431" d="M41.464,195.339a25.256,25.256,0,0,1,.774-2.9c.646-1.752.886-4.083,3.812-3.2,2.49.755,4.276,4.125,3.077,6.378a11.694,11.694,0,0,1-2.968,3.15,3.414,3.414,0,0,1-3.32,1.04c-1.1-.358-1.531-1.587-1.375-4.469" transform="translate(74.36 339.285)" fill="#3d3f3c"/>
    <path id="Path_4432" data-name="Path 4432" d="M68.062,86.341c-.523,2.691-.942,4.868-3,6.187-1.526.978-3.287,1.476-4.793.388-1.523-1.1-3.3-2.339-3.426-4.46-.1-1.624.992-2.588,2.672-2.884,2.725-.481,5.243.693,8.546.769" transform="translate(102.007 153.369)" fill="#3d3f3c"/>
    <path id="Path_4433" data-name="Path 4433" d="M21.164,87.4c.654,2.244,1.694,4.9-2.448,4.748-2.89-.1-4.776-2.348-4.729-5.36.059-3.382,1.909-5.623,4.586-5.341,4.089.428,3.762,2.979,2.591,5.953" transform="translate(25.102 146.122)" fill="#3d3f3c"/>
    <path id="Path_4434" data-name="Path 4434" d="M29.706,8.884c.193,2.577-5.056,7.632-7.434,7.11a1.912,1.912,0,0,1-1.165-.8c-1.559-2.8-.176-5.215,1.272-7.465.917-1.417,5.427-1.375,6.727-.106a4.2,4.2,0,0,1,.6,1.258" transform="translate(36.646 11.975)" fill="#3d3f3c"/>
    <path id="Path_4435" data-name="Path 4435" d="M85.885,137.51c-1.973.157-4.46-2.538-4.567-4.947-.1-2.278,2.756-5.609,4.916-5.511a3.907,3.907,0,0,1,3.994,3.572c.405,2.63-2.213,6.716-4.343,6.886" transform="translate(145.938 228.017)" fill="#3d3f3c"/>
    <path id="Path_4436" data-name="Path 4436" d="M58.664,56.154c3.18.157,5.343,2.591,4.891,5.517-.355,2.306-1.534,4.265-4.226,4.4-2.613.137-4.256-2.848-4.184-6.71.056-2.8,1.671-3.233,3.519-3.208" transform="translate(98.966 100.777)" fill="#3d3f3c"/>
    <path id="Path_4437" data-name="Path 4437" d="M172.285,97.284a4.78,4.78,0,0,1-4.882,4.354c-2.957.106-4.167-2.267-4.432-4.866a3.911,3.911,0,0,1,4.62-4.268c2.666.333,4.7,1.428,4.7,4.779" transform="translate(292.441 165.949)" fill="#3d3f3c"/>
    <path id="Path_4438" data-name="Path 4438" d="M37.927,43.039c-2.585-.235-3.6-1.752-3.407-4.022a4.9,4.9,0,0,1,4.715-4.8c2.213-.238,5.978,3.368,5.3,5.1-1.157,2.951-4.047,3.247-6.607,3.72" transform="translate(61.913 61.399)" fill="#3d3f3c"/>
    <path id="Path_4439" data-name="Path 4439" d="M30.522,163.19c2.306.263,5.7,4.55,5.388,7.031-.293,2.381-1.663,4.175-4.139,4.206-1.973.028-4.6-5.841-4.15-8.627a2.7,2.7,0,0,1,2.9-2.61" transform="translate(49.479 292.877)" fill="#3d3f3c"/>
    <path id="Path_4440" data-name="Path 4440" d="M15.32,120.6c-.313,2.278-.1,4.835-3.39,4.709-2.711-.106-4.586-2.5-4.553-5.62.031-2.669,2.2-5.064,4.463-4.614,3.049.6,3.393,3.1,3.479,5.525" transform="translate(13.239 206.424)" fill="#3d3f3c"/>
    <path id="Path_4441" data-name="Path 4441" d="M17.837,146.69c-.528,1.649-1.5,3.01-3.524,2.9-2.065-.117-6.146-4.933-5.763-6.794.4-1.926,1.819-2.772,3.728-2.77,2.753.006,5.824,3.644,5.559,6.668" transform="translate(15.3 251.298)" fill="#3d3f3c"/>
    <path id="Path_4442" data-name="Path 4442" d="M10.182,161.257c.2-2,.866-4.142,3.77-4.008,2.25.106,4.7,3.672,4.36,6.115-.374,2.686-2.364,3.6-4.729,3.739-2.25.134-3.521-2.018-3.4-5.846" transform="translate(18.26 282.204)" fill="#3d3f3c"/>
    <path id="Path_4443" data-name="Path 4443" d="M64.1,83.174c.081-3.138,2.222-5.768,4.659-5.626,2.465.143,3.152,1.94,3.2,4.064.067,3.161-3.111,7.431-5.248,6.844-2.719-.743-2.258-3.356-2.607-5.282" transform="translate(115.04 139.167)" fill="#3d3f3c"/>
    <path id="Path_4444" data-name="Path 4444" d="M31.037,177.39c-.2,2.577-1.129,5.687-3.915,6.02-2.842.338-3.5-2.907-3.79-5.285a4.185,4.185,0,0,1,4.234-4.785c2.443.073,3.359,1.568,3.471,4.05" transform="translate(41.813 311.09)" fill="#3d3f3c"/>
    <path id="Path_4445" data-name="Path 4445" d="M49.48,10.773c.2,2.225-.721,3.278-2.353,3.538-1.52.24-6.031-5.193-6.2-7.456-.235-3.1,2.051-3.614,4.329-3.762,2.378-.154,4.075,3.233,4.226,7.68" transform="translate(73.42 5.542)" fill="#3d3f3c"/>
    <path id="Path_4446" data-name="Path 4446" d="M15.618,8.977c1.833.218,3.315.833,3.5,3,.224,2.607-2.739,6.646-4.933,6.308-2.3-.355-4.05-1.775-4.159-4.337-.089-2.1,3.183-4.882,5.589-4.969" transform="translate(17.994 16.111)" fill="#3d3f3c"/>
    <path id="Path_4447" data-name="Path 4447" d="M20.457,177.488c-3.074-.232-4.256-1.881-4.48-4.329-.246-2.725.794-5.24,3.527-5.528,2.75-.288,3.222,2.484,3.53,4.664a4.73,4.73,0,0,1-2.577,5.193" transform="translate(28.612 300.811)" fill="#3d3f3c"/>
    <path id="Path_4448" data-name="Path 4448" d="M13.508,63.677c.05-3.275,1.3-5.112,4.323-5.089,2.842.02,3.605,1.951,3.586,4.432-.028,3.39-2.479,4.955-5.114,5.17-3.412.277-1.923-3.186-2.795-4.513" transform="translate(24.243 105.148)" fill="#3d3f3c"/>
    <path id="Path_4449" data-name="Path 4449" d="M31.752,92.66A3.738,3.738,0,0,1,35.667,96.8,4.567,4.567,0,0,1,31,101.477c-2.976.045-3.991-2.607-4.276-5.078-.439-3.784,3.4-2.244,5.03-3.739" transform="translate(47.894 166.297)" fill="#3d3f3c"/>
    <path id="Path_4450" data-name="Path 4450" d="M57.1,66.28c.014,3.468-2.155,6.724-4.421,6.635-2.149-.087-5.156-3.7-4.077-5.911.894-1.831,3.463-3.071,5.539-4.024,1.353-.62,2.951,1.4,2.96,3.3" transform="translate(86.819 112.824)" fill="#3d3f3c"/>
    <path id="Path_4451" data-name="Path 4451" d="M18.543,147.235a4.37,4.37,0,0,1,3.935,5.145c-.307,2.163-.855,4.474-3.356,5.128-1.836.478-4.332-3.029-4.346-5.835-.011-2.63,1.6-4.527,3.767-4.438" transform="translate(26.518 264.237)" fill="#3d3f3c"/>
    <path id="Path_4452" data-name="Path 4452" d="M36.846,194.131c-2.177-.226-5.125-3.865-5.078-6.394.045-2.566,1.853-3.3,3.91-3.342a4.631,4.631,0,0,1,4.268,5.5c-.4,1.663-.131,4.2-3.1,4.237" transform="translate(57.014 330.932)" fill="#3d3f3c"/>
    <path id="Path_4453" data-name="Path 4453" d="M35.123,158.289c-.363,2.048-.729,4.9-3.748,5.83-1.747.539-4.217-2.811-3.873-5.24.313-2.2,1.037-4.583,3.871-4.284,1.621.173,4.259,0,3.75,3.695" transform="translate(49.299 277.405)" fill="#3d3f3c"/>
    <path id="Path_4454" data-name="Path 4454" d="M13.072,167.649c2.607.456,3.549,2.219,3.354,4.709-.187,2.367-.911,4.382-3.89,4.133a4.431,4.431,0,0,1-4.318-4.159c-.268-2.007,2.655-4.7,4.854-4.684" transform="translate(14.718 300.88)" fill="#3d3f3c"/>
    <path id="Path_4455" data-name="Path 4455" d="M36.267,174.685c2.046.321,3.873.945,4.055,3.435.17,2.381-2.239,5.327-4.265,5.139C33.34,183,32.273,180.71,32,178.651c-.355-2.686,1.789-3.734,4.265-3.966" transform="translate(57.364 313.507)" fill="#3d3f3c"/>
    <path id="Path_4456" data-name="Path 4456" d="M77,188.4c-1.722,3.049-1.92,7.182-6.414,6.092-2.359-.573-3.384-2.661-2.577-5.2.945-2.976,2.859-3.211,8.991-.889" transform="translate(121.574 335.304)" fill="#3d3f3c"/>
    <path id="Path_4457" data-name="Path 4457" d="M28.777,38.211c3.141.148,3.8,2.23,3.938,4.513.143,2.314-.324,4.723-3.233,4.7-2.851-.022-4.337-2.278-4.6-4.818-.285-2.694,2.127-3.482,3.9-4.393" transform="translate(44.609 68.577)" fill="#3d3f3c"/>
    <path id="Path_4458" data-name="Path 4458" d="M29.154,189.858c-.447,1.775-1.04,3.711-3.5,3.723-2.429.008-4.9-3.013-4.586-5.545.252-1.981.8-3.966,3.382-3.9,2.526.056,4.894,2.946,4.7,5.726" transform="translate(37.762 330.459)" fill="#3d3f3c"/>
    <path id="Path_4459" data-name="Path 4459" d="M58.854,37.886c-3.281-.746-3.778-3.6-4.469-6.123-.422-1.551.249-3.027,2.216-2.943,2.6.109,5.223.939,5.447,3.865.157,2.026-.45,4.48-3.194,5.2" transform="translate(97.389 51.718)" fill="#3d3f3c"/>
    <path id="Path_4460" data-name="Path 4460" d="M43.615,187.987c-2.457-.14-3.024-1.979-3.116-4-.129-2.764,2.015-4.662,5.207-4.832a2.4,2.4,0,0,1,2.817,2.5c.19,2.99-2.348,6.257-4.907,6.327" transform="translate(72.673 321.524)" fill="#3d3f3c"/>
    <path id="Path_4461" data-name="Path 4461" d="M25.3,162.008c-.277,2.258-.9,4.606-3.6,4.815-2.887.224-3.681-2.152-3.778-4.486-.087-2.062.57-4.128,3.027-4.363,2.675-.254,4.069,1.336,4.349,4.033" transform="translate(32.149 283.47)" fill="#3d3f3c"/>
    <path id="Path_4462" data-name="Path 4462" d="M29,142.711c.288,2.784-2.6,5.033-4.466,4.223a6.157,6.157,0,0,1-3.085-3.046c-1-2.065-.632-3.932,1.322-5.153,1.747-1.1,2.557.349,3.468,1.568.847,1.135,2.675,1.409,2.761,2.409" transform="translate(37.523 248.29)" fill="#3d3f3c"/>
    <path id="Path_4463" data-name="Path 4463" d="M27.689,168.576c-.4,2.538-.687,4.849-3.166,5.547-1.794.506-3.4-2.451-3.365-5.489.031-2.75,1.685-4.2,3.98-4.181,2.8.02,1.638,2.965,2.552,4.122" transform="translate(37.97 295.146)" fill="#3d3f3c"/>
    <path id="Path_4464" data-name="Path 4464" d="M14.969,136.974a12.389,12.389,0,0,1,2.842-.383c1.741.291,3.644-2.18,5.215.265.52.808-2.239,6.2-3.449,6.623a2.418,2.418,0,0,1-3.055-1.193,36.721,36.721,0,0,1-1.554-5.313" transform="translate(26.865 243.659)" fill="#3d3f3c"/>
    <path id="Path_4465" data-name="Path 4465" d="M26.092,147.444c3.37.682,2.926,3.25,3.356,5.318.573,2.73-1.766,2.9-3.144,2.775-2.4-.21-2.733-2.591-2.879-4.474a3.57,3.57,0,0,1,2.666-3.619" transform="translate(42.021 264.618)" fill="#3d3f3c"/>
  </g>
</svg>
