<svg xmlns="http://www.w3.org/2000/svg" xmlns:xlink="http://www.w3.org/1999/xlink" width="136" height="136" viewBox="0 0 136 136">
  <defs>
    <clipPath id="clip-path">
      <rect id="Rectangle_765" data-name="Rectangle 765" width="65.178" height="65.178" transform="translate(0 0)" fill="none" stroke="#707070" stroke-width="3.5"/>
    </clipPath>
  </defs>
  <g id="Group_432" data-name="Group 432" transform="translate(-283 -1392)">
    <circle id="Ellipse_1" data-name="Ellipse 1" cx="68" cy="68" r="68" transform="translate(283 1392)" fill="#a2e3dd"/>
    <rect id="Rectangle_766" data-name="Rectangle 766" width="61" height="58" rx="10" transform="translate(321 1431)" fill="#e96687"/>
    <g id="Group_434" data-name="Group 434" transform="translate(318.411 1427.41)">
      <g id="Group_433" data-name="Group 433" transform="translate(0 0.001)" clip-path="url(#clip-path)">
        <path id="Path_7138" data-name="Path 7138" d="M298.184,293.093a5.092,5.092,0,1,0-5.092,5.092A5.092,5.092,0,0,0,298.184,293.093Z" transform="translate(-260.503 -260.504)" fill="none" stroke="#000" stroke-linecap="round" stroke-linejoin="round" stroke-width="3.5"/>
        <path id="Path_7139" data-name="Path 7139" d="M47.417,26.667H39.4A12.73,12.73,0,0,0,26.667,39.4V74.023A12.73,12.73,0,0,0,39.4,86.753H74.023a12.73,12.73,0,0,0,12.73-12.73V66.257" transform="translate(-24.121 -24.121)" fill="none" stroke="#000" stroke-linecap="round" stroke-linejoin="round" stroke-width="3.5"/>
        <path id="Path_7140" data-name="Path 7140" d="M532.516,86.667a3.183,3.183,0,1,1-3.182,3.182,3.183,3.183,0,0,1,3.182-3.182" transform="translate(-478.796 -78.393)"/>
        <path id="Path_7141" data-name="Path 7141" d="M600.516,185.334a3.183,3.183,0,1,1-3.182,3.182,3.183,3.183,0,0,1,3.182-3.182" transform="translate(-540.303 -167.639)"/>
        <path id="Path_7142" data-name="Path 7142" d="M619.182,294.667A3.183,3.183,0,1,1,616,297.849a3.183,3.183,0,0,1,3.182-3.182" transform="translate(-557.187 -266.534)"/>
        <path id="Path_7143" data-name="Path 7143" d="M437.849,18.667a3.183,3.183,0,1,1-3.182,3.182,3.182,3.182,0,0,1,3.182-3.182" transform="translate(-393.167 -16.885)"/>
        <path id="Path_7144" data-name="Path 7144" d="M327.183,0A3.183,3.183,0,1,1,324,3.182,3.182,3.182,0,0,1,327.183,0" transform="translate(-293.066 0)"/>
      </g>
    </g>
  </g>
</svg>
