<svg xmlns="http://www.w3.org/2000/svg" xmlns:xlink="http://www.w3.org/1999/xlink" width="136" height="136" viewBox="0 0 136 136">
  <defs>
    <clipPath id="clip-path">
      <rect id="Rectangle_769" data-name="Rectangle 769" width="76.651" height="76.651" fill="none" stroke="#707070" stroke-width="3"/>
    </clipPath>
  </defs>
  <g id="Group_440" data-name="Group 440" transform="translate(-283 -1392)">
    <circle id="Ellipse_1" data-name="Ellipse 1" cx="68" cy="68" r="68" transform="translate(283 1392)" fill="#a2e3dd"/>
    <g id="Group_444" data-name="Group 444" transform="translate(312.674 1421.674)">
      <g id="Group_443" data-name="Group 443" transform="translate(0 0.001)" clip-path="url(#clip-path)">
        <path id="Path_7177" data-name="Path 7177" d="M84,173.334H16.328a2.993,2.993,0,0,0-2.994,2.994V221.54a2.993,2.993,0,0,0,2.994,2.994H39.683a1.5,1.5,0,0,1,1.5,1.5,2.993,2.993,0,0,0,2.994,2.994H56.151a2.993,2.993,0,0,0,2.994-2.994,1.5,1.5,0,0,1,1.5-1.5H84a2.993,2.993,0,0,0,2.994-2.994V176.328A2.993,2.993,0,0,0,84,173.334" transform="translate(-11.837 -153.872)" fill="#ff6977" stroke="#707070" stroke-width="3"/>
        <path id="Path_7178" data-name="Path 7178" d="M66.667,133.334v49.7H93.016a4.491,4.491,0,0,1,4.491,4.491A4.491,4.491,0,0,1,102,183.037h26.349v-49.7Z" transform="translate(-59.181 -118.363)" fill="#eff3f3" stroke="#707070" stroke-width="3"/>
        <path id="Path_7179" data-name="Path 7179" d="M181.789,26.805a17.975,17.975,0,0,1,34.807,0,17.938,17.938,0,0,1-8.556,20.106,4.327,4.327,0,0,0-2.107,3.792v3.05H192.46V50.7a4.345,4.345,0,0,0-2.126-3.8,17.958,17.958,0,0,1-8.545-20.094" transform="translate(-160.871 -11.834)" fill="#ffcb7c"/>
        <path id="Path_7180" data-name="Path 7180" d="M294.807,373.334v4.491a4.491,4.491,0,0,1-4.491,4.491h-4.491a4.491,4.491,0,0,1-4.491-4.491v-4.491Z" transform="translate(-249.744 -331.415)" fill="#8690a6" stroke="#707070" stroke-width="3"/>
        <path id="Path_7181" data-name="Path 7181" d="M81,173.334H84a2.993,2.993,0,0,1,2.994,2.994V221.54A2.993,2.993,0,0,1,84,224.535H60.641a1.5,1.5,0,0,0-1.5,1.5,2.993,2.993,0,0,1-2.994,2.994H44.173a2.993,2.993,0,0,1-2.994-2.994,1.5,1.5,0,0,0-1.5-1.5H16.327a2.993,2.993,0,0,1-2.994-2.994V176.328a2.993,2.993,0,0,1,2.994-2.994h2.994" transform="translate(-11.836 -153.872)" fill="none" stroke="#000" stroke-linecap="round" stroke-linejoin="round" stroke-width="3"/>
        <path id="Path_7182" data-name="Path 7182" d="M80.108,133.334H66.667v49.7H93.016a4.491,4.491,0,0,1,4.491,4.491A4.491,4.491,0,0,1,102,183.037h26.349v-49.7H114.906" transform="translate(-59.181 -118.363)" fill="none" stroke="#000" stroke-linecap="round" stroke-linejoin="round" stroke-width="3"/>
        <path id="Path_7183" data-name="Path 7183" d="M341.333,453.334v24.253" transform="translate(-303.008 -402.433)" fill="none" stroke="#000" stroke-linecap="round" stroke-linejoin="round" stroke-width="3"/>
        <path id="Path_7184" data-name="Path 7184" d="M294.807,373.334H281.333" transform="translate(-249.745 -331.415)" fill="none" stroke="#000" stroke-linecap="round" stroke-linejoin="round" stroke-width="3"/>
        <path id="Path_7185" data-name="Path 7185" d="M301.333,173.334l4.491,4.491,4.491-4.491" transform="translate(-267.499 -153.872)" fill="none" stroke="#000" stroke-linecap="round" stroke-linejoin="round" stroke-width="3"/>
        <line id="Line_1" data-name="Line 1" y1="17.965" transform="translate(38.326 23.953)" fill="none" stroke="#000" stroke-linecap="round" stroke-linejoin="round" stroke-width="3"/>
        <path id="Path_7186" data-name="Path 7186" d="M330.994,1.5A1.5,1.5,0,1,1,329.5,0a1.5,1.5,0,0,1,1.5,1.5" transform="translate(-291.172 -0.001)"/>
        <path id="Path_7187" data-name="Path 7187" d="M192.681,24.547a18.19,18.19,0,0,0-10.79,12.211,16.592,16.592,0,0,0-.337,1.641,17.936,17.936,0,0,0,8.882,18.453,4.344,4.344,0,0,1,2.126,3.8V68.2a4.491,4.491,0,0,0,4.491,4.491h4.491a4.491,4.491,0,0,0,4.491-4.491V60.656a4.327,4.327,0,0,1,2.106-3.792,17.95,17.95,0,0,0-2.224-32.321" transform="translate(-160.973 -21.787)" fill="none" stroke="#000" stroke-linecap="round" stroke-linejoin="round" stroke-width="3"/>
      </g>
    </g>
  </g>
</svg>
