<svg xmlns="http://www.w3.org/2000/svg" xmlns:xlink="http://www.w3.org/1999/xlink" width="136" height="136" viewBox="0 0 136 136">
  <defs>
    <clipPath id="clip-path">
      <rect id="Rectangle_767" data-name="Rectangle 767" width="73.329" height="80.483" fill="none"/>
    </clipPath>
  </defs>
  <g id="Group_437" data-name="Group 437" transform="translate(-283 -1392)">
    <circle id="Ellipse_1" data-name="Ellipse 1" cx="68" cy="68" r="68" transform="translate(283 1392)" fill="#e96687"/>
    <g id="Group_438" data-name="Group 438" transform="translate(314.335 1419.759)">
      <g id="Group_435" data-name="Group 435" clip-path="url(#clip-path)">
        <path id="Path_7145" data-name="Path 7145" d="M289.349,291.347a2.223,2.223,0,1,1-2.222,2.223,2.222,2.222,0,0,1,2.222-2.223" transform="translate(-237.171 -240.657)" fill="#4dc3ff"/>
        <path id="Path_7146" data-name="Path 7146" d="M324.672,256.022a2.222,2.222,0,1,1-2.223,2.222,2.222,2.222,0,0,1,2.223-2.222" transform="translate(-266.348 -211.478)" fill="#4dc3ff"/>
        <path id="Path_7147" data-name="Path 7147" d="M254.025,256.022a2.222,2.222,0,1,1-2.223,2.222,2.222,2.222,0,0,1,2.223-2.222" transform="translate(-207.992 -211.478)" fill="#4dc3ff"/>
        <path id="Path_7148" data-name="Path 7148" d="M289.349,220.7a2.223,2.223,0,1,1-2.222,2.223,2.222,2.222,0,0,1,2.222-2.223" transform="translate(-237.171 -182.302)" fill="#4dc3ff"/>
        <path id="Path_7149" data-name="Path 7149" d="M87.006,234.5v4.365H82.423v4.583H78.059v-4.583H73.476V234.5h4.583v-4.582h4.364V234.5Z" transform="translate(-60.692 -189.912)" fill="#4dc3ff"/>
        <path id="Path_7150" data-name="Path 7150" d="M76.688,212.531c1.419,5.114,2.746,11.59-1.684,14.68a7.6,7.6,0,0,1-10.575-1.883l-3.836-5.5-.148-.212-8.124-11.645H32.946l-8.124,11.645-.148.212-3.836,5.5a7.6,7.6,0,0,1-10.575,1.883c-4.43-3.09-3.1-9.566-1.684-14.68l5.14-22.644a11.663,11.663,0,0,1,18.069-6.968l1.127.79a3.033,3.033,0,0,0,1.74.549H50.612a3.033,3.033,0,0,0,1.74-.549l1.127-.79a11.663,11.663,0,0,1,18.069,6.968ZM66.515,196.115a2.223,2.223,0,1,0-2.222,2.222,2.222,2.222,0,0,0,2.222-2.222m-6.146-6.146a2.222,2.222,0,1,0-2.222,2.222,2.222,2.222,0,0,0,2.222-2.222m0,12.292a2.222,2.222,0,1,0-2.222,2.222,2.222,2.222,0,0,0,2.222-2.222m-6.145-6.146A2.223,2.223,0,1,0,52,198.338a2.222,2.222,0,0,0,2.222-2.222M32.283,198.3v-4.365H27.7V189.35H23.335v4.583H18.752V198.3h4.583v4.583H27.7V198.3Z" transform="translate(-5.969 -149.349)" fill="#707fcc"/>
        <path id="Path_7151" data-name="Path 7151" d="M130.067,15.689,123.3,18.347l-14.757,5.8-14.757-5.8-6.769-2.659,21.526-8.456Z" transform="translate(-71.877 -5.974)" fill="#388ab3"/>
        <path id="Path_7152" data-name="Path 7152" d="M155.433,71.119V85.043a47.762,47.762,0,0,1-29.514,0V71.119l14.757,5.8,14.757-5.8Z" transform="translate(-104.011 -58.745)" fill="#2d7599"/>
        <path id="Path_7153" data-name="Path 7153" d="M102.574,19.428a1.257,1.257,0,0,1-.46-.087L80.589,10.884a1.258,1.258,0,0,1,0-2.341L102.115.087a1.254,1.254,0,0,1,.92,0L124.56,8.543a1.258,1.258,0,0,1,0,2.341L103.034,19.34A1.257,1.257,0,0,1,102.574,19.428ZM84.489,9.714l18.086,7.105L120.66,9.713,102.574,2.608Z" transform="translate(-65.909 0.001)" fill="#212121"/>
        <path id="Path_7154" data-name="Path 7154" d="M134.706,82.667a48.93,48.93,0,0,1-15.146-2.4,1.257,1.257,0,0,1-.869-1.2V65.147a1.258,1.258,0,1,1,2.515,0v13a46.171,46.171,0,0,0,27,0v-13a1.258,1.258,0,1,1,2.515,0V79.071a1.258,1.258,0,0,1-.869,1.2A48.949,48.949,0,0,1,134.706,82.667Z" transform="translate(-98.041 -52.773)" fill="#212121"/>
        <path id="Path_7155" data-name="Path 7155" d="M328.487,62.8a1.258,1.258,0,0,1-1.258-1.258V49.866a1.258,1.258,0,1,1,2.515,0V61.545a1.258,1.258,0,0,1-1.258,1.258" transform="translate(-270.296 -40.151)" fill="#212121"/>
        <path id="Path_7156" data-name="Path 7156" d="M8.628,223.856a8.8,8.8,0,0,1-5.052-1.588C1.262,220.654.06,218.1,0,214.676a30.791,30.791,0,0,1,1.389-8.428l5.133-22.615a12.92,12.92,0,0,1,20.017-7.719l1.127.79a1.763,1.763,0,0,0,1.018.321H44.644a1.762,1.762,0,0,0,1.018-.321l1.127-.79A12.92,12.92,0,0,1,66.8,183.632l5.133,22.615a30.785,30.785,0,0,1,1.389,8.428c-.058,3.423-1.26,5.978-3.573,7.592a8.861,8.861,0,0,1-12.326-2.2L45.7,203.254H27.633L15.9,220.072A8.85,8.85,0,0,1,8.628,223.856Zm10.5-47.768a10.351,10.351,0,0,0-10.147,8.1l-5.14,22.644c0,.019-.009.039-.015.058a28.642,28.642,0,0,0-1.306,7.741c.044,2.607.861,4.429,2.5,5.571a6.345,6.345,0,0,0,8.824-1.571l12.108-17.356a1.258,1.258,0,0,1,1.031-.538H46.353a1.255,1.255,0,0,1,1.031.538l12.108,17.356a6.344,6.344,0,0,0,8.824,1.571c1.636-1.142,2.454-2.964,2.5-5.571a28.668,28.668,0,0,0-1.306-7.741c-.005-.019-.01-.039-.015-.058l-5.14-22.644a10.405,10.405,0,0,0-16.12-6.216l-1.127.79a4.266,4.266,0,0,1-2.462.777H28.687a4.267,4.267,0,0,1-2.462-.777l-1.127-.79A10.358,10.358,0,0,0,19.124,176.088Z" transform="translate(0 -143.373)" fill="#212121"/>
        <path id="Path_7157" data-name="Path 7157" d="M76.453,238.73H72.088a1.258,1.258,0,0,1-1.258-1.258v-3.325H67.506a1.258,1.258,0,0,1-1.258-1.258v-4.364a1.258,1.258,0,0,1,1.258-1.258h3.325v-3.325a1.258,1.258,0,0,1,1.258-1.258h4.364a1.258,1.258,0,0,1,1.258,1.258v3.325h3.325a1.258,1.258,0,0,1,1.258,1.258v4.364a1.258,1.258,0,0,1-1.258,1.258H77.71v3.325a1.257,1.257,0,0,1-1.258,1.258m-3.107-2.515H75.2V232.89a1.258,1.258,0,0,1,1.258-1.258h3.325v-1.849H76.453a1.258,1.258,0,0,1-1.258-1.258V225.2H73.346v3.325a1.258,1.258,0,0,1-1.258,1.258H68.763v1.849h3.325a1.258,1.258,0,0,1,1.258,1.258Z" transform="translate(-54.722 -183.941)" fill="#212121"/>
        <path id="Path_7158" data-name="Path 7158" d="M248.057,255.757a3.48,3.48,0,1,1,3.48-3.48,3.484,3.484,0,0,1-3.48,3.48m0-4.445a.965.965,0,1,0,.965.965.966.966,0,0,0-.965-.965" transform="translate(-202.024 -205.51)" fill="#212121"/>
        <path id="Path_7159" data-name="Path 7159" d="M318.7,255.757a3.48,3.48,0,1,1,3.48-3.48,3.484,3.484,0,0,1-3.48,3.48m0-4.445a.965.965,0,1,0,.965.965.966.966,0,0,0-.965-.965" transform="translate(-260.38 -205.51)" fill="#212121"/>
        <path id="Path_7160" data-name="Path 7160" d="M283.379,220.432a3.48,3.48,0,1,1,3.48-3.48,3.484,3.484,0,0,1-3.48,3.48m0-4.445a.965.965,0,1,0,.965.965.966.966,0,0,0-.965-.965" transform="translate(-231.201 -176.331)" fill="#212121"/>
        <path id="Path_7161" data-name="Path 7161" d="M283.379,291.078a3.48,3.48,0,1,1,3.48-3.48,3.484,3.484,0,0,1-3.48,3.48m0-4.445a.965.965,0,1,0,.965.965.966.966,0,0,0-.965-.965" transform="translate(-231.201 -234.686)" fill="#212121"/>
        <path id="Path_7162" data-name="Path 7162" d="M204.767,166.149a1.258,1.258,0,0,1-1.258-1.258v-6.274a1.258,1.258,0,1,1,2.515,0v6.274a1.257,1.257,0,0,1-1.258,1.257" transform="translate(-168.102 -129.982)" fill="#212121"/>
      </g>
    </g>
  </g>
</svg>
