<svg id="_6x7" data-name="6x7" xmlns="http://www.w3.org/2000/svg" xmlns:xlink="http://www.w3.org/1999/xlink" width="218.863" height="312.943" viewBox="0 0 218.863 312.943">
  <defs>
    <filter id="Rectangle_514" x="18" y="20.943" width="184" height="270" filterUnits="userSpaceOnUse">
      <feOffset input="SourceAlpha"/>
      <feGaussianBlur stdDeviation="10" result="blur"/>
      <feFlood flood-opacity="0.161"/>
      <feComposite operator="in" in2="blur"/>
      <feComposite in="SourceGraphic"/>
    </filter>
  </defs>
  <path id="Path_7311" data-name="Path 7311" d="M25.351,0H193.512a25.351,25.351,0,0,1,25.351,25.351V287.592a25.351,25.351,0,0,1-25.351,25.351H25.351A25.351,25.351,0,0,1,0,287.592V25.351A25.351,25.351,0,0,1,25.351,0Z" fill="#fff"/>
  <g transform="matrix(1, 0, 0, 1, 0, 0)" filter="url(#Rectangle_514)">
    <rect id="Rectangle_514-2" data-name="Rectangle 514" width="124" height="210" transform="translate(48 50.94)" fill="#fff"/>
  </g>
  <path id="Path_7299" data-name="Path 7299" d="M0,.717V7.255H13.929L2.553,33.366h7.838L21.632,6.4V.717ZM40.263,33.366h8.6l-8.6-12.406L48.638,8.375H40.353l-4.031,6.9-4.792-6.9h-8.6L31.4,20.6,23.155,33.366H31.44l4.031-6.942ZM74.346,9.495C73.943,4.658,70.808,0,63.776,0,55.312,0,51.818,5.6,51.818,16.8c0,9.763,2.418,16.75,12.272,16.75,7.032,0,11.152-4.479,11.152-10.973,0-6.808-4.031-10.525-9.719-10.525a7.991,7.991,0,0,0-6.942,3.359c.045-6.315,1.388-9.226,4.837-9.226,2.284,0,3.359,1.164,3.807,3.314Zm-10.659,8.6c2.866,0,4.344,1.791,4.344,4.523,0,2.777-1.657,4.434-4.255,4.434-2.911,0-4.568-1.7-4.568-4.568A4.155,4.155,0,0,1,63.687,18.094Z" transform="translate(147.612 240.399) rotate(180)" fill="#e90057"/>
  <path id="Path_7298" data-name="Path 7298" d="M42.244-227.415c-.4-4.837-3.538-9.495-10.57-9.495-8.465,0-11.958,5.6-11.958,16.795,0,9.764,2.418,16.75,12.272,16.75,7.032,0,11.152-4.479,11.152-10.973,0-6.808-4.031-10.525-9.719-10.525a7.991,7.991,0,0,0-6.942,3.359c.045-6.315,1.388-9.226,4.837-9.226,2.284,0,3.359,1.164,3.807,3.314Zm-10.659,8.6c2.866,0,4.344,1.791,4.344,4.523,0,2.777-1.657,4.434-4.255,4.434-2.911,0-4.568-1.7-4.568-4.568A4.155,4.155,0,0,1,31.584-218.816Zm31.44,15.272h8.6l-8.6-12.406L71.4-228.535H63.114l-4.031,6.9-4.792-6.9h-8.6l8.465,12.227-8.241,12.764H54.2l4.031-6.942Zm10.032-32.649v6.539H86.986L75.61-203.544h7.838l11.241-26.962v-5.688Z" transform="translate(53.058 309.455)" fill="#e90057"/>
  <rect id="Rectangle_985" data-name="Rectangle 985" width="26" height="6" transform="translate(71 110.943)" fill="#e90057"/>
  <rect id="Rectangle_986" data-name="Rectangle 986" width="26" height="5" transform="translate(71 196.943)" fill="#e90057"/>
  <g id="Group_389" data-name="Group 389" transform="translate(141.58 21.687)">
    <path id="Path_7286" data-name="Path 7286" d="M67.809,0H-9.474l6.08,24.557h71.2Z" transform="translate(9.474 0)" fill="#e90057"/>
    <path id="Path_7297" data-name="Path 7297" d="M16.139-129.656l-.795,4.563h-4.46l-.692,3.973h4.434l-.795,4.537h4.2l.795-4.537h4.434l.718-3.973H19.548l.795-4.563ZM22.547-114.4H35.414l.641-3.563H29.135c3.358-2.281,7.562-5.485,8.254-9.382.513-2.973-.9-5.511-5.152-5.511-3.409,0-6.69,1.948-7.639,6.485h4.255c.359-1.871,1.179-2.794,2.512-2.794,1.282,0,1.769.795,1.512,2.179-.487,2.871-5.2,6.049-9.766,9.33Z" transform="translate(1.493 135.276)" fill="#fff"/>
  </g>
  <g id="Group_391" data-name="Group 391" transform="translate(77.283 291.257) rotate(180)">
    <path id="Path_7286-2" data-name="Path 7286" d="M77.283,0H0L6.08,24.557h71.2Z" transform="translate(0 0)" fill="#e90057"/>
    <path id="Path_7300" data-name="Path 7300" d="M5.947,3.2,5.152,7.767H.692L0,11.74H4.434L3.64,16.277h4.2l.795-4.537h4.434l.718-3.973H9.356L10.151,3.2Zm6.408,15.251H25.222l.641-3.563H18.943C22.3,12.611,26.5,9.407,27.2,5.511,27.709,2.538,26.3,0,22.044,0c-3.409,0-6.69,1.948-7.639,6.485h4.255c.359-1.871,1.179-2.794,2.512-2.794,1.282,0,1.769.795,1.512,2.179-.487,2.871-5.2,6.049-9.766,9.33Z" transform="translate(11.685 2.416)" fill="#fff"/>
  </g>
</svg>
