<svg id="_3x4" data-name="3x4" xmlns="http://www.w3.org/2000/svg" xmlns:xlink="http://www.w3.org/1999/xlink" width="218.863" height="312.943" viewBox="0 0 218.863 312.943">
  <defs>
    <filter id="Rectangle_514" x="17.673" y="21.824" width="183.517" height="269.112" filterUnits="userSpaceOnUse">
      <feOffset input="SourceAlpha"/>
      <feGaussianBlur stdDeviation="10" result="blur"/>
      <feFlood flood-opacity="0.161"/>
      <feComposite operator="in" in2="blur"/>
      <feComposite in="SourceGraphic"/>
    </filter>
  </defs>
  <path id="Path_7312" data-name="Path 7312" d="M25.351,0H193.512a25.351,25.351,0,0,1,25.351,25.351V287.592a25.351,25.351,0,0,1-25.351,25.351H25.351A25.351,25.351,0,0,1,0,287.592V25.351A25.351,25.351,0,0,1,25.351,0Z" fill="#fff"/>
  <g transform="matrix(1, 0, 0, 1, 0, 0)" filter="url(#Rectangle_514)">
    <rect id="Rectangle_514-2" data-name="Rectangle 514" width="123.517" height="209.112" transform="translate(47.67 51.82)" fill="#fff"/>
  </g>
  <path id="Path_7302" data-name="Path 7302" d="M15.048,33.456h7.659V27.633h3.673V21H22.707V1.209H14.153L0,21.453v6.181H15.048ZM8.062,21,15.586,9.629V21ZM45.682,33.456h8.6l-8.6-12.406L54.058,8.465H45.772l-4.031,6.9-4.792-6.9h-8.6l8.465,12.227L28.574,33.456h8.286l4.031-6.942ZM56.745,9.987h7.479C64.358,8.2,65.254,6.4,67.717,6.4a3.1,3.1,0,0,1,3.359,3.4c0,2.956-2.508,3.583-5.106,3.583H64.538v6.225h1.433c3.986,0,5.733,1.164,5.733,4.076a3.41,3.41,0,0,1-3.673,3.673c-2.822,0-4.21-1.7-4.255-4.255H56.342c.224,7.39,5.15,10.614,11.958,10.614,6.852,0,10.794-3.941,10.794-9.45,0-4.3-2.239-6.808-5.509-7.882v-.179a7.412,7.412,0,0,0,4.927-7.345C78.511,3.941,74.794,0,67.9,0,61.223,0,57.013,3.538,56.745,9.987Z" transform="translate(149.207 240.488) rotate(180)"/>
  <path id="Path_7301" data-name="Path 7301" d="M13.759-227.559h7.479c.134-1.791,1.03-3.583,3.493-3.583a3.1,3.1,0,0,1,3.359,3.4c0,2.956-2.508,3.583-5.106,3.583H21.552v6.225h1.433c3.986,0,5.733,1.164,5.733,4.076a3.41,3.41,0,0,1-3.673,3.673c-2.822,0-4.21-1.7-4.255-4.255H13.356c.224,7.39,5.15,10.614,11.958,10.614,6.852,0,10.794-3.941,10.794-9.45,0-4.3-2.239-6.808-5.509-7.882v-.179a7.412,7.412,0,0,0,4.927-7.345c0-4.927-3.717-8.868-10.614-8.868C18.238-237.546,14.028-234.008,13.759-227.559ZM56.127-204.09h8.6l-8.6-12.406L64.5-229.081H56.217l-4.031,6.9-4.792-6.9h-8.6l8.465,12.227L39.019-204.09H47.3l4.031-6.942Zm26.021,0h7.659v-5.822h3.673v-6.628H89.807v-19.8H81.253L67.1-216.093v6.181H82.148Zm-6.987-12.451,7.524-11.376v11.376Z" transform="translate(56.128 309.86)"/>
</svg>
