<svg id="_5x9" data-name="5x9" xmlns="http://www.w3.org/2000/svg" xmlns:xlink="http://www.w3.org/1999/xlink" width="218.294" height="312.13" viewBox="0 0 218.294 312.13">
  <defs>
    <filter id="Rectangle_514" x="17.894" y="21.576" width="182.847" height="269.037" filterUnits="userSpaceOnUse">
      <feOffset input="SourceAlpha"/>
      <feGaussianBlur stdDeviation="10" result="blur"/>
      <feFlood flood-opacity="0.161"/>
      <feComposite operator="in" in2="blur"/>
      <feComposite in="SourceGraphic"/>
    </filter>
  </defs>
  <path id="Path_7313" data-name="Path 7313" d="M25.285,0H193.009a25.285,25.285,0,0,1,25.285,25.285v261.56a25.285,25.285,0,0,1-25.285,25.285H25.285A25.285,25.285,0,0,1,0,286.845V25.285A25.285,25.285,0,0,1,25.285,0Z" fill="#fff"/>
  <g transform="matrix(1, 0, 0, 1, 0, 0)" filter="url(#Rectangle_514)">
    <rect id="Rectangle_514-2" data-name="Rectangle 514" width="122.847" height="209.037" transform="translate(47.89 51.58)" fill="#fff"/>
  </g>
  <path id="Path_7304" data-name="Path 7304" d="M.849,23.809c.357,5,3.8,9.693,10.9,9.693,8.755,0,11.346-6.164,11.346-17.287C23.095,6.3,20.5,0,11.212,0,4.288,0,0,4.288,0,10.9c0,6.924,4.288,10.408,9.872,10.408a7.785,7.785,0,0,0,6.477-2.9c0,6.209-1.117,8.934-4.333,8.934-2.368,0-3.663-1.251-4.11-3.529Zm10.766-8.532c-2.993,0-4.422-1.831-4.422-4.288,0-2.725,1.608-4.422,4.244-4.422,2.591,0,4.288,1.563,4.288,4.467A3.884,3.884,0,0,1,11.614,15.277ZM42.66,33.369h8.577L42.66,21,51.013,8.443H42.749l-4.02,6.879-4.78-6.879H25.373l8.443,12.195L25.6,33.369H33.86l4.02-6.924ZM55.525.715V20.146H62.9a3.608,3.608,0,0,1,3.8-2.68c2.725,0,4.2,1.563,4.2,4.512,0,2.814-1.251,4.914-4.154,4.914a3.86,3.86,0,0,1-4.11-3.216h-7.46c.268,5.628,4.512,9.693,11.838,9.693,7.237,0,11.257-4.467,11.257-11.346,0-5.271-2.725-10.676-9.827-10.676a8.183,8.183,0,0,0-5.986,2.234V7.415H76.386V.715Z" transform="translate(148.264 239.863) rotate(180)"/>
  <path id="Path_7303" data-name="Path 7303" d="M27.069-236.831V-217.4H34.44a3.608,3.608,0,0,1,3.8-2.68c2.725,0,4.2,1.563,4.2,4.512,0,2.814-1.251,4.914-4.154,4.914a3.86,3.86,0,0,1-4.11-3.216h-7.46c.268,5.628,4.512,9.693,11.838,9.693,7.237,0,11.257-4.467,11.257-11.346,0-5.271-2.725-10.676-9.827-10.676a8.183,8.183,0,0,0-5.986,2.234v-6.165H47.93v-6.7Zm42.437,32.654h8.577l-8.577-12.374L77.859-229.1H69.6l-4.02,6.879L60.8-229.1H52.219l8.443,12.195-8.219,12.731h8.264l4.02-6.924Zm11.927-9.559c.357,5,3.8,9.693,10.9,9.693,8.755,0,11.346-6.165,11.346-17.287,0-9.917-2.591-16.215-11.882-16.215-6.924,0-11.212,4.288-11.212,10.9,0,6.924,4.288,10.408,9.872,10.408a7.785,7.785,0,0,0,6.477-2.9c0,6.209-1.117,8.934-4.333,8.934-2.368,0-3.663-1.251-4.11-3.529ZM92.2-222.269c-2.993,0-4.422-1.831-4.422-4.288,0-2.725,1.608-4.422,4.244-4.422,2.591,0,4.288,1.563,4.288,4.467A3.884,3.884,0,0,1,92.2-222.269Z" transform="translate(43.624 309.813)"/>
  <rect id="Rectangle_971" data-name="Rectangle 971" width="26.749" height="5.944" transform="translate(122.197 111.018)" fill="#e90057"/>
  <rect id="Rectangle_982" data-name="Rectangle 982" width="26.749" height="5.944" transform="translate(122.197 195.227)" fill="#e90057"/>
</svg>
