<svg id="_2x3" data-name="2x3" xmlns="http://www.w3.org/2000/svg" xmlns:xlink="http://www.w3.org/1999/xlink" width="218.294" height="312.13" viewBox="0 0 218.294 312.13">
  <defs>
    <filter id="Rectangle_514" x="17.685" y="21.62" width="182.917" height="268.796" filterUnits="userSpaceOnUse">
      <feOffset input="SourceAlpha"/>
      <feGaussianBlur stdDeviation="10" result="blur"/>
      <feFlood flood-opacity="0.161"/>
      <feComposite operator="in" in2="blur"/>
      <feComposite in="SourceGraphic"/>
    </filter>
  </defs>
  <path id="Path_7314" data-name="Path 7314" d="M25.285,0H193.009a25.285,25.285,0,0,1,25.285,25.285v261.56a25.285,25.285,0,0,1-25.285,25.285H25.285A25.285,25.285,0,0,1,0,286.845V25.285A25.285,25.285,0,0,1,25.285,0Z" fill="#fff"/>
  <g transform="matrix(1, 0, 0, 1, 0, 0)" filter="url(#Rectangle_514)">
    <rect id="Rectangle_514-2" data-name="Rectangle 514" width="122.917" height="208.796" transform="translate(47.69 51.62)" fill="#fff"/>
  </g>
  <path id="Path_7306" data-name="Path 7306" d="M.4,9.961h7.46C8,8.175,8.889,6.388,11.346,6.388A3.09,3.09,0,0,1,14.7,9.783c0,2.948-2.5,3.574-5.092,3.574H8.175v6.209H9.6c3.976,0,5.718,1.161,5.718,4.065a3.4,3.4,0,0,1-3.663,3.663c-2.814,0-4.2-1.7-4.244-4.244H0C.223,30.42,5.137,33.637,11.927,33.637c6.835,0,10.766-3.931,10.766-9.425,0-4.288-2.234-6.79-5.494-7.862v-.179a7.393,7.393,0,0,0,4.914-7.326C22.112,3.931,18.4,0,11.525,0,4.869,0,.67,3.529.4,9.961ZM42.66,33.369h8.577L42.66,21,51.013,8.443H42.749l-4.02,6.879-4.78-6.879H25.373l8.443,12.195L25.6,33.369H33.86l4.02-6.924Zm10.5-.447H75.582V26.713H63.521c5.182-3.976,11.57-9.693,11.57-16.841,0-5.494-3.306-9.827-10.721-9.827-5.941,0-11.078,3.395-11.3,11.3h7.371c0-3.082,1.34-4.869,3.618-4.869,2.323,0,3.395,1.519,3.395,3.886,0,5.494-7.371,11.168-14.294,16.885Z" transform="translate(146.744 239.863) rotate(180)"/>
  <path id="Path_7305" data-name="Path 7305" d="M11.855-204.624H34.28v-6.209H22.219c5.182-3.976,11.57-9.693,11.57-16.841,0-5.494-3.306-9.827-10.721-9.827-5.941,0-11.078,3.395-11.3,11.3h7.371c0-3.082,1.34-4.869,3.618-4.869,2.323,0,3.395,1.519,3.395,3.886,0,5.494-7.371,11.168-14.294,16.885Zm41.275.447h8.577l-8.577-12.374L61.484-229.1H53.22l-4.02,6.879L44.42-229.1H35.843l8.443,12.195-8.219,12.731h8.264l4.02-6.924Zm11.034-23.407h7.46c.134-1.787,1.027-3.574,3.484-3.574a3.09,3.09,0,0,1,3.35,3.395c0,2.948-2.5,3.574-5.092,3.574H71.937v6.209h1.429c3.976,0,5.718,1.161,5.718,4.065a3.4,3.4,0,0,1-3.663,3.663c-2.814,0-4.2-1.7-4.244-4.244H63.762c.223,7.371,5.137,10.587,11.927,10.587,6.835,0,10.766-3.931,10.766-9.425,0-4.288-2.234-6.79-5.494-7.862v-.179a7.393,7.393,0,0,0,4.914-7.326c0-4.914-3.708-8.845-10.587-8.845C68.631-237.546,64.432-234.017,64.164-227.585Z" transform="translate(59.702 309.813)"/>
</svg>
