<?xml version="1.0" encoding="utf-8"?>
<!-- Generator: Adobe Illustrator 27.9.0, SVG Export Plug-In . SVG Version: 6.00 Build 0)  -->
<svg version="1.1" id="Layer_1" xmlns="http://www.w3.org/2000/svg" xmlns:xlink="http://www.w3.org/1999/xlink" x="0px" y="0px"
	 viewBox="0 0 219.4 313" style="enable-background:new 0 0 219.4 313;" xml:space="preserve">
<style type="text/css">
	.st0{fill:#FFFFFF;}
	.st1{clip-path:url(#SVGID_00000013907684160887518800000000893331787369249934_);}
	.st2{fill:#CEF2F0;}
	.st3{fill:#A8F0FE;}
	.st4{fill:#FFD979;}
	.st5{fill:#FEB5A6;}
	.st6{fill:#FDF4B4;}
	.st7{fill:#F9927F;}
	.st8{fill:#59B0A9;}
	.st9{fill:#FDF4CC;}
	.st10{fill:#3D3F3C;}
	.st11{fill:#E92557;}
</style>
<g id="_45" transform="translate(100.5 99.565)">
	<path id="Path_7309" class="st0" d="M-73.8-100.5H93.7c13.9,0,25.2,11.3,25.2,25.3v262c0,13.9-11.3,25.3-25.3,25.3h0H-73.8
		c-13.9,0-25.3-11.3-25.3-25.3c0,0,0,0,0,0v-262C-99.1-89.2-87.8-100.5-73.8-100.5z"/>
	<g id="Group_369" transform="translate(0 -5.158)">
		<path id="Rectangle_742" class="st0" d="M9.9-94.4L9.9-94.4c60.2,0,109,48.8,109,109v94c0,60.2-48.8,109-109,109l0,0
			c-60.2,0-109-48.8-109-109v-94C-99.1-45.6-50.3-94.4,9.9-94.4z"/>
		<g id="Group_368">
			<g>
				<defs>
					<path id="SVGID_1_" d="M-73.8-94.5H93.7c13.9,0,25.2,11.3,25.2,25.3V192c0,13.9-11.3,25.3-25.3,25.3h0H-73.8
						c-13.9,0-25.3-11.3-25.3-25.3c0,0,0,0,0,0V-69.2C-99.1-83.2-87.8-94.5-73.8-94.5z"/>
				</defs>
				<clipPath id="SVGID_00000023241493012126001000000004720153196374906555_">
					<use xlink:href="#SVGID_1_"  style="overflow:visible;"/>
				</clipPath>
				<g id="Mask_Group_3" style="clip-path:url(#SVGID_00000023241493012126001000000004720153196374906555_);">
					<path id="Path_5473" class="st2" d="M9.5,12.4C9.4,8.2,8.2,4.1,6.2,0.4C4.1-3.5,1.4-7.1-0.8-11c-2-3.4-3.4-7.5-6.2-10.4
						c-3-3-7.1-3.5-11-3.9c-8-0.7-15.6,2.7-22,7.1C-53-9.2-61.9,4.2-69.4,17.9c-2,1.7-3.8,3.6-5.4,5.6c-2.7,3-5.1,6.4-7.1,9.9
						c-2.2,4.2-3,8.8-3.7,13.4c-0.3,1.8-0.5,3.7-0.6,5.5c-0.2,0.6-0.5,1.3-0.7,1.9c-3.4,9.6-7.1,19.2-7.1,29.5
						c0,9.7,1,20.3,5.1,29.1c2.1,4.2,4.4,8.3,6.9,12.3c2.2,3.7,4.1,7.4,9.1,7.1c7-0.4,7.7-10.4,2.1-11.9c-0.4-0.8-1-1.5-1.4-2.2
						c-1.1-1.9-2.3-3.8-3.3-5.7c0.8-0.1,1.5-0.1,2.2-0.1c4.8-0.1,9.7-0.1,14.5-0.4c8.1-0.6,17.2-1.4,24.3-6
						c6.8-4.5,11.6-12.7,15.9-19.5C-13.8,78.6-10,70-5,62.1C-0.3,54.7,4.4,47.4,7,39C9.7,30.5,9.9,21.3,9.5,12.4 M-82.2,84.6
						c0-1.8,0.1-3.5,0.3-5.2c0-0.4,0.1-0.8,0.2-1.1c0.6,0.8,1.2,1.5,1.8,2.2C-80.7,81.8-81.4,83.2-82.2,84.6 M-49.3,61.5
						c1.1-1.2,2.2-2.5,3.3-3.7c0.5-0.1,0.9-0.3,1.4-0.4c0,2.2,0,4.4,0.1,6.6c-1.4,2.9-3,5.7-5,8.3c-0.5,0.4-1.1,0.7-1.7,1.1
						c0-1.3,0.1-2.5,0.1-3.8c0.1-2.3,0.3-4.5,0.5-6.7C-50.1,62.4-49.7,61.9-49.3,61.5 M-43.4,83.7c0.9-1,1.8-2,2.7-3.1
						c0.5-0.4,0.9-0.8,1.4-1.2c-0.7,1.8-1.7,3.4-2.7,5c-1.2,1.6-3.7,4.9-5.9,5.3c-1.4,0.1-2.7-0.2-3.9-0.9
						C-48.6,88-45.7,86.2-43.4,83.7 M-37,14c-0.3,0.7-0.6,1.5-0.9,2.2c-1.2,0.4-2.4,1-3.5,1.6c1.1-1.2,2.2-2.4,3.3-3.5
						C-37.7,14.2-37.3,14.1-37,14 M-56.4,39.8c-2.7,5.2-4.6,10.8-5.5,16.7c-0.1,0.3-0.1,0.7-0.2,1c-0.6,0.7-1.2,1.4-1.8,2.1
						c0.5-5.1,1.7-10.2,3.7-15c1.2-2.6,2.6-5.1,4.2-7.5C-56.2,37.9-56.3,38.8-56.4,39.8 M-23,1.8c0,0.1,0.1,0.3,0.1,0.4
						c-0.1-0.1-0.3-0.1-0.4-0.2C-23.2,1.9-23.1,1.9-23,1.8 M-75.7,100.5c0.7-1.9,1.3-3.9,2.1-5.8c0.8-2.1,1.8-4.2,2.9-6.1
						c3.6,4.4,8,8,13.1,10.5c0.6,0.3,1.2,0.6,1.8,0.8C-62.4,100.5-69,100.7-75.7,100.5 M-2.6,25C-3,30.7-4.5,36.3-7,41.4
						c-2.3,4.6-4.8,9.1-7.7,13.4c-0.6,1-1.2,1.9-1.8,2.9c1.4-3.4,2.7-6.8,3.9-10.3c1.5-4.3,3.3-8.4,4.9-12.6
						c1.7-4.3,3.7-8.5,3.3-13.2c-0.2-2.7-2.3-6.1-5.4-6.1c0-5.7-0.6-11.5-1.7-17.1c-0.7-3.4-1.9-7.8-5.2-9.7
						c-4.1-2.4-8.4,0.3-11.9,2.4c-5.6,3.5-10.9,7.5-15.7,12.1c-0.7,0.2-1.4,0.5-2.1,0.7c1.1-1.4,2.3-2.8,3.4-4.1
						c6-6.6,15.2-14,24.6-13.1c2.1,0.2,2.2,0,3.4,1.6c1.4,2,2.3,4.6,3.6,6.7C-8.6-0.3-4,4.6-2.7,9.8C-1.6,14.4-2.3,20.4-2.6,25"/>
					<path id="Path_5474" class="st3" d="M-106.1,32.3c0-0.2,0-0.4,0-0.6v11.6c0.8,1.7,1.8,3.3,3,4.8C-105,43-106,37.7-106.1,32.3"
						/>
					<path id="Path_5475" class="st3" d="M-95.4,83.9c3.7-2.8,7.3-5.8,10.7-9c4-4,7.7-8.3,10.9-12.9c2.8-2.1,5.3-4.6,7.6-7.2
						c3.2-3.3,6-6.9,8.6-10.7c4.6-7.2,6-17.1,6.9-25.5c0.1-1.3,0.2-2.5,0.3-3.8c1.5-4,2.7-8.1,3.6-12.3c1.9-8.9,2.3-18,3.6-26.9
						c1.5-9.3,2.3-18.8,2.5-28.3c0.1-7.8-2.6-15.4-7.6-21.4c-6.3-7.3-14.8-10-24.1-11c-13.2-1.5-25.1,6.3-33.7,16.3v84.8
						c0-1.1,0-2.1,0.1-3.2c0.1-3.4,0.4-6.9,0.8-10.3c0,2.5,0,5,0,7.5c0,9.4-1.2,19.7,1.4,28.9c1.5,5,3.6,10.5,7.2,14.3
						c0.6,0.3,1.2,0.5,1.9,0.7c5.3,1.6,10.2-0.2,14.3-3.2c-0.5,0.7-0.9,1.4-1.4,2.1c-1.1,0.7-2.2,1.2-3.4,1.7
						c-2.3,0.8-4.6,1.5-6.9,2.2c0.9,0.5,1.8,0.8,2.7,1.1c5.3,1.6,10.2-0.2,14.3-3.2c-0.5,0.7-0.9,1.4-1.4,2.1
						c-1.1,0.7-2.2,1.2-3.4,1.7c-2.7,0.9-5.4,1.7-8.1,2.5c-2.8,0.9-3.9,1.5-6.3-0.4c-1-0.8-2-1.7-2.8-2.6c-0.9-0.1-1.8-0.6-2.5-1.2
						c-2.6-2-4.8-4.6-6.4-7.4V67c1.7,1.2,3.6,2.1,5.6,2.7c1,0.3,2,0.4,3.1,0.4c-1.7,1.5-3.5,2.9-5.3,4.3c-0.8,0.6-2.2,2-3.4,3v12.9
						c0.5,0,1-0.1,1.5-0.2C-101.2,89-98.2,86-95.4,83.9 M-70.1-40c0.6-1,1.4-1.9,2.2-2.8c0.5-0.5,1.2-1.3,1.9-2.1
						c0.1,0.9,0.2,1.8,0.3,2.6c0.1,1.1,0.3,2.1,0.4,3.2C-66.6-40-68.4-40.3-70.1-40 M-64.8-59.7c-5.3,1.1-10.2,7.3-13.5,11
						c-1.3,1.2-2.4,2.6-3.3,4.1c-0.8,1.7-1.4,3.4-2.1,5.1c-1.6,3.5-2.9,7.1-4,10.7c-2.4,8-3.4,16.2-4.7,24.4
						c-0.3,1.9-0.5,3.7-0.6,5.6c0.2-8.6,0.6-17.1,1.4-25.7c0.5-5.6,0.9-11.5,3-16.8c2-5.1,5.2-8.1,9.1-11.7
						C-75.9-56.6-69.9-60.2-64.8-59.7 M-78.7,4.5c-0.2,0.7-0.5,1.4-0.8,2.1c-0.2,0.4-0.3,0.9-0.5,1.3c2,1.3,4.5,1.4,6.6,0.4
						c-0.2,0.7-0.5,1.4-0.8,2.1c-0.7,2-1.7,3.9-2.8,5.7c-0.3,0.5-0.8,1.2-1.5,2c-0.3-0.9-0.7-1.7-0.9-2.6c-0.6-1.9-1.1-3.9-1.4-5.9
						c-0.4,0.9-1,1.8-1.5,2.7c-0.3,0.5-0.8,1.2-1.5,2c-0.3-0.9-0.7-1.7-0.9-2.6c-0.9-2.8-1.5-5.7-1.7-8.7
						C-84.5,5.3-81.3,5.8-78.7,4.5 M-79.1-36.1C-79.1-36.1-79.1-36.1-79.1-36.1c0,0,0.1,0.2,0.1,0.4l-0.1-0.1
						C-79.1-36-79.1-36-79.1-36.1 M-73.8-32.3L-73.8-32.3c0,0,0.1,0.2,0.1,0.4l-0.1-0.1C-73.8-32.2-73.8-32.2-73.8-32.3 M-75.4-43.8
						c0.6-1,1.4-1.9,2.2-2.7c0.5-0.5,1.2-1.3,1.9-2.1c0.1,0.9,0.2,1.8,0.3,2.6c0.1,1.1,0.3,2.1,0.4,3.2
						C-72-43.8-73.7-44.1-75.4-43.8 M-97.1-28.3c0.5-5.6,0.9-11.5,3-16.8c2-5.1,5.2-8.1,9.1-11.7c3.7-3.5,9.7-7.2,14.7-6.7
						c-5.3,1.1-10.2,7.3-13.5,11c-1.3,1.2-2.4,2.6-3.3,4.1c-0.8,1.7-1.4,3.4-2.1,5.1c-1.6,3.5-2.9,7.1-4,10.7
						c-2.4,7.9-3.4,16.2-4.7,24.4c-0.3,1.9-0.5,3.7-0.6,5.6C-98.2-11.2-97.8-19.7-97.1-28.3 M-104.2-20.1c0.1-6.8,0.6-13.6,2.5-19.8
						C-103.3-33.5-103.7-26.6-104.2-20.1 M-76.3,39c-1.8,2.1-4,3.8-6,5.8c0,0-0.2,0.2-0.4,0.3c-0.4,0.1-1.4,0.6-1.3,0.6
						c-1.1,0.4-1.5,0.7-2.7,0.2c-1.5-0.8-2.7-2.1-3.5-3.7c-0.6,0.3-1.3,0.2-1.9-0.1c-4-1.9-5.6-9.2-6.4-13c-1.1-6-0.3-12.7-0.3-18.8
						c0-3.2,0-6.3,0.1-9.5c0.1,6.2,1.3,12.3,3.6,18.1c0.4,1.1,0.9,2.2,1.4,3.3c0.1-2.8,0.2-5.5,0.2-8.1c0-3.2,0-6.3,0.1-9.5
						c0.1,6.2,1.3,12.3,3.6,18.1c0.7,2.1,1.7,4.1,2.9,6c2.7,0.6,5.4-0.4,7.8-2.4c2.4-1.9,4.4-4.2,6.2-6.7c-0.1,0.2-0.1,0.3-0.2,0.5
						c-1.6,4.5-3.9,8.7-6.7,12.6c2.2-0.2,4.3-1.1,6-2.6c2.4-1.9,4.4-4.2,6.2-6.7c-0.1,0.2-0.1,0.3-0.2,0.5
						C-69.5,29.4-72.5,34.5-76.3,39"/>
					<path id="Path_5476" class="st3" d="M-106.1,32.3c0.1,5.4,1.1,10.7,3,15.8c1.7,2.2,3.9,4,6.5,5.1c-3.6-3.8-5.7-9.2-7.2-14.3
						c-2.7-9.2-1.4-19.5-1.4-28.9c0-2.5,0-5,0-7.5c-0.4,3.4-0.7,6.8-0.8,10.3c0,1.1,0,2.1-0.1,3.2v15.8
						C-106.1,31.9-106.1,32.1-106.1,32.3"/>
					<path id="Path_5477" class="st3" d="M-97.2,57.8c0.9,0.9,1.8,1.8,2.8,2.6c2.4,1.9,3.4,1.2,6.3,0.4c2.7-0.8,5.4-1.6,8.1-2.5
						c1.2-0.4,2.4-1,3.4-1.7c0.5-0.7,0.9-1.4,1.4-2.1c-4.2,3-9,4.7-14.3,3.2c-0.9-0.3-1.9-0.6-2.7-1.1c-0.4,0.1-0.8,0.2-1.2,0.4
						C-95.1,57.5-96.1,57.9-97.2,57.8"/>
					<path id="Path_5478" class="st3" d="M-67.3,23.3c-1.8,2.5-3.8,4.8-6.2,6.7c-1.7,1.5-3.8,2.4-6,2.6c-0.7,0.9-1.4,1.9-2.1,2.7
						c-1.8,2.1-4,3.8-6,5.8c0,0-0.2,0.2-0.4,0.3c-0.4,0.1-1.4,0.6-1.3,0.6c-0.3,0.1-0.6,0.2-0.8,0.3c0.7,1.6,1.9,2.8,3.5,3.7
						c1.2,0.5,1.6,0.2,2.7-0.2c-0.1,0,0.9-0.4,1.3-0.6c0.2-0.1,0.3-0.3,0.4-0.3c2-2,4.2-3.6,6-5.8c3.8-4.5,6.8-9.7,8.8-15.3
						C-67.4,23.6-67.4,23.5-67.3,23.3"/>
					<path id="Path_5479" class="st3" d="M-90.3,26.7c1,0.9,2.3,1.6,3.6,1.9c-1.2-1.9-2.2-3.9-2.9-6c-2.3-5.7-3.5-11.9-3.6-18.1
						c-0.1,3.2-0.1,6.3-0.1,9.5c0,2.6-0.2,5.4-0.2,8.1C-92.7,23.9-91.7,25.4-90.3,26.7"/>
					<path id="Path_5480" class="st3" d="M-101.7-39.9c-1.9,6.2-2.4,13.1-2.5,19.8C-103.7-26.6-103.3-33.5-101.7-39.9"/>
					<path id="Path_5481" class="st3" d="M-79.4,15.6c0.3,0.9,0.6,1.7,0.9,2.6c0.6-0.8,1.1-1.6,1.5-2c1.2-1.8,2.1-3.7,2.8-5.7
						c0.3-0.7,0.5-1.4,0.8-2.1c-2.1,1-4.6,0.9-6.6-0.4c-0.2,0.6-0.5,1.2-0.8,1.8C-80.5,11.7-80,13.7-79.4,15.6"/>
					<path id="Path_5482" class="st3" d="M-88.7-41.3c-2.1,5.2-2.5,11.2-3,16.8c-0.7,8.6-1.2,17.1-1.4,25.7c0.1-1.9,0.3-3.7,0.6-5.6
						c1.3-8.2,2.3-16.4,4.7-24.4c1.1-3.7,2.5-7.2,4-10.7c0.8-1.7,1.3-3.5,2.1-5.1c0.9-1.5,2-2.9,3.3-4.1c3.3-3.7,8.2-9.9,13.5-11
						c-5-0.5-11,3.2-14.7,6.7C-83.5-49.3-86.7-46.4-88.7-41.3"/>
					<path id="Path_5483" class="st3" d="M-73.8-32.3C-73.8-32.3-73.8-32.3-73.8-32.3c0,0.1,0,0.2,0,0.3l0.1,0.1
						C-73.7-32.1-73.8-32.2-73.8-32.3"/>
					<path id="Path_5484" class="st3" d="M-66-44.9c-0.8,0.8-1.4,1.6-1.9,2.1c-0.8,0.9-1.5,1.8-2.2,2.8c1.7-0.4,3.4,0,4.9,0.9
						c-0.1-1.1-0.3-2.1-0.4-3.2C-65.7-43.1-65.8-44-66-44.9"/>
					<path id="Path_5485" class="st4" d="M3.1,122.7c-2-0.1-3.6,0.6-5.5,1.2c-3.1,1.1-6.4,1.9-9.6,2.7c-4.2,1.1-8.4,2.1-12.6,3.1
						c-0.9-2-3-3.3-5.2-3.1c-2.4,0.2-4.8,0.6-7.1,1.2c7.2-3.9,14.4-7.7,21.8-11.2c2.7-1.3,3.5-5,2.5-7.5c-1.2-2.9-4.1-4-7.1-3.5
						c-0.1,0-0.3,0.1-0.4,0.1c0.1-0.5,0-1.1-0.1-1.6c4.5-1.8,9-3.7,12.7-6.7c5-4-0.6-11.2-5.8-10.1c-1.8,0.4-3.6,0.7-5.4,1.1
						c-1-2-3-3.7-5.3-3.4c-0.5,0.1-1.1,0.2-1.6,0.2c0,0,0,0,0,0l-0.1,0.1c-5.5,0.9-10.7,2.9-16.1,4.6c-4.2,1.3-8.5,2.6-12.7,3.9
						c2.1-1.7,4.2-3.4,6.1-5.3c4.8-4.5-0.4-10.9-5.8-10.1c-8,1.2-16.9,0.2-25-0.1c-4.1-0.2-8.3-0.4-12.4-0.7
						c-2.1-0.1-4.1-0.3-6.2-0.4c-0.4,0-0.9,0-1.3,0c-1.4-1.1-3.3-1.5-5-1c-0.7,0.2-1.4,0.5-1.9,1v0.1c0,0-0.1,0.1-0.1,0.1V87
						c1.8,1.6,4.1,2.1,7.1,2.3c5.1,0.2,10.1,0.7,15.2,0.9c4.2,0.2,8.5,0.5,12.7,0.7c-2.2,1.4-4.4,2.8-6.5,4.1
						c-4.9,3.1-9.7,6.5-14.4,10c-4.1,1.3-8.3,2.6-12.4,4.1c-0.5,0.2-1.1,0.3-1.6,0.5v33.6c0.9-0.2,1.7-0.4,2.6-0.6
						c2.9-0.7,5.9-1.3,8.8-1.9c-2,0.8-4.1,1.6-6.1,2.3c-1.8,0.6-3.5,1.3-5.3,1.9v78.7h15c0.6-0.4,1.1-0.9,1.6-1.5
						c2.3-2.3,2.2-6-0.1-8.3c-0.5-0.5-1.1-0.9-1.8-1.2c2.8-2.5,5-5.4,5-8.5c0-1.5-0.4-2.9-1.2-4.2c2.2-1.4,3.8-3.5,4.7-5.9
						c1.1-3.5-2-7.9-5.8-7.6c0,0-0.1,0-0.1,0c-0.2-0.7-0.5-1.4-1-1.9c1.5-1.5,2.2-3.6,1.9-5.7c6.9-2,14.1-4.3,20-8.3
						c1.1-0.7,2-1.8,2.5-3.1c0.7-0.3,1.5-0.6,2.2-0.9c6.3-2.4,12.5-4.7,18.7-7.2c2.9-1.2,5.8-2.5,8.8-3.6c2.7-1,5.1-1.7,7.2-3.9
						c1.4-1.5,1.9-3.6,1.4-5.6c0.3-0.1,0.7-0.2,1-0.3c5.5-1.8,10.9-3.7,16.4-5.6c5.3-1.8,10.9-3.3,15.8-6.3
						C11.2,130.7,9,123,3.1,122.7 M-95,209.3c0.2,0,0.3-0.1,0.4-0.2C-93.8,208.7-93.2,210.5-95,209.3"/>
					<path id="Path_5486" class="st5" d="M-25.9,223.4c0.6-2.9,1.1-5.9,1.4-8.9c1.1-8,1.5-16.1,1.2-24.2c-0.2-7.4,0-15.2-2.4-22.3
						c-2-5.9-5.6-12.2-12.1-13.8c-6.9-1.7-15.2,3.3-20.6,7.3c-20,14.6-33,37.7-38,61.9H-25.9z M-48.8,195.8c0.1-1.2,0.2-2.3,0.2-3.5
						c0.2,0,0.4,0,0.5,0C-48.3,193.5-48.5,194.6-48.8,195.8 M-53.1,172.6c3-2.4,7.6-5.8,11.4-6.4c0.7-0.1,1.5,0.1,2.1,0.5
						c-0.7,0.6-1.2,1.3-1.6,2.1c-1.1,0.8-1.9,2-2.2,3.3c-0.8,2.8-1.5,5.6-2.2,8.5c-2.7-0.7-5.6-0.8-8.3-0.3
						c-1.3-1.6-3.2-2.5-5.2-2.4C-57.2,176.1-55.2,174.3-53.1,172.6"/>
					<path id="Path_5487" class="st6" d="M43.4,95.4c-2.3-2.9-4.7-6.3-8.5-7.1c-3.9-0.8-7.8,0.4-11.1,2.4c-3.8,2.2-7.3,4.8-10.6,7.6
						c-0.2,0-0.3,0.1-0.5,0.1c-4.2,0.8-8.2,1.5-12.2,3.3c-1.1,0.5-2.2,1.2-3.3,1.9c0-1.8,0-3.6,0.1-5.4c0-0.8,0.1-1.6,0-2.4
						c-0.3-7.7-12-7.9-12.1-0.1c0,0.8,0,1.5,0,2.3c-0.2,3.5-0.9,7.1-1.2,10.4c-0.5,4.4-0.9,8.8-1.4,13.3c-0.1,1.1-0.2,2.2-0.3,3.3
						c-6.6,14.4-10.9,29.8-12.8,45.5c-1.1,8.5-1.5,17-1.4,25.6c0.2,8.6-0.2,17.7,2.5,25.9c0.2,0.5,0.3,1,0.5,1.5h14.7
						c0.6-0.6,1.1-1.3,1.5-2.1c1.2-0.8,2-2,2.3-3.4c1-3.5,1.9-7,2.7-10.6c3.4,1,7.1,1.2,10.6,0.5c1.7,2.5,4.9,3.5,7.6,2.3
						c0,0,0,0.1,0,0.1c0,0.1,0.1,0.2,0.1,0.2c-3,3-6.2,5.9-9.5,8.4c-2.3,1.7-4.7,3.2-7.2,4.5h20.6c22.2-19.8,35.4-49.9,37.8-79.1
						C53.8,127.7,54.5,109.1,43.4,95.4 M-2.8,196.2c-0.8-0.1-1.6-0.4-2.3-0.9c0.3-1.2,0.5-2.4,0.8-3.7s0.5-2.4,0.8-3.6
						c0.4,0.3,0.8,0.6,1.2,0.9C-2.5,191.4-2.7,193.8-2.8,196.2 M22.1,111.4c0-0.1,0-0.2-0.1-0.3c0-0.1,0-0.1-0.1-0.2
						c0.2,0.1,0.5,0.2,0.7,0.3C22.4,111.2,22.2,111.3,22.1,111.4 M29.8,101.1c0,0,0.1,0,0.1-0.1c0.5-0.3,1.1-0.6,1.7-0.8
						c0.1,0.1,0.3,0.3,0.4,0.4l1.9,2.2c0.8,1,1.5,2.1,2.2,3.2C34.2,104.2,32,102.5,29.8,101.1"/>
					<path id="Path_5488" class="st7" d="M118.9,43.9c-1.6,1-2.9,2.5-4.5,3.6c-2.2,1.6-4.3,3.1-6.5,4.7c-3.7,2.6-7.7,6.4-11.8,8.2
						c-3,1.3-3.7,5.7-2.1,8.3c1.2,2.1,3.6,3.2,5.9,2.8c-0.6,0.8-1.3,1.6-1.9,2.4c-1.5,1.7-2.9,3.5-4.4,5.3c-1.6,1.8-2.1,4.4-1.2,6.7
						c-4.5,4.7-8.9,9.4-13.3,14.2c-2.3,2.5-2.1,6.4,0.4,8.7c0,0,0.1,0.1,0.1,0.1c-2.2,1.7-4.3,3.5-6.1,5.6c-1.9,2.2-2.1,5.4-0.4,7.8
						c-0.4,0.3-0.9,0.6-1.3,0.9c-5.1,3.4-10.6,6.4-15.1,10.6c-4,3.9-0.4,10.2,4.2,10.3c-4.9,3.2-9.8,6.4-14.6,9.7
						c-4.5,3.2-3.4,11.5,3,11.2c3.8-0.2,6.5-2.5,9.7-4.3c3-1.7,6-3.3,9-4.9c2.2-1.1,4.3-2.2,6.5-3.3v0c-7.8,5.2-15.7,10.2-23.8,15
						c-4.8,2.8-3.2,8.6,0.6,10.5c-7.1,3.7-14.5,7.4-20.7,12.5c-3.3,2.6-1.7,7.6,1.4,9.5c-7.7,4-16,7.3-23.3,12.2
						c-5.4,3.6-2.2,13.1,4.6,11c7.8-2.3,15.2-5.9,22.7-9c8.2-3.4,16.4-6.8,24.7-10c6.5-2.5,13.1-4.9,19.7-7.1
						c-2.3,1.6-4.6,3.1-7,4.6c-5.1,3.3-10.2,6.7-15.5,9.8c-4,2.4-9,3.9-12.2,7.5c-1.1,1.3-1.6,2.9-1.5,4.6h21.7
						c2.5-1.1,4.9-2.1,7.4-3.2c1.5-0.6,2.9-1.2,4.4-1.8c-0.9,0.5-1.8,1-2.7,1.6c-1.3,0.8-2.2,2-2.6,3.5h46.1L118.9,43.9z
						 M113.9,157.2c-0.3-0.4-0.7-0.8-1.2-1.1c0.1-0.1,0.3-0.2,0.4-0.3c0.5,0.4,1.1,0.7,1.7,0.9C114.5,156.9,114.2,157.1,113.9,157.2
						"/>
					<path id="Path_5489" class="st8" d="M113.3-50.8c-6.4,18.3-15,35.7-23.8,53c-3.5,6.9,6.9,13,10.4,6c6.7-13.2,13.3-26.5,19-40.2
						v-37.3C117.3-63,115.4-56.9,113.3-50.8"/>
					<path id="Path_5490" class="st8" d="M29.7-85c-2.8,3.5-5.8,7-8.7,10.4c-2.6,3.1-5.4,6-8.2,8.9c-1.4,1.5-2.8,2.9-4,4.5
						c-0.4,0.5-0.8,1-1.2,1.5c-0.3,0.5-1.5,1.1-0.3,0.7C0-56.8,3.1-45.1,10.6-47.4c3.7-1.1,5.5-3.7,7.8-6.5c0.5-0.6,1.1-1.2,1.6-1.8
						c1.1,0.3,2.2,0.4,3.3,0.2c3.2-0.6,5.2-2.5,7.6-4.6c2.3-2,4.8-3.9,7.2-5.8c3.1-2.5,6-5.1,9-7.8c-5.3,9.5-11.1,18.9-15.2,29
						c-1.4,3.4,2.2,7.9,5.8,7.6c6.6-0.6,11.5-6.8,15.9-11.7c-1.9,3.4-3.9,6.8-5.7,10.3c-2.3,4.3-4.4,8.7-6.8,12.9
						c-2.2,3.7-4.4,7.2-5.6,11.3c-1.6,5.6,4.4,8.7,8.9,6.8c0.4-0.2,0.7-0.3,1-0.5c-1.7,3.6-3.3,7.1-3.3,11.3c0,4.9,5,7.2,9.1,5.2
						C58.2,4.9,64.7-2.1,70.4-7.7c5.2-5.1,10-10.6,14.4-16.4c-1.6,4.1-2.6,8.6,0.8,12.2c2.4,2.3,6.2,2.3,8.5,0
						c2.6-2.5,3.6-6.3,4.8-9.7c1.5-4.1,3-8.2,4.6-12.3c3.2-8.1,6.6-16.2,9.7-24.3c1.8-4.6,3.6-9.2,5.7-13.7v-22.5h-2.1
						c-0.8,1.5-1.6,3.1-2.4,4.6c-1.3,2.4-2.6,4.9-3.8,7.3c-0.7,0.5-1.3,1.1-1.7,1.7c-5,7.4-9.4,15.1-14.4,22.5
						C89.6-51,84.4-43.9,79.3-36.7c-4.8,6.7-10,13.1-15.8,19c-0.4,0.4-0.7,0.7-1.1,1.1c0.3-0.7,0.6-1.4,1-2
						c3.6-7.5,7.4-14.9,11.3-22.3c3.5-6.7,7-13.3,10.4-20c0.6-1,1.3-2.1,1.9-3.1c3.9-6.7,8.8-13.7,10.9-21.1
						c0.8-3.2-1.1-6.5-4.2-7.3c-0.1,0-0.2,0-0.3-0.1c0.3-0.6,0.7-1.2,1-1.8H78.9c-4,4.9-8.3,9.7-12.6,14.4c-1.7,1.8-3.3,3.5-5,5.3
						c3.6-6.6,7.5-13.1,11.2-19.7H51.2c-1.2,1.1-2.3,2.3-3.5,3.4c-0.1-1.2-0.5-2.4-1.2-3.4h-9.6c-0.1,0.2-0.3,0.3-0.4,0.5
						C34.2-91,32-88,29.7-85 M95.5-18.5C95.7-17.6,95.1-17.6,95.5-18.5"/>
					<path id="Path_5491" class="st9" d="M86.1,78.5c4.2-6.5-1.4-14.2-8.4-14.6c-6.9-0.4-15.3,4.8-21.8,7c-8,2.8-15.9,5.6-24.1,8
						c-10.2,3-8.1,17,0.1,19c-1.4,1.1-2.8,2.1-4.2,3.2c-4.3,3.2-9,6.1-12.7,10.1c-5.4,6.1-1,18.1,7.5,16.8c0.3,2.8,2.1,5.3,4.6,6.6
						c0.5,0.3,1.1,0.5,1.6,0.7c-0.4,0.5-0.8,1.1-1.1,1.6c-2.7,4.8-0.9,10.8,3.8,13.4c0.6,0.4,1.3,0.6,2,0.9c3.4,1,6.6,0.6,10.1,0.1
						c1-0.2,3-0.6,4.4-0.9c4.8,1.7,11.1,0.2,13.2-6.1c0.1-0.4,0.2-0.7,0.4-1.1c0.7-2.2,0.5-4.5-0.5-6.6c4.5-2.4,8.9-5,13.2-7.8
						c5.9-4.2,5.8-11.9,1.2-15.8c3.3-2,6.2-4.4,8-7.6c3.2-5.8-0.7-15.5-8.4-14.6c-0.1,0-0.3,0-0.4,0.1C79.2,87.2,83,83.1,86.1,78.5"
						/>
					<path id="Path_5492" class="st10" d="M63.2,62.3c0.7,0,1.3-0.6,1.3-1.3c0-0.7-0.6-1.3-1.3-1.3c-0.7,0-1.3,0.6-1.3,1.3
						c0,0,0,0,0,0C61.9,61.7,62.5,62.3,63.2,62.3"/>
					<path id="Path_5493" class="st10" d="M68.4,62.3c0.7,0,1.3-0.6,1.3-1.3c0-0.7-0.6-1.3-1.3-1.3c-0.7,0-1.3,0.6-1.3,1.3
						c0,0,0,0,0,0C67.1,61.7,67.7,62.3,68.4,62.3"/>
					<path id="Path_5494" class="st10" d="M73.6,62.3c0.7,0,1.3-0.6,1.3-1.3c0-0.7-0.6-1.3-1.3-1.3c-0.7,0-1.3,0.6-1.3,1.3
						c0,0,0,0,0,0C72.3,61.7,72.9,62.3,73.6,62.3"/>
					<path id="Path_5495" class="st10" d="M78.8,62.3c0.7,0,1.3-0.6,1.3-1.3c0-0.7-0.6-1.3-1.3-1.3c-0.7,0-1.3,0.6-1.3,1.3
						c0,0,0,0,0,0C77.5,61.7,78.1,62.3,78.8,62.3"/>
					<path id="Path_5496" class="st10" d="M84,62.3c0.7,0,1.3-0.6,1.3-1.3c0-0.7-0.6-1.3-1.3-1.3c-0.7,0-1.3,0.6-1.3,1.3
						c0,0,0,0,0,0C82.7,61.7,83.3,62.3,84,62.3"/>
					<path id="Path_5497" class="st10" d="M89.2,62.3c0.7,0,1.3-0.6,1.3-1.3c0-0.7-0.6-1.3-1.3-1.3c-0.7,0-1.3,0.6-1.3,1.3
						c0,0,0,0,0,0C87.9,61.7,88.5,62.3,89.2,62.3"/>
					<path id="Path_5498" class="st10" d="M60.6,67.5c0.7,0,1.3-0.6,1.3-1.3s-0.6-1.3-1.3-1.3c-0.7,0-1.3,0.6-1.3,1.3c0,0,0,0,0,0
						C59.3,66.9,59.9,67.5,60.6,67.5L60.6,67.5"/>
					<path id="Path_5499" class="st10" d="M65.8,67.5c0.7,0,1.3-0.6,1.3-1.3c0-0.7-0.6-1.3-1.3-1.3c-0.7,0-1.3,0.6-1.3,1.3
						c0,0,0,0,0,0C64.5,66.9,65.1,67.5,65.8,67.5"/>
					<path id="Path_5500" class="st10" d="M71,67.5c0.7,0,1.3-0.6,1.3-1.3c0-0.7-0.6-1.3-1.3-1.3c-0.7,0-1.3,0.6-1.3,1.3
						c0,0,0,0,0,0C69.7,66.9,70.3,67.5,71,67.5"/>
					<path id="Path_5501" class="st10" d="M76.2,67.5c0.7,0,1.3-0.6,1.3-1.3c0-0.7-0.6-1.3-1.3-1.3c-0.7,0-1.3,0.6-1.3,1.3
						c0,0,0,0,0,0C74.9,66.9,75.5,67.5,76.2,67.5"/>
					<path id="Path_5502" class="st10" d="M81.4,67.5c0.7,0,1.3-0.6,1.3-1.3c0-0.7-0.6-1.3-1.3-1.3c-0.7,0-1.3,0.6-1.3,1.3
						c0,0,0,0,0,0C80.1,66.9,80.7,67.5,81.4,67.5"/>
					<path id="Path_5503" class="st10" d="M86.6,67.5c0.7,0,1.3-0.6,1.3-1.3c0-0.7-0.6-1.3-1.3-1.3c-0.7,0-1.3,0.6-1.3,1.3
						c0,0,0,0,0,0C85.3,66.9,85.9,67.5,86.6,67.5"/>
					<path id="Path_5504" class="st10" d="M47.6,72.7c0.7,0,1.3-0.6,1.3-1.3s-0.6-1.3-1.3-1.3c-0.7,0-1.3,0.6-1.3,1.3c0,0,0,0,0,0
						C46.3,72.1,46.9,72.7,47.6,72.7L47.6,72.7"/>
					<path id="Path_5505" class="st10" d="M52.8,72.7c0.7,0,1.3-0.6,1.3-1.3s-0.6-1.3-1.3-1.3c-0.7,0-1.3,0.6-1.3,1.3c0,0,0,0,0,0
						C51.5,72.1,52.1,72.7,52.8,72.7L52.8,72.7"/>
					<path id="Path_5506" class="st10" d="M58,72.7c0.7,0,1.3-0.6,1.3-1.3s-0.6-1.3-1.3-1.3c-0.7,0-1.3,0.6-1.3,1.3c0,0,0,0,0,0
						C56.7,72.1,57.3,72.7,58,72.7L58,72.7"/>
					<path id="Path_5507" class="st10" d="M63.2,72.7c0.7,0,1.3-0.6,1.3-1.3c0-0.7-0.6-1.3-1.3-1.3c-0.7,0-1.3,0.6-1.3,1.3
						c0,0,0,0,0,0C61.9,72.1,62.5,72.7,63.2,72.7"/>
					<path id="Path_5508" class="st10" d="M68.4,72.7c0.7,0,1.3-0.6,1.3-1.3c0-0.7-0.6-1.3-1.3-1.3c-0.7,0-1.3,0.6-1.3,1.3
						c0,0,0,0,0,0C67.1,72.1,67.7,72.7,68.4,72.7"/>
					<path id="Path_5509" class="st10" d="M73.6,72.7c0.7,0,1.3-0.6,1.3-1.3c0-0.7-0.6-1.3-1.3-1.3c-0.7,0-1.3,0.6-1.3,1.3
						c0,0,0,0,0,0C72.3,72.1,72.9,72.7,73.6,72.7"/>
					<path id="Path_5510" class="st10" d="M78.8,72.7c0.7,0,1.3-0.6,1.3-1.3c0-0.7-0.6-1.3-1.3-1.3c-0.7,0-1.3,0.6-1.3,1.3
						c0,0,0,0,0,0C77.5,72.1,78.1,72.7,78.8,72.7"/>
					<path id="Path_5511" class="st10" d="M84,72.7c0.7,0,1.3-0.6,1.3-1.3c0-0.7-0.6-1.3-1.3-1.3c-0.7,0-1.3,0.6-1.3,1.3
						c0,0,0,0,0,0C82.7,72.1,83.3,72.7,84,72.7"/>
					<path id="Path_5512" class="st10" d="M89.2,72.7c0.7,0,1.3-0.6,1.3-1.3c0-0.7-0.6-1.3-1.3-1.3c-0.7,0-1.3,0.6-1.3,1.3
						c0,0,0,0,0,0C87.9,72.1,88.5,72.7,89.2,72.7"/>
					<path id="Path_5513" class="st10" d="M29.4,77.9c0.7,0,1.3-0.6,1.3-1.3c0-0.7-0.6-1.3-1.3-1.3c-0.7,0-1.3,0.6-1.3,1.3
						c0,0,0,0,0,0C28.1,77.3,28.7,77.9,29.4,77.9"/>
					<path id="Path_5514" class="st10" d="M34.6,77.9c0.7,0,1.3-0.6,1.3-1.3c0-0.7-0.6-1.3-1.3-1.3c-0.7,0-1.3,0.6-1.3,1.3
						c0,0,0,0,0,0C33.3,77.3,33.9,77.9,34.6,77.9"/>
					<path id="Path_5515" class="st10" d="M39.8,77.9c0.7,0,1.3-0.6,1.3-1.3c0-0.7-0.6-1.3-1.3-1.3c-0.7,0-1.3,0.6-1.3,1.3
						c0,0,0,0,0,0C38.5,77.3,39.1,77.9,39.8,77.9"/>
					<path id="Path_5516" class="st10" d="M45,77.9c0.7,0,1.3-0.6,1.3-1.3c0-0.7-0.6-1.3-1.3-1.3c-0.7,0-1.3,0.6-1.3,1.3
						c0,0,0,0,0,0C43.7,77.3,44.3,77.9,45,77.9"/>
					<path id="Path_5517" class="st10" d="M50.2,77.9c0.7,0,1.3-0.6,1.3-1.3c0-0.7-0.6-1.3-1.3-1.3c-0.7,0-1.3,0.6-1.3,1.3
						c0,0,0,0,0,0C48.9,77.3,49.5,77.9,50.2,77.9"/>
					<path id="Path_5518" class="st10" d="M55.4,77.9c0.7,0,1.3-0.6,1.3-1.3c0-0.7-0.6-1.3-1.3-1.3c-0.7,0-1.3,0.6-1.3,1.3
						c0,0,0,0,0,0C54.1,77.3,54.7,77.9,55.4,77.9"/>
					<path id="Path_5519" class="st10" d="M60.6,77.9c0.7,0,1.3-0.6,1.3-1.3c0-0.7-0.6-1.3-1.3-1.3c-0.7,0-1.3,0.6-1.3,1.3
						c0,0,0,0,0,0C59.3,77.3,59.9,77.9,60.6,77.9"/>
					<path id="Path_5520" class="st10" d="M65.8,77.9c0.7,0,1.3-0.6,1.3-1.3c0-0.7-0.6-1.3-1.3-1.3c-0.7,0-1.3,0.6-1.3,1.3
						c0,0,0,0,0,0C64.5,77.3,65.1,77.9,65.8,77.9"/>
					<path id="Path_5521" class="st10" d="M71,77.9c0.7,0,1.3-0.6,1.3-1.3c0-0.7-0.6-1.3-1.3-1.3c-0.7,0-1.3,0.6-1.3,1.3
						c0,0,0,0,0,0C69.7,77.3,70.3,77.9,71,77.9"/>
					<path id="Path_5522" class="st10" d="M76.2,77.9c0.7,0,1.3-0.6,1.3-1.3c0-0.7-0.6-1.3-1.3-1.3c-0.7,0-1.3,0.6-1.3,1.3
						c0,0,0,0,0,0C74.9,77.3,75.5,77.9,76.2,77.9"/>
					<path id="Path_5523" class="st10" d="M81.4,77.9c0.7,0,1.3-0.6,1.3-1.3c0-0.7-0.6-1.3-1.3-1.3c-0.7,0-1.3,0.6-1.3,1.3
						c0,0,0,0,0,0C80.1,77.3,80.7,77.9,81.4,77.9"/>
					<path id="Path_5524" class="st10" d="M86.6,77.9c0.7,0,1.3-0.6,1.3-1.3c0-0.7-0.6-1.3-1.3-1.3c-0.7,0-1.3,0.6-1.3,1.3
						c0,0,0,0,0,0C85.3,77.3,85.9,77.9,86.6,77.9"/>
					<path id="Path_5525" class="st10" d="M26.8,83.1c0.7,0,1.3-0.6,1.3-1.3c0-0.7-0.6-1.3-1.3-1.3c-0.7,0-1.3,0.6-1.3,1.3
						c0,0,0,0,0,0C25.5,82.5,26.1,83.1,26.8,83.1"/>
					<path id="Path_5526" class="st10" d="M32,83.1c0.7,0,1.3-0.6,1.3-1.3c0-0.7-0.6-1.3-1.3-1.3c-0.7,0-1.3,0.6-1.3,1.3
						c0,0,0,0,0,0C30.7,82.5,31.3,83.1,32,83.1"/>
					<path id="Path_5527" class="st10" d="M37.2,83.1c0.7,0,1.3-0.6,1.3-1.3c0-0.7-0.6-1.3-1.3-1.3c-0.7,0-1.3,0.6-1.3,1.3
						c0,0,0,0,0,0C35.9,82.5,36.5,83.1,37.2,83.1"/>
					<path id="Path_5528" class="st10" d="M42.4,83.1c0.7,0,1.3-0.6,1.3-1.3c0-0.7-0.6-1.3-1.3-1.3c-0.7,0-1.3,0.6-1.3,1.3
						c0,0,0,0,0,0C41.1,82.5,41.7,83.1,42.4,83.1"/>
					<path id="Path_5529" class="st10" d="M47.6,83.1c0.7,0,1.3-0.6,1.3-1.3c0-0.7-0.6-1.3-1.3-1.3c-0.7,0-1.3,0.6-1.3,1.3
						c0,0,0,0,0,0C46.3,82.5,46.9,83.1,47.6,83.1"/>
					<path id="Path_5530" class="st10" d="M52.8,83.1c0.7,0,1.3-0.6,1.3-1.3c0-0.7-0.6-1.3-1.3-1.3c-0.7,0-1.3,0.6-1.3,1.3
						c0,0,0,0,0,0C51.5,82.5,52.1,83.1,52.8,83.1"/>
					<path id="Path_5531" class="st10" d="M58,83.1c0.7,0,1.3-0.6,1.3-1.3c0-0.7-0.6-1.3-1.3-1.3c-0.7,0-1.3,0.6-1.3,1.3
						c0,0,0,0,0,0C56.7,82.5,57.3,83.1,58,83.1"/>
					<path id="Path_5532" class="st10" d="M63.2,83.1c0.7,0,1.3-0.6,1.3-1.3c0-0.7-0.6-1.3-1.3-1.3c-0.7,0-1.3,0.6-1.3,1.3
						c0,0,0,0,0,0C61.9,82.5,62.5,83.1,63.2,83.1"/>
					<path id="Path_5533" class="st10" d="M68.4,83.1c0.7,0,1.3-0.6,1.3-1.3c0-0.7-0.6-1.3-1.3-1.3c-0.7,0-1.3,0.6-1.3,1.3
						c0,0,0,0,0,0C67.1,82.5,67.7,83.1,68.4,83.1"/>
					<path id="Path_5534" class="st10" d="M73.6,83.1c0.7,0,1.3-0.6,1.3-1.3c0-0.7-0.6-1.3-1.3-1.3c-0.7,0-1.3,0.6-1.3,1.3
						c0,0,0,0,0,0C72.3,82.5,72.9,83.1,73.6,83.1"/>
					<path id="Path_5535" class="st10" d="M78.8,83.1c0.7,0,1.3-0.6,1.3-1.3c0-0.7-0.6-1.3-1.3-1.3c-0.7,0-1.3,0.6-1.3,1.3
						c0,0,0,0,0,0C77.5,82.5,78.1,83.1,78.8,83.1"/>
					<path id="Path_5536" class="st10" d="M84,83.1c0.7,0,1.3-0.6,1.3-1.3c0-0.7-0.6-1.3-1.3-1.3c-0.7,0-1.3,0.6-1.3,1.3
						c0,0,0,0,0,0C82.7,82.5,83.3,83.1,84,83.1"/>
					<path id="Path_5537" class="st10" d="M24.2,88.3c0.7,0,1.3-0.6,1.3-1.3c0-0.7-0.6-1.3-1.3-1.3c-0.7,0-1.3,0.6-1.3,1.3
						c0,0,0,0,0,0C22.9,87.7,23.5,88.3,24.2,88.3"/>
					<path id="Path_5538" class="st10" d="M29.4,88.3c0.7,0,1.3-0.6,1.3-1.3c0-0.7-0.6-1.3-1.3-1.3c-0.7,0-1.3,0.6-1.3,1.3
						c0,0,0,0,0,0C28.1,87.7,28.7,88.3,29.4,88.3"/>
					<path id="Path_5539" class="st10" d="M34.6,88.3c0.7,0,1.3-0.6,1.3-1.3c0-0.7-0.6-1.3-1.3-1.3c-0.7,0-1.3,0.6-1.3,1.3
						c0,0,0,0,0,0C33.3,87.7,33.9,88.3,34.6,88.3"/>
					<path id="Path_5540" class="st10" d="M39.8,88.3c0.7,0,1.3-0.6,1.3-1.3c0-0.7-0.6-1.3-1.3-1.3c-0.7,0-1.3,0.6-1.3,1.3
						c0,0,0,0,0,0C38.5,87.7,39.1,88.3,39.8,88.3"/>
					<path id="Path_5541" class="st10" d="M45,88.3c0.7,0,1.3-0.6,1.3-1.3c0-0.7-0.6-1.3-1.3-1.3c-0.7,0-1.3,0.6-1.3,1.3
						c0,0,0,0,0,0C43.7,87.7,44.3,88.3,45,88.3"/>
					<path id="Path_5542" class="st10" d="M50.2,88.3c0.7,0,1.3-0.6,1.3-1.3c0-0.7-0.6-1.3-1.3-1.3c-0.7,0-1.3,0.6-1.3,1.3
						c0,0,0,0,0,0C48.9,87.7,49.5,88.3,50.2,88.3"/>
					<path id="Path_5543" class="st10" d="M55.4,88.3c0.7,0,1.3-0.6,1.3-1.3c0-0.7-0.6-1.3-1.3-1.3c-0.7,0-1.3,0.6-1.3,1.3
						c0,0,0,0,0,0C54.1,87.7,54.7,88.3,55.4,88.3"/>
					<path id="Path_5544" class="st10" d="M60.6,88.3c0.7,0,1.3-0.6,1.3-1.3c0-0.7-0.6-1.3-1.3-1.3c-0.7,0-1.3,0.6-1.3,1.3
						c0,0,0,0,0,0C59.3,87.7,59.9,88.3,60.6,88.3"/>
					<path id="Path_5545" class="st10" d="M65.8,88.3c0.7,0,1.3-0.6,1.3-1.3c0-0.7-0.6-1.3-1.3-1.3c-0.7,0-1.3,0.6-1.3,1.3
						c0,0,0,0,0,0C64.5,87.7,65.1,88.3,65.8,88.3"/>
					<path id="Path_5546" class="st10" d="M71,88.3c0.7,0,1.3-0.6,1.3-1.3c0-0.7-0.6-1.3-1.3-1.3c-0.7,0-1.3,0.6-1.3,1.3
						c0,0,0,0,0,0C69.7,87.7,70.3,88.3,71,88.3"/>
					<path id="Path_5547" class="st10" d="M76.2,88.3c0.7,0,1.3-0.6,1.3-1.3c0-0.7-0.6-1.3-1.3-1.3c-0.7,0-1.3,0.6-1.3,1.3
						c0,0,0,0,0,0C74.9,87.7,75.5,88.3,76.2,88.3"/>
					<path id="Path_5548" class="st10" d="M81.4,88.3c0.7,0,1.3-0.6,1.3-1.3c0-0.7-0.6-1.3-1.3-1.3c-0.7,0-1.3,0.6-1.3,1.3
						c0,0,0,0,0,0C80.1,87.7,80.7,88.3,81.4,88.3"/>
					<path id="Path_5549" class="st10" d="M26.8,93.5c0.7,0,1.3-0.6,1.3-1.3c0-0.7-0.6-1.3-1.3-1.3c-0.7,0-1.3,0.6-1.3,1.3
						c0,0,0,0,0,0C25.5,92.9,26.1,93.5,26.8,93.5"/>
					<path id="Path_5550" class="st10" d="M32,93.5c0.7,0,1.3-0.6,1.3-1.3c0-0.7-0.6-1.3-1.3-1.3c-0.7,0-1.3,0.6-1.3,1.3
						c0,0,0,0,0,0C30.7,92.9,31.3,93.5,32,93.5"/>
					<path id="Path_5551" class="st10" d="M37.2,93.5c0.7,0,1.3-0.6,1.3-1.3c0-0.7-0.6-1.3-1.3-1.3c-0.7,0-1.3,0.6-1.3,1.3
						c0,0,0,0,0,0C35.9,92.9,36.5,93.5,37.2,93.5"/>
					<path id="Path_5552" class="st10" d="M42.4,93.5c0.7,0,1.3-0.6,1.3-1.3c0-0.7-0.6-1.3-1.3-1.3c-0.7,0-1.3,0.6-1.3,1.3
						c0,0,0,0,0,0C41.1,92.9,41.7,93.5,42.4,93.5"/>
					<path id="Path_5553" class="st10" d="M47.6,93.5c0.7,0,1.3-0.6,1.3-1.3c0-0.7-0.6-1.3-1.3-1.3c-0.7,0-1.3,0.6-1.3,1.3
						c0,0,0,0,0,0C46.3,92.9,46.9,93.5,47.6,93.5"/>
					<path id="Path_5554" class="st10" d="M52.8,93.5c0.7,0,1.3-0.6,1.3-1.3c0-0.7-0.6-1.3-1.3-1.3c-0.7,0-1.3,0.6-1.3,1.3
						c0,0,0,0,0,0C51.5,92.9,52.1,93.5,52.8,93.5"/>
					<path id="Path_5555" class="st10" d="M58,93.5c0.7,0,1.3-0.6,1.3-1.3c0-0.7-0.6-1.3-1.3-1.3c-0.7,0-1.3,0.6-1.3,1.3
						c0,0,0,0,0,0C56.7,92.9,57.3,93.5,58,93.5"/>
					<path id="Path_5556" class="st10" d="M63.2,93.5c0.7,0,1.3-0.6,1.3-1.3c0-0.7-0.6-1.3-1.3-1.3c-0.7,0-1.3,0.6-1.3,1.3
						c0,0,0,0,0,0C61.9,92.9,62.5,93.5,63.2,93.5"/>
					<path id="Path_5557" class="st10" d="M68.4,93.5c0.7,0,1.3-0.6,1.3-1.3c0-0.7-0.6-1.3-1.3-1.3c-0.7,0-1.3,0.6-1.3,1.3
						c0,0,0,0,0,0C67.1,92.9,67.7,93.5,68.4,93.5"/>
					<path id="Path_5558" class="st10" d="M73.6,93.5c0.7,0,1.3-0.6,1.3-1.3c0-0.7-0.6-1.3-1.3-1.3c-0.7,0-1.3,0.6-1.3,1.3
						c0,0,0,0,0,0C72.3,92.9,72.9,93.5,73.6,93.5"/>
					<path id="Path_5559" class="st10" d="M78.8,93.5c0.7,0,1.3-0.6,1.3-1.3c0-0.7-0.6-1.3-1.3-1.3c-0.7,0-1.3,0.6-1.3,1.3
						c0,0,0,0,0,0C77.5,92.9,78.1,93.5,78.8,93.5"/>
					<path id="Path_5560" class="st10" d="M84,93.5c0.7,0,1.3-0.6,1.3-1.3c0-0.7-0.6-1.3-1.3-1.3c-0.7,0-1.3,0.6-1.3,1.3
						c0,0,0,0,0,0C82.7,92.9,83.3,93.5,84,93.5"/>
					<path id="Path_5561" class="st10" d="M24.2,98.7c0.7,0,1.3-0.6,1.3-1.3c0-0.7-0.6-1.3-1.3-1.3c-0.7,0-1.3,0.6-1.3,1.3
						c0,0,0,0,0,0C22.9,98.1,23.5,98.7,24.2,98.7"/>
					<path id="Path_5562" class="st10" d="M29.4,98.7c0.7,0,1.3-0.6,1.3-1.3c0-0.7-0.6-1.3-1.3-1.3c-0.7,0-1.3,0.6-1.3,1.3
						c0,0,0,0,0,0C28.1,98.1,28.7,98.7,29.4,98.7"/>
					<path id="Path_5563" class="st10" d="M34.6,98.7c0.7,0,1.3-0.6,1.3-1.3c0-0.7-0.6-1.3-1.3-1.3c-0.7,0-1.3,0.6-1.3,1.3
						c0,0,0,0,0,0C33.3,98.1,33.9,98.7,34.6,98.7"/>
					<path id="Path_5564" class="st10" d="M39.8,98.7c0.7,0,1.3-0.6,1.3-1.3c0-0.7-0.6-1.3-1.3-1.3c-0.7,0-1.3,0.6-1.3,1.3
						c0,0,0,0,0,0C38.5,98.1,39.1,98.7,39.8,98.7"/>
					<path id="Path_5565" class="st10" d="M45,98.7c0.7,0,1.3-0.6,1.3-1.3c0-0.7-0.6-1.3-1.3-1.3c-0.7,0-1.3,0.6-1.3,1.3
						c0,0,0,0,0,0C43.7,98.1,44.3,98.7,45,98.7"/>
					<path id="Path_5566" class="st10" d="M50.2,98.7c0.7,0,1.3-0.6,1.3-1.3c0-0.7-0.6-1.3-1.3-1.3c-0.7,0-1.3,0.6-1.3,1.3
						c0,0,0,0,0,0C48.9,98.1,49.5,98.7,50.2,98.7"/>
					<path id="Path_5567" class="st10" d="M55.4,98.7c0.7,0,1.3-0.6,1.3-1.3c0-0.7-0.6-1.3-1.3-1.3c-0.7,0-1.3,0.6-1.3,1.3
						c0,0,0,0,0,0C54.1,98.1,54.7,98.7,55.4,98.7"/>
					<path id="Path_5568" class="st10" d="M60.6,98.7c0.7,0,1.3-0.6,1.3-1.3c0-0.7-0.6-1.3-1.3-1.3c-0.7,0-1.3,0.6-1.3,1.3
						c0,0,0,0,0,0C59.3,98.1,59.9,98.7,60.6,98.7"/>
					<path id="Path_5569" class="st10" d="M65.8,98.7c0.7,0,1.3-0.6,1.3-1.3c0-0.7-0.6-1.3-1.3-1.3c-0.7,0-1.3,0.6-1.3,1.3
						c0,0,0,0,0,0C64.5,98.1,65.1,98.7,65.8,98.7"/>
					<path id="Path_5570" class="st10" d="M71,98.7c0.7,0,1.3-0.6,1.3-1.3c0-0.7-0.6-1.3-1.3-1.3c-0.7,0-1.3,0.6-1.3,1.3
						c0,0,0,0,0,0C69.7,98.1,70.3,98.7,71,98.7"/>
					<path id="Path_5571" class="st10" d="M76.2,98.7c0.7,0,1.3-0.6,1.3-1.3c0-0.7-0.6-1.3-1.3-1.3c-0.7,0-1.3,0.6-1.3,1.3
						c0,0,0,0,0,0C74.9,98.1,75.5,98.7,76.2,98.7"/>
					<path id="Path_5572" class="st10" d="M81.4,98.7c0.7,0,1.3-0.6,1.3-1.3c0-0.7-0.6-1.3-1.3-1.3c-0.7,0-1.3,0.6-1.3,1.3
						c0,0,0,0,0,0C80.1,98.1,80.7,98.7,81.4,98.7"/>
					<path id="Path_5573" class="st10" d="M21.6,103.9c0.7,0,1.3-0.6,1.3-1.3c0-0.7-0.6-1.3-1.3-1.3c-0.7,0-1.3,0.6-1.3,1.3
						c0,0,0,0,0,0C20.3,103.3,20.9,103.9,21.6,103.9"/>
					<path id="Path_5574" class="st10" d="M26.8,103.9c0.7,0,1.3-0.6,1.3-1.3c0-0.7-0.6-1.3-1.3-1.3c-0.7,0-1.3,0.6-1.3,1.3
						c0,0,0,0,0,0C25.5,103.3,26.1,103.9,26.8,103.9"/>
					<path id="Path_5575" class="st10" d="M32,103.9c0.7,0,1.3-0.6,1.3-1.3c0-0.7-0.6-1.3-1.3-1.3c-0.7,0-1.3,0.6-1.3,1.3
						c0,0,0,0,0,0C30.7,103.3,31.3,103.9,32,103.9"/>
					<path id="Path_5576" class="st10" d="M37.2,103.9c0.7,0,1.3-0.6,1.3-1.3c0-0.7-0.6-1.3-1.3-1.3c-0.7,0-1.3,0.6-1.3,1.3
						c0,0,0,0,0,0C35.9,103.3,36.5,103.9,37.2,103.9"/>
					<path id="Path_5577" class="st10" d="M42.4,103.9c0.7,0,1.3-0.6,1.3-1.3c0-0.7-0.6-1.3-1.3-1.3c-0.7,0-1.3,0.6-1.3,1.3
						c0,0,0,0,0,0C41.1,103.3,41.7,103.9,42.4,103.9"/>
					<path id="Path_5578" class="st10" d="M47.6,103.9c0.7,0,1.3-0.6,1.3-1.3c0-0.7-0.6-1.3-1.3-1.3c-0.7,0-1.3,0.6-1.3,1.3
						c0,0,0,0,0,0C46.3,103.3,46.9,103.9,47.6,103.9"/>
					<path id="Path_5579" class="st10" d="M52.8,103.9c0.7,0,1.3-0.6,1.3-1.3c0-0.7-0.6-1.3-1.3-1.3c-0.7,0-1.3,0.6-1.3,1.3
						c0,0,0,0,0,0C51.5,103.3,52.1,103.9,52.8,103.9"/>
					<path id="Path_5580" class="st10" d="M58,103.9c0.7,0,1.3-0.6,1.3-1.3c0-0.7-0.6-1.3-1.3-1.3c-0.7,0-1.3,0.6-1.3,1.3
						c0,0,0,0,0,0C56.7,103.3,57.3,103.9,58,103.9"/>
					<path id="Path_5581" class="st10" d="M63.2,103.9c0.7,0,1.3-0.6,1.3-1.3c0-0.7-0.6-1.3-1.3-1.3c-0.7,0-1.3,0.6-1.3,1.3
						c0,0,0,0,0,0C61.9,103.3,62.5,103.9,63.2,103.9"/>
					<path id="Path_5582" class="st10" d="M68.4,103.9c0.7,0,1.3-0.6,1.3-1.3c0-0.7-0.6-1.3-1.3-1.3c-0.7,0-1.3,0.6-1.3,1.3
						c0,0,0,0,0,0C67.1,103.3,67.7,103.9,68.4,103.9"/>
					<path id="Path_5583" class="st10" d="M73.6,103.9c0.7,0,1.3-0.6,1.3-1.3c0-0.7-0.6-1.3-1.3-1.3c-0.7,0-1.3,0.6-1.3,1.3
						c0,0,0,0,0,0C72.3,103.3,72.9,103.9,73.6,103.9"/>
					<path id="Path_5584" class="st10" d="M78.8,103.9c0.7,0,1.3-0.6,1.3-1.3c0-0.7-0.6-1.3-1.3-1.3c-0.7,0-1.3,0.6-1.3,1.3
						c0,0,0,0,0,0C77.5,103.3,78.1,103.9,78.8,103.9"/>
					<path id="Path_5585" class="st10" d="M84,103.9c0.7,0,1.3-0.6,1.3-1.3c0-0.7-0.6-1.3-1.3-1.3c-0.7,0-1.3,0.6-1.3,1.3
						c0,0,0,0,0,0C82.7,103.3,83.3,103.9,84,103.9"/>
					<path id="Path_5586" class="st10" d="M8.6,109.1c0.7,0,1.3-0.6,1.3-1.3c0-0.7-0.6-1.3-1.3-1.3c-0.7,0-1.3,0.6-1.3,1.3
						c0,0,0,0,0,0C7.3,108.5,7.8,109.1,8.6,109.1"/>
					<path id="Path_5587" class="st10" d="M13.8,109.1c0.7,0,1.3-0.6,1.3-1.3c0-0.7-0.6-1.3-1.3-1.3c-0.7,0-1.3,0.6-1.3,1.3
						c0,0,0,0,0,0C12.5,108.5,13,109.1,13.8,109.1"/>
					<path id="Path_5588" class="st10" d="M19,109.1c0.7,0,1.3-0.6,1.3-1.3c0-0.7-0.6-1.3-1.3-1.3c-0.7,0-1.3,0.6-1.3,1.3
						c0,0,0,0,0,0C17.7,108.5,18.2,109.1,19,109.1"/>
					<path id="Path_5589" class="st10" d="M24.2,109.1c0.7,0,1.3-0.6,1.3-1.3c0-0.7-0.6-1.3-1.3-1.3c-0.7,0-1.3,0.6-1.3,1.3
						c0,0,0,0,0,0C22.9,108.5,23.5,109.1,24.2,109.1"/>
					<path id="Path_5590" class="st10" d="M29.4,109.1c0.7,0,1.3-0.6,1.3-1.3c0-0.7-0.6-1.3-1.3-1.3c-0.7,0-1.3,0.6-1.3,1.3
						c0,0,0,0,0,0C28.1,108.5,28.7,109.1,29.4,109.1"/>
					<path id="Path_5591" class="st10" d="M34.6,109.1c0.7,0,1.3-0.6,1.3-1.3c0-0.7-0.6-1.3-1.3-1.3c-0.7,0-1.3,0.6-1.3,1.3
						c0,0,0,0,0,0C33.3,108.5,33.9,109.1,34.6,109.1"/>
					<path id="Path_5592" class="st10" d="M39.8,109.1c0.7,0,1.3-0.6,1.3-1.3c0-0.7-0.6-1.3-1.3-1.3c-0.7,0-1.3,0.6-1.3,1.3
						c0,0,0,0,0,0C38.5,108.5,39.1,109.1,39.8,109.1"/>
					<path id="Path_5593" class="st10" d="M45,109.1c0.7,0,1.3-0.6,1.3-1.3c0-0.7-0.6-1.3-1.3-1.3c-0.7,0-1.3,0.6-1.3,1.3
						c0,0,0,0,0,0C43.7,108.5,44.3,109.1,45,109.1"/>
					<path id="Path_5594" class="st10" d="M50.2,109.1c0.7,0,1.3-0.6,1.3-1.3c0-0.7-0.6-1.3-1.3-1.3c-0.7,0-1.3,0.6-1.3,1.3
						c0,0,0,0,0,0C48.9,108.5,49.5,109.1,50.2,109.1"/>
					<path id="Path_5595" class="st10" d="M55.4,109.1c0.7,0,1.3-0.6,1.3-1.3c0-0.7-0.6-1.3-1.3-1.3c-0.7,0-1.3,0.6-1.3,1.3
						c0,0,0,0,0,0C54.1,108.5,54.7,109.1,55.4,109.1"/>
					<path id="Path_5596" class="st10" d="M60.6,109.1c0.7,0,1.3-0.6,1.3-1.3c0-0.7-0.6-1.3-1.3-1.3c-0.7,0-1.3,0.6-1.3,1.3
						c0,0,0,0,0,0C59.3,108.5,59.9,109.1,60.6,109.1"/>
					<path id="Path_5597" class="st10" d="M65.8,109.1c0.7,0,1.3-0.6,1.3-1.3c0-0.7-0.6-1.3-1.3-1.3c-0.7,0-1.3,0.6-1.3,1.3
						c0,0,0,0,0,0C64.5,108.5,65.1,109.1,65.8,109.1"/>
					<path id="Path_5598" class="st10" d="M71,109.1c0.7,0,1.3-0.6,1.3-1.3c0-0.7-0.6-1.3-1.3-1.3c-0.7,0-1.3,0.6-1.3,1.3
						c0,0,0,0,0,0C69.7,108.5,70.3,109.1,71,109.1"/>
					<path id="Path_5599" class="st10" d="M76.2,109.1c0.7,0,1.3-0.6,1.3-1.3c0-0.7-0.6-1.3-1.3-1.3c-0.7,0-1.3,0.6-1.3,1.3
						c0,0,0,0,0,0C74.9,108.5,75.5,109.1,76.2,109.1"/>
					<path id="Path_5600" class="st10" d="M81.4,109.1c0.7,0,1.3-0.6,1.3-1.3c0-0.7-0.6-1.3-1.3-1.3c-0.7,0-1.3,0.6-1.3,1.3
						c0,0,0,0,0,0C80.1,108.5,80.7,109.1,81.4,109.1"/>
					<path id="Path_5601" class="st10" d="M11.2,114.3c0.7,0,1.3-0.6,1.3-1.3c0-0.7-0.6-1.3-1.3-1.3c-0.7,0-1.3,0.6-1.3,1.3
						c0,0,0,0,0,0C9.9,113.7,10.4,114.3,11.2,114.3"/>
					<path id="Path_5602" class="st10" d="M16.4,114.3c0.7,0,1.3-0.6,1.3-1.3c0-0.7-0.6-1.3-1.3-1.3c-0.7,0-1.3,0.6-1.3,1.3
						c0,0,0,0,0,0C15.1,113.7,15.6,114.3,16.4,114.3"/>
					<path id="Path_5603" class="st10" d="M21.6,114.3c0.7,0,1.3-0.6,1.3-1.3c0-0.7-0.6-1.3-1.3-1.3c-0.7,0-1.3,0.6-1.3,1.3
						c0,0,0,0,0,0C20.3,113.7,20.9,114.3,21.6,114.3"/>
					<path id="Path_5604" class="st10" d="M26.8,114.3c0.7,0,1.3-0.6,1.3-1.3c0-0.7-0.6-1.3-1.3-1.3c-0.7,0-1.3,0.6-1.3,1.3
						c0,0,0,0,0,0C25.5,113.7,26.1,114.3,26.8,114.3"/>
					<path id="Path_5605" class="st10" d="M32,114.3c0.7,0,1.3-0.6,1.3-1.3c0-0.7-0.6-1.3-1.3-1.3c-0.7,0-1.3,0.6-1.3,1.3
						c0,0,0,0,0,0C30.7,113.7,31.3,114.3,32,114.3"/>
					<path id="Path_5606" class="st10" d="M37.2,114.3c0.7,0,1.3-0.6,1.3-1.3c0-0.7-0.6-1.3-1.3-1.3c-0.7,0-1.3,0.6-1.3,1.3
						c0,0,0,0,0,0C35.9,113.7,36.5,114.3,37.2,114.3"/>
					<path id="Path_5607" class="st10" d="M42.4,114.3c0.7,0,1.3-0.6,1.3-1.3c0-0.7-0.6-1.3-1.3-1.3c-0.7,0-1.3,0.6-1.3,1.3
						c0,0,0,0,0,0C41.1,113.7,41.7,114.3,42.4,114.3"/>
					<path id="Path_5608" class="st10" d="M47.6,114.3c0.7,0,1.3-0.6,1.3-1.3c0-0.7-0.6-1.3-1.3-1.3c-0.7,0-1.3,0.6-1.3,1.3
						c0,0,0,0,0,0C46.3,113.7,46.9,114.3,47.6,114.3"/>
					<path id="Path_5609" class="st10" d="M52.8,114.3c0.7,0,1.3-0.6,1.3-1.3c0-0.7-0.6-1.3-1.3-1.3c-0.7,0-1.3,0.6-1.3,1.3
						c0,0,0,0,0,0C51.5,113.7,52.1,114.3,52.8,114.3"/>
					<path id="Path_5610" class="st10" d="M58,114.3c0.7,0,1.3-0.6,1.3-1.3c0-0.7-0.6-1.3-1.3-1.3c-0.7,0-1.3,0.6-1.3,1.3
						c0,0,0,0,0,0C56.7,113.7,57.3,114.3,58,114.3"/>
					<path id="Path_5611" class="st10" d="M63.2,114.3c0.7,0,1.3-0.6,1.3-1.3c0-0.7-0.6-1.3-1.3-1.3c-0.7,0-1.3,0.6-1.3,1.3
						c0,0,0,0,0,0C61.9,113.7,62.5,114.3,63.2,114.3"/>
					<path id="Path_5612" class="st10" d="M68.4,114.3c0.7,0,1.3-0.6,1.3-1.3c0-0.7-0.6-1.3-1.3-1.3c-0.7,0-1.3,0.6-1.3,1.3
						c0,0,0,0,0,0C67.1,113.7,67.7,114.3,68.4,114.3"/>
					<path id="Path_5613" class="st10" d="M73.6,114.3c0.7,0,1.3-0.6,1.3-1.3c0-0.7-0.6-1.3-1.3-1.3c-0.7,0-1.3,0.6-1.3,1.3
						c0,0,0,0,0,0C72.3,113.7,72.9,114.3,73.6,114.3"/>
					<path id="Path_5614" class="st10" d="M78.8,114.3c0.7,0,1.3-0.6,1.3-1.3c0-0.7-0.6-1.3-1.3-1.3c-0.7,0-1.3,0.6-1.3,1.3
						c0,0,0,0,0,0C77.5,113.7,78.1,114.3,78.8,114.3"/>
					<path id="Path_5615" class="st10" d="M8.6,119.5c0.7,0,1.3-0.6,1.3-1.3c0-0.7-0.6-1.3-1.3-1.3c-0.7,0-1.3,0.6-1.3,1.3
						c0,0,0,0,0,0C7.3,118.9,7.8,119.5,8.6,119.5"/>
					<path id="Path_5616" class="st10" d="M13.8,119.5c0.7,0,1.3-0.6,1.3-1.3c0-0.7-0.6-1.3-1.3-1.3c-0.7,0-1.3,0.6-1.3,1.3
						c0,0,0,0,0,0C12.5,118.9,13,119.5,13.8,119.5"/>
					<path id="Path_5617" class="st10" d="M19,119.5c0.7,0,1.3-0.6,1.3-1.3c0-0.7-0.6-1.3-1.3-1.3c-0.7,0-1.3,0.6-1.3,1.3
						c0,0,0,0,0,0C17.7,118.9,18.2,119.5,19,119.5"/>
					<path id="Path_5618" class="st10" d="M24.2,119.5c0.7,0,1.3-0.6,1.3-1.3c0-0.7-0.6-1.3-1.3-1.3c-0.7,0-1.3,0.6-1.3,1.3
						c0,0,0,0,0,0C22.9,118.9,23.5,119.5,24.2,119.5"/>
					<path id="Path_5619" class="st10" d="M29.4,119.5c0.7,0,1.3-0.6,1.3-1.3c0-0.7-0.6-1.3-1.3-1.3c-0.7,0-1.3,0.6-1.3,1.3
						c0,0,0,0,0,0C28.1,118.9,28.7,119.5,29.4,119.5"/>
					<path id="Path_5620" class="st10" d="M34.6,119.5c0.7,0,1.3-0.6,1.3-1.3c0-0.7-0.6-1.3-1.3-1.3c-0.7,0-1.3,0.6-1.3,1.3
						c0,0,0,0,0,0C33.3,118.9,33.9,119.5,34.6,119.5"/>
					<path id="Path_5621" class="st10" d="M39.8,119.5c0.7,0,1.3-0.6,1.3-1.3c0-0.7-0.6-1.3-1.3-1.3c-0.7,0-1.3,0.6-1.3,1.3
						c0,0,0,0,0,0C38.5,118.9,39.1,119.5,39.8,119.5"/>
					<path id="Path_5622" class="st10" d="M45,119.5c0.7,0,1.3-0.6,1.3-1.3c0-0.7-0.6-1.3-1.3-1.3c-0.7,0-1.3,0.6-1.3,1.3
						c0,0,0,0,0,0C43.7,118.9,44.3,119.5,45,119.5"/>
					<path id="Path_5623" class="st10" d="M50.2,119.5c0.7,0,1.3-0.6,1.3-1.3c0-0.7-0.6-1.3-1.3-1.3c-0.7,0-1.3,0.6-1.3,1.3
						c0,0,0,0,0,0C48.9,118.9,49.5,119.5,50.2,119.5"/>
					<path id="Path_5624" class="st10" d="M55.4,119.5c0.7,0,1.3-0.6,1.3-1.3c0-0.7-0.6-1.3-1.3-1.3c-0.7,0-1.3,0.6-1.3,1.3
						c0,0,0,0,0,0C54.1,118.9,54.7,119.5,55.4,119.5"/>
					<path id="Path_5625" class="st10" d="M60.6,119.5c0.7,0,1.3-0.6,1.3-1.3c0-0.7-0.6-1.3-1.3-1.3c-0.7,0-1.3,0.6-1.3,1.3
						c0,0,0,0,0,0C59.3,118.9,59.9,119.5,60.6,119.5"/>
					<path id="Path_5626" class="st10" d="M65.8,119.5c0.7,0,1.3-0.6,1.3-1.3c0-0.7-0.6-1.3-1.3-1.3c-0.7,0-1.3,0.6-1.3,1.3
						c0,0,0,0,0,0C64.5,118.9,65.1,119.5,65.8,119.5"/>
					<path id="Path_5627" class="st10" d="M71,119.5c0.7,0,1.3-0.6,1.3-1.3c0-0.7-0.6-1.3-1.3-1.3c-0.7,0-1.3,0.6-1.3,1.3
						c0,0,0,0,0,0C69.7,118.9,70.3,119.5,71,119.5"/>
					<path id="Path_5628" class="st10" d="M76.2,119.5c0.7,0,1.3-0.6,1.3-1.3c0-0.7-0.6-1.3-1.3-1.3c-0.7,0-1.3,0.6-1.3,1.3
						c0,0,0,0,0,0C74.9,118.9,75.5,119.5,76.2,119.5"/>
					<path id="Path_5629" class="st10" d="M11.2,124.7c0.7,0,1.3-0.6,1.3-1.3c0-0.7-0.6-1.3-1.3-1.3c-0.7,0-1.3,0.6-1.3,1.3
						c0,0,0,0,0,0C9.9,124.1,10.4,124.7,11.2,124.7"/>
					<path id="Path_5630" class="st10" d="M16.4,124.7c0.7,0,1.3-0.6,1.3-1.3c0-0.7-0.6-1.3-1.3-1.3c-0.7,0-1.3,0.6-1.3,1.3
						c0,0,0,0,0,0C15.1,124.1,15.6,124.7,16.4,124.7"/>
					<path id="Path_5631" class="st10" d="M21.6,124.7c0.7,0,1.3-0.6,1.3-1.3c0-0.7-0.6-1.3-1.3-1.3c-0.7,0-1.3,0.6-1.3,1.3
						c0,0,0,0,0,0C20.3,124.1,20.9,124.7,21.6,124.7"/>
					<path id="Path_5632" class="st10" d="M26.8,124.7c0.7,0,1.3-0.6,1.3-1.3c0-0.7-0.6-1.3-1.3-1.3c-0.7,0-1.3,0.6-1.3,1.3
						c0,0,0,0,0,0C25.5,124.1,26.1,124.7,26.8,124.7"/>
					<path id="Path_5633" class="st10" d="M32,124.7c0.7,0,1.3-0.6,1.3-1.3c0-0.7-0.6-1.3-1.3-1.3c-0.7,0-1.3,0.6-1.3,1.3
						c0,0,0,0,0,0C30.7,124.1,31.3,124.7,32,124.7"/>
					<path id="Path_5634" class="st10" d="M37.2,124.7c0.7,0,1.3-0.6,1.3-1.3c0-0.7-0.6-1.3-1.3-1.3c-0.7,0-1.3,0.6-1.3,1.3
						c0,0,0,0,0,0C35.9,124.1,36.5,124.7,37.2,124.7"/>
					<path id="Path_5635" class="st10" d="M42.4,124.7c0.7,0,1.3-0.6,1.3-1.3c0-0.7-0.6-1.3-1.3-1.3c-0.7,0-1.3,0.6-1.3,1.3
						c0,0,0,0,0,0C41.1,124.1,41.7,124.7,42.4,124.7"/>
					<path id="Path_5636" class="st10" d="M47.6,124.7c0.7,0,1.3-0.6,1.3-1.3c0-0.7-0.6-1.3-1.3-1.3c-0.7,0-1.3,0.6-1.3,1.3
						c0,0,0,0,0,0C46.3,124.1,46.9,124.7,47.6,124.7"/>
					<path id="Path_5637" class="st10" d="M52.8,124.7c0.7,0,1.3-0.6,1.3-1.3c0-0.7-0.6-1.3-1.3-1.3c-0.7,0-1.3,0.6-1.3,1.3
						c0,0,0,0,0,0C51.5,124.1,52.1,124.7,52.8,124.7"/>
					<path id="Path_5638" class="st10" d="M58,124.7c0.7,0,1.3-0.6,1.3-1.3c0-0.7-0.6-1.3-1.3-1.3c-0.7,0-1.3,0.6-1.3,1.3
						c0,0,0,0,0,0C56.7,124.1,57.3,124.7,58,124.7"/>
					<path id="Path_5639" class="st10" d="M63.2,124.7c0.7,0,1.3-0.6,1.3-1.3c0-0.7-0.6-1.3-1.3-1.3c-0.7,0-1.3,0.6-1.3,1.3
						c0,0,0,0,0,0C61.9,124.1,62.5,124.7,63.2,124.7"/>
					<path id="Path_5640" class="st10" d="M68.4,124.7c0.7,0,1.3-0.6,1.3-1.3c0-0.7-0.6-1.3-1.3-1.3c-0.7,0-1.3,0.6-1.3,1.3
						c0,0,0,0,0,0C67.1,124.1,67.7,124.7,68.4,124.7"/>
					<path id="Path_5641" class="st10" d="M73.6,124.7c0.7,0,1.3-0.6,1.3-1.3c0-0.7-0.6-1.3-1.3-1.3c-0.7,0-1.3,0.6-1.3,1.3
						c0,0,0,0,0,0C72.3,124.1,72.9,124.7,73.6,124.7"/>
					<path id="Path_5642" class="st10" d="M78.8,124.7c0.7,0,1.3-0.6,1.3-1.3c0-0.7-0.6-1.3-1.3-1.3c-0.7,0-1.3,0.6-1.3,1.3
						c0,0,0,0,0,0C77.5,124.1,78.1,124.7,78.8,124.7"/>
					<path id="Path_5643" class="st10" d="M8.6,129.9c0.7,0,1.3-0.6,1.3-1.3c0-0.7-0.6-1.3-1.3-1.3c-0.7,0-1.3,0.6-1.3,1.3
						c0,0,0,0,0,0C7.3,129.3,7.8,129.9,8.6,129.9"/>
					<path id="Path_5644" class="st10" d="M13.8,129.9c0.7,0,1.3-0.6,1.3-1.3c0-0.7-0.6-1.3-1.3-1.3c-0.7,0-1.3,0.6-1.3,1.3
						c0,0,0,0,0,0C12.5,129.3,13,129.9,13.8,129.9"/>
					<path id="Path_5645" class="st10" d="M19,129.9c0.7,0,1.3-0.6,1.3-1.3c0-0.7-0.6-1.3-1.3-1.3c-0.7,0-1.3,0.6-1.3,1.3
						c0,0,0,0,0,0C17.7,129.3,18.2,129.9,19,129.9"/>
					<path id="Path_5646" class="st10" d="M24.2,129.9c0.7,0,1.3-0.6,1.3-1.3c0-0.7-0.6-1.3-1.3-1.3c-0.7,0-1.3,0.6-1.3,1.3
						c0,0,0,0,0,0C22.9,129.3,23.5,129.9,24.2,129.9"/>
					<path id="Path_5647" class="st10" d="M29.4,129.9c0.7,0,1.3-0.6,1.3-1.3c0-0.7-0.6-1.3-1.3-1.3c-0.7,0-1.3,0.6-1.3,1.3
						c0,0,0,0,0,0C28.1,129.3,28.7,129.9,29.4,129.9"/>
					<path id="Path_5648" class="st10" d="M34.6,129.9c0.7,0,1.3-0.6,1.3-1.3c0-0.7-0.6-1.3-1.3-1.3c-0.7,0-1.3,0.6-1.3,1.3
						c0,0,0,0,0,0C33.3,129.3,33.9,129.9,34.6,129.9"/>
					<path id="Path_5649" class="st10" d="M39.8,129.9c0.7,0,1.3-0.6,1.3-1.3c0-0.7-0.6-1.3-1.3-1.3c-0.7,0-1.3,0.6-1.3,1.3
						c0,0,0,0,0,0C38.5,129.3,39.1,129.9,39.8,129.9"/>
					<path id="Path_5650" class="st10" d="M45,129.9c0.7,0,1.3-0.6,1.3-1.3c0-0.7-0.6-1.3-1.3-1.3c-0.7,0-1.3,0.6-1.3,1.3
						c0,0,0,0,0,0C43.7,129.3,44.3,129.9,45,129.9"/>
					<path id="Path_5651" class="st10" d="M50.2,129.9c0.7,0,1.3-0.6,1.3-1.3c0-0.7-0.6-1.3-1.3-1.3c-0.7,0-1.3,0.6-1.3,1.3
						c0,0,0,0,0,0C48.9,129.3,49.5,129.9,50.2,129.9"/>
					<path id="Path_5652" class="st10" d="M55.4,129.9c0.7,0,1.3-0.6,1.3-1.3c0-0.7-0.6-1.3-1.3-1.3c-0.7,0-1.3,0.6-1.3,1.3
						c0,0,0,0,0,0C54.1,129.3,54.7,129.9,55.4,129.9"/>
					<path id="Path_5653" class="st10" d="M60.6,129.9c0.7,0,1.3-0.6,1.3-1.3c0-0.7-0.6-1.3-1.3-1.3c-0.7,0-1.3,0.6-1.3,1.3
						c0,0,0,0,0,0C59.3,129.3,59.9,129.9,60.6,129.9"/>
					<path id="Path_5654" class="st10" d="M65.8,129.9c0.7,0,1.3-0.6,1.3-1.3c0-0.7-0.6-1.3-1.3-1.3c-0.7,0-1.3,0.6-1.3,1.3
						c0,0,0,0,0,0C64.5,129.3,65.1,129.9,65.8,129.9"/>
					<path id="Path_5655" class="st10" d="M71,129.9c0.7,0,1.3-0.6,1.3-1.3c0-0.7-0.6-1.3-1.3-1.3c-0.7,0-1.3,0.6-1.3,1.3
						c0,0,0,0,0,0C69.7,129.3,70.3,129.9,71,129.9"/>
					<path id="Path_5656" class="st10" d="M76.2,129.9c0.7,0,1.3-0.6,1.3-1.3c0-0.7-0.6-1.3-1.3-1.3c-0.7,0-1.3,0.6-1.3,1.3
						c0,0,0,0,0,0C74.9,129.3,75.5,129.9,76.2,129.9"/>
					<path id="Path_5657" class="st10" d="M26.8,135.1c0.7,0,1.3-0.6,1.3-1.3c0-0.7-0.6-1.3-1.3-1.3c-0.7,0-1.3,0.6-1.3,1.3
						c0,0,0,0,0,0C25.5,134.5,26.1,135.1,26.8,135.1"/>
					<path id="Path_5658" class="st10" d="M32,135.1c0.7,0,1.3-0.6,1.3-1.3c0-0.7-0.6-1.3-1.3-1.3c-0.7,0-1.3,0.6-1.3,1.3
						c0,0,0,0,0,0C30.7,134.5,31.3,135.1,32,135.1"/>
					<path id="Path_5659" class="st10" d="M37.2,135.1c0.7,0,1.3-0.6,1.3-1.3c0-0.7-0.6-1.3-1.3-1.3c-0.7,0-1.3,0.6-1.3,1.3
						c0,0,0,0,0,0C35.9,134.5,36.5,135.1,37.2,135.1"/>
					<path id="Path_5660" class="st10" d="M42.4,135.1c0.7,0,1.3-0.6,1.3-1.3c0-0.7-0.6-1.3-1.3-1.3c-0.7,0-1.3,0.6-1.3,1.3
						c0,0,0,0,0,0C41.1,134.5,41.7,135.1,42.4,135.1"/>
					<path id="Path_5661" class="st10" d="M47.6,135.1c0.7,0,1.3-0.6,1.3-1.3c0-0.7-0.6-1.3-1.3-1.3c-0.7,0-1.3,0.6-1.3,1.3
						c0,0,0,0,0,0C46.3,134.5,46.9,135.1,47.6,135.1"/>
					<path id="Path_5662" class="st10" d="M52.8,135.1c0.7,0,1.3-0.6,1.3-1.3c0-0.7-0.6-1.3-1.3-1.3c-0.7,0-1.3,0.6-1.3,1.3
						c0,0,0,0,0,0C51.5,134.5,52.1,135.1,52.8,135.1"/>
					<path id="Path_5663" class="st10" d="M58,135.1c0.7,0,1.3-0.6,1.3-1.3c0-0.7-0.6-1.3-1.3-1.3c-0.7,0-1.3,0.6-1.3,1.3
						c0,0,0,0,0,0C56.7,134.5,57.3,135.1,58,135.1"/>
					<path id="Path_5664" class="st10" d="M63.2,135.1c0.7,0,1.3-0.6,1.3-1.3c0-0.7-0.6-1.3-1.3-1.3c-0.7,0-1.3,0.6-1.3,1.3
						c0,0,0,0,0,0C61.9,134.5,62.5,135.1,63.2,135.1"/>
					<path id="Path_5665" class="st10" d="M68.4,135.1c0.7,0,1.3-0.6,1.3-1.3c0-0.7-0.6-1.3-1.3-1.3c-0.7,0-1.3,0.6-1.3,1.3
						c0,0,0,0,0,0C67.1,134.5,67.7,135.1,68.4,135.1"/>
					<path id="Path_5666" class="st10" d="M24.2,140.3c0.7,0,1.3-0.6,1.3-1.3c0-0.7-0.6-1.3-1.3-1.3c-0.7,0-1.3,0.6-1.3,1.3
						c0,0,0,0,0,0C22.9,139.7,23.5,140.3,24.2,140.3"/>
					<path id="Path_5667" class="st10" d="M29.4,140.3c0.7,0,1.3-0.6,1.3-1.3c0-0.7-0.6-1.3-1.3-1.3c-0.7,0-1.3,0.6-1.3,1.3
						c0,0,0,0,0,0C28.1,139.7,28.7,140.3,29.4,140.3"/>
					<path id="Path_5668" class="st10" d="M34.6,140.3c0.7,0,1.3-0.6,1.3-1.3c0-0.7-0.6-1.3-1.3-1.3c-0.7,0-1.3,0.6-1.3,1.3
						c0,0,0,0,0,0C33.3,139.7,33.9,140.3,34.6,140.3"/>
					<path id="Path_5669" class="st10" d="M39.8,140.3c0.7,0,1.3-0.6,1.3-1.3c0-0.7-0.6-1.3-1.3-1.3c-0.7,0-1.3,0.6-1.3,1.3
						c0,0,0,0,0,0C38.5,139.7,39.1,140.3,39.8,140.3"/>
					<path id="Path_5670" class="st10" d="M45,140.3c0.7,0,1.3-0.6,1.3-1.3c0-0.7-0.6-1.3-1.3-1.3c-0.7,0-1.3,0.6-1.3,1.3
						c0,0,0,0,0,0C43.7,139.7,44.3,140.3,45,140.3"/>
					<path id="Path_5671" class="st10" d="M50.2,140.3c0.7,0,1.3-0.6,1.3-1.3c0-0.7-0.6-1.3-1.3-1.3c-0.7,0-1.3,0.6-1.3,1.3
						c0,0,0,0,0,0C48.9,139.7,49.5,140.3,50.2,140.3"/>
					<path id="Path_5672" class="st10" d="M55.4,140.3c0.7,0,1.3-0.6,1.3-1.3c0-0.7-0.6-1.3-1.3-1.3c-0.7,0-1.3,0.6-1.3,1.3
						c0,0,0,0,0,0C54.1,139.7,54.7,140.3,55.4,140.3"/>
					<path id="Path_5673" class="st10" d="M60.6,140.3c0.7,0,1.3-0.6,1.3-1.3c0-0.7-0.6-1.3-1.3-1.3c-0.7,0-1.3,0.6-1.3,1.3
						c0,0,0,0,0,0C59.3,139.7,59.9,140.3,60.6,140.3"/>
					<path id="Path_5674" class="st10" d="M26.8,145.5c0.7,0,1.3-0.6,1.3-1.3c0-0.7-0.6-1.3-1.3-1.3c-0.7,0-1.3,0.6-1.3,1.3
						c0,0,0,0,0,0C25.5,144.9,26.1,145.5,26.8,145.5"/>
					<path id="Path_5675" class="st10" d="M32,145.5c0.7,0,1.3-0.6,1.3-1.3c0-0.7-0.6-1.3-1.3-1.3c-0.7,0-1.3,0.6-1.3,1.3
						c0,0,0,0,0,0C30.7,144.9,31.3,145.5,32,145.5"/>
					<path id="Path_5676" class="st10" d="M37.2,145.5c0.7,0,1.3-0.6,1.3-1.3c0-0.7-0.6-1.3-1.3-1.3c-0.7,0-1.3,0.6-1.3,1.3
						c0,0,0,0,0,0C35.9,144.9,36.5,145.5,37.2,145.5"/>
					<path id="Path_5677" class="st10" d="M42.4,145.5c0.7,0,1.3-0.6,1.3-1.3c0-0.7-0.6-1.3-1.3-1.3c-0.7,0-1.3,0.6-1.3,1.3
						c0,0,0,0,0,0C41.1,144.9,41.7,145.5,42.4,145.5"/>
					<path id="Path_5678" class="st10" d="M47.6,145.5c0.7,0,1.3-0.6,1.3-1.3c0-0.7-0.6-1.3-1.3-1.3c-0.7,0-1.3,0.6-1.3,1.3
						c0,0,0,0,0,0C46.3,144.9,46.9,145.5,47.6,145.5"/>
					<path id="Path_5679" class="st10" d="M52.8,145.5c0.7,0,1.3-0.6,1.3-1.3c0-0.7-0.6-1.3-1.3-1.3c-0.7,0-1.3,0.6-1.3,1.3
						c0,0,0,0,0,0C51.5,144.9,52.1,145.5,52.8,145.5"/>
					<path id="Path_5680" class="st10" d="M58,145.5c0.7,0,1.3-0.6,1.3-1.3c0-0.7-0.6-1.3-1.3-1.3c-0.7,0-1.3,0.6-1.3,1.3
						c0,0,0,0,0,0C56.7,144.9,57.3,145.5,58,145.5"/>
					<path id="Path_5681" class="st10" d="M63.2,145.5c0.7,0,1.3-0.6,1.3-1.3c0-0.7-0.6-1.3-1.3-1.3c-0.7,0-1.3,0.6-1.3,1.3
						c0,0,0,0,0,0C61.9,144.9,62.5,145.5,63.2,145.5"/>
					<path id="Path_5682" class="st10" d="M29.4,150.7c0.7,0,1.3-0.6,1.3-1.3c0-0.7-0.6-1.3-1.3-1.3c-0.7,0-1.3,0.6-1.3,1.3
						c0,0,0,0,0,0C28.1,150.1,28.7,150.7,29.4,150.7"/>
					<path id="Path_5683" class="st10" d="M34.6,150.7c0.7,0,1.3-0.6,1.3-1.3c0-0.7-0.6-1.3-1.3-1.3c-0.7,0-1.3,0.6-1.3,1.3
						c0,0,0,0,0,0C33.3,150.1,33.9,150.7,34.6,150.7"/>
					<path id="Path_5684" class="st10" d="M39.8,150.7c0.7,0,1.3-0.6,1.3-1.3c0-0.7-0.6-1.3-1.3-1.3c-0.7,0-1.3,0.6-1.3,1.3
						c0,0,0,0,0,0C38.5,150.1,39.1,150.7,39.8,150.7"/>
					<path id="Path_5685" class="st10" d="M45,150.7c0.7,0,1.3-0.6,1.3-1.3c0-0.7-0.6-1.3-1.3-1.3c-0.7,0-1.3,0.6-1.3,1.3
						c0,0,0,0,0,0C43.7,150.1,44.3,150.7,45,150.7"/>
					<path id="Path_5686" class="st10" d="M50.2,150.7c0.7,0,1.3-0.6,1.3-1.3c0-0.7-0.6-1.3-1.3-1.3c-0.7,0-1.3,0.6-1.3,1.3
						c0,0,0,0,0,0C48.9,150.1,49.5,150.7,50.2,150.7"/>
					<path id="Path_5687" class="st10" d="M55.4,150.7c0.7,0,1.3-0.6,1.3-1.3c0-0.7-0.6-1.3-1.3-1.3c-0.7,0-1.3,0.6-1.3,1.3
						c0,0,0,0,0,0C54.1,150.1,54.7,150.7,55.4,150.7"/>
					<rect id="Rectangle_743" x="-25.5" y="-14.4" width="0.2" height="2.9"/>
					<path id="Path_5688" class="st10" d="M42.4,44.4c0.3-0.3,0.8-0.1,0.7,0.1c0.4-0.8,0.7-0.3,0.3-1.2c0.2-0.6,0.9-0.4,0.7,0.2
						l0.9-1.2l-0.8,0.3c-0.2-0.8,1.2-0.5,1-1.4l-1.2,0.8l-0.1-0.3c-0.2,0.4-0.6,0.6-1,0.7c0-0.1-0.2-0.3,0-0.5
						c-1.6,0.9,0.3,1.4-0.8,2.4C42.2,44.4,42.3,44.4,42.4,44.4"/>
					<path id="Path_5689" class="st10" d="M40.1,43.6l0,1.2l-1,0.4c0.2,0.3-0.3,0.9,0.3,0.9c0.1-0.1,0.2-0.3,0.3-0.4
						c0.3,0.7-1,1.1-0.3,1.5c0.6-0.6,0.8-0.5,0.9-1.3c0.5-0.3,1.1-0.5,1.7-0.5c0.1-0.2-0.1-0.6,0.1-0.8c0,0-0.1,0.1-0.2,0.1
						l-0.6-0.9c-0.1,0.3-0.3,0.4-0.5,0.5l0.3-1.8c-0.9-0.7-1.6,0.5-2.2,0.4C39.8,43.4,38.7,43.5,40.1,43.6"/>
					<path id="Path_5690" class="st10" d="M42,44.5L42,44.5L42,44.5z"/>
					<path id="Path_5691" class="st10" d="M-17.9,107.4c0,0.2,0.2,0.4,0.3,0.5c0,0,0.2-0.7,0.4-1.3s0.4-1.3,0.4-1.3
						c-0.3,0-0.9,0.7-0.9,0.1c-0.4,0.1-0.3,0.9,0,1.1l-0.4-0.3c0.4,0.8-0.8,0.9-1,0.4l0,0.1c0,0,0.4,0.6,0.8,1.2l0.8,1.1
						C-17.2,108.2-18.1,108.2-17.9,107.4"/>
					<path id="Path_5692" class="st10" d="M-15.8,164c-0.3-0.2-0.4-0.2-0.4-0.1C-16.1,164-16,164-15.8,164"/>
					<path id="Path_5693" class="st10" d="M-17.1,109.4l0.5,0.7C-16.7,109.8-16.9,109.6-17.1,109.4"/>
					<path id="Path_5694" class="st10" d="M-26,102.6c0,0-0.1,0-0.1,0l0.3,0.4v0C-25.9,102.8-26,102.7-26,102.6"/>
					<path id="Path_5695" class="st10" d="M-16.7,121.9c0,0.1,0,0.1,0,0.2C-16.6,122-16.6,122-16.7,121.9"/>
					<path id="Path_5696" class="st10" d="M-27,93.4l0.1,1.6c-0.2-0.3-0.4,0.4-0.6,0c0,0.1,0,0.6,0.2,0.6l0.1-0.3
						c0.6,1,1.1,0.7,1.3,2.1c0.8-0.5,0.4-1,0.2-1.5c0-0.1,0-0.3,0-0.4l-0.8-1.6L-27,93.4z"/>
					<path id="Path_5697" class="st10" d="M-25.4,148.3L-25.4,148.3C-25.5,148.3-25.5,148.3-25.4,148.3"/>
					<path id="Path_5698" class="st10" d="M-25.8,148.3l0.3,0C-25.7,148.3-25.8,148-25.8,148.3"/>
					<path id="Path_5699" class="st10" d="M-17.6,109c0.2,0.1,0.4,0.2,0.5,0.3l-0.4-0.5C-17.5,108.9-17.6,109-17.6,109"/>
					<path id="Path_5700" class="st10" d="M-19.3,107.6l0.2-1.1l-0.3-0.5C-19.4,106.5-19.4,107.1-19.3,107.6"/>
					<path id="Path_5701" class="st10" d="M-16,120.4c-0.1,2.1-1-0.6-1.4,0.3c0.1,0.6,0.6,0.8,0.7,1.2c-0.3-1.7,1.6,0.4,1.5-1.3
						c0.6,0.2,0.9,1,0.7,1.6c0,0.1-0.1,0.1-0.1,0.2c-0.9,0.5-0.6-0.6-1.4-0.8c0.1,0.7,0.2,0.6,0.7,0.9c-0.3,1,0.9,2.2-0.3,2.7
						c0.2,0.8,0.6,0.7,1,1.2c0.9,0.1,0.5-1.1,1.3-1.3c-0.1,0.1-0.2,0.1-0.4,0.1l0.2-0.6c-0.4,0.6-0.9-0.1-1-0.5c0-0.2,0-0.7,0.2-0.6
						l0.2,0.4c0.3-0.4-0.6-1.1-0.1-1.5c0.2,0,0.3,0.2,0.4,0.2c-0.6-0.6-0.5-1.1-0.9-2l0.9,0.6c-1-0.7-0.5-2.2,0.2-3.1
						c-0.2,0.1-0.3,0.3-0.5,0.1c-0.1-0.3,0.1-0.7,0.5-0.7c0.2,0,0.4,0,0.5,0.1c-0.7-0.7,1-2,0.2-3c0,0-1-1.1-2-2.3s-1.9-2.4-1.9-2.4
						c0.1,0.2,0.1,0.3,0.1,0.5c-0.9,0.1-0.8,0.4-1.4-0.4c0.3,0.7,1,0.6,0.8,1.5c-0.3-0.4-1.2-0.7-1.5,0.1c0.3,2.3,2.4,4.1,3.3,6.2
						c-0.6,0-0.7,1.5-0.9,2.2c-0.5-0.3-0.9-0.9-0.8-1.5c-0.1,0.4-0.2,1-0.3,1.4L-16,120.4z"/>
					<path id="Path_5702" class="st10" d="M-17.4,115.3c-0.1,0-0.1,0.1-0.1,0.1C-17.4,115.4-17.4,115.3-17.4,115.3"/>
					<path id="Path_5703" class="st10" d="M-17,118.5C-17,118.5-17,118.4-17,118.5l0,0.2C-17,118.6-17,118.5-17,118.5"/>
					<path id="Path_5704" class="st10" d="M-19.1,109.2c-0.1-0.2-0.2-0.3-0.3-0.4c0,0.1,0.1,0.2,0.1,0.3
						C-19.3,109.1-19.2,109.2-19.1,109.2"/>
					<path id="Path_5705" class="st10" d="M-17.9,109l0.2,0.1c0,0,0.1-0.1,0.1-0.1C-17.7,109-17.8,109-17.9,109"/>
					<path id="Path_5706" class="st10" d="M-22.2,128.1l0.1,0.2C-22.1,128.3-22.2,128.2-22.2,128.1"/>
					<path id="Path_5707" class="st10" d="M-17.3,122.6c0-0.7-0.9-0.2-0.8-1.2l-0.1,0.3c-0.3-0.8,0-2.1,0.1-3
						c0.4,0.1,0.5-0.5,1.1-0.3c0-0.6-0.2-1.2-0.6-1.6c0.3-0.3-0.2-1,0.2-1.4c-0.4,0.1-1.1-0.9-0.8,0.3c0-0.1-0.1-0.1-0.2-0.2
						c-0.6,0.7,0.2,1.1,0.1,1.7c-0.4,0.3-0.5-0.7-0.7-0.4c0.2,0.9-0.8,2.5,0.5,2.6c0,0.6-0.3,0.6-0.5,0.8c1.3,1.1-0.9,3.4,0.9,3.5
						c0-0.5-0.1-1-0.3-1.4L-17.3,122.6z"/>
					<path id="Path_5708" class="st10" d="M-19.3,110.4c0,0,0,0.1-0.1,0.1C-19.4,110.5-19.4,110.5-19.3,110.4"/>
					<path id="Path_5709" class="st10" d="M-11.7,102.9l1,0.7c-0.1,0.7-0.3,1.3-0.6,1.9c-0.3,0.6-0.5,1.2-0.7,1.8
						c-0.2,0.1-0.2-0.1-0.3-0.2c-0.2,1-0.8,2.4-0.5,3.3c-0.1,0.3-0.7,1.1-0.9,0.7c0.1,0.2,0.1,0.4,0,0.6c-0.4-0.1,0-0.4-0.4-0.5
						c-0.1,0.1-0.2,0.2,0,0.2c-0.3-0.3-1.5-0.1-1.1-1.2c1.1-0.2-0.1,0.8,1,0.8c0.1-0.4-0.3-0.4-0.4-0.5c0.1-0.5,0.4-0.4,0.6-0.3
						c-0.3-0.3,0.3-0.7-0.1-1.1c0.2-0.9,0.8,0.3,0.9-0.3l-1-0.6l0.5-0.9c0.1-1.6-1.9-0.3-1.9-2.2c0.5,0.4,1.6,0,2.1-0.7
						c-0.1,0.5,0.3,1.6-0.2,2.1c1.1-0.6-0.3,1.2,0.8,1c-0.2-0.3-0.2-0.6-0.2-0.9c0.1-0.3,0.2-0.6,0.4-0.9l0,0.2c0.3-0.6-0.7-1.3,0-2
						c0.1-0.4,0.4-0.2,0.6-0.1C-11.8,103.2-11.9,102.8-11.7,102.9 M-11.8,103.8l-0.3,0.5C-11.8,104.2-11.8,104-11.8,103.8"/>
					<path id="Path_5710" class="st10" d="M33.1,48.3l0.2,0C33.2,48.2,33.2,48.2,33.1,48.3"/>
					<path id="Path_5711" class="st10" d="M-12.1,77.6l0.4-0.3C-11.9,77.4-12,77.5-12.1,77.6"/>
					<path id="Path_5712" class="st10" d="M-7.2,69.3l0.3-0.5C-7.1,69-7.2,69.1-7.2,69.3"/>
					<path id="Path_5713" class="st10" d="M29.6,50.5L29.6,50.5C29.6,50.5,29.6,50.5,29.6,50.5L29.6,50.5z"/>
					<path id="Path_5714" class="st10" d="M7.3,62.7c0.1,0,0.2,0.1,0.4,0.1C7.6,62.7,7.4,62.7,7.3,62.7"/>
					<path id="Path_5715" class="st10" d="M-7.3,69.4L-7.3,69.4L-7.3,69.4L-7.3,69.4z"/>
					<path id="Path_5716" class="st10" d="M-17.4,78.7c0,0.1-0.1,0.2-0.1,0.3C-17.5,78.9-17.4,78.8-17.4,78.7"/>
					<path id="Path_5717" class="st10" d="M-14.6,80.2c0,0.1-0.1,0.2-0.1,0.3L-14.6,80.2z"/>
					<path id="Path_5718" class="st10" d="M-23.5,90.8l-0.1,0.5C-23.5,91.1-23.5,91-23.5,90.8"/>
					<path id="Path_5719" class="st10" d="M-16.1,80.9c0,0.1,0,0.1,0.1,0.2C-16,81-16,80.9-16.1,80.9"/>
					<path id="Path_5720" class="st10" d="M37.4,49.4L37.4,49.4l0,0.1L37.4,49.4z"/>
					<path id="Path_5721" class="st10" d="M37.5,47.4l0.3-0.3C37.6,47.2,37.5,47.3,37.5,47.4"/>
					<path id="Path_5722" class="st10" d="M14,60.6c0.2,0.1,0.5,0.1,0.5,0.3C14.6,60.6,14.3,60.1,14,60.6"/>
					<path id="Path_5723" class="st10" d="M39.3,56.4c0-0.2,0-0.3,0-0.5C39.2,56.2,39.2,56.4,39.3,56.4"/>
					<path id="Path_5724" class="st10" d="M39.3,55.9c0-0.1,0.1-0.2,0.1-0.3C39.3,55.7,39.3,55.8,39.3,55.9"/>
					<path id="Path_5725" class="st10" d="M16.2,70C16.1,70,16,69.9,16,70C16.1,70.1,16.1,70.1,16.2,70"/>
					<path id="Path_5726" class="st10" d="M38.1,47.1c-0.1-0.3,1.1-1.7-0.2-1c-0.4-0.7,0.6-0.8,0.8-1.2c-0.3,0-0.2-0.5-0.4-0.7
						c-0.1,0.2-0.2,0.5-0.5,0.7c-0.3-0.2,0-0.7,0.4-0.8c-0.6-0.1,0.2-0.9-0.6-0.8c-1.1,0.8-1.8,2.1-2,3.4c0.5-0.7,1.2-1.2,2-1.4
						l0.1,0.7c-1-0.1-1.1,0.5-1.8,0.9l1.6-0.6c1,0.1,0.6,0.5,0.2,0.9C37.9,47,38,47,38.1,47.1"/>
					<path id="Path_5727" class="st10" d="M40.6,52.9L40.6,52.9C40.6,52.9,40.6,52.8,40.6,52.9L40.6,52.9z"/>
					<path id="Path_5728" class="st10" d="M-10.4,96.5l0.2,0.2C-10.3,96.6-10.4,96.5-10.4,96.5"/>
					<path id="Path_5729" class="st10" d="M37.9,50.6L37.9,50.6C37.9,50.6,37.9,50.6,37.9,50.6"/>
					<path id="Path_5730" class="st10" d="M-9,93.7L-9,93.7C-9,93.8-9,93.7-9,93.7"/>
					<path id="Path_5731" class="st10" d="M-21.9,85.5C-21.9,85.5-22,85.5-21.9,85.5C-22,85.6-21.9,85.6-21.9,85.5"/>
					<path id="Path_5732" class="st10" d="M-9,93.7C-9,93.7-9,93.7-9,93.7C-9,93.7-9,93.7-9,93.7"/>
					<path id="Path_5733" class="st10" d="M-1.1,81c-0.1,0-0.2-0.1-0.2-0.1C-1.3,81-1.3,81-1.1,81"/>
					<path id="Path_5734" class="st10" d="M-4.3,82L-4.3,82L-4.3,82z"/>
					<path id="Path_5735" class="st10" d="M11.6,58.3c-0.1,0.1-0.2,0.2-0.3,0.3C11.4,58.5,11.5,58.4,11.6,58.3"/>
					<path id="Path_5736" class="st10" d="M-8.9,93.8c0.1,0.1,0.1,0.2,0.2,0.2C-8.8,93.9-8.9,93.8-8.9,93.8"/>
					<path id="Path_5737" class="st10" d="M1.3,75.1l0,0.1c0,0,0,0,0.1,0L1.3,75.1z"/>
					<path id="Path_5738" class="st10" d="M3,74.5c0,0.1,0,0.2,0,0.3c0.4-0.6,1.5-1,1.2-1.7c-0.2,0.1-1.4,0.4-1.4-0.1
						c-0.3,0.4-1.1,0.4-1.2,0.6c0.8-0.1,0.4,0.5,0.2,1c-0.5,0.1-0.3-0.5-0.7-0.4l-0.8,0.7l0.8-0.4l0.2,0.8c0,0,0-0.1,0-0.1
						C2.4,73.8,2,75.8,3,74.5"/>
					<path id="Path_5739" class="st10" d="M3.1,74.7C3,74.8,3,74.9,3,75C3.1,75,3.1,74.9,3.1,74.7"/>
					<path id="Path_5740" class="st10" d="M8.9,72.3C9,72.2,9.1,72.1,9.1,72C9.1,72.1,9,72.2,8.9,72.3"/>
					<path id="Path_5741" class="st10" d="M-19.1,105.3c0.2,0,0.9-0.7,0.4-0.8l-0.4,0.7L-19.1,105.3z"/>
					<path id="Path_5742" class="st10" d="M21.7,60.4c-0.1,0-0.2,0.1-0.3,0.1c0,0,0,0.1,0,0.1C21.6,60.7,21.7,60.5,21.7,60.4"/>
					<path id="Path_5743" class="st10" d="M2.9,72.6c-0.1,0.1-0.1,0.2-0.1,0.4C2.9,72.9,2.9,72.7,2.9,72.6"/>
					<path id="Path_5744" class="st10" d="M22.5,61.5c0.2,0.1,0.4,0.2,0.6,0.3c0.2-0.1,0.2-0.5,0.4-0.7
						C23.2,61.4,22.9,61.6,22.5,61.5"/>
					<path id="Path_5745" class="st10" d="M23.5,61.2L23.5,61.2C23.5,61.2,23.5,61.2,23.5,61.2"/>
					<path id="Path_5746" class="st10" d="M-19.5,105.8l0,0.3L-19.5,105.8l-0.4,0.6c0,0.1,0,0.2,0,0.3c0,0-0.1-0.1-0.1-0.1l-0.1,0.2
						c0.3,0.8,0.6,1.5,0.8,2.3c0.1,0.5,0.1,0.9,0,1.4c0.1-0.3,0.1-0.8-0.3-0.7c-0.5,0.6-1.5,0.7-0.9,2l0.1-0.7l0.9,1.7
						c-0.6,0.4-0.5-0.9-0.8-1.2c0.3,1.3-1.4,1.9-0.5,2.6c-0.6,0-1.7-0.1-1.8,0.7c0.8-0.4,0.4,0.5,1.2,0.2c0.3,0.3-0.4,0.8,0.1,0.9
						l-0.2-0.1c-1.2,1.2,0.3,1.8,0.7,2.4c0.1,1.6-0.4,2.2-0.4,3.5c-0.4,0-1.6,0.3-1.6,0.8c0.5,0.3,0.7,1.5,1.5,1.6
						c0.4-0.9-0.6-0.8-0.7-1.4c0.8-0.4,0.8,0,1.3-0.6c-0.3,0.5,0.2,2.3-0.5,2.8l-0.1-0.2c-0.5,0.8-2.3,1-1.3,2.5l0.4,0.7
						c-0.1,0-0.1,0-0.2-0.1c-0.1,1.2-0.9,0.9-0.3,2.1c-0.1-0.1-0.1,0-0.2-0.1c-0.4,0.7,0.4,1.5,0.6,2c-0.6,0.4-0.6-0.1-1.1-0.3
						c-0.2,1.3,0.9,2.6,1.7,3.4l-0.3,0.8c-0.3-0.5-1-1-1.3-0.8c0.2,0.4,0.4,0.3,0.4,1c-0.5-0.1-0.9-0.3-1.3-0.6
						c-0.6,1.4,1.4,0.2,0.3,1.2c0,0.4,0.6,0.6,1.1,0.6l-0.5,0.8c0.6,0,0.7,1,0.9,1.6c0.3,0,0.6-0.6,0.3-0.8c0.5,0,0.8,0.6,0.8,1
						c-1.3,0.3,0.5,2.7-1,2.4c0.6,1.8,1.2,4.4,1.9,5.6c-0.3,0.5-0.2,1.3-0.8,0.9c0.2,1.5,1.6,2.1,1.5,3.6c-0.1,0.1-0.1-0.7-0.5-0.5
						c0.7,0.9-0.2,1.9,0.4,3.3c-0.1-0.2-0.3-0.3-0.5-0.3c0.2-0.1,0.5,0.5,0.8,0.9c-0.1,0.2-0.2-0.3-0.3-0.1c0.1,1.4,0.5,2.7,1.3,3.8
						c0.8,1,1.5,2.1,2.1,3.2c-0.3-0.5-1-0.7-1.5-0.5l0.2,0.4c0.1,0.2,0.2,0.4,0.2,0.4c0.5,0.1,0.8,0.6,1.3,0.8
						c-0.1,0.1-0.1,0.4-0.4,0.3c0,0.9,0.7,1.2,1.4,1.4c0.3,0.1,0.7,0.2,1,0.3c0.4,0.2,0.8,0.5,1,0.9l-1.5-0.3
						c-0.6-0.1-1.3-0.3-1.3-0.3s0,0.2,0,0.4s0,0.4,0,0.4l-0.6-0.2c-0.2-0.1-0.4-0.1-0.6-0.2c0,0.8,1.3,0.6,0.8,1.1
						c-0.2,0-0.4-0.3-0.7-0.1c0.3,0.7,0.6,0.5,1,0.7c-1-0.1-1.9-0.6-2.6-1.3c-0.6-0.7-1.2-1.4-1.8-2.1c-0.2-0.2,0.4,0,0.5,0
						c-0.3-0.5-0.1-1-0.6-1.5c-0.7-0.2-0.2,0.5-0.1,0.8c-0.4,0.2-0.5,0-0.7-0.4c0.5-0.3-0.7-2.1,0-2.9c-0.8-1.9-1.5,0.8-1.8-1.2
						l0.5-0.8c-0.9-1-1.6-2.3-1.8-3.7l0.1,0.3c0.3,0.1,0.5-0.2,0.6-0.4c0.1-1-0.9-1.7-0.3-2.4c-1-1.1-1.7-2.4-2.4-3.8
						c0.9-0.5,1,1.5,1.7,1.9l-0.2-1.1c0.1,0.7,0.5,0.9,1.1,1.2c0-1-0.8-1.2-1.2-2.1c0.3,0,0.4-0.1,0.4-0.5l-0.6,0
						c0.1,0,0.1-0.1,0.1-0.2l-0.6-1.6c-0.2,0.4-0.8,0.5-0.7,0.9c0.3-0.2,0.5,0.1,0.5,0.6c-0.5-0.3-0.3,0.5-0.6,0.5
						c-0.1-0.8-0.3-1.6-0.6-2.4l0.6-0.3c0-0.8-0.4-1.7-0.3-2.2l0.3,0.1c0-1-0.4-1.9,0-2.9c-0.8-0.8-1.4-1.9-2.2-2.5
						c-0.8-0.3,0.7-2.7-0.4-3.7c0.1-0.1,0.6,0.7,0.9,1c0.1-0.7-0.9-1.2-0.1-1.4c-0.2,1.6,0.6-0.1,0.9,0.6c0-0.6-0.2-1.3-0.5-1.8
						c0.1,1.2-1.1-0.4-0.7,0.8c-0.7-0.9-1-2.1-0.8-3.3c0.3,0,0.5-0.1,0.6-0.5l-0.5-0.3c0-0.2,0.1-0.2,0.1-0.1
						c0.1,0.1,0.1,0.2,0.2,0.3c0.2,0.2,0.3,0.3,0.4-0.2c-0.3-0.6-0.4-1.3-0.2-2c0.1-0.7,0-1.4-0.8-1.7c0.7-0.8,0.6,1.6,1.4,0.4
						c0.5,0.7-0.1,1.7,0.7,1.9c-0.2-0.7,0.7-0.2,0.7-0.7l-0.5-0.8l0,0.2c-0.7-1.3-0.2-3.3-0.2-5c-0.7-1.5-1.7-2.6-1.4-4.2
						c0.4,0.6,0.6-1.3,1.3-0.2c0.5-0.7,0.1-1.5-0.2-1.6c-0.2,0.7-0.1,0.2-0.4,0.8c-0.3-0.5-0.3-1.2,0.1-1.7c-0.1,0.2,0,0.1,0.2,0.2
						c0.4-0.8-0.3-0.5-0.4-1.1c0.6-0.1,0.4-1.3,0.8-1.8l-0.7-0.9c0.5,0.5,0.3-0.7,0.9-0.7c-0.3-0.6-0.8-1.2-0.5-2.1
						c0.2,0.4,0.6-0.7,1.1-0.6c0.9-1.3-0.9-2.8,0.3-3.9c0.1,0.1,0.4,0.5,0.6,0.1c0-0.4,0.1-0.8,0.2-1.2l0,0l0,0c0-0.2,0-0.3-0.1-0.3
						c-0.5-0.7-0.8-1.5-0.9-2.4c-0.6-0.1-0.7,0.9-0.6,1.3l0.5,0.5c-1,0.1-0.2,1.1-0.5,1.3c-0.4-0.6-0.5-1.3-0.4-2
						c0.1-0.7,0.1-1.5,0.1-2.2c-0.6,0.3-1,0.7-1.3,1.3c-0.3,0.6-0.6,1.3-0.7,2l0.6-0.5l-0.2,0.7l0.9-0.5c-0.2,0.6-0.4,1.3-0.5,1.9
						c0.2-0.7,1.1-0.8,0.9-0.4c-0.8,0.6,0.2,1-0.1,1.6c0.2-0.3,0.3-0.8,0.6-0.4c-1.1,1-0.7,1.5-1.7,2.4c1.1,0.1-0.2,1.4,0.6,1.8
						l0.2-0.5l0.4,1.2c-1.1,0.8-0.7-1.1-1.6,0.3c-0.4,1.4,0.7,1.6,0.6,2.7c-0.6-0.6-0.9-1.5-0.7-2.4l-0.4,0.5
						c-0.3-0.4,0-1.6,0.2-2.2c0.5,1.2,0.3-0.4,1-0.8c-0.6-0.2-0.6,0.5-0.9-0.4c-0.1,0.6-0.3,1.2-0.6,1.8c0.7-2-1.6-2.3-0.7-4
						c0.1,0.9,0.9-0.1,1.2-0.1c0.1-0.5,0.1-1.1,0.1-1.6l-0.9,0.1c-0.1-1.2,1.8-1,1.3-2.5c-0.5-0.3-0.5,1-0.5,0.8
						c0-0.2,0-0.4,0.1-0.6l0-0.1l0-0.1c0-0.1,0.1-0.1,0.1-0.2c0.2-0.3,0.4-0.5,0.6-0.6c0.6-0.4,1.2-0.8,1.7-1.3
						c-0.4-0.2-0.8-0.5-1-0.9c0.4,0.3,0.8,0,1,0.7c0.4-0.4,0.2-1.1,0.1-1.5c-0.6,0.9-0.6-0.6-0.8-0.9c0.3-0.5,0.4,0.3,0.5,0.7
						c0.3-0.4,1.2-0.6,0.5-1.1c0.5,0.2,1,1.6,0.9,2.4l0.3-0.5c0.2,0.4,0.1,0.5-0.2,0.9c0.4-0.3,1-0.2,1.3,0.1c-0.1,0-0.1-0.1-0.2,0
						c-0.3,0.3-0.2,0.7,0.1,0.7c0.6,0.6,0.6-0.4,1.1-0.5c0-0.2,0-0.4,0.1-0.6c0,0-0.4-0.7-0.8-1.4l-0.8-1.4c0.1-1,0.8-1.2,1.4-1.7
						l-0.5-0.4c0.4-0.8,0.9-1.4,1.4-0.6c-0.2-0.1-0.2,0.1-0.3,0.2c0.1,0,0.1,0.1,0.1,0.2l0.1,0.1c0.1-0.9,0.2-1.5,0.2-1.5
						c0.3,1.8,1,0.5,2,1.2l0.3-1.5c-0.7,0.7-0.5-0.2-0.5-0.6c0.6,0.2,0.5-1.1,0.8-1.6l0.1,0.1c0.5-0.5,0.8-1.1,0.9-1.8
						c-0.4-0.6-0.8-1.3-1.1-2c-0.8,0.9-0.7,0.2-1.1,0c0.1-0.1,0.2-0.3,0.1-0.3c-0.1-0.2-0.3,0.1-0.5,0c-0.3,1.2-0.8,2.4-0.3,3.2
						c0.5-0.1-0.1-0.7,0.4-1c0.3,0.8-0.2,1.4-0.6,2.3l-0.6,0.1l-0.1,1c-0.1-0.5-0.7-0.5-0.4-1.5c-0.5-0.1-0.3,1-0.7,1.5l0.5,0.6
						c-0.3-0.3-0.9,0.9-1-0.2l0.1-1.7l-0.6,0.2l0.4-1.3l0.2,0.4c0.5-2.2,1.5,0,1.8-2.3c-0.4-1-0.1-1.8,0.8-2.9c-0.4,1,0.5,0.4,0.7,1
						c0.8-0.7,0.4-1.4,0.4-2c0.5,0,0.9,0.1,0.4,0.8c0.4,0.3,0.5,0,0.6-0.3c0.1-0.2,0.2-0.5,0.7-0.3c0.5-0.9,0.7-2,0.3-3
						c-0.1-0.9-0.1-1.8,1.7-2.9l0.2,0.4c0.3-0.5,0.6-1,1-1.4l0.1-0.2l0.2-0.3l0.2-0.2c0.1-0.1,0.2-0.2,0.5-0.5l0.7-0.6l0.6-0.5
						c0.4-0.3,0.8-0.7,1.1-1.1c0,0,0.5-0.1,1-0.1l1-0.1c-0.2,0.3-0.5,1.5,0.1,1.6c-1.3-0.3-1.7,0.5-2.8,0.8c0.1,0.3,0.5,0.1,0.8,0.2
						c-0.2,0.2-0.4,0.3-0.7,0.3c-0.3,0.1-0.6,0.4-0.8,0.7c0.2,0.1,1.1-0.4,0.6,0.2c0,0-0.4,0.1-0.6,0.2l-0.5,0.1
						c-0.3,0.4-0.4,0.9-0.1,1.4c0.1,0.3,0.1,0.7-0.5,1.1c-0.3-0.7-0.4-1.4-0.2-2.1c-0.3,0.2-0.2,0-0.1-0.3l0.1-0.2l0-0.1l0,0
						l0.1-0.1v0l0,0c0,0,0-0.1-0.1-0.1c0,0,0,0-0.1,0h0l-0.1,0.1l0,0l-0.1,0c-0.1,1.3-0.9,1.3-1.4,2.7c0-0.2-0.1-0.3,0.1-0.6
						l-0.7,0.7l-0.7,0.7c0.7-0.1-0.5,1.6,0.2,1.8c1.4-1.4,0.7-1.2,2.4-2.7c-0.3,0.8-0.3,1.6,0.1,2.4c0,0-0.1,0-0.1,0.1
						c0.4,0.7,0.7,0.5,1.7,1.3c-0.1-1.3,0.8-1.4,1.2-2.6c-0.4-0.6-1.1,0-1.3,0.5l0.3-1.1l0.1,0.4l1.1-1l1-0.8
						c-0.4,0.5-0.2,0.8-0.2,1.2c0.3-0.2,0.7-0.4,1-0.4c-0.5-0.4-0.8-0.8-0.5-1c0.9-0.8,2.2-1.2,3.4-0.9l0.1-0.1
						c-0.6-0.4,0.2-1.6,0.2-2.5c0.4,0.6,0.9-0.1,1.4-0.1c-0.3-0.8-1.1-1.5-1.9-1.7c-0.5,1.2-0.1,0.9,0.1,2.1l-1,1.6l-0.1-0.7
						c-0.9,0.3-1,1.5-1.5,0.9c0-0.7,0.9-1,0.9-1.7l-0.7,0.1c0.4-1.3,0.9,0.3,1.6-0.9c-0.8-0.3,0.1-0.1,0.2-0.8
						c-0.6-0.2-1.7,1.5-2.1,0.3c0.3-0.8,2.6-0.2,2.6-1.6l0,0.1c0.7-0.4,1.2-1.1,1.1-1.9c0.6,0.1,0.8-0.8,1.2-1.1l0.2,0.3l0.5-0.5
						c0.1,0.7-0.6,0.4-1.1,0.8l0.4,0.5c-1-0.2-0.8,1-0.9,1.8c0.4-0.9,2-1.1,1.4-2.3l0.7,0.3l0-0.3c0.5,0.2,0.7,0.8,0.4,1.3
						c0,0.1-0.1,0.2-0.2,0.3c-0.2-0.1-0.3-0.1-0.3-0.2c-0.1,0.4-0.1,1-0.8,1.3l0.2-0.5c-0.9,0.5-1.5,1.3-1.5,2
						c1.3-0.6,2.5-1.3,3.7-2.1c-0.3-1.2-0.7-2.4-1.2-3.6c0.6-0.9,1.5-1.5,2.6-1.7l0.1,0.3c0.4-0.1,0.7-0.3,0.8-0.7
						c0.5,0.1,0.2,0.8,0.5,0.7l0.9-1.1c0.3,0.5-0.7,1.2-1.1,1.5c0.1-0.1,0.2-0.3,0.1-0.3c-0.7,0.1-1.1,1.7-1.8,1.1
						c-0.2,0.3,0.2-0.9-0.7-0.3c-0.8,0.1-0.5,0.9-0.4,1.1c0.2,0.3,1.1-0.2,1.1,0.3c0.4-0.3,0.4-0.8,1.1-1c-0.4,0.3-0.6,1.3-1.2,1.1
						c-0.5,1.1,0.6,2.4,1,2.2c-0.4-0.3,1.2-1.6-0.3-1.4c0.1-0.9,1.1-1.6,1.5-2.3l0,0.1l0.7-0.7c0,0.2-0.2,0.5,0,0.8l0.7-1.5
						c-0.3,1,0.6,0.1,1.1,0.1c-0.2-0.5,0.1-1.1-0.5-1.1c-0.7,0-0.1,0.4-0.6,0.8l0.2-1.1l0.1,0l0-0.8c0.9-0.5,0.5,1.6,1.2,0.3L2,63
						c1.4-0.7,3.6-0.9,4.3-1.9c0,0.7,0.4,1.3,1,1.6C6.6,63,6,63.3,5.5,63.8c-0.2-0.1,0.1-1.4,0.8-1.6c-1.1-1.1-1,1.8-1.9,0.5
						c-1.8,0.6-0.3,2-2.2,2.1c0.4,0.6-0.2,0.5,0.1,1.1c1,0.7,1.7-1.2,2.8-1.4C5.1,64.6,5,64.8,5,64.9c0.5-0.1,1-0.5,1.2-1l-0.1,0
						c0.4-1,0.7,0.1,1.3,0.1c0.1-0.2,0.8-0.4,0.5-0.8l1.1,0l-0.4-0.6c0.4-0.3,0.8,0,1-0.6l-0.3-0.6l-1.2,0.5
						c0.4-0.5-0.2-0.7,0.4-1.2c-0.3,1.1,0.7,0,1.1,0.5l0.3-0.6l0,0.2c0.5,0.1,0.3-0.5,0.8-0.7c-0.7,0-1.3-0.2-1.6,0.6
						c0.3-0.6,0.7-1.2,1.2-1.7c0.3-0.5,0.9-0.3,1.4-0.5c-0.7,0.8,1.4,1.6-0.6,2.2c0-0.1,0.1-0.2,0.2-0.2c-0.7-0.6-1,0.7-1.2,1.2
						c0.4,0.4,0,0.7,0.9,0.5c-0.4-0.1,0-1.3,0.8-1.3l0.5,1l1-0.5l-0.1,0.1c0.7,0.4,0.9-0.7,1.8-0.8c0.3-0.6,2.2-1.4,0.8-1.9
						c0.9,0.2,1-0.8,1.5-1.3l-1,0.1c0.5-1.2,0.5-0.6,0.6-2.1c0.2,0.2,0.5,0.3,0.5,0.7c1.3-0.7,3.2-1.5,3.5-2.7
						c0.8-0.4,1.7,0.5,2.6-0.6c0.2-0.3-0.7-0.7,0.2-0.9c0.1,0-0.3,1.1,0.5,0.5c0.2-1.1,1.7-0.5,2.1-1.6c0.6,0,1.3-0.6,1.5,0.1
						c-0.7,0.3-1.6,1-1.6,1.4c-0.1-0.4-0.7,0-0.4-0.6c-1.3,0.2-0.4,0.8-1.5,1c0.1,0.3,0.8,0.3,0.9,0c0.5,0.8-1.5,1.5-0.2,1.9
						c1-0.5,0.3-2.3,1.7-2c0,0.7-0.8,0.6-0.8,1.7l0.9-0.1l0.2-0.9l0,0.1c1.7-0.1,0.6-1.5,1.5-2.6c-1-0.1-0.7-1.4-1.4-1.4
						c0.7-0.6,1.3-0.8,1.8-0.1c-1,1.5,0.4,0.8-0.3,2.4c0.4,0.1,0.4,1.3,1.2,0.9c0.5-1.1-0.7-0.5,0-1.3c0.1,0,0.2,0.1,0.2,0.2
						c0.1-0.6,0.5-0.2,0.7-0.9l0,0.2c0.9,0.1,0.3-0.9,1.1-0.8c-0.6-0.4,0-0.7,0.1-1.2c-0.6,0.1-1.4-0.5-2.4,0.2
						c0.2,0.5,0.4,0.7,0.1,1.2l0.6-0.5c-0.1,0.2-0.1,0.3-0.2,0.5l-0.8,0.2c0.6-0.8-0.1-1.1,0-1.7c0.8-0.3,0.5-0.5,1.1-0.7
						c0.4,0.7,2.1,0.2,3.2,0c-0.1,0.1-0.3,0.2-0.4,0.2c-0.3,0.8,0.8,0.3,0.9,0.4l0.2-0.6c-0.1,0.1-0.1,0.3,0.2,0.3
						c0.5-0.5,0.1-1.1,0.6-1.7c0.3,0.3,0.1,1.2,0.6,1.1c0.3,0.2,1.3,0.8,1.9-0.1c0-0.2,0.1-0.4,0.3-0.6c0,0-0.1,0.1-0.1,0.1l0.8,0
						c-0.1,0.9-1.1,0.3-1.2,1.2l0.3,0.6c-0.4,0.3-0.6,0.8-0.7,1.2c0.6-0.3,0.6-0.5,1.1-1c0.3,0.3,0.1,0.9,0,0.9l-0.1-0.4
						c-1,0-0.7,1.3-1.7,1.7c-0.2,0.1-0.1,0-0.1-0.2c-0.4,1-1.6,0.7-1.8,1.9l0-0.5c-0.3,0.6-0.9,1.7-1.5,2.9l0.1,0.2
						c0.2,0.1-0.2,0.3-0.4,0.3l0,0c-0.3,0.6-0.6,1.1-0.8,1.6c0.2,0.1,0.4,0.1,0.6,0c0-0.4,1-0.7,0.5-1.2c0.6,0.1,0.9-0.8,1.4-0.8
						c-0.8,0,0-0.8-0.1-1.2c0.4,0.3,0.8-0.5,1,0c0.2,0.1-0.5-0.2-0.5,0.3c-0.2,0.8,1.3-0.3,0.9,0.7c0.7-0.9,1.9-1.6,2.5-2.6
						l-0.6,0.1c0.5-0.2,1.3-0.9,1.6-0.7c-0.3,0.3-0.6,0.5-0.9,0.8c0.4,0.6,0.9-0.6,1.2-0.3l0.5-1.7l-0.5,0.3
						c0.1-0.6,1.4-0.8,2.2-1.2c0.1,1.1-1.1,0.8-1.7,1.6c-0.4,0.7,0.9,0.5,0.4,1.1c0.3,0,0.6-0.2,0.6-0.5c0,0,0,0,0,0h0.3
						c0,1-1.2,1.6-1.5,2.7c0-0.1,0-0.2,0-0.3c-0.7,0.1-1.3,0.5-1.7,1c0.4,0,0.5-0.2,0.6-0.4c0.1,0.2-0.3,0.6-0.4,0.9
						c0.6-0.1,0.4,0.4,0.8,0.3c-0.2,0.3-0.6,0.6-1,0.7c-0.4-0.1-0.1-0.5-0.3-0.8c-0.3,0.5-1-0.2-1.4,0.6c0.9-0.4,0.3,0.9,0.2,1.3
						l0.2-0.1c0,0.6-0.2,0.7-0.6,0.5c0.2-0.4,0.6-0.5,0.3-0.8c-0.2,0.2-0.4,0.4-0.6,0.6l0-0.5l-1,0.8c0.1,0.6,0.2,1.2,0.3,1.9
						c-0.5-0.2-0.7,0.4-0.8,0.7l0-0.2c-0.7,0-1.6,1-1.5,1.4c-0.5-0.1,1.2-3.7-1.1-1.8c-1,0.6,0.1,1.4-0.2,2.2c0-0.1-0.1-0.1-0.1-0.2
						c-0.5,0.2-0.3,0.6-0.5,1c0.4,0,0.7-0.2,0.8-0.5c0.1,0.5-0.9,0.5-1,1.1c0-0.9-1,0.2-0.9-0.3c-0.5,0-1,0.3-1.2,0.7
						c-0.3,0.4-0.5,0.8-0.5,1.2c-1.1-0.5-0.9,0.7-2,0.8c0.2-0.1,0.3-0.3,0.6-0.4c0.2-0.9-1.1,0.3-0.6-0.7c-0.1,0.2,0.2,0.3,0.3,0.1
						c0.3-0.2,0.4-0.7,0.2-0.9l-1,0l0.2-0.3h-1.5c0,0.1,0.2,0.2,0.3,0.2c-1.5,0.5-2.7,1.8-3.9,2.4c0.7,1.7-2.4,2.4-2.7,3.9
						c0-0.6-0.3-1.2-0.7-1.7c0.2-0.2,0.2-1.1,0.7-1.2c0.2,0.2,1,0.1,0.8,0.6c1.2-1-0.6-0.6-0.6-1.4c-1.3,1-1.6,2.4-2.2,3.4l-0.1-0.2
						L14.3,72c0.6-0.2,1.1,0.6,0.2,0.8l0.1-0.1c-0.6-0.1-1.2,0.8-1.8,1.2l-0.1,0.8c-0.7,0.3-1.3-0.6-1.8-1c-1,0.6-1.1,1.7-1.5,2.6
						c-0.6-0.2-2.1,0.7-1.6-0.3c-0.6,0.9,1,3-1.3,2.8L6.6,78c-1.3,1-2.8,3.2-3.8,3.3c-0.4-1.7-2.8-0.2-3.9-1.4
						c0.3,0.3-0.2,0.7-0.1,0.9c-0.2-0.1-0.5-0.1-0.5,0.3c0.7-0.1,0.6,1.7,1.2,0.4c0.1,1.3,0,2.5-1,3.1l-0.4-0.6l0.9-0.4
						c-0.4-0.4,0.1-0.6,0.1-0.9c-1.8,0.8-0.7-1.5-2.3-0.2c0.1,0.5,0.1,0.2-0.2,0.7c0.2-0.2-0.1-0.6-0.4-0.3l0.1,0.7
						C-5,83.1-3.4,82.3-4.3,82c0.3-0.9,1.2-1.9,0.5-2.5c-1.3,0.5,0,2-1.3,2.5l-0.3-0.2c-0.2,0.5,0.1,1,0.2,1.4
						c-0.2-0.2-0.4-0.2-0.6-0.1c0,0.6,0,1,0,1.3c0,0.2,0,0.4,0,0.7v0.2v0.1v0v0c-0.1,0.1,0.1-0.1,0.1-0.1l0,0v0c0,0.1,0,0.3,0.1,0.4
						c0-0.1,0.1-0.3,0.1-0.2c0.1-0.1,0.1-0.2,0.2-0.3c0.1-0.1,0.2-0.2,0.3-0.3c0.2-0.1,0.3-0.2,0.5-0.2c0.6-0.1,1-0.5,1.3-1
						c-0.1,0.4-0.9,1.4-0.2,2.1l-0.4-0.5c-0.1,0.3,0,0.5-0.2,0.8c-0.1,0.2-0.2,0.3-0.3,0.5l0,0l0,0l0.1-0.1l0,0l0,0v0l0,0l-0.1,0.1
						c-0.1,0.1-0.1,0.1-0.2,0.1l0-0.6c-0.2,1-1.8,0.5-1.4,1.8c0.2-0.1,0.3-0.3,0.3-0.5c-0.1,0.6-0.4,1.1-0.9,1.4l0.3,1.6
						c-0.3-0.2-0.7,0.4-1-0.2c-0.2,0.1-0.3,0.2-0.4,0.4C-8,91-8.1,91.1-8,91.3c0.1,0.3,0.1,0.6,0.1,0.9c-1,0.3,0.1-0.8-0.7-1.3
						c-0.8,0.7-1.2,1.8-1,2.9c0.2-0.2,0.4-0.2,0.5-0.1c-0.2-0.1-0.4,0.4-0.5,0.6l0.3,0.4c-0.5,0.3-0.7,0.1-0.8-0.4
						c-0.3,0.4,0.3,1.2-0.5,1.3c-0.2-0.9,0.7-1.5,0.5-2c-0.3,1.5-1.9,0.8-2.2,2.9c-0.2-0.1-0.4-0.5-0.6-0.2c-0.2,0.9,0.8,0.6,1.1,1
						c0-0.7,0.4-0.9,1.1-1.1l0.3,0.3c-0.2-0.1-0.4,0.3-0.6,0.4l0.6,0.4c-0.7-0.4-1.6,0-1.5,0.6c0.8-0.3,0.7-0.2,1.6,0.1
						c0.5,1-1.1,0.5-0.6,1.6c-0.2-0.2-0.1-0.9-0.6-0.4c-0.2,0.5,0.4,0.7,0.5,1.1c-0.5-0.6-1-0.7-1.6-1.4c0.2-0.4,0.3-0.9,0.2-1.3
						l-0.8,0.5c0.2-0.8-0.5-0.9-0.7-1c-1.2,1.1,0.6,1.4,0.1,2.2c0.3,0.6,0.4-0.8,0.6,0.1c-0.4,0.8,0.3,0.3,0.3,1.3l-0.2-0.3
						c-0.5,0.1-0.1,0.6-0.2,0.9c0.1,0.4,2.4,0.4,1.9,1.8c-0.1-0.1-0.2-0.2-0.3-0.2l-2.5-1.6l-2.4-1.7c-0.6,1.7-1.3,3.4-2.2,5
						c-1.2,0.1-0.5-1.6-1-1.6l0.5-0.8c0.4,0.2-0.4,1.8,0.6,1.3c0.1-1.6,0.9-2,0.4-3.7c-1.2,0.1-0.4,1.9-1.6,2.5
						c0.2-0.3,0.2-0.7,0.1-1.1c-0.4,0.8-0.9,1.7-1.3,2.6l0.2,0.3c0.2-0.4,0.4-0.7,0.6-1.1c-0.4,0.7-0.1,1.6,0.7,2c0,0,0.1,0,0.1,0
						l0.1-0.1l0.2,0.4L-19.5,105.8z M-17.6,163c-0.1,0-0.2,0-0.3,0C-17.8,163-17.7,163-17.6,163 M-15.3,88.1c-0.8,1-1.5,2-2.2,3.1
						c0.8-0.5,1.8-0.9,2.8-1c0.5,0.1,0.5,0.6-0.2,2.2l0,0.3c0.5-0.5,0.8-1.1,1-1.7c-0.3-0.8-1.1-3.5-1.2-3.6c-0.5,0-0.3,0.5-0.6,0.8
						L-15.3,88.1z M-12.6,88.8c0.5-0.5,0.1-0.5-0.1-0.8l-0.3,0.7C-12.8,88.6-12.7,88.7-12.6,88.8 M-13,87.9c0,0.1-0.1,0.1-0.2,0.1
						L-13,87.9z M-18.9,99.8L-18.9,99.8c-0.1,0.1-0.2,0.2-0.2,0.4C-19,100.1-19,99.9-18.9,99.8 M-17.7,98.7l-0.5-0.4l-0.2,0.4
						C-18.2,98.9-17.9,98.8-17.7,98.7 M-14.3,95.4c-0.5-0.5-0.2-1.4-0.9-1.8c-0.2-0.1-0.3,0-0.5,0.2l-0.4,0.7
						c0.1,0.1,0.2,0.2,0.2,0.3c0.2-0.2,0.5-0.3,0.9,0c-1.3,0.2,0.5,0.9-0.1,1.5C-14.6,96.7-14.2,95.7-14.3,95.4 M28.8,57.6
						c0.1,0,0.2,0.2,0.4,0.3L29,58.6c-0.9,0.4-2.2-0.2-2.4,1.1c-0.5-0.1-1-0.3-1.4-0.6c0.2-0.1,0.4-0.1,0.5-0.2
						C27.1,56.4,27.7,59.6,28.8,57.6 M18.5,62.3c0-0.1,0-0.2,0-0.2c-0.7,1.8-1.8,3.3-3.4,4.3c0.5,0.4,1.6,0.2,2.2,0.2l0,0.8L16.8,67
						l-0.3,0.9c0.4,0.3,0.9-0.1,1.4-0.1c0-0.1,0.7-1.5,0.8-2L17.5,66c0.7-0.3,1.3-0.7,1.8-1.3c-0.2-0.3-1.3-0.2-1,0.5
						c-0.4-0.4,0.6-1-0.3-1c0.4-0.9,1.8-1.2,2.4-1.3l0.5,0.7c0.7-0.1-0.1-1.1,0.8-1.1c-0.8,0.7,0.6,0.7,0,1.2
						c0.4,0.1,0.5,0.8,1.1,0.3c0-1.3,1.1,0.2,1.1-1c0.5,0.1,0,0.8,0.7,0.5c0.4-0.6,0.3-1.5-0.1-2c-0.9,0.3-0.3,1.4-1,1.6l0.5-1.9
						c-0.2-0.1-0.5,0-0.6,0.2c0.2-0.2,0.3-0.6,0.3-0.9c0-0.2,0-0.4,0.1-0.5c-0.7,0.4-1.3,0.8-1.6,0.5l-0.1-0.4
						c-0.4-0.2-0.7,0.3-0.7,0.7c-0.6,0.4-0.9,1.3-1.3,0.9l0-0.5C19.7,61.5,19.1,61.9,18.5,62.3 M-6.3,77.5c1.3,0.8,2.5,1.6,4.4,0
						L-2,77.6c1.6,0.1,1.4-2.4,3.2-2.4c-0.3,0.7-0.4,1.5-0.3,2.3l0.4-0.8c0.3,0.8,0.7,0,1.2-0.3l0.1,1.1c-0.4,0-1.2,0.4-1.1,0.6
						c0.1-0.2-1.7-0.3-2.2,0.4C-0.2,78.9,1,77.8,1,79c0.3-0.7,0.7-0.2,1.2-0.8c-0.3,0.7,0.4,0.8,0.2,1.5l0.8-0.8
						c0.2,0.1-1.1,1.3,0.1,1.4c0.2-0.5,1.4-0.8,1-1.4L4.4,79c0.8-0.3-0.3-1,0.8-1.2c-0.2-0.3-0.5-0.4-0.7-0.1
						c-0.2,0.3,0.1,0.7-0.4,1.1c-0.5-0.3,0.7-0.4-0.2-0.9c-0.4-0.2-1.1,1.3-1.3,0.2l0.8-0.3c-0.4-0.6,0.1-0.9-0.2-1.3
						c0.3-0.5,1.1-0.1,1.2-0.9c-0.1-0.5-0.8-1,0-1.1c1.1,0.5,2.6-0.8,3.1-1.3l0.3-0.7c-0.3-0.3-1,0.7-0.9,0l0.7-0.7l0.1,0.3
						c0.3-0.1,0.4-0.6,0.6-0.8c0,0.6-0.7,0.8-0.2,1.3c0.5-0.1,0.7,0,0.9-0.3c-0.1,0.1-0.1,0.2,0,0.3c0.9-0.2,0.3-1.2,0.4-1.5
						c0.3-1.3-1.3-0.2-1.6-0.9l2.1-1.8c-0.1,0.3-0.1,0.6,0.1,0.8c0.7-0.1,0.3,0.5,1.1-0.1c-0.6-0.8,0.7-1.2,0.9-2
						c0.5,0.2,0.6,0.2,0,0.6c0.4,0.5,1.1-0.2,1.4-0.3c0.1-0.2,0.3-0.5,0.4-0.7c-0.4-0.1-0.5-0.5-0.2-1.1l0-0.1
						c-0.9,0.4-2.6,0.6-2.7,1.5l0-0.4c-1.3,0.1-1.4,2.3-2.5,1.6c-0.2-0.4-0.2,0-0.6-0.6l-0.4,0.9l0-0.4L6.1,69l0-0.1
						c-0.2,0.9-0.4,1.6-0.5,2.2c0.2,0.3,0.3,0.3,0.2,0.6c-0.1,0.2-0.2,0.3-0.4,0.4l0,0c-0.3,0.1-0.8-0.1-1.2,0l1.1-0.8
						c-0.2-0.6-0.7-0.9-1.3-0.8c0.2-0.2,0.1-0.6-0.2-0.4c0,0.1-0.5,0.8-0.1,0.9c-0.9,0.8-3.4,0.9-4.4,2.8c0.8-1.3-1.3,0.1-0.2-1
						c-1.3-0.1-0.3,1.2-1.2,1.7c-0.2-0.2,0.5-0.3,0.4-0.9c-1.6,0.7-1.7,2.7-3.3,3.5l-0.4-0.5L-6.3,77.5 M-8.6,80.3l-0.6,0.9l0.1-0.1
						c0,0-0.1,0.3-0.2,0.5l-0.2,0.5c0.6-0.3,1.4-0.1,1,0.8c-0.1-0.2-0.5-0.3-0.4-0.6c-0.7,0.1-1.8,0.9-0.8,1.2
						c0-1.4,1.1,0.6,1.1-0.5c0.2,0.7-0.3,0.9-0.4,1.4c-0.1-0.7-1-0.7-1.6-0.3c-0.1,0.3-0.7,0.9-0.8,1.4c0.6,0.2,0.6,0.7,1.2,0.2
						c0,0.4-0.3,0.8-0.7,1c0-0.2,0.2-0.5,0-0.6c-0.6,0-0.8,0.3-1.1,0.3l-0.2,0.5c0.1,0,0.2,0,0.2,0l0.1,0.8c0.2-0.8,0.4-0.1,0.7,0.1
						c-0.6-0.4-0.3,0.3-0.5,0.6l0.9-0.1c0.2,0.4-0.9,0.5-0.3,0.8c0.7-0.6,1.1-1.3,1.4-2.2l-0.7,0c0.4-1.2,1.2,0,1.9-1
						c-0.1-0.7,1.2-1.4,0.4-2.1c0,0.1,0.1,0.1,0.2,0.1c0,0,0.2,0,0.2,0c0.1,0,0.2,0,0.2-0.1c0.3-0.1,0.6-0.4,0.5-0.6
						c-0.4-1,0.7-2.1,0.1-2.1c-0.3,0.3-0.4,1-1,0.8l0.5-0.7l-0.7,0C-7.6,81.1-8,80.8-8.6,80.3 M-24,94L-24,94C-24,94.1-24,94-24,94
						L-24,94z"/>
					<path id="Path_5747" class="st10" d="M37.8,49.2c0.1-0.3,0.6-0.6,0.2-1C38.4,48.7,37.2,48.9,37.8,49.2"/>
					<path id="Path_5748" class="st10" d="M38.7,49.3c0-0.1-0.2-0.3,0-0.5l-0.5,0.5L38.7,49.3z"/>
					<path id="Path_5749" class="st10" d="M41.4,52c0.1-0.5,0.2-0.9,0.7-1.2c0.9,1-0.6,0.8-0.1,2c1-0.5,0.6-1.6,1.3-2.2
						C42.5,50.5,40.9,51.2,41.4,52"/>
					<path id="Path_5750" class="st10" d="M42,53.7l0.3-0.6l-0.1,0L42,53.7L42,53.7z"/>
					<path id="Path_5751" class="st10" d="M24.8,50.9c-0.3-0.3-0.4,0.2-0.5,0.4C24.5,51.2,24.7,51.2,24.8,50.9"/>
					<path id="Path_5752" class="st10" d="M-29.6,151.8c0,0,0.3,1.2,0.6,2.3c0.3,1.2,0.7,2.4,0.7,2.4
						C-28.7,155.1-29.1,153.9-29.6,151.8"/>
					<path id="Path_5753" class="st10" d="M13.5,61.1c0.8-1,0.9-1.9,1.9-2.7c-1.9,0.1-1.2,2.3-2.8,2.3L13.5,61.1z"/>
					<path id="Path_5754" class="st10" d="M12,58c0.6,0.6-0.3,1.3,0.1,1.7c0.6-0.6-0.1-0.8,0.6-1.2L12,58z"/>
					<path id="Path_5755" class="st10" d="M23.6,66.3l-0.1,0.5l0.2-0.3L23.6,66.3z"/>
					<path id="Path_5756" class="st10" d="M7.6,61.6l0-0.2L7,61.5L7.6,61.6z"/>
					<path id="Path_5757" class="st10" d="M7.7,61.2l0,0.2L7.7,61.2z"/>
					<path id="Path_5758" class="st10" d="M24.1,68l0.6-0.1l0-0.5L24.1,68z"/>
					<path id="Path_5759" class="st10" d="M17.8,66.9l0.3-0.5C18,66.5,17.3,66.6,17.8,66.9"/>
					<path id="Path_5760" class="st10" d="M4.2,63.4L3.9,64L4,64L4.2,63.4L4.2,63.4z"/>
					<path id="Path_5761" class="st10" d="M15.7,70.8c0.6,0.3-0.7,0.7,0.1,0.7C16.3,71.1,15.9,71,15.7,70.8"/>
					<path id="Path_5762" class="st10" d="M7.4,71.2c-0.1,0-0.1,0.1-0.2,0.2C7.3,71.3,7.4,71.3,7.4,71.2"/>
					<path id="Path_5763" class="st10" d="M7.4,71.2C7.6,71,8,71.1,8,70.8C7.6,70.8,7.6,70.9,7.4,71.2"/>
					<path id="Path_5764" class="st10" d="M5,72.9l0.2-0.1c0,0.4,0,0.3,0.1,0c0.2-0.2,0.1-0.3,0-0.4c0-0.1,0-0.2,0-0.3
						c0,0.1,0,0.2,0,0.3C5,72.6,4.8,72.8,5,72.9"/>
					<path id="Path_5765" class="st10" d="M-10.1,70.8c0.9-0.4,1.2-0.4,1.4,0c0.8-0.4,0.2-1,0.6-1.4C-8.8,69.8-9.4,70.3-10.1,70.8"
						/>
					<path id="Path_5766" class="st10" d="M-8.1,69.3l0.3-0.2C-7.9,69.2-8,69.3-8.1,69.3"/>
					<path id="Path_5767" class="st10" d="M10.8,75.4l0,0.9l0.1-0.2L10.8,75.4z"/>
					<path id="Path_5768" class="st10" d="M-11.5,71.5c0.2-0.1,0.4-0.3,0.6-0.3C-11.1,70.8-11.7,71.6-11.5,71.5"/>
					<path id="Path_5769" class="st10" d="M-3.1,77c0.2,0.2,0.6-0.3,0.9-0.3C-2.6,76.8-3.3,76.3-3.1,77"/>
					<path id="Path_5770" class="st10" d="M-12.7,75c0.3-0.1,0.6,0,0.8,0.3c0,0,0,0,0,0C-11.9,75-12.1,74-12.7,75"/>
					<path id="Path_5771" class="st10" d="M-4.5,77.8l0.2,0.1l0.3-0.6L-4.5,77.8z"/>
					<path id="Path_5772" class="st10" d="M1.2,82.5c0.2-0.8-1.6-0.6-1-1.6c-1.5,0.3,0.5,0.6-0.4,1.1C0.3,81.9,0.9,82,1.2,82.5"/>
					<path id="Path_5773" class="st10" d="M-0.2,82c-0.1,0-0.2,0.1-0.3,0.1C-0.4,82.1-0.3,82-0.2,82"/>
					<path id="Path_5774" class="st10" d="M-9,84.8c0-0.1,0-0.2,0-0.3C-9,84.6-9,84.7-9,84.8"/>
					<path id="Path_5775" class="st10" d="M-2.5,84.2c0,0,0-0.3,0.1-0.6S-2.3,83-2.3,83c-0.2,0.8-1.3,1.7-0.7,2.3
						c0.4-0.2,0.7-0.6,0.7-1.1L-2.5,84.2z"/>
					<path id="Path_5776" class="st10" d="M-21.7,83.3l0-0.6l-0.4,0.5C-21.9,83.1-21.6,83.7-21.7,83.3"/>
					<path id="Path_5777" class="st10" d="M-22.2,83.3l0.1-0.1C-22.2,83.2-22.2,83.2-22.2,83.3"/>
					<path id="Path_5778" class="st10" d="M-8.1,83.2c0.2-0.2,0.4-0.4,0.5-0.7C-7.8,82.5-8.4,83-8.1,83.2"/>
					<path id="Path_5779" class="st10" d="M-22.4,87.1l0.3-0.8l-0.4,0.9L-22.4,87.1z"/>
					<path id="Path_5780" class="st10" d="M-25.4,90.1l-0.2,0.1v0.8l0.2-0.1L-25.4,90.1z"/>
					<path id="Path_5781" class="st10" d="M-8.5,93.4c0.3-0.3-0.2-1-0.4-1l-0.4,0.7c0.7,0.1,0.1-0.2,0.5-0.5L-8.5,93.4z"/>
					<path id="Path_5782" class="st10" d="M-31.7,116.7c-0.4-0.3,0-1.4,0.4-1.4c0.2,0.2,0.2,0.8,0.6,0.5l-0.9-1
						c0.9-1.1,1.3,1.1,1.6,1.7c0.3-1.2-0.3-1.6-0.1-2.9c-0.2,0.3-0.4,0.6-0.7,0.7c-0.8-0.1-0.2-1.2-0.1-2.1
						c-0.4,0.5-0.6,0.1-0.9-0.3c0-0.1,0-0.1-0.1-0.2l-0.1-0.2l0,0.1c-0.1,0-0.2,0-0.3,0c0.1,0.8-0.6,1.2-0.7,1.7
						c1.3-0.3,0,1.6,0.3,2.3l0,0.7l0,0.3c-0.1,0-0.3-0.1-0.5-0.5c0.2,0.4,0,1.4,0.4,1.4c0,0-0.1,0.6-0.1,1.2s-0.1,1.2-0.1,1.2
						c-0.1,0.1-0.1,0.1-0.2,0.2c0,0.1,0.1,0.1,0.2,0.1c0,0-0.2,2.7-0.3,5.4c0,0.7,0,1.4,0,2.1c0,0.6,0,1.1,0,1.6c0,1.1,0,1.8,0,1.8
						c0.1-0.5,0.4-1,0.5-1.6c0.4,0.4,0.5,0.3,0.5-0.2c0-0.3,0.1-0.6,0.5-0.5c0.1,0.2,0.2,0.4,0.2,0.6c0,0.2-0.1,0.5-0.2,0.7
						c0.4,0.1,0.7-0.3,1.2-0.3c0.5-1.4-1.4-1.4-1.1-2.8c0.5,0.1,0.9,0.5,0.8-0.4l0.1,0.2c-0.5-1.4,1.1-1-0.2-2l0.7,0.1
						c-0.4-0.8-0.5-1.7-0.5-2.5l0.1,0.1c-0.6-2-0.1-1.1-0.2-3.2l0.7,1.1c0.4-0.7-0.5-0.9-0.3-1.5c0.1,0.1,0.6,0,0.7,0.5
						c0,0-0.2-0.7-0.5-1.3s-0.4-1.4-0.4-1.4C-31.3,115.9-31.4,116.7-31.7,116.7"/>
					<path id="Path_5783" class="st10" d="M-30.2,113.6c0.1-0.1,0.1-0.3,0.1-0.5C-30.1,113.3-30.1,113.5-30.2,113.6"/>
					<path id="Path_5784" class="st10" d="M-33.6,131.9l0-0.8C-33.6,131.4-33.6,131.6-33.6,131.9"/>
					<path id="Path_5785" class="st10" d="M-30.9,109.7c-0.4,0.4-0.4-0.4-0.7-0.6l-0.3,1.6c0.3,0,0.5,0.3,0.8,0.3L-30.9,109.7z"/>
					<path id="Path_5786" class="st10" d="M-32.5,111.1c0.2,0.1,0.3,0.3,0.4,0.5l0.2-0.9C-32.1,110.7-32.3,110.8-32.5,111.1"/>
					<path id="Path_5787" class="st10" d="M-18.6,113.6l0,0.3l0.1,0.4L-18.6,113.6z"/>
					<path id="Path_5788" class="st10" d="M-20.4,117.3c0.4-0.2,0.2-0.9,0.2-1.1C-20.4,116.9-20.5,116.6-20.4,117.3"/>
					<path id="Path_5789" class="st10" d="M-16.1,117.2l0.1,0.6l0.1,0L-16.1,117.2z"/>
					<path id="Path_5790" class="st10" d="M-30.6,137.2c0,0.1,0,0.2,0.1,0.3C-30.5,137.5-30.5,137.3-30.6,137.2"/>
					<path id="Path_5791" class="st10" d="M-31.5,131.1c-0.7,1.8-0.7-1.1-1.6-0.6l0.3,1l-0.3-0.1l0.1,1.2c0.4-0.3,0.5-0.4,0.9-0.4
						c-0.1,1.5-0.5,0.5-1.1,1.7l0.2,1.7l-0.2-0.1c0,0.1,0.1,0.2,0.2,0.2c0,0,0.2,1.4,0.4,2.8l0.4,2.8c0.5,1,0.8-0.7,1.6,0
						c-0.1-1.2,0.2-2.9-0.8-3c0.1,0,0.4,0.1,0.5-0.2l-0.8-0.6l-0.2,0.7c-0.8-0.6-0.8-2.9-0.4-3.3c0.4,1.3,1.2,0.6,0.9,2.4
						c0.2-0.1,0.6-0.5,0.8-0.1C-31,135.2-30.7,133.3-31.5,131.1"/>
					<path id="Path_5792" class="st10" d="M-28.9,151.3L-28.9,151.3C-29,151.4-28.9,151.4-28.9,151.3"/>
					<path id="Path_5793" class="st10" d="M-28.9,150.7l-1.1-0.8l0.3,1.5l0.7,0c-0.2-0.1-0.6-0.6-0.4-0.8
						C-29.4,150.5-28.9,150.7-28.9,150.7"/>
					<path id="Path_5794" class="st10" d="M-30.7,148.9c0.2,0.4,0.6,0.6,1,0.4c0.2-0.1,0.3-0.2,0.4-0.3c0.5,0.6-0.8,0.5,0.1,0.8
						c0.5-0.1,0.1-0.9,0-1.1L-30.7,148.9z"/>
					<path id="Path_5795" class="st10" d="M-31.1,143.1l0.3,0.2l0-0.6L-31.1,143.1z"/>
					<path id="Path_5796" class="st10" d="M-30.8,143.2l0,0.6c0.2,0,0.4-0.1,0.6-0.2L-30.8,143.2z"/>
					<path id="Path_5797" class="st10" d="M-30.8,145.2c0,0.3,0,0.5,0,0.8L-30.8,145.2z"/>
					<path id="Path_5798" class="st10" d="M-30.7,144.6L-30.7,144.6l-0.1,0.6C-30.8,145-30.7,144.8-30.7,144.6"/>
					<path id="Path_5799" class="st10" d="M-30.8,143.8c-0.5,0.2-1.1,0.3-0.8,1.1l0.8-0.3L-30.8,143.8z"/>
					<path id="Path_5800" class="st10" d="M-17.4,121.5l0.2,0.6l0.1-0.1L-17.4,121.5L-17.4,121.5z"/>
					<path id="Path_5801" class="st10" d="M-18.2,124.6c0.1,0.1,0.2,0.2,0.3,0.4C-18,124.8-18.1,124.7-18.2,124.6"/>
					<path id="Path_5802" class="st10" d="M-14.6,127.1c-0.6,0.6-0.7-0.8-1,0.3c-0.5,0.1-1.1-0.4-0.9-1c0.5,0.1,0.3,0.5,0.8,0.2
						c-0.5-0.4-0.2-0.5-0.9-0.4c-0.4-0.6-0.9-0.7-1.4-1.2c0.1,0.5,0.1,1.1-0.1,1.6c-0.1,0.6,0.1,1.2,0.4,1.7c0.9,0.6,2,0.2,3.3,0.3
						c0.1,0,0.3-0.5,0.2-0.8C-14,127.5-14.3,127.2-14.6,127.1"/>
					<path id="Path_5803" class="st10" d="M-13.4,126.2c0.1-0.2,0-0.4-0.1-0.6C-13.8,125.7-13.4,126-13.4,126.2"/>
					<path id="Path_5804" class="st10" d="M-22.7,133.1c0.2,0.1,0.4,0.6,0.7,0.5l-0.3-0.9C-22.2,133-22.4,133-22.7,133.1"/>
					<path id="Path_5805" class="st10" d="M-22.3,132.4l0.1,0.4C-22.2,132.6-22.2,132.5-22.3,132.4"/>
					<path id="Path_5806" class="st10" d="M-22.8,133.2l0.1,0C-22.7,133.1-22.8,133.1-22.8,133.2"/>
					<path id="Path_5807" class="st10" d="M-30.8,147.5c-0.3,0-0.1,0.4,0.1,0.6C-30.8,147.9-30.7,147.7-30.8,147.5"/>
					<path id="Path_5808" class="st10" d="M-26.1,163.3l-0.1,0.5C-26.1,163.7-26.1,163.5-26.1,163.3"/>
					<path id="Path_5809" class="st10" d="M-15.2,164.4c0.1,0,0.1,0,0.2,0C-15.1,164.4-15.2,164.4-15.2,164.4"/>
					<path id="Path_5810" class="st10" d="M-15,164.4c0.3,0,0.4,0.8,0.8,0.7l-0.1,0.1l0.4,0.1c-0.1-0.1-0.3-0.3-0.5-0.5
						C-14.6,164.5-14.8,164.4-15,164.4"/>
				</g>
			</g>
		</g>
	</g>
	<g id="Group_390" transform="translate(48.347 48.5)">
		<g transform="matrix(1, 0, 0, 1, -148.85, -148.06)">
			<rect id="Rectangle_514-2" x="49.4" y="54" class="st0" width="122" height="204"/>
		</g>
		<path id="Path_7295" d="M-58.7,60.4h14V49.8h6.7V37.6h-6.7V1.4h-15.7l-25.9,37.1v11.3h27.6V60.4z M-71.5,37.6l13.8-20.8v20.8
			L-71.5,37.6z M-32.1,0.5v35.7h13.5c0.7-2.8,3-4.9,7-4.9c5,0,7.7,2.9,7.7,8.3c0,5.2-2.3,9-7.6,9c-4.6,0-7-2.8-7.6-5.9h-13.7
			C-32.3,53-24.5,60.4-11,60.4c13.3,0,20.7-8.2,20.7-20.8c0-9.7-5-19.6-18.1-19.6c-4.8,0-8.9,1.7-11,4.1V12.8H6.2V0.4L-32.1,0.5z"/>
		<path id="Path_7292" class="st11" d="M-63.5-25.7c-0.6,0-1.1-0.1-1.6-0.3c-0.5-0.2-1-0.5-1.3-0.9c-0.4-0.4-0.7-0.8-0.9-1.3
			c-0.2-0.5-0.3-1.1-0.3-1.6v-14.2h58.6v14.2c0,0.6-0.1,1.1-0.3,1.6c-0.2,0.5-0.5,1-0.9,1.3c-0.4,0.4-0.8,0.7-1.3,0.9
			c-0.5,0.2-1.1,0.3-1.6,0.3L-63.5-25.7z M-23.4-31.1c0.4,0.2,0.7,0.4,1.1,0.6c0.4,0.2,0.8,0.3,1.3,0.4c0.4,0.1,0.9,0.2,1.3,0.3
			c0.4,0.1,0.9,0.1,1.3,0.1c0.5,0,1.1-0.1,1.6-0.2c0.5-0.1,1-0.3,1.4-0.6c0.4-0.3,0.8-0.7,1-1.1c0.3-0.5,0.4-1.1,0.4-1.7
			c0-0.5-0.1-0.9-0.2-1.4c-0.2-0.4-0.4-0.7-0.7-1c-0.3-0.3-0.7-0.5-1.1-0.7c-0.5-0.2-0.9-0.4-1.4-0.5c-0.3-0.1-0.6-0.2-0.9-0.3
			c-0.2-0.1-0.5-0.1-0.7-0.2c-0.2-0.1-0.3-0.2-0.4-0.3c-0.1-0.1-0.2-0.2-0.1-0.4c0-0.2,0.1-0.4,0.3-0.4c0.2-0.1,0.4-0.1,0.7-0.1
			c0.4,0,0.7,0.1,1.1,0.2c0.3,0.1,0.7,0.2,1,0.4c0.3,0.2,0.7,0.3,1,0.5l1.4-2.6c-0.3-0.1-0.6-0.3-0.9-0.4c-0.3-0.2-0.7-0.3-1.1-0.4
			c-0.4-0.1-0.8-0.2-1.2-0.3c-0.4-0.1-0.8-0.1-1.2-0.1c-0.6,0-1.1,0.1-1.6,0.3c-0.5,0.2-1,0.4-1.4,0.7c-0.4,0.3-0.7,0.7-1,1.2
			c-0.2,0.5-0.4,1.1-0.4,1.7c0,0.4,0.1,0.8,0.2,1.1c0.1,0.3,0.3,0.6,0.5,0.9c0.3,0.3,0.6,0.5,0.9,0.7c0.4,0.2,0.9,0.4,1.3,0.6
			c0.3,0.1,0.7,0.2,1,0.3s0.6,0.2,0.8,0.3c0.2,0.1,0.4,0.2,0.6,0.3c0.1,0.1,0.2,0.3,0.2,0.4c0,0.1-0.1,0.3-0.2,0.4
			c-0.2,0.1-0.5,0.2-0.7,0.1c-0.5,0-0.9-0.1-1.3-0.2c-0.4-0.1-0.8-0.3-1.2-0.4c-0.4-0.2-0.8-0.4-1.2-0.6L-23.4-31.1z M-60.4-41
			c-0.7,0.3-1.3,0.8-1.9,1.3c-0.5,0.5-0.9,1.2-1.2,1.8c-0.3,0.7-0.4,1.4-0.4,2.1c0,0.7,0.1,1.5,0.4,2.2c0.3,0.7,0.7,1.4,1.2,1.9
			c0.5,0.6,1.1,1,1.8,1.4c0.7,0.3,1.5,0.5,2.4,0.5c0.5,0,1-0.1,1.5-0.2c0.5-0.1,1-0.3,1.4-0.5c0.4-0.2,0.8-0.5,1.2-0.8
			c0.1-0.1,0.3-0.3,0.4-0.4l-0.7,1.9h3.2l0.7-2.3h3.1l0.7,2.3h6.4v-3.5h1.2l2,3.5h3.6l-2.4-4.2c0.5-0.4,0.9-0.9,1.2-1.4
			c0.3-0.6,0.4-1.2,0.4-1.9c0-0.5-0.1-1-0.3-1.5c-0.2-0.5-0.5-0.9-0.8-1.3c-0.3-0.4-0.8-0.7-1.2-0.9c-0.5-0.2-1-0.4-1.6-0.4h-5.3
			v11.5l-4-11.5h-2.9l-3.1,8.9l-2.5-1.5c-0.1,0.2-0.2,0.5-0.4,0.7c-0.2,0.2-0.4,0.3-0.6,0.4c-0.2,0.1-0.4,0.2-0.7,0.2
			c-0.2,0-0.4,0.1-0.7,0.1c-0.4,0-0.8-0.1-1.1-0.3c-0.3-0.2-0.6-0.4-0.8-0.7c-0.2-0.3-0.4-0.6-0.5-1c-0.1-0.4-0.2-0.8-0.2-1.2
			c0-0.4,0.1-0.7,0.2-1.1c0.1-0.4,0.3-0.7,0.5-1c0.2-0.3,0.5-0.5,0.8-0.7c0.4-0.2,0.8-0.3,1.2-0.3c0.2,0,0.5,0,0.7,0.1
			c0.2,0,0.5,0.1,0.7,0.2c0.2,0.1,0.4,0.3,0.6,0.4c0.2,0.2,0.3,0.4,0.4,0.7l2.4-1.7c-0.2-0.4-0.5-0.7-0.8-1
			c-0.3-0.3-0.7-0.6-1.1-0.8c-0.4-0.2-0.9-0.4-1.3-0.5c-0.5-0.1-1-0.2-1.6-0.2C-58.8-41.5-59.6-41.4-60.4-41L-60.4-41z M-33.2-29.9
			h4.4c0.8,0,1.6-0.1,2.4-0.4c0.7-0.3,1.3-0.7,1.8-1.2c0.5-0.5,0.9-1.1,1.2-1.8c0.3-0.8,0.4-1.6,0.4-2.4c0-0.8-0.1-1.5-0.4-2.2
			c-0.2-0.7-0.6-1.3-1.1-1.8c-0.5-0.5-1.1-1-1.8-1.2c-0.8-0.3-1.7-0.5-2.5-0.5h-4.4V-29.9z M-30.1-32.7v-6h1.3
			c0.4,0,0.7,0.1,1.1,0.2c0.3,0.1,0.6,0.3,0.8,0.6c0.2,0.3,0.4,0.6,0.5,0.9c0.1,0.4,0.2,0.8,0.2,1.2c0,0.4-0.1,0.8-0.2,1.2
			c-0.1,0.3-0.3,0.7-0.5,1c-0.2,0.3-0.5,0.5-0.8,0.6c-0.3,0.2-0.7,0.2-1.1,0.2L-30.1-32.7z M-47.6-34.3h-2.1l1.1-3.6L-47.6-34.3
			L-47.6-34.3z M-40.1-36.2v-2.5h1.9c0.2,0,0.4,0.1,0.6,0.3c0.2,0.3,0.3,0.6,0.3,0.9c0,0.3-0.1,0.6-0.3,0.9
			c-0.1,0.2-0.3,0.3-0.5,0.3L-40.1-36.2z M-33.9-46h-4.8l-0.8-2.6c0.7-0.4,1.4-1.1,1.8-1.8c0.2-0.4,0.4-0.8,0.5-1.2
			c0.1-0.4,0.2-0.9,0.2-1.4c0-0.7-0.1-1.4-0.4-2c-0.3-0.6-0.6-1.2-1.1-1.6c-0.5-0.5-1-0.8-1.6-1.1c-0.6-0.3-1.3-0.4-2-0.4
			c-0.7,0-1.3,0.1-2,0.4c-0.6,0.3-1.1,0.6-1.6,1.1c-0.5,0.5-0.8,1-1.1,1.6c-0.3,0.6-0.4,1.3-0.4,2c0,0.9,0.2,1.8,0.7,2.6
			c0.4,0.8,1.1,1.4,1.8,1.8l-0.8,2.5h-9.5v-9l-2.9,6.3h-2.5l-2.9-6.3v9h-4.7v-17.1h5.1l3.7,8.1l3.7-8.1h5.1v17.1l5.9-17.1h4.3
			L-33.9-46L-33.9-46z M-27.1-46h-4.7v-13h-4.9v-4.1h14.6v4.1h-4.9L-27.1-46L-27.1-46L-27.1-46z M-21.9-46v-17.1h12v4.1h-7.3v2.4
			h6.2v3.8h-6.2v2.7h7.5v4.1L-21.9-46L-21.9-46z M-45.2-51l2-2l-1.9-1.9l1.1-1.1l1.9,1.9l2-2l1.3,1.3l-2,2L-39-51l-1.1,1.1l-1.9-1.9
			l-2,2L-45.2-51z"/>
	</g>
</g>
</svg>
