<?xml version="1.0" encoding="utf-8"?>
<!-- Generator: Adobe Illustrator 27.9.0, SVG Export Plug-In . SVG Version: 6.00 Build 0)  -->
<svg version="1.1" id="Layer_1" xmlns="http://www.w3.org/2000/svg" xmlns:xlink="http://www.w3.org/1999/xlink" x="0px" y="0px"
	 viewBox="0 0 218.9 312.9" style="enable-background:new 0 0 218.9 312.9;" xml:space="preserve">
<style type="text/css">
	.st0{fill:#FFFFFF;}
	.st1{clip-path:url(#SVGID_00000108304596792829100600000013449249820266115484_);}
	.st2{fill:#CEF2F0;}
	.st3{fill:#A8F0FE;}
	.st4{fill:#FFD979;}
	.st5{fill:#FEB5A6;}
	.st6{fill:#FDF4B4;}
	.st7{fill:#F9927F;}
	.st8{fill:#59B0A9;}
	.st9{fill:#FDF4CC;}
	.st10{fill:#3D3F3C;}
	.st11{fill:#E90057;}
	.st12{fill:#E92557;}
</style>
<g id="_6" transform="translate(100.096 100.015)">
	<path id="Path_7310" class="st0" d="M-74.2-100H93.5c14,0,25.3,11.3,25.3,25.3c0,0,0,0,0,0v262.4c0,14-11.3,25.3-25.3,25.3H-74.2
		c-14,0-25.3-11.3-25.3-25.3V-74.7C-99.5-88.7-88.2-100-74.2-100z"/>
	<g id="Group_369" transform="translate(0 -5.157)">
		<g id="Group_368">
			<g>
				<defs>
					<path id="SVGID_1_" d="M-74.2-94H93.5c14,0,25.3,11.3,25.3,25.3c0,0,0,0,0,0v261.5c0,14-11.3,25.3-25.3,25.3H-74.2
						c-14,0-25.3-11.3-25.3-25.3V-68.7C-99.5-82.7-88.2-94-74.2-94z"/>
				</defs>
				<clipPath id="SVGID_00000152225746214467453510000010933757086744445624_">
					<use xlink:href="#SVGID_1_"  style="overflow:visible;"/>
				</clipPath>
				<g id="Mask_Group_4" style="clip-path:url(#SVGID_00000152225746214467453510000010933757086744445624_);">
					<path id="Path_5473" class="st2" d="M9.2,13.1C9.1,8.8,7.9,4.7,5.9,1c-2.1-3.9-4.8-7.5-7-11.4c-2-3.4-3.4-7.5-6.2-10.4
						c-3-3-7.1-3.5-11.1-3.9c-8-0.7-15.6,2.7-22,7.1c-12.9,8.9-21.8,22.3-29.4,36c-2,1.7-3.8,3.6-5.4,5.6c-2.7,3-5.1,6.4-7.1,9.9
						c-2.2,4.2-3,8.8-3.7,13.4c-0.3,1.8-0.5,3.7-0.6,5.5c-0.2,0.6-0.5,1.3-0.7,1.9c-3.4,9.6-7.1,19.2-7.1,29.5
						c0,9.7,1,20.3,5.1,29.2c2.1,4.2,4.4,8.4,6.9,12.4c2.2,3.8,4.2,7.4,9.2,7.1c7-0.4,7.8-10.4,2.1-11.9c-0.4-0.8-1-1.5-1.4-2.2
						c-1.1-1.9-2.3-3.8-3.3-5.7c0.8-0.1,1.5-0.1,2.2-0.1c4.8-0.1,9.7-0.1,14.5-0.4c8.2-0.6,17.3-1.4,24.3-6
						c6.8-4.5,11.6-12.7,15.9-19.5c5-7.9,8.9-16.6,13.9-24.5c4.7-7.3,9.4-14.7,12-23.1C9.4,31.1,9.6,21.9,9.2,13.1 M-82.6,85.3
						c0-1.8,0.1-3.5,0.3-5.3c0-0.4,0.1-0.8,0.2-1.1c0.6,0.8,1.2,1.5,1.9,2.2C-81.1,82.5-81.8,83.9-82.6,85.3 M-49.6,62.1
						c1.1-1.2,2.2-2.5,3.3-3.7c0.5-0.1,0.9-0.3,1.4-0.4c0,2.2,0,4.4,0.1,6.7c-1.4,2.9-3,5.7-5,8.3c-0.5,0.4-1.1,0.8-1.7,1.1
						c0-1.3,0.1-2.5,0.1-3.8c0.1-2.3,0.3-4.5,0.5-6.7C-50.4,63.1-50,62.6-49.6,62.1 M-43.8,84.4c1-1,1.8-2,2.7-3.1
						c0.5-0.4,0.9-0.8,1.4-1.2c-0.7,1.8-1.7,3.4-2.7,5c-1.2,1.7-3.7,4.9-5.9,5.3c-1.4,0.1-2.7-0.2-3.9-0.9
						C-49,88.7-46,86.9-43.8,84.4 M-37.3,14.7c-0.3,0.7-0.6,1.5-0.9,2.2c-1.2,0.4-2.4,1-3.6,1.6c1.1-1.2,2.2-2.4,3.3-3.5
						C-38.1,14.8-37.7,14.7-37.3,14.7 M-56.8,40.4c-2.7,5.2-4.6,10.9-5.5,16.7c-0.1,0.3-0.1,0.7-0.2,1c-0.6,0.7-1.2,1.4-1.9,2.1
						c0.5-5.2,1.7-10.2,3.7-15c1.2-2.6,2.6-5.1,4.2-7.5C-56.5,38.6-56.7,39.5-56.8,40.4 M-23.3,2.4c0,0.1,0.1,0.3,0.1,0.4
						c-0.1-0.1-0.3-0.1-0.4-0.2C-23.5,2.5-23.4,2.5-23.3,2.4 M-76,101.2c0.7-2,1.3-3.9,2.1-5.8c0.8-2.1,1.8-4.2,2.9-6.1
						c3.6,4.4,8,8,13.1,10.5c0.6,0.3,1.2,0.6,1.8,0.8C-62.8,101.3-69.4,101.5-76,101.2 M-2.9,25.6c-0.4,5.7-1.9,11.3-4.3,16.4
						c-2.3,4.7-4.8,9.1-7.7,13.5c-0.6,1-1.2,1.9-1.8,2.9c1.4-3.4,2.7-6.8,3.9-10.3c1.5-4.3,3.3-8.4,4.9-12.6
						c1.7-4.3,3.7-8.5,3.3-13.2c-0.2-2.8-2.3-6.1-5.4-6.1c0-5.7-0.6-11.5-1.7-17.1c-0.7-3.4-1.9-7.8-5.2-9.7
						c-4.1-2.4-8.5,0.3-12,2.4c-5.6,3.5-10.9,7.5-15.7,12.1c-0.7,0.2-1.4,0.5-2.1,0.8c1.1-1.4,2.3-2.8,3.4-4.1
						c6-6.6,15.2-14,24.7-13.1c2.1,0.2,2.2,0,3.4,1.6c1.4,2,2.3,4.6,3.6,6.7C-8.9,0.3-4.3,5.2-3,10.4C-1.9,15-2.6,21-2.9,25.6"/>
					<path id="Path_5474" class="st3" d="M-106.5,32.9c0-0.2,0-0.4,0-0.6v11.6c0.8,1.7,1.8,3.3,3,4.8
						C-105.4,43.6-106.4,38.3-106.5,32.9"/>
					<path id="Path_5475" class="st3" d="M-95.8,84.6c3.7-2.8,7.3-5.8,10.7-9c4-4,7.7-8.3,10.9-12.9c2.8-2.1,5.3-4.6,7.6-7.2
						c3.2-3.4,6.1-6.9,8.7-10.8c4.6-7.2,6-17.1,6.9-25.5c0.1-1.3,0.2-2.5,0.3-3.8c1.5-4,2.7-8.2,3.6-12.3c1.9-8.9,2.3-18,3.6-27
						c1.5-9.4,2.3-18.8,2.5-28.3c0.1-7.8-2.6-15.4-7.6-21.4c-6.3-7.3-14.8-10-24.2-11c-13.2-1.5-25.2,6.3-33.8,16.3v84.9
						c0-1.1,0-2.1,0.1-3.2c0.1-3.5,0.4-6.9,0.8-10.3c0,2.5,0,5,0,7.6c0,9.4-1.2,19.8,1.5,28.9c1.5,5,3.6,10.5,7.2,14.3
						c0.6,0.3,1.2,0.5,1.9,0.7c5.3,1.6,10.2-0.2,14.3-3.2c-0.5,0.7-0.9,1.4-1.4,2.1c-1.1,0.7-2.2,1.2-3.4,1.7
						c-2.3,0.8-4.6,1.5-6.9,2.2c0.9,0.5,1.8,0.8,2.7,1.1c5.3,1.6,10.2-0.2,14.3-3.2c-0.5,0.7-0.9,1.4-1.4,2.1
						c-1.1,0.7-2.2,1.2-3.5,1.7c-2.7,0.9-5.4,1.7-8.1,2.5c-2.8,0.9-3.9,1.5-6.3-0.4c-1-0.8-2-1.7-2.8-2.6c-0.9-0.1-1.8-0.6-2.5-1.2
						c-2.6-2-4.8-4.6-6.4-7.4v17.9c1.7,1.2,3.6,2.1,5.6,2.7c1,0.3,2,0.4,3.1,0.4c-1.7,1.5-3.5,2.9-5.3,4.3c-0.8,0.6-2.2,2-3.4,3V91
						c0.5,0,1-0.1,1.5-0.2C-101.6,89.7-98.6,86.7-95.8,84.6 M-70.5-39.4c0.6-1,1.4-1.9,2.2-2.8c0.5-0.5,1.2-1.3,1.9-2.2
						c0.1,0.9,0.2,1.8,0.3,2.6c0.1,1.1,0.3,2.1,0.4,3.2C-67-39.4-68.8-39.8-70.5-39.4 M-65.2-59.2c-5.3,1.1-10.2,7.3-13.5,11
						c-1.3,1.2-2.4,2.6-3.3,4.1c-0.8,1.7-1.4,3.4-2.1,5.1c-1.6,3.5-2.9,7.1-4,10.7c-2.4,8-3.4,16.2-4.7,24.4
						c-0.3,1.9-0.5,3.7-0.6,5.6c0.2-8.6,0.6-17.1,1.4-25.7c0.5-5.6,0.9-11.5,3-16.8c2-5.1,5.3-8.1,9.1-11.8
						C-76.3-56-70.3-59.7-65.2-59.2 M-79.1,5.1c-0.2,0.7-0.5,1.4-0.8,2.1c-0.2,0.4-0.3,0.9-0.5,1.3c2,1.3,4.5,1.4,6.6,0.4
						c-0.2,0.7-0.5,1.4-0.8,2.1c-0.7,2-1.7,4-2.8,5.7c-0.3,0.5-0.9,1.2-1.5,2c-0.3-0.9-0.7-1.7-0.9-2.6c-0.6-1.9-1.1-3.9-1.4-5.9
						c-0.4,0.9-1,1.8-1.5,2.7c-0.3,0.5-0.9,1.2-1.5,2c-0.3-0.9-0.7-1.7-0.9-2.6c-0.9-2.8-1.5-5.7-1.7-8.7
						C-84.9,5.9-81.7,6.4-79.1,5.1 M-79.5-35.5C-79.5-35.5-79.5-35.5-79.5-35.5c0,0,0.1,0.2,0.1,0.4l-0.1-0.1
						C-79.5-35.4-79.5-35.5-79.5-35.5 M-74.2-31.7L-74.2-31.7c0,0,0.1,0.2,0.1,0.4l-0.1-0.1C-74.2-31.6-74.2-31.7-74.2-31.7
						 M-75.8-43.2c0.6-1,1.4-1.9,2.2-2.8c0.5-0.5,1.2-1.3,1.9-2.1c0.1,0.9,0.2,1.8,0.3,2.6c0.1,1.1,0.3,2.1,0.4,3.2
						C-72.3-43.3-74.1-43.6-75.8-43.2 M-97.5-27.7c0.5-5.6,0.9-11.5,3-16.8c2-5.1,5.3-8.1,9.1-11.8c3.7-3.5,9.7-7.2,14.8-6.7
						c-5.3,1.1-10.2,7.3-13.5,11c-1.3,1.2-2.4,2.6-3.3,4.1c-0.8,1.7-1.4,3.4-2.1,5.1c-1.6,3.5-2.9,7.1-4.1,10.7
						c-2.4,8-3.4,16.2-4.7,24.4c-0.3,1.9-0.5,3.7-0.6,5.6C-98.6-10.6-98.2-19.2-97.5-27.7 M-104.7-19.5c0.1-6.8,0.6-13.6,2.5-19.8
						C-103.8-33-104.1-26.1-104.7-19.5 M-76.7,39.7c-1.8,2.1-4,3.8-6,5.8c0,0-0.2,0.2-0.4,0.3c-0.4,0.1-1.4,0.6-1.3,0.6
						c-1.1,0.4-1.5,0.7-2.7,0.2c-1.5-0.8-2.7-2.1-3.5-3.7c-0.6,0.3-1.3,0.2-1.9-0.1c-4-1.9-5.6-9.2-6.4-13c-1.1-6-0.3-12.7-0.3-18.8
						c0-3.2,0-6.3,0.1-9.5c0.1,6.2,1.3,12.3,3.6,18.1c0.5,1.1,0.9,2.2,1.4,3.3c0.1-2.8,0.2-5.5,0.2-8.1c0-3.2,0-6.3,0.1-9.5
						c0.1,6.2,1.3,12.3,3.6,18.1c0.7,2.1,1.7,4.1,2.9,6c2.7,0.6,5.4-0.4,7.8-2.4c2.4-1.9,4.5-4.2,6.2-6.7c-0.1,0.2-0.1,0.3-0.2,0.5
						c-1.6,4.5-3.9,8.7-6.7,12.6c2.2-0.2,4.3-1.1,6-2.6c2.4-1.9,4.5-4.2,6.2-6.7c-0.1,0.2-0.1,0.3-0.2,0.5
						C-69.9,30-72.9,35.2-76.7,39.7"/>
					<path id="Path_5476" class="st3" d="M-106.5,32.9c0.1,5.4,1.1,10.7,3,15.8c1.7,2.2,3.9,4,6.5,5.1c-3.6-3.8-5.7-9.3-7.2-14.3
						c-2.7-9.2-1.5-19.5-1.5-28.9c0-2.5,0-5,0-7.6c-0.4,3.4-0.7,6.8-0.8,10.3c0,1.1,0,2.1-0.1,3.2v15.8
						C-106.5,32.5-106.5,32.7-106.5,32.9"/>
					<path id="Path_5477" class="st3" d="M-97.6,58.4c0.9,0.9,1.8,1.8,2.8,2.6c2.4,1.9,3.4,1.3,6.3,0.4c2.7-0.8,5.4-1.6,8.1-2.5
						c1.2-0.4,2.4-1,3.4-1.7c0.5-0.7,0.9-1.4,1.4-2.1c-4.2,3-9,4.7-14.3,3.2c-0.9-0.3-1.9-0.6-2.7-1.1c-0.4,0.1-0.8,0.2-1.2,0.4
						C-95.5,58.1-96.6,58.5-97.6,58.4"/>
					<path id="Path_5478" class="st3" d="M-67.7,23.9c-1.8,2.5-3.9,4.8-6.2,6.7c-1.7,1.5-3.8,2.4-6,2.6c-0.7,0.9-1.4,1.9-2.1,2.7
						c-1.8,2.1-4,3.8-6,5.8c0,0-0.2,0.2-0.4,0.3c-0.4,0.1-1.4,0.6-1.3,0.6c-0.3,0.1-0.6,0.2-0.8,0.3c0.7,1.6,1.9,2.8,3.5,3.7
						c1.2,0.5,1.6,0.2,2.7-0.2c-0.1,0,0.9-0.4,1.3-0.6c0.2-0.1,0.4-0.3,0.4-0.3c2-2,4.2-3.6,6-5.8c3.8-4.5,6.8-9.7,8.8-15.3
						C-67.8,24.3-67.7,24.1-67.7,23.9"/>
					<path id="Path_5479" class="st3" d="M-90.7,27.4c1,0.9,2.3,1.6,3.6,1.9c-1.2-1.9-2.2-3.9-2.9-6c-2.3-5.7-3.6-11.9-3.6-18.1
						c-0.1,3.2-0.1,6.3-0.1,9.5c0,2.6-0.2,5.4-0.2,8.1C-93.2,24.5-92.1,26.1-90.7,27.4"/>
					<path id="Path_5480" class="st3" d="M-102.1-39.4c-1.9,6.2-2.4,13.1-2.5,19.8C-104.1-26.1-103.8-33-102.1-39.4"/>
					<path id="Path_5481" class="st3" d="M-79.8,16.3c0.3,0.9,0.6,1.7,0.9,2.6c0.6-0.8,1.1-1.6,1.5-2c1.2-1.8,2.1-3.7,2.8-5.7
						c0.3-0.7,0.5-1.4,0.8-2.1c-2.1,1-4.6,0.9-6.6-0.4c-0.2,0.6-0.5,1.2-0.8,1.8C-80.9,12.4-80.4,14.3-79.8,16.3"/>
					<path id="Path_5482" class="st3" d="M-89.1-40.7c-2.1,5.3-2.5,11.2-3,16.8c-0.8,8.6-1.2,17.1-1.4,25.7c0.1-1.9,0.3-3.7,0.6-5.6
						c1.3-8.2,2.3-16.4,4.7-24.4c1.1-3.7,2.5-7.2,4-10.7c0.8-1.7,1.3-3.5,2.1-5.1c0.9-1.5,2-2.9,3.3-4.1c3.3-3.7,8.2-9.9,13.5-11
						c-5-0.5-11,3.2-14.8,6.7C-83.9-48.8-87.1-45.8-89.1-40.7"/>
					<path id="Path_5483" class="st3" d="M-74.2-31.8C-74.2-31.7-74.2-31.7-74.2-31.8c0,0.1,0,0.2,0,0.3l0.1,0.1
						C-74.1-31.5-74.1-31.7-74.2-31.8"/>
					<path id="Path_5484" class="st3" d="M-66.3-44.3c-0.8,0.8-1.4,1.6-1.9,2.2c-0.8,0.9-1.5,1.8-2.2,2.8c1.7-0.4,3.4,0,4.9,0.9
						c-0.1-1.1-0.3-2.1-0.4-3.2C-66.1-42.6-66.2-43.4-66.3-44.3"/>
					<path id="Path_5485" class="st4" d="M2.8,123.5c-2-0.1-3.6,0.6-5.5,1.2c-3.2,1.1-6.4,1.9-9.6,2.7c-4.2,1.1-8.4,2.1-12.6,3.1
						c-0.9-2.1-3-3.3-5.2-3.1c-2.4,0.2-4.8,0.6-7.1,1.2c7.2-3.9,14.4-7.7,21.8-11.2c2.7-1.3,3.5-5,2.5-7.5c-1.2-2.9-4.1-4-7.1-3.5
						c-0.1,0-0.3,0.1-0.4,0.1c0.1-0.6,0-1.1-0.1-1.7c4.5-1.8,9-3.7,12.8-6.7c5-4-0.6-11.2-5.9-10.1c-1.8,0.4-3.6,0.7-5.4,1.1
						c-1-2-3-3.7-5.3-3.5c-0.5,0.1-1.1,0.2-1.6,0.2c0,0,0,0,0,0l-0.1,0.1c-5.5,0.9-10.7,2.9-16.1,4.6c-4.2,1.3-8.5,2.6-12.7,3.9
						c2.1-1.7,4.2-3.4,6.2-5.3c4.8-4.5-0.4-10.9-5.9-10.1c-8,1.2-16.9,0.2-25-0.1c-4.2-0.2-8.3-0.4-12.5-0.7
						c-2.1-0.1-4.1-0.3-6.2-0.4c-0.4,0-0.9,0-1.3,0c-1.4-1.1-3.3-1.5-5-1c-0.7,0.2-1.4,0.5-1.9,1V78c0,0-0.1,0.1-0.1,0.1v9.6
						c1.8,1.6,4.1,2.1,7.1,2.3c5.1,0.2,10.2,0.7,15.2,0.9c4.2,0.2,8.5,0.5,12.8,0.7c-2.2,1.4-4.4,2.8-6.5,4.1
						c-4.9,3.1-9.8,6.5-14.4,10c-4.1,1.3-8.3,2.6-12.4,4.1c-0.5,0.2-1.1,0.3-1.6,0.5v33.7c0.9-0.2,1.7-0.4,2.6-0.6
						c2.9-0.7,5.9-1.3,8.8-1.9c-2,0.8-4.1,1.6-6.1,2.3c-1.8,0.6-3.5,1.3-5.3,1.9v78.8h15c0.6-0.4,1.1-0.9,1.6-1.5
						c2.3-2.3,2.3-6-0.1-8.3c-0.5-0.5-1.1-0.9-1.8-1.2c2.8-2.5,5-5.4,5-8.5c0-1.5-0.4-3-1.2-4.2c2.2-1.4,3.8-3.5,4.7-5.9
						c1.1-3.5-2-7.9-5.8-7.6c0,0-0.1,0-0.1,0c-0.2-0.7-0.5-1.4-1-1.9c1.5-1.5,2.2-3.6,1.9-5.7c6.9-2,14.1-4.3,20-8.3
						c1.1-0.7,2-1.8,2.5-3.1c0.7-0.3,1.5-0.6,2.2-0.9c6.3-2.4,12.5-4.8,18.7-7.2c3-1.2,5.8-2.5,8.8-3.6c2.7-1,5.1-1.8,7.2-4
						c1.4-1.5,1.9-3.6,1.4-5.6c0.3-0.1,0.7-0.2,1-0.3c5.5-1.8,11-3.7,16.4-5.6c5.3-1.8,11-3.3,15.8-6.3
						C11,131.5,8.7,123.8,2.8,123.5 M-95.4,210.2c0.2,0,0.3-0.1,0.4-0.2C-94.2,209.5-93.6,211.3-95.4,210.2"/>
					<path id="Path_5486" class="st5" d="M-26.2,224.3c0.6-2.9,1.1-5.9,1.4-8.9c1.1-8,1.5-16.2,1.2-24.3c-0.2-7.4,0-15.2-2.4-22.3
						c-2-5.9-5.6-12.2-12.2-13.8c-6.9-1.7-15.2,3.3-20.6,7.3c-20,14.6-33.1,37.7-38.1,62H-26.2z M-49.1,196.6
						c0.1-1.2,0.2-2.3,0.2-3.5c0.2,0,0.4,0,0.5,0C-48.7,194.3-48.9,195.5-49.1,196.6 M-53.5,173.4c3-2.4,7.6-5.8,11.5-6.4
						c0.7-0.1,1.5,0.1,2.1,0.5c-0.7,0.6-1.2,1.3-1.6,2.1c-1.1,0.8-1.9,2-2.2,3.3c-0.8,2.8-1.5,5.6-2.2,8.5c-2.7-0.7-5.6-0.8-8.4-0.3
						c-1.3-1.6-3.2-2.5-5.2-2.4C-57.6,176.9-55.6,175.1-53.5,173.4"/>
					<path id="Path_5487" class="st6" d="M43.1,96.1c-2.3-2.9-4.7-6.3-8.5-7.1c-3.9-0.8-7.8,0.4-11.1,2.4c-3.8,2.2-7.3,4.8-10.6,7.6
						c-0.2,0-0.3,0.1-0.5,0.1c-4.2,0.8-8.3,1.5-12.2,3.3c-1.1,0.5-2.2,1.2-3.3,1.9c0-1.8,0-3.6,0.1-5.4c0-0.8,0.1-1.6,0-2.4
						c-0.3-7.7-12-7.9-12.1-0.1c0,0.8,0,1.5,0,2.3c-0.2,3.5-0.9,7.1-1.2,10.5c-0.5,4.4-0.9,8.8-1.4,13.3c-0.1,1.1-0.2,2.2-0.3,3.3
						c-6.6,14.4-10.9,29.8-12.8,45.6c-1.1,8.5-1.5,17-1.4,25.6c0.2,8.6-0.2,17.7,2.5,26c0.2,0.5,0.3,1,0.5,1.5h14.7
						c0.6-0.6,1.1-1.3,1.5-2.1c1.2-0.8,2-2,2.4-3.4c1-3.5,1.9-7,2.7-10.6c3.4,1,7.1,1.2,10.6,0.5c1.7,2.5,4.9,3.5,7.6,2.3
						c0,0,0,0.1,0,0.1c0,0.1,0.1,0.2,0.1,0.2c-3,3-6.2,5.9-9.5,8.4c-2.3,1.7-4.7,3.2-7.2,4.5h20.7c22.2-19.8,35.4-50,37.8-79.2
						C53.6,128.4,54.2,109.9,43.1,96.1 M-3.1,197.1c-0.8-0.1-1.6-0.4-2.3-0.9c0.3-1.2,0.5-2.4,0.8-3.7s0.5-2.4,0.8-3.6
						c0.4,0.3,0.8,0.6,1.2,0.9C-2.8,192.2-3,194.6-3.1,197.1 M21.8,112.1c0-0.1,0-0.2-0.1-0.3c0-0.1,0-0.1-0.1-0.2
						c0.2,0.1,0.5,0.2,0.7,0.3C22.2,112,22,112.1,21.8,112.1 M29.5,101.8c0,0,0.1,0,0.1-0.1c0.5-0.3,1.1-0.6,1.7-0.8
						c0.1,0.1,0.3,0.3,0.4,0.4l1.9,2.2c0.8,1,1.5,2.1,2.2,3.2C33.9,104.9,31.8,103.3,29.5,101.8"/>
					<path id="Path_5488" class="st7" d="M118.8,44.5c-1.6,1-2.9,2.5-4.5,3.6c-2.2,1.6-4.3,3.2-6.5,4.7c-3.7,2.6-7.7,6.4-11.8,8.3
						c-3,1.3-3.7,5.7-2.2,8.3c1.2,2.1,3.6,3.2,5.9,2.8c-0.6,0.8-1.3,1.6-1.9,2.4c-1.5,1.7-2.9,3.5-4.4,5.3c-1.6,1.8-2.1,4.4-1.2,6.7
						c-4.5,4.7-9,9.4-13.3,14.2c-2.3,2.5-2.1,6.4,0.4,8.7c0,0,0.1,0.1,0.1,0.1c-2.2,1.7-4.3,3.5-6.1,5.6c-1.9,2.2-2.1,5.4-0.4,7.8
						c-0.4,0.3-0.9,0.6-1.3,0.9c-5.1,3.4-10.6,6.4-15.1,10.6c-4,3.9-0.4,10.2,4.2,10.3c-4.9,3.2-9.8,6.4-14.6,9.8
						c-4.5,3.2-3.4,11.5,3,11.2c3.8-0.2,6.6-2.5,9.7-4.3c3-1.7,6-3.3,9-4.9c2.2-1.1,4.4-2.2,6.5-3.3v0c-7.8,5.2-15.8,10.2-23.9,15
						c-4.8,2.8-3.2,8.6,0.6,10.5c-7.1,3.7-14.5,7.4-20.8,12.5c-3.3,2.6-1.7,7.6,1.4,9.5c-7.8,4-16.1,7.3-23.3,12.2
						c-5.4,3.6-2.2,13.1,4.6,11c7.8-2.3,15.2-5.9,22.7-9c8.2-3.4,16.4-6.8,24.7-10c6.5-2.5,13.1-4.9,19.7-7.1
						c-2.3,1.6-4.6,3.1-7,4.6c-5.1,3.3-10.2,6.7-15.5,9.8c-4,2.4-9,3.9-12.2,7.5c-1.1,1.3-1.6,2.9-1.5,4.6h21.7
						c2.5-1.1,5-2.2,7.4-3.2c1.5-0.6,3-1.2,4.4-1.9c-0.9,0.5-1.8,1-2.7,1.6c-1.3,0.8-2.2,2-2.6,3.5h46.2L118.8,44.5z M113.8,158
						c-0.3-0.4-0.8-0.8-1.2-1.1c0.1-0.1,0.3-0.2,0.4-0.3c0.5,0.4,1.1,0.7,1.7,0.9C114.3,157.7,114,157.9,113.8,158"/>
					<path id="Path_5489" class="st8" d="M113.2-50.3c-6.4,18.4-15,35.8-23.8,53.1c-3.5,6.9,6.9,13,10.5,6
						c6.7-13.2,13.3-26.5,19-40.2v-37.3C117.1-62.5,115.3-56.3,113.2-50.3"/>
					<path id="Path_5490" class="st8" d="M29.5-84.5c-2.8,3.5-5.8,7-8.7,10.4c-2.6,3.1-5.4,6-8.2,8.9c-1.4,1.5-2.8,2.9-4,4.5
						c-0.4,0.5-0.8,1-1.2,1.5c-0.3,0.5-1.5,1.1-0.3,0.7c-7.4,2.2-4.3,13.9,3.1,11.7c3.7-1.1,5.5-3.7,7.8-6.5
						c0.5-0.6,1.1-1.2,1.6-1.8c1.1,0.3,2.2,0.4,3.3,0.2c3.3-0.6,5.2-2.5,7.6-4.6c2.3-2,4.8-3.9,7.2-5.8c3.1-2.5,6-5.1,9-7.8
						c-5.3,9.5-11.1,19-15.2,29c-1.4,3.4,2.2,7.9,5.8,7.6c6.6-0.6,11.5-6.8,15.9-11.8c-1.9,3.4-3.9,6.8-5.7,10.3
						c-2.3,4.3-4.4,8.7-6.9,12.9c-2.2,3.7-4.4,7.2-5.6,11.3c-1.6,5.6,4.4,8.7,8.9,6.8c0.4-0.2,0.7-0.3,1-0.5
						c-1.7,3.6-3.3,7.1-3.3,11.3c0,4.9,5,7.2,9.1,5.3C58,5.5,64.5-1.5,70.2-7.1c5.2-5.1,10-10.6,14.4-16.4
						c-1.6,4.1-2.6,8.6,0.8,12.2c2.4,2.3,6.2,2.3,8.5,0c2.6-2.5,3.6-6.3,4.8-9.7c1.5-4.1,3-8.2,4.6-12.3c3.2-8.1,6.6-16.2,9.8-24.3
						c1.8-4.7,3.6-9.2,5.7-13.8V-94h-2.1c-0.8,1.6-1.6,3.1-2.4,4.6c-1.3,2.4-2.6,4.9-3.8,7.4c-0.7,0.5-1.3,1.1-1.7,1.7
						c-5,7.4-9.4,15.2-14.4,22.5c-4.9,7.3-10.1,14.5-15.3,21.6c-4.8,6.7-10.1,13.1-15.8,19c-0.4,0.4-0.7,0.7-1.1,1.1
						c0.3-0.7,0.6-1.4,1-2c3.6-7.5,7.4-14.9,11.3-22.3c3.5-6.7,7-13.4,10.4-20.1c0.6-1,1.3-2.1,1.9-3.1c3.9-6.7,8.8-13.7,10.9-21.2
						c0.8-3.2-1.1-6.5-4.2-7.3c-0.1,0-0.2,0-0.3-0.1c0.3-0.6,0.7-1.2,1-1.8H78.7c-4,4.9-8.3,9.7-12.6,14.4c-1.7,1.8-3.3,3.5-5,5.3
						c3.6-6.6,7.5-13.1,11.2-19.7H51c-1.2,1.1-2.3,2.3-3.5,3.4c-0.1-1.2-0.5-2.4-1.2-3.4h-9.6c-0.1,0.2-0.3,0.3-0.4,0.5
						C34-90.5,31.7-87.5,29.5-84.5 M95.3-17.9C95.6-17,94.9-17,95.3-17.9"/>
					<path id="Path_5491" class="st9" d="M86,79.2c4.2-6.5-1.4-14.3-8.4-14.7c-6.9-0.4-15.3,4.8-21.8,7c-8,2.8-16,5.7-24.1,8
						c-10.2,3-8.2,17.1,0.1,19.1c-1.4,1.1-2.8,2.1-4.2,3.2c-4.3,3.2-9.1,6.1-12.7,10.1c-5.5,6.1-1,18.2,7.5,16.8
						c0.3,2.8,2.1,5.3,4.6,6.6c0.5,0.3,1.1,0.5,1.6,0.7c-0.4,0.5-0.8,1.1-1.1,1.6c-2.7,4.8-0.9,10.8,3.8,13.4c0.6,0.4,1.3,0.6,2,0.9
						c3.4,1,6.6,0.6,10.1,0.1c1-0.2,3-0.6,4.4-0.9c4.9,1.7,11.2,0.2,13.2-6.1c0.1-0.4,0.2-0.7,0.4-1.1c0.7-2.2,0.5-4.5-0.5-6.6
						c4.5-2.4,9-5,13.2-7.8c5.9-4.2,5.8-11.9,1.2-15.8c3.3-2,6.2-4.4,8-7.6c3.2-5.8-0.7-15.5-8.4-14.6c-0.1,0-0.3,0-0.4,0.1
						C79,87.9,82.8,83.8,86,79.2"/>
					<path id="Path_5492" class="st10" d="M63,62.9c0.7,0,1.3-0.6,1.3-1.3s-0.6-1.3-1.3-1.3c-0.7,0-1.3,0.6-1.3,1.3l0,0
						C61.7,62.4,62.3,62.9,63,62.9C63,62.9,63,62.9,63,62.9"/>
					<path id="Path_5493" class="st10" d="M68.2,62.9c0.7,0,1.3-0.6,1.3-1.3s-0.6-1.3-1.3-1.3c-0.7,0-1.3,0.6-1.3,1.3l0,0
						C66.9,62.4,67.5,62.9,68.2,62.9C68.2,62.9,68.2,62.9,68.2,62.9"/>
					<path id="Path_5494" class="st10" d="M73.4,62.9c0.7,0,1.3-0.6,1.3-1.3s-0.6-1.3-1.3-1.3c-0.7,0-1.3,0.6-1.3,1.3l0,0
						C72.1,62.4,72.7,62.9,73.4,62.9C73.4,62.9,73.4,62.9,73.4,62.9"/>
					<path id="Path_5495" class="st10" d="M78.6,62.9c0.7,0,1.3-0.6,1.3-1.3s-0.6-1.3-1.3-1.3c-0.7,0-1.3,0.6-1.3,1.3l0,0
						C77.3,62.4,77.9,62.9,78.6,62.9C78.6,62.9,78.6,62.9,78.6,62.9"/>
					<path id="Path_5496" class="st10" d="M83.8,62.9c0.7,0,1.3-0.6,1.3-1.3s-0.6-1.3-1.3-1.3c-0.7,0-1.3,0.6-1.3,1.3l0,0
						C82.5,62.4,83.1,62.9,83.8,62.9C83.8,62.9,83.8,62.9,83.8,62.9"/>
					<path id="Path_5497" class="st10" d="M89,62.9c0.7,0,1.3-0.6,1.3-1.3s-0.6-1.3-1.3-1.3c-0.7,0-1.3,0.6-1.3,1.3l0,0
						C87.7,62.4,88.3,62.9,89,62.9C89,62.9,89,62.9,89,62.9"/>
					<path id="Path_5498" class="st10" d="M60.4,68.1c0.7,0,1.3-0.6,1.3-1.3s-0.6-1.3-1.3-1.3c-0.7,0-1.3,0.6-1.3,1.3
						C59.1,67.6,59.7,68.1,60.4,68.1C60.4,68.1,60.4,68.1,60.4,68.1"/>
					<path id="Path_5499" class="st10" d="M65.6,68.1c0.7,0,1.3-0.6,1.3-1.3s-0.6-1.3-1.3-1.3c-0.7,0-1.3,0.6-1.3,1.3l0,0
						C64.3,67.6,64.9,68.1,65.6,68.1C65.6,68.1,65.6,68.1,65.6,68.1"/>
					<path id="Path_5500" class="st10" d="M70.8,68.1c0.7,0,1.3-0.6,1.3-1.3s-0.6-1.3-1.3-1.3c-0.7,0-1.3,0.6-1.3,1.3l0,0
						C69.5,67.6,70.1,68.1,70.8,68.1C70.8,68.1,70.8,68.1,70.8,68.1"/>
					<path id="Path_5501" class="st10" d="M76,68.1c0.7,0,1.3-0.6,1.3-1.3s-0.6-1.3-1.3-1.3c-0.7,0-1.3,0.6-1.3,1.3l0,0
						C74.7,67.6,75.3,68.1,76,68.1C76,68.1,76,68.1,76,68.1"/>
					<path id="Path_5502" class="st10" d="M81.2,68.1c0.7,0,1.3-0.6,1.3-1.3s-0.6-1.3-1.3-1.3c-0.7,0-1.3,0.6-1.3,1.3l0,0
						C79.9,67.6,80.5,68.1,81.2,68.1C81.2,68.1,81.2,68.1,81.2,68.1"/>
					<path id="Path_5503" class="st10" d="M86.4,68.1c0.7,0,1.3-0.6,1.3-1.3s-0.6-1.3-1.3-1.3c-0.7,0-1.3,0.6-1.3,1.3l0,0
						C85.1,67.6,85.7,68.1,86.4,68.1C86.4,68.1,86.4,68.1,86.4,68.1"/>
					<path id="Path_5504" class="st10" d="M47.3,73.4c0.7,0,1.3-0.6,1.3-1.3c0-0.7-0.6-1.3-1.3-1.3c-0.7,0-1.3,0.6-1.3,1.3
						S46.6,73.4,47.3,73.4C47.3,73.4,47.3,73.4,47.3,73.4"/>
					<path id="Path_5505" class="st10" d="M52.6,73.4c0.7,0,1.3-0.6,1.3-1.3c0-0.7-0.6-1.3-1.3-1.3c-0.7,0-1.3,0.6-1.3,1.3
						S51.8,73.4,52.6,73.4C52.6,73.4,52.6,73.4,52.6,73.4"/>
					<path id="Path_5506" class="st10" d="M57.8,73.4c0.7,0,1.3-0.6,1.3-1.3c0-0.7-0.6-1.3-1.3-1.3c-0.7,0-1.3,0.6-1.3,1.3
						S57,73.4,57.8,73.4C57.8,73.4,57.8,73.4,57.8,73.4"/>
					<path id="Path_5507" class="st10" d="M63,73.4c0.7,0,1.3-0.6,1.3-1.3c0-0.7-0.6-1.3-1.3-1.3c-0.7,0-1.3,0.6-1.3,1.3l0,0
						C61.7,72.8,62.3,73.4,63,73.4C63,73.4,63,73.4,63,73.4"/>
					<path id="Path_5508" class="st10" d="M68.2,73.4c0.7,0,1.3-0.6,1.3-1.3c0-0.7-0.6-1.3-1.3-1.3c-0.7,0-1.3,0.6-1.3,1.3l0,0
						C66.9,72.8,67.5,73.4,68.2,73.4C68.2,73.4,68.2,73.4,68.2,73.4"/>
					<path id="Path_5509" class="st10" d="M73.4,73.4c0.7,0,1.3-0.6,1.3-1.3c0-0.7-0.6-1.3-1.3-1.3c-0.7,0-1.3,0.6-1.3,1.3l0,0
						C72.1,72.8,72.7,73.4,73.4,73.4C73.4,73.4,73.4,73.4,73.4,73.4"/>
					<path id="Path_5510" class="st10" d="M78.6,73.4c0.7,0,1.3-0.6,1.3-1.3c0-0.7-0.6-1.3-1.3-1.3c-0.7,0-1.3,0.6-1.3,1.3l0,0
						C77.3,72.8,77.9,73.4,78.6,73.4C78.6,73.4,78.6,73.4,78.6,73.4"/>
					<path id="Path_5511" class="st10" d="M83.8,73.4c0.7,0,1.3-0.6,1.3-1.3c0-0.7-0.6-1.3-1.3-1.3c-0.7,0-1.3,0.6-1.3,1.3l0,0
						C82.5,72.8,83.1,73.4,83.8,73.4C83.8,73.4,83.8,73.4,83.8,73.4"/>
					<path id="Path_5512" class="st10" d="M89,73.4c0.7,0,1.3-0.6,1.3-1.3c0-0.7-0.6-1.3-1.3-1.3c-0.7,0-1.3,0.6-1.3,1.3l0,0
						C87.7,72.8,88.3,73.4,89,73.4C89,73.4,89,73.4,89,73.4"/>
					<path id="Path_5513" class="st10" d="M29.1,78.6c0.7,0,1.3-0.6,1.3-1.3c0-0.7-0.6-1.3-1.3-1.3c-0.7,0-1.3,0.6-1.3,1.3l0,0
						C27.8,78,28.4,78.6,29.1,78.6"/>
					<path id="Path_5514" class="st10" d="M34.3,78.6c0.7,0,1.3-0.6,1.3-1.3c0-0.7-0.6-1.3-1.3-1.3c-0.7,0-1.3,0.6-1.3,1.3l0,0
						C33,78,33.6,78.6,34.3,78.6"/>
					<path id="Path_5515" class="st10" d="M39.5,78.6c0.7,0,1.3-0.6,1.3-1.3c0-0.7-0.6-1.3-1.3-1.3c-0.7,0-1.3,0.6-1.3,1.3l0,0
						C38.2,78,38.8,78.6,39.5,78.6"/>
					<path id="Path_5516" class="st10" d="M44.7,78.6c0.7,0,1.3-0.6,1.3-1.3c0-0.7-0.6-1.3-1.3-1.3c-0.7,0-1.3,0.6-1.3,1.3l0,0
						C43.5,78,44,78.6,44.7,78.6"/>
					<path id="Path_5517" class="st10" d="M49.9,78.6c0.7,0,1.3-0.6,1.3-1.3c0-0.7-0.6-1.3-1.3-1.3c-0.7,0-1.3,0.6-1.3,1.3l0,0
						C48.7,78,49.2,78.6,49.9,78.6"/>
					<path id="Path_5518" class="st10" d="M55.2,78.6c0.7,0,1.3-0.6,1.3-1.3c0-0.7-0.6-1.3-1.3-1.3c-0.7,0-1.3,0.6-1.3,1.3l0,0
						C53.9,78,54.4,78.6,55.2,78.6"/>
					<path id="Path_5519" class="st10" d="M60.4,78.6c0.7,0,1.3-0.6,1.3-1.3c0-0.7-0.6-1.3-1.3-1.3c-0.7,0-1.3,0.6-1.3,1.3l0,0
						C59.1,78,59.7,78.6,60.4,78.6C60.4,78.6,60.4,78.6,60.4,78.6"/>
					<path id="Path_5520" class="st10" d="M65.6,78.6c0.7,0,1.3-0.6,1.3-1.3S66.3,76,65.6,76c-0.7,0-1.3,0.6-1.3,1.3c0,0,0,0,0,0
						C64.3,78,64.9,78.6,65.6,78.6C65.6,78.6,65.6,78.6,65.6,78.6"/>
					<path id="Path_5521" class="st10" d="M70.8,78.6c0.7,0,1.3-0.6,1.3-1.3S71.5,76,70.8,76c-0.7,0-1.3,0.6-1.3,1.3c0,0,0,0,0,0
						C69.5,78,70.1,78.6,70.8,78.6C70.8,78.6,70.8,78.6,70.8,78.6"/>
					<path id="Path_5522" class="st10" d="M76,78.6c0.7,0,1.3-0.6,1.3-1.3S76.7,76,76,76c-0.7,0-1.3,0.6-1.3,1.3c0,0,0,0,0,0
						C74.7,78,75.3,78.6,76,78.6C76,78.6,76,78.6,76,78.6"/>
					<path id="Path_5523" class="st10" d="M81.2,78.6c0.7,0,1.3-0.6,1.3-1.3S81.9,76,81.2,76c-0.7,0-1.3,0.6-1.3,1.3c0,0,0,0,0,0
						C79.9,78,80.5,78.6,81.2,78.6C81.2,78.6,81.2,78.6,81.2,78.6"/>
					<path id="Path_5524" class="st10" d="M86.4,78.6c0.7,0,1.3-0.6,1.3-1.3S87.1,76,86.4,76c-0.7,0-1.3,0.6-1.3,1.3c0,0,0,0,0,0
						C85.1,78,85.7,78.6,86.4,78.6C86.4,78.6,86.4,78.6,86.4,78.6"/>
					<path id="Path_5525" class="st10" d="M26.5,83.8c0.7,0,1.3-0.6,1.3-1.3c0-0.7-0.6-1.3-1.3-1.3c-0.7,0-1.3,0.6-1.3,1.3l0,0
						C25.2,83.2,25.8,83.8,26.5,83.8"/>
					<path id="Path_5526" class="st10" d="M31.7,83.8c0.7,0,1.3-0.6,1.3-1.3c0-0.7-0.6-1.3-1.3-1.3c-0.7,0-1.3,0.6-1.3,1.3l0,0
						C30.4,83.2,31,83.8,31.7,83.8"/>
					<path id="Path_5527" class="st10" d="M36.9,83.8c0.7,0,1.3-0.6,1.3-1.3c0-0.7-0.6-1.3-1.3-1.3c-0.7,0-1.3,0.6-1.3,1.3l0,0
						C35.6,83.2,36.2,83.8,36.9,83.8"/>
					<path id="Path_5528" class="st10" d="M42.1,83.8c0.7,0,1.3-0.6,1.3-1.3c0-0.7-0.6-1.3-1.3-1.3c-0.7,0-1.3,0.6-1.3,1.3l0,0
						C40.8,83.2,41.4,83.8,42.1,83.8"/>
					<path id="Path_5529" class="st10" d="M47.3,83.8c0.7,0,1.3-0.6,1.3-1.3c0-0.7-0.6-1.3-1.3-1.3c-0.7,0-1.3,0.6-1.3,1.3l0,0
						C46.1,83.2,46.6,83.8,47.3,83.8"/>
					<path id="Path_5530" class="st10" d="M52.6,83.8c0.7,0,1.3-0.6,1.3-1.3c0-0.7-0.6-1.3-1.3-1.3c-0.7,0-1.3,0.6-1.3,1.3l0,0
						C51.3,83.2,51.8,83.8,52.6,83.8"/>
					<path id="Path_5531" class="st10" d="M57.8,83.8c0.7,0,1.3-0.6,1.3-1.3c0-0.7-0.6-1.3-1.3-1.3c-0.7,0-1.3,0.6-1.3,1.3l0,0
						C56.5,83.2,57,83.8,57.8,83.8"/>
					<path id="Path_5532" class="st10" d="M63,83.8c0.7,0,1.3-0.6,1.3-1.3s-0.6-1.3-1.3-1.3c-0.7,0-1.3,0.6-1.3,1.3c0,0,0,0,0,0
						C61.7,83.2,62.3,83.8,63,83.8C63,83.8,63,83.8,63,83.8"/>
					<path id="Path_5533" class="st10" d="M68.2,83.8c0.7,0,1.3-0.6,1.3-1.3s-0.6-1.3-1.3-1.3c-0.7,0-1.3,0.6-1.3,1.3c0,0,0,0,0,0
						C66.9,83.2,67.5,83.8,68.2,83.8C68.2,83.8,68.2,83.8,68.2,83.8"/>
					<path id="Path_5534" class="st10" d="M73.4,83.8c0.7,0,1.3-0.6,1.3-1.3s-0.6-1.3-1.3-1.3c-0.7,0-1.3,0.6-1.3,1.3c0,0,0,0,0,0
						C72.1,83.2,72.7,83.8,73.4,83.8C73.4,83.8,73.4,83.8,73.4,83.8"/>
					<path id="Path_5535" class="st10" d="M78.6,83.8c0.7,0,1.3-0.6,1.3-1.3s-0.6-1.3-1.3-1.3c-0.7,0-1.3,0.6-1.3,1.3c0,0,0,0,0,0
						C77.3,83.2,77.9,83.8,78.6,83.8C78.6,83.8,78.6,83.8,78.6,83.8"/>
					<path id="Path_5536" class="st10" d="M83.8,83.8c0.7,0,1.3-0.6,1.3-1.3s-0.6-1.3-1.3-1.3c-0.7,0-1.3,0.6-1.3,1.3c0,0,0,0,0,0
						C82.5,83.2,83.1,83.8,83.8,83.8C83.8,83.8,83.8,83.8,83.8,83.8"/>
					<path id="Path_5537" class="st10" d="M23.9,89c0.7,0,1.3-0.6,1.3-1.3c0-0.7-0.6-1.3-1.3-1.3c-0.7,0-1.3,0.6-1.3,1.3
						C22.6,88.4,23.2,89,23.9,89"/>
					<path id="Path_5538" class="st10" d="M29.1,89c0.7,0,1.3-0.6,1.3-1.3c0-0.7-0.6-1.3-1.3-1.3c-0.7,0-1.3,0.6-1.3,1.3l0,0
						C27.8,88.4,28.4,89,29.1,89"/>
					<path id="Path_5539" class="st10" d="M34.3,89c0.7,0,1.3-0.6,1.3-1.3c0-0.7-0.6-1.3-1.3-1.3c-0.7,0-1.3,0.6-1.3,1.3l0,0
						C33,88.4,33.6,89,34.3,89"/>
					<path id="Path_5540" class="st10" d="M39.5,89c0.7,0,1.3-0.6,1.3-1.3c0-0.7-0.6-1.3-1.3-1.3c-0.7,0-1.3,0.6-1.3,1.3l0,0
						C38.2,88.4,38.8,89,39.5,89"/>
					<path id="Path_5541" class="st10" d="M44.7,89c0.7,0,1.3-0.6,1.3-1.3c0-0.7-0.6-1.3-1.3-1.3c-0.7,0-1.3,0.6-1.3,1.3l0,0
						C43.5,88.4,44,89,44.7,89"/>
					<path id="Path_5542" class="st10" d="M49.9,89c0.7,0,1.3-0.6,1.3-1.3c0-0.7-0.6-1.3-1.3-1.3c-0.7,0-1.3,0.6-1.3,1.3l0,0
						C48.7,88.4,49.2,89,49.9,89"/>
					<path id="Path_5543" class="st10" d="M55.2,89c0.7,0,1.3-0.6,1.3-1.3c0-0.7-0.6-1.3-1.3-1.3c-0.7,0-1.3,0.6-1.3,1.3l0,0
						C53.9,88.4,54.4,89,55.2,89"/>
					<path id="Path_5544" class="st10" d="M60.4,89c0.7,0,1.3-0.6,1.3-1.3c0-0.7-0.6-1.3-1.3-1.3c-0.7,0-1.3,0.6-1.3,1.3l0,0
						C59.1,88.4,59.7,89,60.4,89C60.4,89,60.4,89,60.4,89"/>
					<path id="Path_5545" class="st10" d="M65.6,89c0.7,0,1.3-0.6,1.3-1.3s-0.6-1.3-1.3-1.3c-0.7,0-1.3,0.6-1.3,1.3c0,0,0,0,0,0
						C64.3,88.4,64.9,89,65.6,89C65.6,89,65.6,89,65.6,89"/>
					<path id="Path_5546" class="st10" d="M70.8,89c0.7,0,1.3-0.6,1.3-1.3s-0.6-1.3-1.3-1.3c-0.7,0-1.3,0.6-1.3,1.3c0,0,0,0,0,0
						C69.5,88.4,70.1,89,70.8,89C70.8,89,70.8,89,70.8,89"/>
					<path id="Path_5547" class="st10" d="M76,89c0.7,0,1.3-0.6,1.3-1.3s-0.6-1.3-1.3-1.3c-0.7,0-1.3,0.6-1.3,1.3c0,0,0,0,0,0
						C74.7,88.4,75.3,89,76,89C76,89,76,89,76,89"/>
					<path id="Path_5548" class="st10" d="M81.2,89c0.7,0,1.3-0.6,1.3-1.3s-0.6-1.3-1.3-1.3c-0.7,0-1.3,0.6-1.3,1.3c0,0,0,0,0,0
						C79.9,88.4,80.5,89,81.2,89C81.2,89,81.2,89,81.2,89"/>
					<path id="Path_5549" class="st10" d="M26.5,94.2c0.7,0,1.3-0.6,1.3-1.3c0-0.7-0.6-1.3-1.3-1.3c-0.7,0-1.3,0.6-1.3,1.3l0,0
						C25.2,93.6,25.8,94.2,26.5,94.2"/>
					<path id="Path_5550" class="st10" d="M31.7,94.2c0.7,0,1.3-0.6,1.3-1.3c0-0.7-0.6-1.3-1.3-1.3c-0.7,0-1.3,0.6-1.3,1.3l0,0
						C30.4,93.6,31,94.2,31.7,94.2"/>
					<path id="Path_5551" class="st10" d="M36.9,94.2c0.7,0,1.3-0.6,1.3-1.3c0-0.7-0.6-1.3-1.3-1.3c-0.7,0-1.3,0.6-1.3,1.3l0,0
						C35.6,93.6,36.2,94.2,36.9,94.2"/>
					<path id="Path_5552" class="st10" d="M42.1,94.2c0.7,0,1.3-0.6,1.3-1.3c0-0.7-0.6-1.3-1.3-1.3c-0.7,0-1.3,0.6-1.3,1.3l0,0
						C40.8,93.6,41.4,94.2,42.1,94.2"/>
					<path id="Path_5553" class="st10" d="M47.3,94.2c0.7,0,1.3-0.6,1.3-1.3c0-0.7-0.6-1.3-1.3-1.3c-0.7,0-1.3,0.6-1.3,1.3l0,0
						C46.1,93.6,46.6,94.2,47.3,94.2"/>
					<path id="Path_5554" class="st10" d="M52.6,94.2c0.7,0,1.3-0.6,1.3-1.3c0-0.7-0.6-1.3-1.3-1.3c-0.7,0-1.3,0.6-1.3,1.3l0,0
						C51.3,93.6,51.8,94.2,52.6,94.2"/>
					<path id="Path_5555" class="st10" d="M57.8,94.2c0.7,0,1.3-0.6,1.3-1.3c0-0.7-0.6-1.3-1.3-1.3c-0.7,0-1.3,0.6-1.3,1.3l0,0
						C56.5,93.6,57,94.2,57.8,94.2"/>
					<path id="Path_5556" class="st10" d="M63,94.2c0.7,0,1.3-0.6,1.3-1.3s-0.6-1.3-1.3-1.3c-0.7,0-1.3,0.6-1.3,1.3c0,0,0,0,0,0
						C61.7,93.6,62.3,94.2,63,94.2C63,94.2,63,94.2,63,94.2"/>
					<path id="Path_5557" class="st10" d="M68.2,94.2c0.7,0,1.3-0.6,1.3-1.3s-0.6-1.3-1.3-1.3c-0.7,0-1.3,0.6-1.3,1.3c0,0,0,0,0,0
						C66.9,93.6,67.5,94.2,68.2,94.2C68.2,94.2,68.2,94.2,68.2,94.2"/>
					<path id="Path_5558" class="st10" d="M73.4,94.2c0.7,0,1.3-0.6,1.3-1.3s-0.6-1.3-1.3-1.3c-0.7,0-1.3,0.6-1.3,1.3c0,0,0,0,0,0
						C72.1,93.6,72.7,94.2,73.4,94.2C73.4,94.2,73.4,94.2,73.4,94.2"/>
					<path id="Path_5559" class="st10" d="M78.6,94.2c0.7,0,1.3-0.6,1.3-1.3s-0.6-1.3-1.3-1.3c-0.7,0-1.3,0.6-1.3,1.3c0,0,0,0,0,0
						C77.3,93.6,77.9,94.2,78.6,94.2C78.6,94.2,78.6,94.2,78.6,94.2"/>
					<path id="Path_5560" class="st10" d="M83.8,94.2c0.7,0,1.3-0.6,1.3-1.3s-0.6-1.3-1.3-1.3c-0.7,0-1.3,0.6-1.3,1.3c0,0,0,0,0,0
						C82.5,93.6,83.1,94.2,83.8,94.2C83.8,94.2,83.8,94.2,83.8,94.2"/>
					<path id="Path_5561" class="st10" d="M23.9,99.4c0.7,0,1.3-0.6,1.3-1.3c0-0.7-0.6-1.3-1.3-1.3c-0.7,0-1.3,0.6-1.3,1.3
						C22.6,98.8,23.2,99.4,23.9,99.4"/>
					<path id="Path_5562" class="st10" d="M29.1,99.4c0.7,0,1.3-0.6,1.3-1.3c0-0.7-0.6-1.3-1.3-1.3c-0.7,0-1.3,0.6-1.3,1.3l0,0
						C27.8,98.8,28.4,99.4,29.1,99.4"/>
					<path id="Path_5563" class="st10" d="M34.3,99.4c0.7,0,1.3-0.6,1.3-1.3c0-0.7-0.6-1.3-1.3-1.3c-0.7,0-1.3,0.6-1.3,1.3l0,0
						C33,98.8,33.6,99.4,34.3,99.4"/>
					<path id="Path_5564" class="st10" d="M39.5,99.4c0.7,0,1.3-0.6,1.3-1.3c0-0.7-0.6-1.3-1.3-1.3c-0.7,0-1.3,0.6-1.3,1.3l0,0
						C38.2,98.8,38.8,99.4,39.5,99.4"/>
					<path id="Path_5565" class="st10" d="M44.7,99.4c0.7,0,1.3-0.6,1.3-1.3c0-0.7-0.6-1.3-1.3-1.3c-0.7,0-1.3,0.6-1.3,1.3l0,0
						C43.5,98.8,44,99.4,44.7,99.4"/>
					<path id="Path_5566" class="st10" d="M49.9,99.4c0.7,0,1.3-0.6,1.3-1.3c0-0.7-0.6-1.3-1.3-1.3c-0.7,0-1.3,0.6-1.3,1.3l0,0
						C48.7,98.8,49.2,99.4,49.9,99.4"/>
					<path id="Path_5567" class="st10" d="M55.2,99.4c0.7,0,1.3-0.6,1.3-1.3c0-0.7-0.6-1.3-1.3-1.3c-0.7,0-1.3,0.6-1.3,1.3l0,0
						C53.9,98.8,54.4,99.4,55.2,99.4"/>
					<path id="Path_5568" class="st10" d="M60.4,99.4c0.7,0,1.3-0.6,1.3-1.3c0-0.7-0.6-1.3-1.3-1.3c-0.7,0-1.3,0.6-1.3,1.3l0,0
						C59.1,98.8,59.7,99.4,60.4,99.4C60.4,99.4,60.4,99.4,60.4,99.4"/>
					<path id="Path_5569" class="st10" d="M65.6,99.4c0.7,0,1.3-0.6,1.3-1.3s-0.6-1.3-1.3-1.3c-0.7,0-1.3,0.6-1.3,1.3c0,0,0,0,0,0
						C64.3,98.8,64.9,99.4,65.6,99.4C65.6,99.4,65.6,99.4,65.6,99.4"/>
					<path id="Path_5570" class="st10" d="M70.8,99.4c0.7,0,1.3-0.6,1.3-1.3s-0.6-1.3-1.3-1.3c-0.7,0-1.3,0.6-1.3,1.3c0,0,0,0,0,0
						C69.5,98.8,70.1,99.4,70.8,99.4C70.8,99.4,70.8,99.4,70.8,99.4"/>
					<path id="Path_5571" class="st10" d="M76,99.4c0.7,0,1.3-0.6,1.3-1.3s-0.6-1.3-1.3-1.3c-0.7,0-1.3,0.6-1.3,1.3c0,0,0,0,0,0
						C74.7,98.8,75.3,99.4,76,99.4C76,99.4,76,99.4,76,99.4"/>
					<path id="Path_5572" class="st10" d="M81.2,99.4c0.7,0,1.3-0.6,1.3-1.3s-0.6-1.3-1.3-1.3c-0.7,0-1.3,0.6-1.3,1.3c0,0,0,0,0,0
						C79.9,98.8,80.5,99.4,81.2,99.4C81.2,99.4,81.2,99.4,81.2,99.4"/>
					<path id="Path_5573" class="st10" d="M21.3,104.6c0.7,0,1.3-0.6,1.3-1.3c0-0.7-0.6-1.3-1.3-1.3c-0.7,0-1.3,0.6-1.3,1.3
						C20,104,20.6,104.6,21.3,104.6"/>
					<path id="Path_5574" class="st10" d="M26.5,104.6c0.7,0,1.3-0.6,1.3-1.3c0-0.7-0.6-1.3-1.3-1.3c-0.7,0-1.3,0.6-1.3,1.3l0,0
						C25.2,104,25.8,104.6,26.5,104.6"/>
					<path id="Path_5575" class="st10" d="M31.7,104.6c0.7,0,1.3-0.6,1.3-1.3c0-0.7-0.6-1.3-1.3-1.3c-0.7,0-1.3,0.6-1.3,1.3l0,0
						C30.4,104,31,104.6,31.7,104.6"/>
					<path id="Path_5576" class="st10" d="M36.9,104.6c0.7,0,1.3-0.6,1.3-1.3c0-0.7-0.6-1.3-1.3-1.3c-0.7,0-1.3,0.6-1.3,1.3l0,0
						C35.6,104,36.2,104.6,36.9,104.6"/>
					<path id="Path_5577" class="st10" d="M42.1,104.6c0.7,0,1.3-0.6,1.3-1.3c0-0.7-0.6-1.3-1.3-1.3c-0.7,0-1.3,0.6-1.3,1.3l0,0
						C40.8,104,41.4,104.6,42.1,104.6"/>
					<path id="Path_5578" class="st10" d="M47.3,104.6c0.7,0,1.3-0.6,1.3-1.3c0-0.7-0.6-1.3-1.3-1.3c-0.7,0-1.3,0.6-1.3,1.3l0,0
						C46.1,104,46.6,104.6,47.3,104.6"/>
					<path id="Path_5579" class="st10" d="M52.6,104.6c0.7,0,1.3-0.6,1.3-1.3c0-0.7-0.6-1.3-1.3-1.3c-0.7,0-1.3,0.6-1.3,1.3l0,0
						C51.3,104,51.8,104.6,52.6,104.6"/>
					<path id="Path_5580" class="st10" d="M57.8,104.6c0.7,0,1.3-0.6,1.3-1.3c0-0.7-0.6-1.3-1.3-1.3c-0.7,0-1.3,0.6-1.3,1.3l0,0
						C56.5,104,57,104.6,57.8,104.6"/>
					<path id="Path_5581" class="st10" d="M63,104.6c0.7,0,1.3-0.6,1.3-1.3S63.7,102,63,102c-0.7,0-1.3,0.6-1.3,1.3c0,0,0,0,0,0
						C61.7,104,62.3,104.6,63,104.6C63,104.6,63,104.6,63,104.6"/>
					<path id="Path_5582" class="st10" d="M68.2,104.6c0.7,0,1.3-0.6,1.3-1.3s-0.6-1.3-1.3-1.3c-0.7,0-1.3,0.6-1.3,1.3c0,0,0,0,0,0
						C66.9,104,67.5,104.6,68.2,104.6C68.2,104.6,68.2,104.6,68.2,104.6"/>
					<path id="Path_5583" class="st10" d="M73.4,104.6c0.7,0,1.3-0.6,1.3-1.3s-0.6-1.3-1.3-1.3c-0.7,0-1.3,0.6-1.3,1.3c0,0,0,0,0,0
						C72.1,104,72.7,104.6,73.4,104.6C73.4,104.6,73.4,104.6,73.4,104.6"/>
					<path id="Path_5584" class="st10" d="M78.6,104.6c0.7,0,1.3-0.6,1.3-1.3s-0.6-1.3-1.3-1.3c-0.7,0-1.3,0.6-1.3,1.3c0,0,0,0,0,0
						C77.3,104,77.9,104.6,78.6,104.6C78.6,104.6,78.6,104.6,78.6,104.6"/>
					<path id="Path_5585" class="st10" d="M83.8,104.6c0.7,0,1.3-0.6,1.3-1.3s-0.6-1.3-1.3-1.3c-0.7,0-1.3,0.6-1.3,1.3c0,0,0,0,0,0
						C82.5,104,83.1,104.6,83.8,104.6C83.8,104.6,83.8,104.6,83.8,104.6"/>
					<path id="Path_5586" class="st10" d="M8.3,109.8c0.7,0,1.3-0.6,1.3-1.3c0-0.7-0.6-1.3-1.3-1.3c-0.7,0-1.3,0.6-1.3,1.3
						C7,109.2,7.6,109.8,8.3,109.8"/>
					<path id="Path_5587" class="st10" d="M13.5,109.8c0.7,0,1.3-0.6,1.3-1.3c0-0.7-0.6-1.3-1.3-1.3c-0.7,0-1.3,0.6-1.3,1.3
						C12.2,109.2,12.8,109.8,13.5,109.8"/>
					<path id="Path_5588" class="st10" d="M18.7,109.8c0.7,0,1.3-0.6,1.3-1.3c0-0.7-0.6-1.3-1.3-1.3c-0.7,0-1.3,0.6-1.3,1.3
						C17.4,109.2,18,109.8,18.7,109.8"/>
					<path id="Path_5589" class="st10" d="M23.9,109.8c0.7,0,1.3-0.6,1.3-1.3c0-0.7-0.6-1.3-1.3-1.3c-0.7,0-1.3,0.6-1.3,1.3
						C22.6,109.2,23.2,109.8,23.9,109.8"/>
					<path id="Path_5590" class="st10" d="M29.1,109.8c0.7,0,1.3-0.6,1.3-1.3c0-0.7-0.6-1.3-1.3-1.3c-0.7,0-1.3,0.6-1.3,1.3l0,0
						C27.8,109.2,28.4,109.8,29.1,109.8"/>
					<path id="Path_5591" class="st10" d="M34.3,109.8c0.7,0,1.3-0.6,1.3-1.3c0-0.7-0.6-1.3-1.3-1.3c-0.7,0-1.3,0.6-1.3,1.3l0,0
						C33,109.2,33.6,109.8,34.3,109.8"/>
					<path id="Path_5592" class="st10" d="M39.5,109.8c0.7,0,1.3-0.6,1.3-1.3c0-0.7-0.6-1.3-1.3-1.3c-0.7,0-1.3,0.6-1.3,1.3l0,0
						C38.2,109.2,38.8,109.8,39.5,109.8"/>
					<path id="Path_5593" class="st10" d="M44.7,109.8c0.7,0,1.3-0.6,1.3-1.3c0-0.7-0.6-1.3-1.3-1.3c-0.7,0-1.3,0.6-1.3,1.3l0,0
						C43.5,109.2,44,109.8,44.7,109.8"/>
					<path id="Path_5594" class="st10" d="M49.9,109.8c0.7,0,1.3-0.6,1.3-1.3c0-0.7-0.6-1.3-1.3-1.3c-0.7,0-1.3,0.6-1.3,1.3l0,0
						C48.7,109.2,49.2,109.8,49.9,109.8"/>
					<path id="Path_5595" class="st10" d="M55.2,109.8c0.7,0,1.3-0.6,1.3-1.3c0-0.7-0.6-1.3-1.3-1.3c-0.7,0-1.3,0.6-1.3,1.3l0,0
						C53.9,109.2,54.4,109.8,55.2,109.8"/>
					<path id="Path_5596" class="st10" d="M60.4,109.8c0.7,0,1.3-0.6,1.3-1.3c0-0.7-0.6-1.3-1.3-1.3c-0.7,0-1.3,0.6-1.3,1.3l0,0
						C59.1,109.2,59.7,109.8,60.4,109.8C60.4,109.8,60.4,109.8,60.4,109.8"/>
					<path id="Path_5597" class="st10" d="M65.6,109.8c0.7,0,1.3-0.6,1.3-1.3s-0.6-1.3-1.3-1.3c-0.7,0-1.3,0.6-1.3,1.3c0,0,0,0,0,0
						C64.3,109.2,64.9,109.8,65.6,109.8C65.6,109.8,65.6,109.8,65.6,109.8"/>
					<path id="Path_5598" class="st10" d="M70.8,109.8c0.7,0,1.3-0.6,1.3-1.3s-0.6-1.3-1.3-1.3c-0.7,0-1.3,0.6-1.3,1.3c0,0,0,0,0,0
						C69.5,109.2,70.1,109.8,70.8,109.8C70.8,109.8,70.8,109.8,70.8,109.8"/>
					<path id="Path_5599" class="st10" d="M76,109.8c0.7,0,1.3-0.6,1.3-1.3s-0.6-1.3-1.3-1.3c-0.7,0-1.3,0.6-1.3,1.3c0,0,0,0,0,0
						C74.7,109.2,75.3,109.8,76,109.8C76,109.8,76,109.8,76,109.8"/>
					<path id="Path_5600" class="st10" d="M81.2,109.8c0.7,0,1.3-0.6,1.3-1.3s-0.6-1.3-1.3-1.3c-0.7,0-1.3,0.6-1.3,1.3c0,0,0,0,0,0
						C79.9,109.2,80.5,109.8,81.2,109.8C81.2,109.8,81.2,109.8,81.2,109.8"/>
					<path id="Path_5601" class="st10" d="M10.9,115c0.7,0,1.3-0.6,1.3-1.3c0-0.7-0.6-1.3-1.3-1.3c-0.7,0-1.3,0.6-1.3,1.3
						C9.6,114.4,10.2,115,10.9,115"/>
					<path id="Path_5602" class="st10" d="M16.1,115c0.7,0,1.3-0.6,1.3-1.3c0-0.7-0.6-1.3-1.3-1.3c-0.7,0-1.3,0.6-1.3,1.3
						C14.8,114.4,15.4,115,16.1,115"/>
					<path id="Path_5603" class="st10" d="M21.3,115c0.7,0,1.3-0.6,1.3-1.3c0-0.7-0.6-1.3-1.3-1.3c-0.7,0-1.3,0.6-1.3,1.3
						C20,114.4,20.6,115,21.3,115"/>
					<path id="Path_5604" class="st10" d="M26.5,115c0.7,0,1.3-0.6,1.3-1.3c0-0.7-0.6-1.3-1.3-1.3c-0.7,0-1.3,0.6-1.3,1.3l0,0
						C25.2,114.4,25.8,115,26.5,115"/>
					<path id="Path_5605" class="st10" d="M31.7,115c0.7,0,1.3-0.6,1.3-1.3c0-0.7-0.6-1.3-1.3-1.3c-0.7,0-1.3,0.6-1.3,1.3l0,0
						C30.4,114.4,31,115,31.7,115"/>
					<path id="Path_5606" class="st10" d="M36.9,115c0.7,0,1.3-0.6,1.3-1.3c0-0.7-0.6-1.3-1.3-1.3c-0.7,0-1.3,0.6-1.3,1.3l0,0
						C35.6,114.4,36.2,115,36.9,115"/>
					<path id="Path_5607" class="st10" d="M42.1,115c0.7,0,1.3-0.6,1.3-1.3c0-0.7-0.6-1.3-1.3-1.3c-0.7,0-1.3,0.6-1.3,1.3l0,0
						C40.8,114.4,41.4,115,42.1,115"/>
					<path id="Path_5608" class="st10" d="M47.3,115c0.7,0,1.3-0.6,1.3-1.3c0-0.7-0.6-1.3-1.3-1.3c-0.7,0-1.3,0.6-1.3,1.3l0,0
						C46.1,114.4,46.6,115,47.3,115"/>
					<path id="Path_5609" class="st10" d="M52.6,115c0.7,0,1.3-0.6,1.3-1.3c0-0.7-0.6-1.3-1.3-1.3c-0.7,0-1.3,0.6-1.3,1.3l0,0
						C51.3,114.4,51.8,115,52.6,115"/>
					<path id="Path_5610" class="st10" d="M57.8,115c0.7,0,1.3-0.6,1.3-1.3c0-0.7-0.6-1.3-1.3-1.3c-0.7,0-1.3,0.6-1.3,1.3l0,0
						C56.5,114.4,57,115,57.8,115"/>
					<path id="Path_5611" class="st10" d="M63,115c0.7,0,1.3-0.6,1.3-1.3s-0.6-1.3-1.3-1.3c-0.7,0-1.3,0.6-1.3,1.3c0,0,0,0,0,0
						C61.7,114.4,62.3,115,63,115C63,115,63,115,63,115"/>
					<path id="Path_5612" class="st10" d="M68.2,115c0.7,0,1.3-0.6,1.3-1.3s-0.6-1.3-1.3-1.3c-0.7,0-1.3,0.6-1.3,1.3c0,0,0,0,0,0
						C66.9,114.4,67.5,115,68.2,115C68.2,115,68.2,115,68.2,115"/>
					<path id="Path_5613" class="st10" d="M73.4,115c0.7,0,1.3-0.6,1.3-1.3s-0.6-1.3-1.3-1.3c-0.7,0-1.3,0.6-1.3,1.3c0,0,0,0,0,0
						C72.1,114.4,72.7,115,73.4,115C73.4,115,73.4,115,73.4,115"/>
					<path id="Path_5614" class="st10" d="M78.6,115c0.7,0,1.3-0.6,1.3-1.3s-0.6-1.3-1.3-1.3c-0.7,0-1.3,0.6-1.3,1.3c0,0,0,0,0,0
						C77.3,114.4,77.9,115,78.6,115C78.6,115,78.6,115,78.6,115"/>
					<path id="Path_5615" class="st10" d="M8.3,120.2c0.7,0,1.3-0.6,1.3-1.3c0-0.7-0.6-1.3-1.3-1.3c-0.7,0-1.3,0.6-1.3,1.3
						C7,119.7,7.6,120.2,8.3,120.2"/>
					<path id="Path_5616" class="st10" d="M13.5,120.2c0.7,0,1.3-0.6,1.3-1.3c0-0.7-0.6-1.3-1.3-1.3c-0.7,0-1.3,0.6-1.3,1.3
						C12.2,119.7,12.8,120.2,13.5,120.2"/>
					<path id="Path_5617" class="st10" d="M18.7,120.2c0.7,0,1.3-0.6,1.3-1.3c0-0.7-0.6-1.3-1.3-1.3c-0.7,0-1.3,0.6-1.3,1.3
						C17.4,119.7,18,120.2,18.7,120.2"/>
					<path id="Path_5618" class="st10" d="M23.9,120.2c0.7,0,1.3-0.6,1.3-1.3c0-0.7-0.6-1.3-1.3-1.3c-0.7,0-1.3,0.6-1.3,1.3
						C22.6,119.7,23.2,120.2,23.9,120.2"/>
					<path id="Path_5619" class="st10" d="M29.1,120.2c0.7,0,1.3-0.6,1.3-1.3c0-0.7-0.6-1.3-1.3-1.3c-0.7,0-1.3,0.6-1.3,1.3l0,0
						C27.8,119.7,28.4,120.2,29.1,120.2"/>
					<path id="Path_5620" class="st10" d="M34.3,120.2c0.7,0,1.3-0.6,1.3-1.3c0-0.7-0.6-1.3-1.3-1.3c-0.7,0-1.3,0.6-1.3,1.3l0,0
						C33,119.7,33.6,120.2,34.3,120.2"/>
					<path id="Path_5621" class="st10" d="M39.5,120.2c0.7,0,1.3-0.6,1.3-1.3c0-0.7-0.6-1.3-1.3-1.3c-0.7,0-1.3,0.6-1.3,1.3l0,0
						C38.2,119.7,38.8,120.2,39.5,120.2"/>
					<path id="Path_5622" class="st10" d="M44.7,120.2c0.7,0,1.3-0.6,1.3-1.3c0-0.7-0.6-1.3-1.3-1.3c-0.7,0-1.3,0.6-1.3,1.3l0,0
						C43.5,119.7,44,120.2,44.7,120.2"/>
					<path id="Path_5623" class="st10" d="M49.9,120.2c0.7,0,1.3-0.6,1.3-1.3c0-0.7-0.6-1.3-1.3-1.3c-0.7,0-1.3,0.6-1.3,1.3l0,0
						C48.7,119.7,49.2,120.2,49.9,120.2"/>
					<path id="Path_5624" class="st10" d="M55.2,120.2c0.7,0,1.3-0.6,1.3-1.3c0-0.7-0.6-1.3-1.3-1.3c-0.7,0-1.3,0.6-1.3,1.3l0,0
						C53.9,119.7,54.4,120.2,55.2,120.2"/>
					<path id="Path_5625" class="st10" d="M60.4,120.2c0.7,0,1.3-0.6,1.3-1.3c0-0.7-0.6-1.3-1.3-1.3c-0.7,0-1.3,0.6-1.3,1.3l0,0
						C59.1,119.7,59.7,120.2,60.4,120.2C60.4,120.2,60.4,120.2,60.4,120.2"/>
					<path id="Path_5626" class="st10" d="M65.6,120.2c0.7,0,1.3-0.6,1.3-1.3s-0.6-1.3-1.3-1.3c-0.7,0-1.3,0.6-1.3,1.3c0,0,0,0,0,0
						C64.3,119.7,64.9,120.2,65.6,120.2C65.6,120.2,65.6,120.2,65.6,120.2"/>
					<path id="Path_5627" class="st10" d="M70.8,120.2c0.7,0,1.3-0.6,1.3-1.3s-0.6-1.3-1.3-1.3c-0.7,0-1.3,0.6-1.3,1.3c0,0,0,0,0,0
						C69.5,119.7,70.1,120.2,70.8,120.2C70.8,120.2,70.8,120.2,70.8,120.2"/>
					<path id="Path_5628" class="st10" d="M76,120.2c0.7,0,1.3-0.6,1.3-1.3s-0.6-1.3-1.3-1.3c-0.7,0-1.3,0.6-1.3,1.3c0,0,0,0,0,0
						C74.7,119.7,75.3,120.2,76,120.2C76,120.2,76,120.2,76,120.2"/>
					<path id="Path_5629" class="st10" d="M10.9,125.4c0.7,0,1.3-0.6,1.3-1.3c0-0.7-0.6-1.3-1.3-1.3c-0.7,0-1.3,0.6-1.3,1.3
						C9.6,124.9,10.2,125.4,10.9,125.4"/>
					<path id="Path_5630" class="st10" d="M16.1,125.4c0.7,0,1.3-0.6,1.3-1.3c0-0.7-0.6-1.3-1.3-1.3c-0.7,0-1.3,0.6-1.3,1.3
						C14.8,124.9,15.4,125.4,16.1,125.4"/>
					<path id="Path_5631" class="st10" d="M21.3,125.4c0.7,0,1.3-0.6,1.3-1.3c0-0.7-0.6-1.3-1.3-1.3c-0.7,0-1.3,0.6-1.3,1.3
						C20,124.9,20.6,125.4,21.3,125.4"/>
					<path id="Path_5632" class="st10" d="M26.5,125.4c0.7,0,1.3-0.6,1.3-1.3c0-0.7-0.6-1.3-1.3-1.3c-0.7,0-1.3,0.6-1.3,1.3l0,0
						C25.2,124.9,25.8,125.4,26.5,125.4"/>
					<path id="Path_5633" class="st10" d="M31.7,125.4c0.7,0,1.3-0.6,1.3-1.3c0-0.7-0.6-1.3-1.3-1.3c-0.7,0-1.3,0.6-1.3,1.3l0,0
						C30.4,124.9,31,125.4,31.7,125.4"/>
					<path id="Path_5634" class="st10" d="M36.9,125.4c0.7,0,1.3-0.6,1.3-1.3c0-0.7-0.6-1.3-1.3-1.3c-0.7,0-1.3,0.6-1.3,1.3l0,0
						C35.6,124.9,36.2,125.4,36.9,125.4"/>
					<path id="Path_5635" class="st10" d="M42.1,125.4c0.7,0,1.3-0.6,1.3-1.3c0-0.7-0.6-1.3-1.3-1.3c-0.7,0-1.3,0.6-1.3,1.3l0,0
						C40.8,124.9,41.4,125.4,42.1,125.4"/>
					<path id="Path_5636" class="st10" d="M47.3,125.4c0.7,0,1.3-0.6,1.3-1.3c0-0.7-0.6-1.3-1.3-1.3c-0.7,0-1.3,0.6-1.3,1.3l0,0
						C46.1,124.9,46.6,125.4,47.3,125.4"/>
					<path id="Path_5637" class="st10" d="M52.6,125.4c0.7,0,1.3-0.6,1.3-1.3c0-0.7-0.6-1.3-1.3-1.3c-0.7,0-1.3,0.6-1.3,1.3l0,0
						C51.3,124.9,51.8,125.4,52.6,125.4"/>
					<path id="Path_5638" class="st10" d="M57.8,125.4c0.7,0,1.3-0.6,1.3-1.3c0-0.7-0.6-1.3-1.3-1.3c-0.7,0-1.3,0.6-1.3,1.3l0,0
						C56.5,124.9,57,125.4,57.8,125.4"/>
					<path id="Path_5639" class="st10" d="M63,125.4c0.7,0,1.3-0.6,1.3-1.3s-0.6-1.3-1.3-1.3c-0.7,0-1.3,0.6-1.3,1.3c0,0,0,0,0,0
						C61.7,124.9,62.3,125.4,63,125.4C63,125.4,63,125.4,63,125.4"/>
					<path id="Path_5640" class="st10" d="M68.2,125.4c0.7,0,1.3-0.6,1.3-1.3s-0.6-1.3-1.3-1.3c-0.7,0-1.3,0.6-1.3,1.3c0,0,0,0,0,0
						C66.9,124.9,67.5,125.4,68.2,125.4C68.2,125.4,68.2,125.4,68.2,125.4"/>
					<path id="Path_5641" class="st10" d="M73.4,125.4c0.7,0,1.3-0.6,1.3-1.3s-0.6-1.3-1.3-1.3c-0.7,0-1.3,0.6-1.3,1.3c0,0,0,0,0,0
						C72.1,124.9,72.7,125.4,73.4,125.4C73.4,125.4,73.4,125.4,73.4,125.4"/>
					<path id="Path_5642" class="st10" d="M78.6,125.4c0.7,0,1.3-0.6,1.3-1.3s-0.6-1.3-1.3-1.3c-0.7,0-1.3,0.6-1.3,1.3c0,0,0,0,0,0
						C77.3,124.9,77.9,125.4,78.6,125.4C78.6,125.4,78.6,125.4,78.6,125.4"/>
					<path id="Path_5643" class="st10" d="M8.3,130.6c0.7,0,1.3-0.6,1.3-1.3c0-0.7-0.6-1.3-1.3-1.3c-0.7,0-1.3,0.6-1.3,1.3
						C7,130.1,7.6,130.6,8.3,130.6"/>
					<path id="Path_5644" class="st10" d="M13.5,130.6c0.7,0,1.3-0.6,1.3-1.3c0-0.7-0.6-1.3-1.3-1.3c-0.7,0-1.3,0.6-1.3,1.3
						C12.2,130.1,12.8,130.6,13.5,130.6"/>
					<path id="Path_5645" class="st10" d="M18.7,130.6c0.7,0,1.3-0.6,1.3-1.3c0-0.7-0.6-1.3-1.3-1.3c-0.7,0-1.3,0.6-1.3,1.3
						C17.4,130.1,18,130.6,18.7,130.6"/>
					<path id="Path_5646" class="st10" d="M23.9,130.6c0.7,0,1.3-0.6,1.3-1.3c0-0.7-0.6-1.3-1.3-1.3c-0.7,0-1.3,0.6-1.3,1.3
						C22.6,130.1,23.2,130.6,23.9,130.6"/>
					<path id="Path_5647" class="st10" d="M29.1,130.6c0.7,0,1.3-0.6,1.3-1.3c0-0.7-0.6-1.3-1.3-1.3c-0.7,0-1.3,0.6-1.3,1.3l0,0
						C27.8,130.1,28.4,130.6,29.1,130.6"/>
					<path id="Path_5648" class="st10" d="M34.3,130.6c0.7,0,1.3-0.6,1.3-1.3c0-0.7-0.6-1.3-1.3-1.3c-0.7,0-1.3,0.6-1.3,1.3l0,0
						C33,130.1,33.6,130.6,34.3,130.6"/>
					<path id="Path_5649" class="st10" d="M39.5,130.6c0.7,0,1.3-0.6,1.3-1.3c0-0.7-0.6-1.3-1.3-1.3c-0.7,0-1.3,0.6-1.3,1.3l0,0
						C38.2,130.1,38.8,130.6,39.5,130.6"/>
					<path id="Path_5650" class="st10" d="M44.7,130.6c0.7,0,1.3-0.6,1.3-1.3c0-0.7-0.6-1.3-1.3-1.3c-0.7,0-1.3,0.6-1.3,1.3l0,0
						C43.5,130.1,44,130.6,44.7,130.6"/>
					<path id="Path_5651" class="st10" d="M49.9,130.6c0.7,0,1.3-0.6,1.3-1.3c0-0.7-0.6-1.3-1.3-1.3c-0.7,0-1.3,0.6-1.3,1.3l0,0
						C48.7,130.1,49.2,130.6,49.9,130.6"/>
					<path id="Path_5652" class="st10" d="M55.2,130.6c0.7,0,1.3-0.6,1.3-1.3c0-0.7-0.6-1.3-1.3-1.3c-0.7,0-1.3,0.6-1.3,1.3l0,0
						C53.9,130.1,54.4,130.6,55.2,130.6"/>
					<path id="Path_5653" class="st10" d="M60.4,130.6c0.7,0,1.3-0.6,1.3-1.3c0-0.7-0.6-1.3-1.3-1.3c-0.7,0-1.3,0.6-1.3,1.3l0,0
						C59.1,130.1,59.7,130.6,60.4,130.6C60.4,130.6,60.4,130.6,60.4,130.6"/>
					<path id="Path_5654" class="st10" d="M65.6,130.6c0.7,0,1.3-0.6,1.3-1.3s-0.6-1.3-1.3-1.3c-0.7,0-1.3,0.6-1.3,1.3c0,0,0,0,0,0
						C64.3,130.1,64.9,130.6,65.6,130.6C65.6,130.6,65.6,130.6,65.6,130.6"/>
					<path id="Path_5655" class="st10" d="M70.8,130.6c0.7,0,1.3-0.6,1.3-1.3s-0.6-1.3-1.3-1.3c-0.7,0-1.3,0.6-1.3,1.3c0,0,0,0,0,0
						C69.5,130.1,70.1,130.6,70.8,130.6C70.8,130.6,70.8,130.6,70.8,130.6"/>
					<path id="Path_5656" class="st10" d="M76,130.6c0.7,0,1.3-0.6,1.3-1.3s-0.6-1.3-1.3-1.3c-0.7,0-1.3,0.6-1.3,1.3c0,0,0,0,0,0
						C74.7,130.1,75.3,130.6,76,130.6C76,130.6,76,130.6,76,130.6"/>
					<path id="Path_5657" class="st10" d="M26.5,135.9c0.7,0,1.3-0.6,1.3-1.3c0-0.7-0.6-1.3-1.3-1.3c-0.7,0-1.3,0.6-1.3,1.3l0,0
						C25.2,135.3,25.8,135.9,26.5,135.9"/>
					<path id="Path_5658" class="st10" d="M31.7,135.9c0.7,0,1.3-0.6,1.3-1.3c0-0.7-0.6-1.3-1.3-1.3c-0.7,0-1.3,0.6-1.3,1.3l0,0
						C30.4,135.3,31,135.9,31.7,135.9"/>
					<path id="Path_5659" class="st10" d="M36.9,135.9c0.7,0,1.3-0.6,1.3-1.3c0-0.7-0.6-1.3-1.3-1.3c-0.7,0-1.3,0.6-1.3,1.3l0,0
						C35.6,135.3,36.2,135.9,36.9,135.9"/>
					<path id="Path_5660" class="st10" d="M42.1,135.9c0.7,0,1.3-0.6,1.3-1.3c0-0.7-0.6-1.3-1.3-1.3c-0.7,0-1.3,0.6-1.3,1.3l0,0
						C40.8,135.3,41.4,135.9,42.1,135.9"/>
					<path id="Path_5661" class="st10" d="M47.3,135.9c0.7,0,1.3-0.6,1.3-1.3c0-0.7-0.6-1.3-1.3-1.3c-0.7,0-1.3,0.6-1.3,1.3l0,0
						C46.1,135.3,46.6,135.9,47.3,135.9"/>
					<path id="Path_5662" class="st10" d="M52.6,135.9c0.7,0,1.3-0.6,1.3-1.3c0-0.7-0.6-1.3-1.3-1.3c-0.7,0-1.3,0.6-1.3,1.3l0,0
						C51.3,135.3,51.8,135.9,52.6,135.9"/>
					<path id="Path_5663" class="st10" d="M57.8,135.9c0.7,0,1.3-0.6,1.3-1.3c0-0.7-0.6-1.3-1.3-1.3c-0.7,0-1.3,0.6-1.3,1.3l0,0
						C56.5,135.3,57,135.9,57.8,135.9"/>
					<path id="Path_5664" class="st10" d="M63,135.9c0.7,0,1.3-0.6,1.3-1.3s-0.6-1.3-1.3-1.3c-0.7,0-1.3,0.6-1.3,1.3c0,0,0,0,0,0
						C61.7,135.3,62.3,135.9,63,135.9C63,135.9,63,135.9,63,135.9"/>
					<path id="Path_5665" class="st10" d="M68.2,135.9c0.7,0,1.3-0.6,1.3-1.3s-0.6-1.3-1.3-1.3c-0.7,0-1.3,0.6-1.3,1.3c0,0,0,0,0,0
						C66.9,135.3,67.5,135.9,68.2,135.9C68.2,135.9,68.2,135.9,68.2,135.9"/>
					<path id="Path_5666" class="st10" d="M23.9,141.1c0.7,0,1.3-0.6,1.3-1.3c0-0.7-0.6-1.3-1.3-1.3c-0.7,0-1.3,0.6-1.3,1.3
						C22.6,140.5,23.2,141.1,23.9,141.1"/>
					<path id="Path_5667" class="st10" d="M29.1,141.1c0.7,0,1.3-0.6,1.3-1.3c0-0.7-0.6-1.3-1.3-1.3c-0.7,0-1.3,0.6-1.3,1.3l0,0
						C27.8,140.5,28.4,141.1,29.1,141.1"/>
					<path id="Path_5668" class="st10" d="M34.3,141.1c0.7,0,1.3-0.6,1.3-1.3c0-0.7-0.6-1.3-1.3-1.3c-0.7,0-1.3,0.6-1.3,1.3l0,0
						C33,140.5,33.6,141.1,34.3,141.1"/>
					<path id="Path_5669" class="st10" d="M39.5,141.1c0.7,0,1.3-0.6,1.3-1.3c0-0.7-0.6-1.3-1.3-1.3c-0.7,0-1.3,0.6-1.3,1.3l0,0
						C38.2,140.5,38.8,141.1,39.5,141.1"/>
					<path id="Path_5670" class="st10" d="M44.7,141.1c0.7,0,1.3-0.6,1.3-1.3c0-0.7-0.6-1.3-1.3-1.3c-0.7,0-1.3,0.6-1.3,1.3l0,0
						C43.5,140.5,44,141.1,44.7,141.1"/>
					<path id="Path_5671" class="st10" d="M49.9,141.1c0.7,0,1.3-0.6,1.3-1.3c0-0.7-0.6-1.3-1.3-1.3c-0.7,0-1.3,0.6-1.3,1.3l0,0
						C48.7,140.5,49.2,141.1,49.9,141.1"/>
					<path id="Path_5672" class="st10" d="M55.2,141.1c0.7,0,1.3-0.6,1.3-1.3c0-0.7-0.6-1.3-1.3-1.3c-0.7,0-1.3,0.6-1.3,1.3l0,0
						C53.9,140.5,54.4,141.1,55.2,141.1"/>
					<path id="Path_5673" class="st10" d="M60.4,141.1c0.7,0,1.3-0.6,1.3-1.3c0-0.7-0.6-1.3-1.3-1.3c-0.7,0-1.3,0.6-1.3,1.3l0,0
						C59.1,140.5,59.7,141.1,60.4,141.1C60.4,141.1,60.4,141.1,60.4,141.1"/>
					<path id="Path_5674" class="st10" d="M26.5,146.3c0.7,0,1.3-0.6,1.3-1.3c0-0.7-0.6-1.3-1.3-1.3c-0.7,0-1.3,0.6-1.3,1.3l0,0
						C25.2,145.7,25.8,146.3,26.5,146.3"/>
					<path id="Path_5675" class="st10" d="M31.7,146.3c0.7,0,1.3-0.6,1.3-1.3c0-0.7-0.6-1.3-1.3-1.3c-0.7,0-1.3,0.6-1.3,1.3l0,0
						C30.4,145.7,31,146.3,31.7,146.3"/>
					<path id="Path_5676" class="st10" d="M36.9,146.3c0.7,0,1.3-0.6,1.3-1.3c0-0.7-0.6-1.3-1.3-1.3c-0.7,0-1.3,0.6-1.3,1.3l0,0
						C35.6,145.7,36.2,146.3,36.9,146.3"/>
					<path id="Path_5677" class="st10" d="M42.1,146.3c0.7,0,1.3-0.6,1.3-1.3c0-0.7-0.6-1.3-1.3-1.3c-0.7,0-1.3,0.6-1.3,1.3l0,0
						C40.8,145.7,41.4,146.3,42.1,146.3"/>
					<path id="Path_5678" class="st10" d="M47.3,146.3c0.7,0,1.3-0.6,1.3-1.3c0-0.7-0.6-1.3-1.3-1.3c-0.7,0-1.3,0.6-1.3,1.3l0,0
						C46.1,145.7,46.6,146.3,47.3,146.3"/>
					<path id="Path_5679" class="st10" d="M52.6,146.3c0.7,0,1.3-0.6,1.3-1.3c0-0.7-0.6-1.3-1.3-1.3c-0.7,0-1.3,0.6-1.3,1.3l0,0
						C51.3,145.7,51.8,146.3,52.6,146.3"/>
					<path id="Path_5680" class="st10" d="M57.8,146.3c0.7,0,1.3-0.6,1.3-1.3c0-0.7-0.6-1.3-1.3-1.3c-0.7,0-1.3,0.6-1.3,1.3l0,0
						C56.5,145.7,57,146.3,57.8,146.3"/>
					<path id="Path_5681" class="st10" d="M63,146.3c0.7,0,1.3-0.6,1.3-1.3s-0.6-1.3-1.3-1.3c-0.7,0-1.3,0.6-1.3,1.3c0,0,0,0,0,0
						C61.7,145.7,62.3,146.3,63,146.3C63,146.3,63,146.3,63,146.3"/>
					<path id="Path_5682" class="st10" d="M29.1,151.5c0.7,0,1.3-0.6,1.3-1.3c0-0.7-0.6-1.3-1.3-1.3c-0.7,0-1.3,0.6-1.3,1.3l0,0
						C27.8,150.9,28.4,151.5,29.1,151.5"/>
					<path id="Path_5683" class="st10" d="M34.3,151.5c0.7,0,1.3-0.6,1.3-1.3c0-0.7-0.6-1.3-1.3-1.3c-0.7,0-1.3,0.6-1.3,1.3l0,0
						C33,150.9,33.6,151.5,34.3,151.5"/>
					<path id="Path_5684" class="st10" d="M39.5,151.5c0.7,0,1.3-0.6,1.3-1.3c0-0.7-0.6-1.3-1.3-1.3c-0.7,0-1.3,0.6-1.3,1.3l0,0
						C38.2,150.9,38.8,151.5,39.5,151.5"/>
					<path id="Path_5685" class="st10" d="M44.7,151.5c0.7,0,1.3-0.6,1.3-1.3c0-0.7-0.6-1.3-1.3-1.3c-0.7,0-1.3,0.6-1.3,1.3l0,0
						C43.5,150.9,44,151.5,44.7,151.5"/>
					<path id="Path_5686" class="st10" d="M49.9,151.5c0.7,0,1.3-0.6,1.3-1.3c0-0.7-0.6-1.3-1.3-1.3c-0.7,0-1.3,0.6-1.3,1.3l0,0
						C48.7,150.9,49.2,151.5,49.9,151.5"/>
					<path id="Path_5687" class="st10" d="M55.2,151.5c0.7,0,1.3-0.6,1.3-1.3c0-0.7-0.6-1.3-1.3-1.3c-0.7,0-1.3,0.6-1.3,1.3l0,0
						C53.9,150.9,54.4,151.5,55.2,151.5"/>
					<rect id="Rectangle_743" x="-25.9" y="-13.9" width="0.2" height="2.9"/>
					<path id="Path_5688" class="st10" d="M42.2,45c0.3-0.3,0.8-0.1,0.7,0.1c0.4-0.8,0.7-0.3,0.3-1.2c0.2-0.6,0.9-0.4,0.7,0.2
						l0.9-1.2l-0.8,0.3c-0.2-0.8,1.3-0.5,1-1.4l-1.2,0.9l-0.1-0.3c-0.2,0.4-0.6,0.6-1,0.7c0-0.1-0.2-0.3,0-0.5
						c-1.6,0.9,0.3,1.4-0.8,2.4C41.9,45.1,42,45,42.2,45"/>
					<path id="Path_5689" class="st10" d="M39.8,44.2l0,1.2l-1,0.4c0.2,0.3-0.3,0.9,0.3,0.9c0.1-0.1,0.2-0.3,0.3-0.4
						c0.3,0.7-1,1.1-0.3,1.5c0.6-0.6,0.8-0.5,0.9-1.3c0.5-0.3,1.1-0.5,1.7-0.5c0.1-0.2-0.1-0.6,0.1-0.8c0,0-0.1,0.1-0.2,0.1L41,44.4
						c-0.1,0.3-0.3,0.4-0.5,0.5l0.3-1.8c-0.9-0.7-1.6,0.5-2.2,0.4C39.6,44,38.4,44.2,39.8,44.2"/>
					<path id="Path_5690" class="st10" d="M41.8,45.2L41.8,45.2L41.8,45.2z"/>
					<path id="Path_5691" class="st10" d="M-18.2,108.1c0,0.2,0.2,0.4,0.3,0.5c0,0,0.2-0.7,0.4-1.3s0.4-1.3,0.4-1.3
						c-0.3,0-0.9,0.7-0.9,0.1c-0.4,0.1-0.3,0.9,0,1.1l-0.4-0.3c0.4,0.8-0.8,0.9-1,0.4l0,0.1c0,0,0.4,0.6,0.8,1.2l0.8,1.1
						C-17.5,109-18.4,108.9-18.2,108.1"/>
					<path id="Path_5692" class="st10" d="M-16.1,164.8c-0.3-0.2-0.4-0.2-0.4-0.1C-16.4,164.8-16.3,164.8-16.1,164.8"/>
					<path id="Path_5693" class="st10" d="M-17.4,110.1l0.5,0.7C-17,110.5-17.2,110.3-17.4,110.1"/>
					<path id="Path_5694" class="st10" d="M-26.3,103.3c0,0-0.1,0-0.1,0l0.3,0.4v0C-26.2,103.6-26.3,103.5-26.3,103.3"/>
					<path id="Path_5695" class="st10" d="M-17,122.7c0,0.1,0,0.1,0,0.2C-16.9,122.8-16.9,122.7-17,122.7"/>
					<path id="Path_5696" class="st10" d="M-27.3,94.1l0.1,1.6c-0.2-0.3-0.4,0.4-0.6,0c0,0.1,0,0.6,0.2,0.6l0.1-0.3
						c0.6,1,1.1,0.7,1.3,2.1c0.8-0.5,0.4-1,0.2-1.5c0-0.1,0-0.3,0-0.4l-0.8-1.6L-27.3,94.1z"/>
					<path id="Path_5697" class="st10" d="M-25.7,149.1L-25.7,149.1C-25.8,149.1-25.8,149.1-25.7,149.1"/>
					<path id="Path_5698" class="st10" d="M-26.1,149.1l0.3,0C-26,149.1-26.2,148.8-26.1,149.1"/>
					<path id="Path_5699" class="st10" d="M-17.9,109.8c0.2,0.1,0.4,0.2,0.5,0.3l-0.4-0.5C-17.8,109.6-17.9,109.7-17.9,109.8"/>
					<path id="Path_5700" class="st10" d="M-19.6,108.3l0.2-1.1l-0.3-0.5C-19.8,107.3-19.7,107.8-19.6,108.3"/>
					<path id="Path_5701" class="st10" d="M-16.3,121.2c-0.1,2.1-1-0.6-1.4,0.3c0.1,0.6,0.6,0.8,0.7,1.2c-0.3-1.7,1.6,0.4,1.5-1.3
						c0.6,0.2,0.9,1,0.7,1.6c0,0.1-0.1,0.1-0.1,0.2c-0.9,0.5-0.6-0.6-1.4-0.8c0.1,0.7,0.2,0.6,0.7,0.9c-0.3,1,0.9,2.2-0.3,2.7
						c0.2,0.8,0.6,0.7,1,1.2c0.9,0.1,0.5-1.1,1.3-1.3c-0.1,0.1-0.2,0.1-0.4,0.1l0.2-0.6c-0.4,0.6-0.9-0.1-1-0.5c0-0.2,0-0.7,0.2-0.6
						l0.2,0.4c0.3-0.4-0.6-1.1-0.1-1.5c0.2,0,0.3,0.2,0.4,0.2c-0.6-0.6-0.5-1.1-0.9-2l0.9,0.6c-1-0.7-0.5-2.2,0.2-3.1
						c-0.2,0.1-0.3,0.3-0.5,0.1c-0.1-0.3,0.1-0.7,0.5-0.7c0.2,0,0.4,0,0.5,0.1c-0.7-0.7,1-2,0.2-3c0,0-1-1.1-2-2.3s-1.9-2.4-1.9-2.4
						c0.1,0.2,0.1,0.3,0.1,0.5c-0.9,0.1-0.8,0.4-1.4-0.4c0.3,0.7,1,0.6,0.8,1.5c-0.3-0.4-1.2-0.7-1.5,0.1c0.3,2.3,2.4,4.1,3.3,6.2
						c-0.6,0-0.7,1.5-0.9,2.2c-0.5-0.3-0.8-0.9-0.8-1.5c-0.1,0.4-0.2,1-0.3,1.4L-16.3,121.2z"/>
					<path id="Path_5702" class="st10" d="M-17.7,116c-0.1,0-0.1,0.1-0.1,0.1C-17.8,116.1-17.7,116.1-17.7,116"/>
					<path id="Path_5703" class="st10" d="M-17.3,119.2C-17.3,119.2-17.3,119.2-17.3,119.2l0,0.2C-17.3,119.3-17.3,119.3-17.3,119.2
						"/>
					<path id="Path_5704" class="st10" d="M-19.4,109.9c-0.1-0.2-0.2-0.3-0.3-0.4c0,0.1,0.1,0.2,0.1,0.3
						C-19.6,109.9-19.5,109.9-19.4,109.9"/>
					<path id="Path_5705" class="st10" d="M-18.2,109.8l0.2,0.1c0,0,0.1-0.1,0.1-0.1C-18,109.7-18.1,109.7-18.2,109.8"/>
					<path id="Path_5706" class="st10" d="M-22.6,128.9l0.1,0.2C-22.4,129-22.5,129-22.6,128.9"/>
					<path id="Path_5707" class="st10" d="M-17.6,123.4c0-0.7-0.9-0.2-0.8-1.2l-0.1,0.3c-0.3-0.8,0-2.1,0.1-3
						c0.4,0.1,0.5-0.5,1.1-0.3c0-0.6-0.2-1.2-0.6-1.6c0.3-0.3-0.2-1,0.2-1.4c-0.4,0.1-1.1-0.9-0.8,0.3c0-0.1-0.1-0.1-0.2-0.2
						c-0.6,0.7,0.2,1.1,0.1,1.8c-0.4,0.3-0.5-0.7-0.7-0.4c0.2,0.9-0.8,2.5,0.5,2.6c0,0.6-0.3,0.6-0.5,0.8c1.3,1.1-0.9,3.4,0.9,3.5
						c0-0.5-0.1-1-0.3-1.4L-17.6,123.4z"/>
					<path id="Path_5708" class="st10" d="M-19.7,111.2c0,0,0,0.1-0.1,0.1C-19.7,111.3-19.7,111.2-19.7,111.2"/>
					<path id="Path_5709" class="st10" d="M-12,103.6l1,0.7c-0.1,0.7-0.3,1.3-0.6,1.9c-0.3,0.6-0.5,1.2-0.7,1.8
						c-0.2,0.1-0.2-0.1-0.3-0.2c-0.2,1-0.8,2.4-0.5,3.3c-0.1,0.3-0.7,1.1-0.9,0.7c0.1,0.2,0.1,0.4,0,0.6c-0.4-0.1,0-0.4-0.4-0.5
						c-0.1,0.1-0.2,0.2,0,0.2c-0.3-0.3-1.5-0.1-1.2-1.2c1.1-0.2-0.1,0.8,1,0.8c0.1-0.4-0.3-0.4-0.4-0.5c0.1-0.5,0.4-0.4,0.6-0.3
						c-0.3-0.3,0.3-0.7-0.1-1.1c0.2-0.9,0.8,0.3,0.9-0.3l-1-0.6l0.5-0.9c0.1-1.6-1.9-0.3-2-2.3c0.5,0.4,1.6,0,2.1-0.7
						c-0.1,0.5,0.3,1.6-0.2,2.1c1.1-0.6-0.3,1.2,0.8,1c-0.2-0.3-0.2-0.6-0.2-0.9c0.1-0.3,0.2-0.6,0.4-0.9l0,0.2c0.3-0.6-0.7-1.3,0-2
						c0.1-0.4,0.4-0.2,0.6-0.1C-12.1,103.9-12.2,103.5-12,103.6 M-12.1,104.5l-0.3,0.5C-12.1,105-12.1,104.8-12.1,104.5"/>
					<path id="Path_5710" class="st10" d="M32.9,48.9l0.2,0C33,48.9,32.9,48.9,32.9,48.9"/>
					<path id="Path_5711" class="st10" d="M-12.4,78.3l0.4-0.3C-12.2,78.1-12.3,78.2-12.4,78.3"/>
					<path id="Path_5712" class="st10" d="M-7.5,70l0.3-0.5C-7.4,69.6-7.5,69.8-7.5,70"/>
					<path id="Path_5713" class="st10" d="M29.4,51.1L29.4,51.1C29.4,51.2,29.4,51.2,29.4,51.1L29.4,51.1z"/>
					<path id="Path_5714" class="st10" d="M7,63.4c0.1,0,0.2,0.1,0.4,0.1C7.3,63.4,7.2,63.4,7,63.4"/>
					<path id="Path_5715" class="st10" d="M-7.6,70.1L-7.6,70.1L-7.6,70.1L-7.6,70.1z"/>
					<path id="Path_5716" class="st10" d="M-17.7,79.4c0,0.1-0.1,0.2-0.1,0.3C-17.8,79.6-17.7,79.5-17.7,79.4"/>
					<path id="Path_5717" class="st10" d="M-14.9,80.9c0,0.1-0.1,0.2-0.1,0.3L-14.9,80.9z"/>
					<path id="Path_5718" class="st10" d="M-23.8,91.5l-0.1,0.5C-23.8,91.9-23.8,91.7-23.8,91.5"/>
					<path id="Path_5719" class="st10" d="M-16.4,81.6c0,0.1,0,0.1,0.1,0.2C-16.3,81.7-16.3,81.6-16.4,81.6"/>
					<path id="Path_5720" class="st10" d="M37.2,50.1L37.2,50.1l0,0.1L37.2,50.1z"/>
					<path id="Path_5721" class="st10" d="M37.2,48.1l0.3-0.3C37.4,47.9,37.3,48,37.2,48.1"/>
					<path id="Path_5722" class="st10" d="M13.7,61.3c0.2,0.1,0.5,0.1,0.5,0.3C14.3,61.3,14,60.8,13.7,61.3"/>
					<path id="Path_5723" class="st10" d="M39.1,57.1c0-0.2,0-0.3,0-0.5C39,56.8,39,57,39.1,57.1"/>
					<path id="Path_5724" class="st10" d="M39.1,56.6c0-0.1,0.1-0.2,0.1-0.3C39.1,56.4,39.1,56.5,39.1,56.6"/>
					<path id="Path_5725" class="st10" d="M15.9,70.7c-0.1,0-0.1-0.1-0.2-0.1C15.8,70.8,15.9,70.8,15.9,70.7"/>
					<path id="Path_5726" class="st10" d="M37.9,47.8c-0.1-0.3,1.1-1.7-0.2-1c-0.4-0.7,0.6-0.8,0.8-1.2c-0.3,0-0.2-0.5-0.4-0.7
						c-0.1,0.2-0.2,0.5-0.5,0.7c-0.3-0.2,0-0.7,0.4-0.8c-0.6-0.1,0.2-0.9-0.6-0.8c-1.1,0.8-1.8,2.1-2,3.4c0.5-0.7,1.2-1.2,2-1.4
						l0.1,0.8c-1-0.1-1.1,0.5-1.8,0.9l1.6-0.6c1,0.1,0.6,0.5,0.2,0.9C37.6,47.7,37.8,47.7,37.9,47.8"/>
					<path id="Path_5727" class="st10" d="M40.3,53.6L40.3,53.6C40.4,53.5,40.4,53.5,40.3,53.6L40.3,53.6z"/>
					<path id="Path_5728" class="st10" d="M-10.7,97.2l0.2,0.2C-10.6,97.3-10.6,97.3-10.7,97.2"/>
					<path id="Path_5729" class="st10" d="M37.6,51.3L37.6,51.3C37.6,51.3,37.6,51.3,37.6,51.3"/>
					<path id="Path_5730" class="st10" d="M-9.3,94.5L-9.3,94.5C-9.3,94.5-9.3,94.5-9.3,94.5"/>
					<path id="Path_5731" class="st10" d="M-22.2,86.2C-22.2,86.2-22.3,86.2-22.2,86.2C-22.3,86.3-22.3,86.3-22.2,86.2"/>
					<path id="Path_5732" class="st10" d="M-9.3,94.4C-9.3,94.4-9.3,94.4-9.3,94.4C-9.3,94.4-9.3,94.4-9.3,94.4"/>
					<path id="Path_5733" class="st10" d="M-1.4,81.7c-0.1,0-0.2-0.1-0.2-0.1C-1.6,81.7-1.5,81.7-1.4,81.7"/>
					<path id="Path_5734" class="st10" d="M-4.6,82.8L-4.6,82.8L-4.6,82.8z"/>
					<path id="Path_5735" class="st10" d="M11.3,59c-0.1,0.1-0.2,0.2-0.3,0.3C11.1,59.2,11.3,59.1,11.3,59"/>
					<path id="Path_5736" class="st10" d="M-9.2,94.5c0.1,0.1,0.1,0.2,0.2,0.2C-9.1,94.7-9.2,94.6-9.2,94.5"/>
					<path id="Path_5737" class="st10" d="M1,75.8l0,0.1c0,0,0,0,0.1,0L1,75.8z"/>
					<path id="Path_5738" class="st10" d="M2.8,75.2c0,0.1,0,0.2,0,0.3c0.4-0.6,1.5-1,1.2-1.7c-0.2,0.1-1.4,0.4-1.4-0.1
						c-0.3,0.4-1.1,0.4-1.2,0.6c0.8-0.1,0.4,0.5,0.2,1c-0.5,0.1-0.3-0.5-0.7-0.4L0,75.5L0.8,75L1,75.8c0,0,0-0.1,0-0.1
						C2.1,74.5,1.7,76.5,2.8,75.2"/>
					<path id="Path_5739" class="st10" d="M2.8,75.4c-0.1,0.1-0.1,0.2-0.1,0.3C2.8,75.7,2.8,75.6,2.8,75.4"/>
					<path id="Path_5740" class="st10" d="M8.7,73c0.1-0.1,0.1-0.2,0.2-0.2C8.8,72.8,8.7,72.9,8.7,73"/>
					<path id="Path_5741" class="st10" d="M-19.5,106.1c0.2,0,0.9-0.7,0.4-0.8l-0.4,0.7L-19.5,106.1z"/>
					<path id="Path_5742" class="st10" d="M21.5,61.1c-0.1,0-0.2,0.1-0.3,0.1c0,0,0,0.1,0,0.1C21.3,61.4,21.4,61.2,21.5,61.1"/>
					<path id="Path_5743" class="st10" d="M2.6,73.3c-0.1,0.1-0.1,0.2-0.1,0.4C2.6,73.6,2.7,73.4,2.6,73.3"/>
					<path id="Path_5744" class="st10" d="M22.2,62.2c0.2,0.1,0.4,0.2,0.6,0.3c0.2-0.1,0.2-0.5,0.4-0.7C23,62.1,22.6,62.3,22.2,62.2
						"/>
					<path id="Path_5745" class="st10" d="M23.2,61.8L23.2,61.8C23.2,61.9,23.2,61.9,23.2,61.8"/>
					<path id="Path_5746" class="st10" d="M-19.8,106.5l0,0.3L-19.8,106.5l-0.4,0.6c0,0.1,0,0.2,0,0.3c0,0-0.1-0.1-0.1-0.1l-0.1,0.2
						c0.3,0.8,0.6,1.5,0.8,2.3c0.1,0.5,0.1,0.9,0,1.4c0.1-0.3,0.1-0.8-0.3-0.7c-0.5,0.6-1.5,0.7-0.9,2l0.1-0.7l0.9,1.7
						c-0.6,0.4-0.5-0.9-0.8-1.2c0.3,1.3-1.4,1.9-0.5,2.6c-0.6,0-1.7-0.1-1.8,0.7c0.8-0.4,0.4,0.5,1.2,0.2c0.3,0.3-0.4,0.8,0.1,0.9
						l-0.2-0.1c-1.2,1.2,0.3,1.8,0.7,2.4c0.1,1.6-0.4,2.2-0.4,3.5c-0.4,0-1.6,0.3-1.6,0.8c0.5,0.3,0.7,1.5,1.5,1.6
						c0.4-0.9-0.6-0.8-0.7-1.4c0.8-0.4,0.8,0,1.3-0.6c-0.3,0.5,0.2,2.3-0.5,2.8l-0.1-0.2c-0.5,0.8-2.3,1-1.3,2.5l0.4,0.7
						c-0.1,0-0.1,0-0.2-0.1c-0.1,1.2-0.9,0.9-0.3,2.1c-0.1-0.1-0.1,0-0.2-0.1c-0.4,0.7,0.4,1.5,0.6,2c-0.6,0.4-0.6-0.1-1.1-0.3
						c-0.2,1.3,0.9,2.6,1.7,3.4l-0.3,0.8c-0.3-0.5-1-1-1.3-0.8c0.2,0.4,0.4,0.3,0.4,1c-0.5-0.1-0.9-0.3-1.3-0.6
						c-0.6,1.4,1.4,0.2,0.3,1.2c0,0.4,0.6,0.6,1.1,0.6l-0.5,0.8c0.6,0,0.7,1,0.9,1.6c0.3,0,0.6-0.6,0.3-0.8c0.5,0,0.8,0.6,0.8,1
						c-1.3,0.3,0.5,2.7-1,2.4c0.7,1.8,1.2,4.5,1.9,5.6c-0.3,0.5-0.2,1.3-0.8,0.9c0.2,1.5,1.6,2.1,1.5,3.6c-0.1,0.1-0.1-0.7-0.5-0.5
						c0.7,0.9-0.2,1.9,0.4,3.3c-0.1-0.2-0.3-0.3-0.5-0.3c0.2-0.1,0.5,0.5,0.8,0.9c-0.1,0.2-0.2-0.3-0.3-0.1c0.1,1.4,0.5,2.7,1.3,3.8
						c0.8,1,1.5,2.1,2.1,3.2c-0.3-0.5-1-0.7-1.5-0.5l0.2,0.4c0.1,0.2,0.2,0.4,0.2,0.4c0.5,0.1,0.8,0.6,1.3,0.8
						c-0.1,0.1-0.1,0.4-0.4,0.3c0,0.9,0.7,1.2,1.4,1.4c0.3,0.1,0.7,0.2,1,0.3c0.4,0.2,0.8,0.5,1,0.9l-1.5-0.3
						c-0.7-0.1-1.3-0.3-1.3-0.3s0,0.2,0,0.4s0,0.4,0,0.4l-0.6-0.2c-0.2-0.1-0.4-0.1-0.6-0.2c0,0.8,1.3,0.6,0.8,1.1
						c-0.2,0-0.4-0.3-0.7-0.1c0.3,0.7,0.6,0.5,1.1,0.7c-1-0.1-1.9-0.6-2.6-1.3c-0.6-0.7-1.2-1.4-1.8-2.1c-0.2-0.2,0.4,0,0.5,0
						c-0.3-0.5-0.1-1-0.6-1.5c-0.7-0.2-0.2,0.5-0.1,0.8c-0.4,0.2-0.5,0-0.7-0.4c0.5-0.3-0.7-2.1,0-2.9c-0.8-1.9-1.5,0.8-1.8-1.2
						l0.5-0.8c-0.9-1-1.6-2.3-1.8-3.7l0.1,0.3c0.3,0.1,0.5-0.2,0.6-0.4c0.1-1-0.9-1.7-0.3-2.4c-1-1.2-1.8-2.4-2.4-3.8
						c0.9-0.5,1,1.5,1.7,1.9l-0.2-1.1c0.1,0.7,0.5,0.9,1.1,1.2c0-1-0.9-1.2-1.2-2.1c0.3,0,0.4-0.1,0.4-0.5l-0.6,0
						c0.1,0,0.1-0.1,0.1-0.2l-0.6-1.6c-0.2,0.4-0.8,0.5-0.7,0.9c0.3-0.2,0.5,0.1,0.5,0.6c-0.5-0.3-0.3,0.5-0.6,0.5
						c-0.1-0.8-0.3-1.6-0.6-2.4l0.6-0.3c0-0.8-0.4-1.7-0.3-2.2l0.3,0.1c0-1-0.4-1.9,0-2.9c-0.8-0.8-1.4-1.9-2.2-2.5
						c-0.8-0.3,0.7-2.7-0.4-3.7c0.1-0.1,0.6,0.7,0.9,1c0.1-0.7-0.9-1.2-0.1-1.4c-0.2,1.6,0.6-0.1,0.9,0.6c0-0.6-0.2-1.3-0.5-1.8
						c0.1,1.2-1.1-0.4-0.7,0.8c-0.7-0.9-1-2.1-0.8-3.3c0.3,0,0.5-0.1,0.6-0.5l-0.5-0.3c0-0.2,0.1-0.2,0.1-0.1
						c0.1,0.1,0.1,0.2,0.2,0.3c0.2,0.2,0.3,0.3,0.4-0.2c-0.3-0.6-0.4-1.3-0.2-2c0.1-0.7,0-1.4-0.8-1.7c0.7-0.8,0.6,1.6,1.4,0.4
						c0.6,0.7-0.1,1.7,0.7,1.9c-0.2-0.7,0.7-0.2,0.7-0.7l-0.5-0.8l0,0.2c-0.7-1.3-0.2-3.3-0.2-5c-0.7-1.5-1.7-2.6-1.4-4.2
						c0.4,0.6,0.6-1.3,1.3-0.2c0.5-0.7,0.1-1.5-0.2-1.6c-0.2,0.7-0.1,0.2-0.4,0.8c-0.3-0.5-0.3-1.2,0.1-1.7c-0.1,0.2,0,0.1,0.2,0.2
						c0.4-0.8-0.3-0.5-0.4-1.1c0.6-0.1,0.4-1.3,0.8-1.8l-0.7-0.9c0.5,0.5,0.3-0.7,0.9-0.7c-0.3-0.6-0.8-1.2-0.5-2.1
						c0.2,0.4,0.6-0.7,1.1-0.6c0.9-1.3-0.9-2.8,0.3-3.9c0.1,0.1,0.4,0.5,0.6,0.1c0-0.4,0.1-0.8,0.2-1.2l0,0l0,0c0-0.2,0-0.3-0.1-0.3
						c-0.5-0.7-0.8-1.5-0.9-2.4c-0.6-0.1-0.7,0.9-0.6,1.3l0.5,0.5c-1,0.1-0.2,1.1-0.5,1.3c-0.4-0.6-0.5-1.3-0.4-2
						c0.1-0.7,0.1-1.5,0.1-2.2c-0.6,0.3-1,0.7-1.3,1.3c-0.3,0.6-0.6,1.3-0.7,2l0.6-0.5l-0.2,0.7l0.9-0.5c-0.2,0.6-0.4,1.3-0.5,1.9
						c0.2-0.7,1.1-0.8,0.9-0.4c-0.8,0.6,0.2,1-0.1,1.6c0.2-0.3,0.3-0.8,0.6-0.4c-1.1,1-0.7,1.5-1.7,2.4c1.1,0.1-0.2,1.4,0.6,1.8
						l0.2-0.5l0.4,1.2c-1.1,0.8-0.7-1.1-1.6,0.3c-0.4,1.4,0.7,1.6,0.6,2.7c-0.6-0.6-0.9-1.5-0.7-2.4l-0.4,0.5
						c-0.3-0.4,0-1.6,0.2-2.2c0.5,1.2,0.3-0.4,1-0.8c-0.6-0.2-0.6,0.5-0.9-0.4c-0.1,0.6-0.3,1.2-0.6,1.8c0.7-2-1.6-2.3-0.7-4
						c0.1,0.9,0.9-0.1,1.2-0.1c0.1-0.5,0.1-1.1,0.1-1.6l-0.9,0.1c-0.1-1.2,1.8-1,1.3-2.5c-0.5-0.3-0.5,1-0.5,0.8
						c0-0.2,0-0.4,0.1-0.6l0-0.1l0-0.1c0-0.1,0.1-0.1,0.1-0.2c0.2-0.3,0.4-0.5,0.6-0.6c0.6-0.4,1.2-0.8,1.7-1.3
						c-0.4-0.2-0.8-0.5-1-0.9c0.4,0.3,0.8,0,1,0.7c0.4-0.4,0.2-1.1,0.1-1.5c-0.6,0.9-0.6-0.6-0.8-0.9c0.3-0.5,0.4,0.3,0.5,0.7
						c0.3-0.4,1.2-0.6,0.5-1.1c0.5,0.2,1,1.6,0.9,2.4l0.3-0.5c0.2,0.4,0.1,0.5-0.2,0.9c0.4-0.3,1-0.2,1.3,0.1c-0.1,0-0.1-0.1-0.2,0
						c-0.3,0.3-0.2,0.7,0.1,0.7c0.6,0.6,0.6-0.4,1.1-0.5c0-0.2,0-0.4,0.1-0.6c0,0-0.4-0.7-0.8-1.4l-0.8-1.4c0.1-1,0.8-1.2,1.4-1.7
						l-0.5-0.4c0.4-0.8,0.9-1.4,1.4-0.6c-0.2-0.1-0.2,0.1-0.3,0.2c0.1,0,0.1,0.1,0.1,0.2l0.1,0.1c0.1-0.9,0.2-1.5,0.2-1.5
						c0.3,1.8,1,0.5,2,1.2l0.3-1.5c-0.7,0.7-0.5-0.2-0.5-0.6c0.6,0.2,0.5-1.1,0.8-1.6l0.1,0.1c0.5-0.5,0.8-1.1,0.9-1.8
						c-0.4-0.6-0.8-1.3-1.1-2c-0.8,0.9-0.7,0.2-1.1,0c0.1-0.1,0.2-0.3,0.1-0.3c-0.1-0.2-0.3,0.1-0.5,0c-0.3,1.2-0.8,2.4-0.3,3.2
						c0.5-0.1-0.1-0.7,0.4-1c0.3,0.8-0.2,1.4-0.6,2.3l-0.6,0.1l-0.1,1c-0.1-0.5-0.7-0.5-0.4-1.5c-0.5-0.1-0.3,1-0.7,1.5l0.5,0.6
						c-0.3-0.3-0.9,0.9-1-0.2l0.1-1.7l-0.6,0.2l0.4-1.3l0.2,0.4c0.5-2.2,1.5,0,1.8-2.3c-0.4-1-0.1-1.8,0.8-2.9c-0.4,1,0.5,0.4,0.7,1
						c0.8-0.7,0.4-1.4,0.4-2c0.5,0,0.9,0.1,0.4,0.8c0.4,0.3,0.5,0,0.6-0.3c0.1-0.2,0.2-0.5,0.7-0.3c0.5-0.9,0.7-2,0.3-3
						c-0.1-0.9-0.1-1.8,1.7-2.9l0.2,0.4c0.3-0.5,0.6-1,1-1.4l0.1-0.2l0.2-0.3l0.2-0.2c0.1-0.1,0.2-0.2,0.5-0.5l0.7-0.6l0.6-0.5
						c0.4-0.3,0.8-0.7,1.1-1.1c0,0,0.5-0.1,1-0.1l1-0.1c-0.2,0.3-0.5,1.5,0.1,1.6c-1.3-0.3-1.7,0.5-2.8,0.8c0.1,0.3,0.5,0.1,0.8,0.2
						c-0.2,0.2-0.4,0.3-0.7,0.3c-0.3,0.1-0.6,0.4-0.8,0.7c0.2,0.1,1.1-0.4,0.6,0.2c0,0-0.4,0.1-0.6,0.2l-0.5,0.1
						c-0.3,0.4-0.4,0.9-0.1,1.4c0.1,0.3,0.1,0.7-0.5,1.1c-0.3-0.7-0.4-1.4-0.2-2.1c-0.3,0.2-0.2,0-0.1-0.3l0.1-0.2l0-0.1l0,0
						l0.1-0.1v0l0,0c0,0,0-0.1-0.1-0.1c0,0,0,0-0.1,0h0l-0.1,0.1l0,0l-0.1,0c-0.1,1.3-0.9,1.3-1.4,2.7c0-0.2-0.1-0.3,0.1-0.6
						l-0.7,0.7l-0.7,0.7c0.7-0.1-0.5,1.6,0.2,1.8c1.4-1.4,0.7-1.2,2.4-2.8c-0.3,0.8-0.3,1.7,0.1,2.4c0,0-0.1,0-0.1,0.1
						c0.4,0.7,0.7,0.5,1.7,1.3c-0.1-1.3,0.8-1.4,1.2-2.6c-0.4-0.6-1.1,0-1.3,0.5l0.3-1.1l0.1,0.4l1.1-1l1-0.8
						c-0.4,0.5-0.2,0.8-0.2,1.2c0.3-0.2,0.7-0.4,1-0.4c-0.5-0.4-0.8-0.8-0.5-1c0.9-0.8,2.2-1.2,3.4-0.9l0.1-0.1
						c-0.6-0.4,0.2-1.6,0.2-2.5c0.4,0.6,0.9-0.1,1.5-0.1c-0.3-0.8-1.1-1.5-1.9-1.7c-0.5,1.2-0.1,0.9,0.1,2.1l-1,1.6l-0.1-0.7
						c-0.9,0.3-1,1.5-1.5,0.9c0-0.7,0.9-1,0.9-1.7l-0.7,0.1c0.4-1.3,0.9,0.3,1.6-0.9c-0.8-0.3,0.1-0.1,0.2-0.8
						c-0.6-0.2-1.7,1.5-2.1,0.3c0.3-0.9,2.6-0.2,2.6-1.6l0,0.1c0.7-0.4,1.2-1.1,1.1-1.9c0.6,0.1,0.8-0.8,1.2-1.1l0.2,0.3l0.5-0.5
						c0.1,0.7-0.6,0.4-1.1,0.8l0.4,0.5c-1-0.2-0.8,1-0.9,1.8c0.4-0.9,2-1.1,1.4-2.3l0.7,0.3l0-0.3c0.5,0.2,0.7,0.8,0.4,1.3
						c0,0.1-0.1,0.2-0.2,0.3C-5,71-5.1,71-5.2,70.9c-0.1,0.4-0.1,1-0.8,1.3l0.2-0.5c-0.9,0.5-1.5,1.3-1.5,2c1.3-0.6,2.5-1.3,3.7-2.1
						c-0.3-1.2-0.7-2.4-1.2-3.6c0.6-0.9,1.5-1.5,2.6-1.7l0.1,0.3c0.4-0.1,0.7-0.3,0.8-0.7c0.5,0.1,0.2,0.8,0.5,0.7l0.9-1.1
						C0.4,66-0.6,66.7-1,67c0.1-0.1,0.2-0.3,0.1-0.3c-0.7,0.1-1.1,1.7-1.8,1.1c-0.2,0.3,0.2-0.9-0.7-0.3c-0.8,0.1-0.5,0.9-0.4,1.1
						c0.2,0.3,1.1-0.2,1.1,0.3c0.4-0.3,0.4-0.8,1.1-1c-0.4,0.3-0.6,1.3-1.2,1.1c-0.5,1.1,0.6,2.4,1,2.2c-0.4-0.3,1.2-1.6-0.3-1.4
						c0.1-0.9,1.1-1.6,1.5-2.3l0,0.1l0.7-0.7c0,0.2-0.2,0.5,0,0.8l0.7-1.5c-0.3,1,0.6,0.1,1.1,0.1c-0.2-0.5,0.1-1.1-0.5-1.1
						c-0.7,0-0.1,0.4-0.6,0.8L1,64.9l0.1,0l0-0.8c0.9-0.5,0.5,1.6,1.2,0.3l-0.7-0.7c1.4-0.7,3.6-0.9,4.3-1.9c0,0.7,0.4,1.3,1,1.6
						c-0.6,0.3-1.2,0.6-1.8,1.1c-0.2-0.1,0.1-1.4,0.8-1.6c-1.1-1.1-1,1.8-1.9,0.5c-1.8,0.6-0.3,2-2.2,2.1C2.3,66.1,1.8,66,2,66.6
						c1,0.7,1.7-1.2,2.8-1.4c-0.1,0.1-0.2,0.3-0.1,0.4c0.5-0.1,1-0.5,1.2-1l-0.1,0c0.4-1,0.7,0.1,1.3,0.1c0.1-0.2,0.8-0.4,0.5-0.8
						l1.1,0l-0.4-0.6c0.4-0.3,0.8,0,1-0.6l-0.3-0.6l-1.2,0.5C8.1,62,7.4,61.9,8,61.4c-0.3,1.1,0.7,0,1.1,0.5l0.3-0.6l0,0.2
						c0.5,0.1,0.3-0.5,0.8-0.7c-0.7,0-1.3-0.2-1.7,0.6c0.3-0.6,0.7-1.2,1.2-1.7c0.3-0.5,0.9-0.3,1.4-0.5c-0.7,0.8,1.4,1.6-0.6,2.2
						c0-0.1,0.1-0.2,0.2-0.2c-0.7-0.6-1,0.7-1.2,1.2c0.4,0.4,0,0.7,0.9,0.5c-0.4-0.1,0-1.3,0.8-1.3l0.5,1l1-0.5l-0.1,0.1
						c0.7,0.4,0.9-0.7,1.8-0.8c0.3-0.6,2.2-1.4,0.8-1.9c0.9,0.2,1-0.8,1.5-1.3l-1,0.1c0.5-1.2,0.5-0.6,0.6-2.1
						c0.2,0.2,0.5,0.3,0.5,0.7c1.3-0.7,3.2-1.5,3.5-2.7c0.8-0.4,1.7,0.5,2.6-0.6c0.2-0.3-0.7-0.7,0.2-0.9c0.1,0-0.3,1.1,0.5,0.5
						c0.2-1.1,1.7-0.5,2.1-1.6c0.6,0,1.3-0.6,1.5,0.1c-0.8,0.3-1.6,1-1.6,1.4c-0.1-0.4-0.7,0-0.4-0.6c-1.3,0.2-0.4,0.8-1.5,1
						c0.1,0.3,0.8,0.3,0.9,0c0.5,0.8-1.5,1.5-0.2,1.9c1-0.5,0.3-2.3,1.7-2c0,0.7-0.8,0.6-0.8,1.7l0.9-0.1l0.2-0.9l0,0.1
						c1.7-0.1,0.6-1.5,1.5-2.6c-1-0.1-0.7-1.4-1.4-1.4c0.7-0.6,1.3-0.8,1.8-0.1c-1,1.5,0.4,0.8-0.3,2.4c0.4,0.1,0.4,1.3,1.2,0.9
						c0.5-1.1-0.7-0.5,0-1.3c0.1,0,0.2,0.1,0.2,0.2c0.1-0.6,0.5-0.2,0.7-0.9l0,0.2c0.9,0.1,0.3-0.9,1.1-0.8c-0.6-0.4,0-0.7,0.1-1.2
						c-0.6,0.1-1.4-0.5-2.4,0.2c0.2,0.5,0.4,0.7,0.1,1.2l0.6-0.5c-0.1,0.2-0.1,0.3-0.2,0.5l-0.8,0.2c0.6-0.8-0.1-1.1,0-1.7
						c0.8-0.3,0.5-0.5,1.1-0.7c0.4,0.7,2.1,0.2,3.2,0c-0.1,0.1-0.3,0.2-0.4,0.2c-0.3,0.8,0.8,0.3,0.9,0.4l0.2-0.6
						c-0.1,0.1-0.1,0.3,0.2,0.3c0.5-0.5,0.1-1.1,0.6-1.7c0.3,0.3,0.1,1.2,0.6,1.1c0.3,0.2,1.3,0.8,1.9-0.1c0-0.2,0.1-0.4,0.3-0.6
						c0,0-0.1,0.1-0.1,0.1l0.8,0c-0.1,0.9-1.1,0.3-1.2,1.2l0.3,0.6c-0.4,0.3-0.6,0.8-0.7,1.2c0.6-0.3,0.6-0.5,1.1-1
						c0.3,0.3,0.1,0.9,0,0.9l-0.1-0.4c-1,0-0.7,1.3-1.7,1.7c-0.2,0.1-0.1,0-0.1-0.2c-0.4,1-1.6,0.7-1.8,1.9l0-0.5
						c-0.3,0.6-0.9,1.7-1.5,2.9l0.1,0.2c0.2,0.1-0.2,0.3-0.4,0.3l0,0c-0.3,0.6-0.6,1.1-0.8,1.6c0.2,0.1,0.4,0.1,0.6,0
						c0-0.4,1-0.7,0.5-1.2c0.6,0.1,0.9-0.8,1.4-0.8c-0.8,0,0-0.8-0.1-1.2c0.4,0.3,0.8-0.5,1,0c0.2,0.1-0.5-0.2-0.5,0.3
						c-0.2,0.8,1.3-0.3,0.9,0.7c0.7-0.9,1.9-1.6,2.5-2.6L37,54.2c0.5-0.2,1.3-0.9,1.6-0.7c-0.3,0.3-0.6,0.5-0.9,0.8
						c0.4,0.6,0.9-0.6,1.2-0.3l0.5-1.7l-0.5,0.3c0.1-0.6,1.4-0.8,2.2-1.2c0.1,1.1-1.1,0.8-1.7,1.6c-0.4,0.7,0.9,0.5,0.4,1.1
						c0.3,0,0.6-0.2,0.7-0.5c0,0,0,0,0,0h0.3c0,1-1.2,1.6-1.6,2.7c0-0.1,0-0.2,0-0.3c-0.7,0.1-1.3,0.5-1.7,1c0.4,0,0.5-0.2,0.6-0.4
						c0.1,0.2-0.3,0.6-0.4,0.9c0.7-0.1,0.4,0.4,0.8,0.3c-0.2,0.3-0.6,0.6-1,0.7C37,58.3,37.3,58,37,57.6c-0.3,0.5-1-0.2-1.4,0.6
						c0.9-0.4,0.3,0.9,0.2,1.3l0.2-0.1c0,0.6-0.2,0.7-0.6,0.5c0.2-0.4,0.6-0.5,0.3-0.8c-0.2,0.2-0.4,0.4-0.6,0.6l0-0.5L34,60.1
						c0.1,0.6,0.2,1.2,0.3,1.9c-0.5-0.2-0.7,0.4-0.8,0.7l0-0.2c-0.7,0-1.6,1-1.5,1.4c-0.5-0.1,1.2-3.7-1.1-1.8
						c-1,0.6,0.1,1.4-0.2,2.2c0-0.1-0.1-0.1-0.1-0.2c-0.5,0.2-0.3,0.6-0.5,1c0.4,0,0.7-0.2,0.8-0.5c0.1,0.5-0.9,0.5-1,1.1
						c0-0.9-1,0.2-0.9-0.3c-0.5,0-1,0.3-1.2,0.7c-0.3,0.4-0.5,0.8-0.5,1.2c-1.1-0.5-0.9,0.7-2.1,0.8c0.2-0.1,0.3-0.3,0.6-0.4
						c0.2-0.9-1.1,0.3-0.6-0.7c-0.1,0.2,0.2,0.3,0.3,0.1c0.3-0.2,0.4-0.7,0.2-0.9l-1,0l0.2-0.3h-1.5c0,0.1,0.2,0.2,0.3,0.2
						c-1.5,0.5-2.7,1.8-3.9,2.4c0.7,1.7-2.4,2.4-2.7,3.9c0-0.6-0.3-1.2-0.7-1.7c0.2-0.2,0.2-1.1,0.7-1.2c0.2,0.2,1,0.1,0.8,0.6
						c1.2-1-0.6-0.6-0.6-1.4c-1.3,1-1.6,2.4-2.2,3.4l-0.1-0.2L14,72.7c0.6-0.2,1.1,0.6,0.2,0.8l0.1-0.1c-0.6-0.1-1.2,0.8-1.8,1.2
						l-0.1,0.8c-0.7,0.3-1.3-0.6-1.8-1c-1,0.6-1.1,1.7-1.5,2.6c-0.6-0.2-2.1,0.7-1.6-0.3c-0.6,0.9,1,3-1.3,2.8l0.1-0.6
						c-1.3,1-2.8,3.2-3.8,3.3c-0.4-1.7-2.8-0.2-3.9-1.4c0.3,0.3-0.2,0.7-0.1,0.9c-0.2-0.1-0.5-0.1-0.5,0.3c0.7-0.1,0.6,1.7,1.2,0.4
						c0.1,1.3,0,2.5-1,3.1l-0.4-0.6l0.9-0.4c-0.4-0.4,0.1-0.6,0.1-0.9C-3.1,84.3-2,82-3.6,83.3c0.1,0.5,0.1,0.2-0.2,0.7
						c0.2-0.2-0.1-0.6-0.4-0.3l0.1,0.7c-1.2-0.5,0.4-1.3-0.5-1.6c0.3-0.9,1.2-1.9,0.5-2.5c-1.3,0.5,0,2-1.3,2.5l-0.3-0.2
						c-0.2,0.5,0.1,1,0.2,1.4c-0.2-0.2-0.4-0.2-0.6-0.1c0,0.6,0,1,0,1.3c0,0.2,0,0.4,0,0.7v0.2v0.1v0v0c-0.1,0.1,0.1-0.1,0.1-0.1
						l0,0v0c0,0.1,0,0.3,0.1,0.4c0-0.1,0.1-0.3,0.1-0.2c0.1-0.1,0.1-0.2,0.2-0.3c0.1-0.1,0.2-0.2,0.3-0.3c0.2-0.1,0.3-0.2,0.5-0.2
						c0.6-0.1,1-0.5,1.3-1c-0.1,0.4-0.9,1.4-0.2,2.1l-0.4-0.5c-0.1,0.3,0,0.5-0.2,0.8c-0.1,0.2-0.2,0.3-0.3,0.5l0,0l0,0l0.1-0.1l0,0
						l0,0v0l0,0L-5,87.5c-0.1,0.1-0.1,0.1-0.2,0.1l0-0.6c-0.2,1-1.8,0.5-1.4,1.8c0.2-0.1,0.3-0.3,0.3-0.5c-0.1,0.6-0.4,1.1-0.9,1.4
						l0.3,1.6c-0.3-0.2-0.7,0.4-1-0.2c-0.2,0.1-0.3,0.2-0.4,0.4c-0.1,0.2-0.1,0.3-0.1,0.5c0.1,0.3,0.1,0.6,0.1,0.9
						c-1,0.3,0.1-0.8-0.7-1.3c-0.8,0.7-1.2,1.8-1,2.9c0.2-0.2,0.4-0.2,0.5-0.1c-0.2-0.1-0.4,0.4-0.5,0.6l0.3,0.4
						c-0.5,0.3-0.7,0.1-0.8-0.4c-0.3,0.4,0.3,1.2-0.5,1.3c-0.2-0.9,0.7-1.5,0.5-2c-0.3,1.5-1.9,0.8-2.2,2.9
						c-0.2-0.1-0.4-0.5-0.6-0.2c-0.2,0.9,0.8,0.6,1.1,1c0-0.7,0.4-0.9,1.1-1.1l0.3,0.3c-0.2-0.1-0.4,0.3-0.6,0.4l0.6,0.4
						c-0.7-0.4-1.6,0-1.5,0.6c0.8-0.3,0.7-0.2,1.6,0.1c0.5,1-1.1,0.5-0.6,1.6c-0.2-0.2-0.1-0.9-0.6-0.4c-0.2,0.5,0.4,0.7,0.5,1.1
						c-0.5-0.6-1-0.7-1.6-1.4c0.2-0.4,0.3-0.9,0.2-1.3l-0.8,0.5c0.2-0.8-0.5-0.9-0.7-1c-1.2,1.1,0.6,1.4,0.1,2.2
						c0.3,0.6,0.4-0.8,0.6,0.1c-0.4,0.8,0.3,0.3,0.3,1.3l-0.2-0.3c-0.5,0.1-0.1,0.6-0.2,0.9c0.1,0.4,2.4,0.4,1.9,1.8
						c-0.1-0.1-0.2-0.2-0.3-0.2l-2.5-1.6l-2.4-1.7c-0.6,1.7-1.3,3.4-2.2,5c-1.2,0.1-0.5-1.6-1-1.6l0.5-0.8c0.4,0.2-0.4,1.8,0.6,1.3
						c0.1-1.6,0.9-2,0.4-3.7c-1.2,0.1-0.4,1.9-1.6,2.5c0.2-0.3,0.2-0.7,0.1-1c-0.4,0.8-0.9,1.7-1.3,2.6l0.2,0.3
						c0.2-0.4,0.4-0.7,0.6-1.1c-0.4,0.7-0.1,1.6,0.7,2c0,0,0.1,0,0.1,0l0.1-0.1l0.2,0.4L-19.8,106.5z M-17.9,163.8
						c-0.1,0-0.2,0-0.3,0C-18.1,163.8-18.1,163.8-17.9,163.8 M-15.6,88.9c-0.8,1-1.5,2-2.2,3.1c0.8-0.5,1.8-0.9,2.8-1
						c0.5,0.1,0.5,0.6-0.2,2.2l0,0.3c0.5-0.5,0.8-1.1,1-1.7c-0.3-0.8-1.1-3.6-1.2-3.6c-0.5,0-0.3,0.5-0.6,0.8L-15.6,88.9z
						 M-12.9,89.5c0.5-0.5,0.1-0.5-0.1-0.8l-0.3,0.7C-13.1,89.4-13,89.4-12.9,89.5 M-13.3,88.6c0,0.1-0.1,0.1-0.2,0.1L-13.3,88.6z
						 M-19.2,100.5L-19.2,100.5c-0.1,0.1-0.2,0.2-0.2,0.4C-19.4,100.8-19.3,100.7-19.2,100.5 M-18,99.5l-0.5-0.4l-0.2,0.4
						C-18.5,99.6-18.3,99.6-18,99.5 M-14.6,96.1c-0.5-0.5-0.2-1.4-0.9-1.8c-0.2-0.1-0.3,0-0.5,0.2l-0.4,0.7c0.1,0.1,0.2,0.2,0.2,0.3
						c0.2-0.2,0.5-0.3,0.9,0c-1.3,0.2,0.5,0.9-0.1,1.5C-14.9,97.4-14.5,96.4-14.6,96.1 M28.6,58.3c0.1,0,0.2,0.2,0.4,0.3l-0.2,0.6
						c-0.9,0.4-2.2-0.2-2.4,1.1c-0.5-0.1-1-0.3-1.4-0.6c0.2-0.1,0.4-0.1,0.5-0.2C26.8,57,27.4,60.3,28.6,58.3 M18.2,63
						c0-0.1,0-0.2,0-0.2c-0.7,1.8-1.8,3.3-3.4,4.3c0.5,0.4,1.6,0.2,2.2,0.2l0,0.8l-0.5-0.3l-0.3,0.9c0.4,0.3,0.9-0.1,1.4-0.1
						c0-0.1,0.7-1.5,0.8-2l-1.1,0.2c0.7-0.3,1.3-0.7,1.8-1.3c-0.2-0.3-1.3-0.2-1,0.5c-0.4-0.4,0.6-1-0.3-1.1
						c0.4-0.9,1.8-1.2,2.4-1.3l0.5,0.7c0.7-0.1-0.1-1.1,0.8-1.1c-0.8,0.7,0.6,0.7,0,1.2c0.4,0.1,0.5,0.8,1.1,0.3
						c0-1.3,1.1,0.2,1.1-1c0.5,0.1,0,0.8,0.7,0.5c0.4-0.6,0.3-1.5-0.1-2.1c-0.9,0.3-0.3,1.4-1,1.6l0.5-1.9c-0.2-0.1-0.5,0-0.6,0.2
						c0.2-0.2,0.3-0.6,0.3-0.9c0-0.2,0-0.4,0.1-0.5C23,60.9,22.3,61.2,22,61l-0.1-0.4c-0.4-0.2-0.7,0.3-0.7,0.7
						c-0.6,0.4-0.9,1.3-1.3,0.9l0-0.5C19.4,62.2,18.8,62.6,18.2,63 M-6.6,78.2c1.3,0.9,2.5,1.6,4.4,0l-0.1,0.2
						c1.6,0.1,1.4-2.4,3.2-2.4c-0.3,0.7-0.4,1.5-0.3,2.3l0.4-0.8c0.3,0.8,0.7,0,1.2-0.3l0.1,1.1c-0.4,0-1.2,0.4-1.1,0.6
						c0.1-0.2-1.7-0.3-2.2,0.4c0.4,0.5,1.6-0.6,1.6,0.6C1,79,1.4,79.5,1.9,78.9c-0.3,0.7,0.4,0.8,0.2,1.5l0.8-0.8
						C3.1,79.7,1.8,80.9,3,81c0.2-0.5,1.4-0.8,1-1.4l0.1,0.2c0.8-0.3-0.3-1,0.8-1.2c-0.2-0.3-0.5-0.4-0.7-0.1
						c-0.2,0.3,0.1,0.7-0.4,1.1c-0.5-0.3,0.7-0.4-0.2-0.9c-0.4-0.2-1.1,1.3-1.3,0.2L3,78.5c-0.4-0.6,0.1-0.9-0.2-1.3
						C3.1,76.7,3.9,77,4,76.3c-0.1-0.5-0.8-1,0-1.1c1.1,0.5,2.6-0.8,3.1-1.3l0.3-0.7c-0.3-0.3-1,0.7-0.9,0l0.7-0.7l0.1,0.3
						c0.3-0.1,0.4-0.6,0.6-0.8c0,0.6-0.7,0.8-0.2,1.3c0.5-0.1,0.7,0,0.9-0.3c-0.1,0.1-0.1,0.2,0,0.3C9.6,73,9,72.1,9,71.7
						c0.3-1.3-1.3-0.2-1.6-0.9L9.6,69c-0.1,0.3-0.1,0.6,0.1,0.8c0.7-0.1,0.3,0.5,1.1-0.1c-0.6-0.8,0.7-1.2,0.9-2
						c0.5,0.2,0.6,0.2,0,0.6c0.4,0.5,1.1-0.2,1.4-0.3c0.1-0.2,0.3-0.5,0.4-0.7c-0.4-0.1-0.5-0.5-0.2-1.1l0-0.1
						c-0.9,0.4-2.6,0.6-2.7,1.5l0-0.4c-1.3,0.1-1.5,2.3-2.5,1.6c-0.2-0.4-0.2,0-0.6-0.6l-0.4,0.9l0-0.4l-1.1,0.9l0-0.1
						c-0.2,0.9-0.4,1.6-0.5,2.2c0.2,0.3,0.3,0.3,0.2,0.6c-0.1,0.2-0.2,0.3-0.4,0.4l0,0c-0.3,0.1-0.8-0.1-1.2,0L4.9,72
						c-0.2-0.6-0.7-0.9-1.3-0.8c0.2-0.2,0.1-0.6-0.2-0.4c0,0.1-0.5,0.8-0.1,0.9c-0.9,0.8-3.4,0.9-4.4,2.8c0.8-1.3-1.3,0.1-0.2-1
						c-1.3-0.1-0.3,1.2-1.2,1.7c-0.2-0.2,0.5-0.3,0.4-0.9c-1.6,0.7-1.8,2.8-3.3,3.5l-0.4-0.5L-6.6,78.2 M-8.9,81l-0.6,0.9l0.1-0.1
						c0,0-0.1,0.3-0.2,0.5l-0.2,0.5c0.6-0.3,1.4-0.1,1,0.8c-0.1-0.2-0.5-0.3-0.4-0.6C-9.8,83.2-11,84-10,84.3c0-1.4,1.1,0.6,1.1-0.5
						c0.2,0.7-0.3,0.9-0.4,1.4c-0.1-0.7-1-0.7-1.6-0.3c-0.1,0.3-0.7,0.9-0.8,1.4c0.6,0.2,0.6,0.7,1.2,0.2c0,0.4-0.3,0.8-0.7,1
						c0-0.2,0.2-0.5,0-0.6c-0.6,0-0.8,0.3-1.1,0.3l-0.2,0.5c0.1,0,0.2,0,0.2,0l0.1,0.8c0.2-0.8,0.4-0.1,0.7,0.1
						c-0.6-0.4-0.3,0.3-0.5,0.6l0.9-0.1c0.2,0.4-0.9,0.5-0.3,0.8c0.7-0.6,1.2-1.3,1.4-2.2l-0.7,0c0.4-1.2,1.2,0,1.9-1
						c-0.1-0.7,1.2-1.4,0.4-2.1c0,0.1,0.1,0.1,0.2,0.1c0,0,0.2,0,0.2,0c0.1,0,0.2,0,0.2-0.1c0.3-0.1,0.6-0.4,0.5-0.6
						c-0.4-1,0.7-2.1,0.1-2.1c-0.3,0.3-0.4,1-1,0.8l0.5-0.7l-0.7,0C-7.9,81.8-8.3,81.5-8.9,81 M-24.3,94.8L-24.3,94.8
						C-24.3,94.8-24.3,94.8-24.3,94.8L-24.3,94.8z"/>
					<path id="Path_5747" class="st10" d="M37.6,49.9c0.1-0.3,0.6-0.6,0.2-1C38.1,49.3,37,49.5,37.6,49.9"/>
					<path id="Path_5748" class="st10" d="M38.5,49.9c0-0.1-0.2-0.3,0-0.5L38,50L38.5,49.9z"/>
					<path id="Path_5749" class="st10" d="M41.2,52.7c0.1-0.5,0.2-0.9,0.7-1.2c0.9,1-0.6,0.8-0.1,2c1-0.5,0.6-1.6,1.3-2.2
						C42.3,51.1,40.6,51.8,41.2,52.7"/>
					<path id="Path_5750" class="st10" d="M41.7,54.4l0.3-0.6l-0.1,0L41.7,54.4L41.7,54.4z"/>
					<path id="Path_5751" class="st10" d="M24.5,51.6c-0.3-0.3-0.4,0.2-0.5,0.4C24.2,51.9,24.5,51.9,24.5,51.6"/>
					<path id="Path_5752" class="st10" d="M-30,152.5c0,0,0.3,1.2,0.6,2.3c0.3,1.2,0.7,2.4,0.7,2.4C-29.1,155.9-29.4,154.7-30,152.5
						"/>
					<path id="Path_5753" class="st10" d="M13.2,61.8c0.8-1,0.9-1.9,1.9-2.7c-1.9,0.1-1.2,2.3-2.8,2.3L13.2,61.8z"/>
					<path id="Path_5754" class="st10" d="M11.8,58.7c0.6,0.6-0.3,1.3,0.1,1.7c0.6-0.6-0.1-0.8,0.6-1.2L11.8,58.7z"/>
					<path id="Path_5755" class="st10" d="M23.4,67l-0.1,0.5l0.2-0.3L23.4,67z"/>
					<path id="Path_5756" class="st10" d="M7.4,62.3l0-0.2l-0.7,0.1L7.4,62.3z"/>
					<path id="Path_5757" class="st10" d="M7.4,61.8l0,0.2L7.4,61.8z"/>
					<path id="Path_5758" class="st10" d="M23.9,68.7l0.6-0.1l0-0.5L23.9,68.7z"/>
					<path id="Path_5759" class="st10" d="M17.5,67.6l0.3-0.5C17.8,67.2,17,67.3,17.5,67.6"/>
					<path id="Path_5760" class="st10" d="M4,64.1l-0.3,0.6l0.1,0L4,64.1L4,64.1z"/>
					<path id="Path_5761" class="st10" d="M15.4,71.5c0.6,0.3-0.7,0.7,0.1,0.7C16.1,71.8,15.7,71.7,15.4,71.5"/>
					<path id="Path_5762" class="st10" d="M7.2,71.9C7.1,71.9,7,72,7,72.1C7.1,72,7.1,71.9,7.2,71.9"/>
					<path id="Path_5763" class="st10" d="M7.2,71.9c0.2-0.1,0.6-0.1,0.6-0.3C7.3,71.5,7.3,71.6,7.2,71.9"/>
					<path id="Path_5764" class="st10" d="M4.7,73.6L5,73.5c0,0.4,0,0.3,0.1,0c0.2-0.2,0.1-0.3,0-0.4c0-0.1,0-0.2,0-0.3
						c0,0.1,0,0.2,0,0.3C4.7,73.3,4.5,73.5,4.7,73.6"/>
					<path id="Path_5765" class="st10" d="M-10.4,71.5c0.9-0.4,1.2-0.4,1.4,0c0.8-0.4,0.2-1,0.6-1.4C-9.1,70.5-9.7,71-10.4,71.5"/>
					<path id="Path_5766" class="st10" d="M-8.4,70l0.3-0.2C-8.2,69.9-8.3,69.9-8.4,70"/>
					<path id="Path_5767" class="st10" d="M10.5,76.1l0,0.9l0.1-0.2L10.5,76.1z"/>
					<path id="Path_5768" class="st10" d="M-11.8,72.2c0.2-0.1,0.4-0.3,0.6-0.3C-11.4,71.5-12,72.3-11.8,72.2"/>
					<path id="Path_5769" class="st10" d="M-3.4,77.7c0.2,0.2,0.6-0.3,0.9-0.3C-2.9,77.5-3.6,77-3.4,77.7"/>
					<path id="Path_5770" class="st10" d="M-13,75.7c0.3-0.1,0.6,0,0.8,0.3c0,0,0,0,0,0C-12.2,75.7-12.4,74.7-13,75.7"/>
					<path id="Path_5771" class="st10" d="M-4.8,78.5l0.2,0.1l0.3-0.6L-4.8,78.5z"/>
					<path id="Path_5772" class="st10" d="M0.9,83.2c0.2-0.8-1.6-0.6-1-1.6c-1.5,0.3,0.5,0.6-0.4,1.1C0,82.6,0.6,82.7,0.9,83.2"/>
					<path id="Path_5773" class="st10" d="M-0.5,82.7c-0.1,0-0.2,0.1-0.3,0.1C-0.6,82.8-0.6,82.8-0.5,82.7"/>
					<path id="Path_5774" class="st10" d="M-9.3,85.5c0-0.1,0-0.2,0-0.3C-9.3,85.4-9.3,85.5-9.3,85.5"/>
					<path id="Path_5775" class="st10" d="M-2.8,84.9c0,0,0-0.3,0.1-0.6s0.1-0.6,0.1-0.6c-0.2,0.8-1.3,1.7-0.7,2.3
						c0.4-0.2,0.7-0.6,0.7-1.1L-2.8,84.9z"/>
					<path id="Path_5776" class="st10" d="M-22,84l0-0.6l-0.4,0.5C-22.2,83.8-21.9,84.4-22,84"/>
					<path id="Path_5777" class="st10" d="M-22.5,84l0.1-0.1C-22.5,83.9-22.5,83.9-22.5,84"/>
					<path id="Path_5778" class="st10" d="M-8.4,83.9c0.2-0.2,0.4-0.4,0.5-0.7C-8.1,83.2-8.7,83.7-8.4,83.9"/>
					<path id="Path_5779" class="st10" d="M-22.8,87.8l0.3-0.8l-0.4,0.9L-22.8,87.8z"/>
					<path id="Path_5780" class="st10" d="M-25.8,90.8l-0.2,0.1v0.8l0.2-0.1L-25.8,90.8z"/>
					<path id="Path_5781" class="st10" d="M-8.8,94.1c0.3-0.3-0.2-1-0.4-1l-0.4,0.7c0.7,0.1,0.1-0.2,0.5-0.5L-8.8,94.1z"/>
					<path id="Path_5782" class="st10" d="M-32,117.5c-0.4-0.3,0-1.4,0.4-1.4c0.2,0.2,0.2,0.8,0.6,0.5l-0.9-1
						c0.9-1.1,1.3,1.1,1.6,1.7c0.3-1.2-0.3-1.6-0.1-2.9c-0.2,0.3-0.4,0.6-0.7,0.7c-0.8-0.1-0.2-1.2-0.1-2.1
						c-0.4,0.5-0.6,0.1-0.9-0.3c0-0.1,0-0.1-0.1-0.2l-0.1-0.2l0,0.1c-0.1,0-0.2,0-0.3,0c0.1,0.8-0.6,1.2-0.7,1.7
						c1.3-0.3,0,1.6,0.3,2.3l0,0.7l0,0.3c-0.1,0-0.3-0.1-0.5-0.5c0.2,0.4,0,1.4,0.4,1.4c0,0-0.1,0.6-0.1,1.2s-0.1,1.2-0.1,1.2
						c-0.1,0.1-0.1,0.1-0.2,0.2c0,0.1,0.1,0.1,0.2,0.1c0,0-0.2,2.7-0.3,5.4c0,0.7,0,1.4,0,2.1c0,0.6,0,1.1,0,1.6c0,1.1,0,1.8,0,1.8
						c0.1-0.5,0.4-1,0.5-1.6c0.4,0.4,0.5,0.3,0.5-0.2c0-0.3,0.1-0.6,0.5-0.5c0.1,0.2,0.2,0.4,0.2,0.6c0,0.2-0.1,0.5-0.2,0.7
						c0.4,0.1,0.7-0.3,1.2-0.3c0.5-1.5-1.4-1.4-1.1-2.8c0.5,0.1,0.9,0.5,0.8-0.4l0.1,0.2c-0.5-1.4,1.1-1-0.2-2l0.7,0.1
						c-0.4-0.8-0.5-1.7-0.5-2.5l0.1,0.1c-0.6-2-0.1-1.1-0.2-3.2l0.7,1.1c0.4-0.7-0.5-0.9-0.3-1.5c0.1,0.1,0.6,0,0.7,0.5
						c0,0-0.2-0.7-0.5-1.3s-0.4-1.4-0.4-1.4C-31.6,116.7-31.7,117.4-32,117.5"/>
					<path id="Path_5783" class="st10" d="M-30.5,114.4c0.1-0.1,0.1-0.3,0.1-0.5C-30.4,114.1-30.5,114.2-30.5,114.4"/>
					<path id="Path_5784" class="st10" d="M-33.9,132.7l0-0.8C-34,132.1-34,132.4-33.9,132.7"/>
					<path id="Path_5785" class="st10" d="M-31.3,110.4c-0.4,0.4-0.4-0.4-0.7-0.6l-0.3,1.6c0.3,0,0.5,0.3,0.8,0.3L-31.3,110.4z"/>
					<path id="Path_5786" class="st10" d="M-32.8,111.8c0.2,0.1,0.3,0.3,0.4,0.5l0.2-0.9C-32.4,111.4-32.6,111.5-32.8,111.8"/>
					<path id="Path_5787" class="st10" d="M-18.9,114.4l0,0.3l0.1,0.4L-18.9,114.4z"/>
					<path id="Path_5788" class="st10" d="M-20.7,118.1c0.4-0.2,0.2-0.9,0.2-1.1C-20.7,117.7-20.8,117.4-20.7,118.1"/>
					<path id="Path_5789" class="st10" d="M-16.4,117.9l0.1,0.6l0.1,0L-16.4,117.9z"/>
					<path id="Path_5790" class="st10" d="M-30.9,138c0,0.1,0,0.2,0.1,0.3C-30.8,138.2-30.8,138.1-30.9,138"/>
					<path id="Path_5791" class="st10" d="M-31.9,131.9c-0.7,1.8-0.7-1.1-1.6-0.6l0.3,1l-0.3-0.1l0.1,1.2c0.4-0.3,0.5-0.4,0.9-0.4
						c-0.1,1.5-0.5,0.5-1.1,1.7l0.2,1.7l-0.2-0.1c0,0.1,0.1,0.2,0.2,0.2c0,0,0.2,1.4,0.4,2.8l0.4,2.8c0.5,1,0.8-0.7,1.6,0
						c-0.1-1.2,0.2-2.9-0.8-3c0.1,0,0.4,0.1,0.5-0.2l-0.8-0.6l-0.2,0.7c-0.8-0.6-0.8-2.9-0.4-3.3c0.4,1.3,1.2,0.6,0.9,2.4
						c0.2-0.1,0.6-0.5,0.8-0.1C-31.3,136-31,134.1-31.9,131.9"/>
					<path id="Path_5792" class="st10" d="M-29.3,152.1L-29.3,152.1C-29.3,152.2-29.3,152.2-29.3,152.1"/>
					<path id="Path_5793" class="st10" d="M-29.3,151.5l-1.1-0.8l0.3,1.5l0.7,0c-0.2-0.1-0.6-0.6-0.4-0.8
						C-29.7,151.3-29.3,151.4-29.3,151.5"/>
					<path id="Path_5794" class="st10" d="M-31,149.6c0.2,0.4,0.6,0.6,1,0.4c0.2-0.1,0.3-0.2,0.4-0.3c0.5,0.6-0.8,0.5,0.1,0.9
						c0.5-0.1,0.1-0.9,0-1.1L-31,149.6z"/>
					<path id="Path_5795" class="st10" d="M-31.4,143.9l0.3,0.2l0-0.6L-31.4,143.9z"/>
					<path id="Path_5796" class="st10" d="M-31.1,144l0,0.6c0.2,0,0.4-0.1,0.6-0.2L-31.1,144z"/>
					<path id="Path_5797" class="st10" d="M-31.1,146c0,0.3,0,0.5,0,0.8L-31.1,146z"/>
					<path id="Path_5798" class="st10" d="M-31,145.4L-31,145.4l-0.1,0.6C-31.1,145.8-31.1,145.6-31,145.4"/>
					<path id="Path_5799" class="st10" d="M-31.1,144.6c-0.5,0.2-1.1,0.3-0.8,1.1l0.8-0.3L-31.1,144.6z"/>
					<path id="Path_5800" class="st10" d="M-17.7,122.2l0.2,0.6l0.1-0.1L-17.7,122.2L-17.7,122.2z"/>
					<path id="Path_5801" class="st10" d="M-18.5,125.4c0.1,0.1,0.2,0.2,0.3,0.4C-18.3,125.6-18.4,125.5-18.5,125.4"/>
					<path id="Path_5802" class="st10" d="M-14.9,127.9c-0.6,0.6-0.7-0.8-1,0.3c-0.5,0.1-1.1-0.4-0.9-1c0.5,0.1,0.3,0.5,0.8,0.2
						c-0.5-0.4-0.2-0.5-0.9-0.4c-0.4-0.6-0.9-0.7-1.4-1.2c0.1,0.5,0.1,1.1-0.1,1.6c-0.1,0.6,0.1,1.2,0.4,1.7c0.9,0.6,2,0.2,3.3,0.3
						c0.1,0,0.3-0.5,0.2-0.8C-14.3,128.2-14.6,127.9-14.9,127.9"/>
					<path id="Path_5803" class="st10" d="M-13.7,127c0.1-0.2,0-0.4-0.1-0.6C-14.1,126.5-13.7,126.8-13.7,127"/>
					<path id="Path_5804" class="st10" d="M-23,133.9c0.2,0.1,0.4,0.6,0.7,0.5l-0.3-0.9C-22.5,133.7-22.8,133.8-23,133.9"/>
					<path id="Path_5805" class="st10" d="M-22.6,133.2l0.1,0.4C-22.5,133.4-22.6,133.3-22.6,133.2"/>
					<path id="Path_5806" class="st10" d="M-23.1,134l0.1,0C-23,133.9-23.1,133.9-23.1,134"/>
					<path id="Path_5807" class="st10" d="M-31.1,148.3c-0.3,0-0.1,0.4,0.1,0.6C-31.1,148.7-31,148.5-31.1,148.3"/>
					<path id="Path_5808" class="st10" d="M-26.4,164.1l-0.1,0.5C-26.4,164.5-26.4,164.3-26.4,164.1"/>
					<path id="Path_5809" class="st10" d="M-15.5,165.2c0.1,0,0.1,0,0.2,0C-15.4,165.2-15.5,165.2-15.5,165.2"/>
					<path id="Path_5810" class="st10" d="M-15.4,165.2c0.3,0,0.4,0.8,0.8,0.7l-0.1,0.1l0.4,0.1c-0.1-0.1-0.3-0.3-0.5-0.5
						C-14.9,165.3-15.1,165.2-15.4,165.2"/>
				</g>
			</g>
		</g>
	</g>
	<g id="Group_390" transform="translate(48.404 48.485)">
		<g transform="matrix(1, 0, 0, 1, -148.5, -148.5)">
			<rect id="Rectangle_514-2" x="49" y="54.5" class="st0" width="121.5" height="204.6"/>
		</g>
		<path id="Path_7296" d="M-18.4,17.4C-19.2,8.5-24.9,0-37.8,0c-15.5,0-21.9,10.3-21.9,30.8c0,17.9,4.4,30.7,22.5,30.7
			c12.9,0,20.5-8.2,20.5-20.1c0-12.5-7.4-19.3-17.8-19.3c-5.5,0-10.4,2.3-12.7,6.2c0.1-11.6,2.5-16.9,8.9-16.9c4.2,0,6.2,2.1,7,6.1
			L-18.4,17.4z M-38,33.2c5.3,0,8,3.3,8,8.3c0,5.1-3,8.1-7.8,8.1c-5.3,0-8.4-3.1-8.4-8.4C-46.2,35.8-42.4,33.2-38,33.2z"/>
		<rect id="Rectangle_971" x="-61.1" y="70.4" class="st11" width="44.8" height="10"/>
		<path id="Path_7292" class="st12" d="M-63.9-25c-0.6,0-1.1-0.1-1.6-0.3c-0.5-0.2-1-0.5-1.3-0.9c-0.4-0.4-0.7-0.8-0.9-1.3
			c-0.2-0.5-0.3-1.1-0.3-1.6v-14.2h58.7v14.2c0,0.6-0.1,1.1-0.3,1.6c-0.2,0.5-0.5,1-0.9,1.3c-0.4,0.4-0.8,0.7-1.3,0.9
			c-0.5,0.2-1.1,0.3-1.6,0.3L-63.9-25z M-23.7-30.5c0.4,0.2,0.7,0.4,1.1,0.6c0.4,0.2,0.8,0.3,1.3,0.4c0.4,0.1,0.9,0.2,1.3,0.3
			c0.4,0.1,0.9,0.1,1.3,0.1c0.5,0,1.1-0.1,1.6-0.2c0.5-0.1,1-0.3,1.4-0.6c0.4-0.3,0.8-0.7,1-1.1c0.3-0.5,0.4-1.1,0.4-1.8
			c0-0.5-0.1-0.9-0.2-1.4c-0.2-0.4-0.4-0.7-0.7-1c-0.3-0.3-0.7-0.5-1.1-0.7c-0.5-0.2-1-0.4-1.4-0.5c-0.3-0.1-0.6-0.2-0.9-0.3
			c-0.2-0.1-0.5-0.1-0.7-0.2c-0.2-0.1-0.3-0.2-0.4-0.3c-0.1-0.1-0.2-0.2-0.1-0.4c0-0.2,0.1-0.4,0.3-0.4c0.2-0.1,0.4-0.1,0.7-0.1
			c0.4,0,0.7,0.1,1.1,0.2c0.3,0.1,0.7,0.2,1,0.4c0.3,0.2,0.7,0.3,1,0.5l1.4-2.6c-0.3-0.1-0.6-0.3-0.9-0.4c-0.3-0.2-0.7-0.3-1.1-0.4
			c-0.4-0.1-0.8-0.2-1.2-0.3c-0.4-0.1-0.8-0.1-1.2-0.1c-0.6,0-1.1,0.1-1.6,0.3c-0.5,0.2-1,0.4-1.4,0.7c-0.4,0.3-0.7,0.7-1,1.2
			c-0.2,0.5-0.4,1.1-0.4,1.7c0,0.4,0.1,0.8,0.2,1.1c0.1,0.3,0.3,0.6,0.5,0.9c0.3,0.3,0.6,0.5,0.9,0.7c0.4,0.2,0.9,0.4,1.3,0.6
			c0.3,0.1,0.7,0.2,1,0.3s0.6,0.2,0.8,0.3c0.2,0.1,0.4,0.2,0.6,0.3c0.1,0.1,0.2,0.3,0.2,0.4c0,0.1-0.1,0.3-0.2,0.4
			c-0.2,0.1-0.5,0.2-0.7,0.1c-0.5,0-0.9-0.1-1.3-0.2c-0.4-0.1-0.8-0.3-1.2-0.4c-0.4-0.2-0.8-0.4-1.2-0.6L-23.7-30.5z M-60.8-40.4
			c-0.7,0.3-1.3,0.8-1.9,1.3c-0.5,0.5-0.9,1.2-1.2,1.8c-0.3,0.7-0.4,1.4-0.4,2.1c0,0.7,0.1,1.5,0.4,2.2c0.3,0.7,0.7,1.4,1.2,1.9
			c0.5,0.6,1.1,1,1.8,1.4c0.7,0.3,1.5,0.5,2.4,0.5c0.5,0,1-0.1,1.5-0.2c0.5-0.1,1-0.3,1.4-0.5c0.4-0.2,0.8-0.5,1.2-0.8
			c0.1-0.1,0.3-0.3,0.4-0.4l-0.7,1.9h3.2l0.7-2.3h3.1l0.7,2.3h6.4v-3.5h1.2l2,3.6h3.6l-2.4-4.3c0.5-0.4,0.9-0.9,1.2-1.4
			c0.3-0.6,0.4-1.2,0.4-1.9c0-0.5-0.1-1-0.3-1.5c-0.2-0.5-0.5-0.9-0.8-1.3c-0.3-0.4-0.8-0.7-1.2-0.9c-0.5-0.2-1-0.4-1.6-0.4h-5.3
			v11.5l-4-11.5h-2.9l-3.1,8.9l-2.5-1.5c-0.1,0.2-0.2,0.5-0.4,0.7c-0.2,0.2-0.4,0.3-0.6,0.4c-0.2,0.1-0.4,0.2-0.7,0.2
			c-0.2,0-0.4,0.1-0.7,0.1c-0.4,0-0.8-0.1-1.1-0.3c-0.3-0.2-0.6-0.4-0.8-0.7c-0.2-0.3-0.4-0.6-0.5-1c-0.1-0.4-0.2-0.8-0.2-1.2
			c0-0.4,0.1-0.7,0.2-1.1c0.1-0.4,0.3-0.7,0.5-1c0.2-0.3,0.5-0.5,0.8-0.7c0.4-0.2,0.8-0.3,1.2-0.3c0.2,0,0.5,0,0.7,0.1
			c0.2,0,0.5,0.1,0.7,0.2c0.2,0.1,0.4,0.3,0.6,0.4c0.2,0.2,0.3,0.4,0.4,0.7l2.4-1.7c-0.2-0.4-0.5-0.7-0.8-1
			c-0.3-0.3-0.7-0.6-1.1-0.8c-0.4-0.2-0.9-0.4-1.3-0.5c-0.5-0.1-1-0.2-1.6-0.2C-59.1-40.9-60-40.7-60.8-40.4L-60.8-40.4z
			 M-33.5-29.3h4.4c0.8,0,1.6-0.1,2.4-0.4c0.7-0.3,1.3-0.7,1.8-1.2c0.5-0.5,0.9-1.1,1.2-1.8c0.3-0.8,0.4-1.6,0.4-2.4
			c0-0.8-0.1-1.5-0.4-2.2c-0.2-0.7-0.6-1.3-1.1-1.8c-0.5-0.5-1.1-1-1.8-1.2c-0.8-0.3-1.7-0.5-2.5-0.5h-4.4L-33.5-29.3z M-30.4-32v-6
			h1.3c0.4,0,0.7,0.1,1.1,0.2c0.3,0.1,0.6,0.3,0.8,0.6c0.2,0.3,0.4,0.6,0.5,0.9c0.1,0.4,0.2,0.8,0.2,1.2c0,0.4-0.1,0.8-0.2,1.2
			c-0.1,0.4-0.3,0.7-0.5,1c-0.2,0.3-0.5,0.5-0.8,0.6c-0.3,0.2-0.7,0.2-1.1,0.2H-30.4z M-48-33.6h-2.1l1.1-3.6L-48-33.6L-48-33.6z
			 M-40.4-35.6V-38h1.9c0.2,0,0.4,0.1,0.6,0.3c0.2,0.3,0.3,0.6,0.3,0.9c0,0.3-0.1,0.6-0.3,0.9c-0.1,0.2-0.3,0.3-0.5,0.3L-40.4-35.6z
			 M-34.3-45.4H-39l-0.8-2.6c0.7-0.4,1.4-1.1,1.8-1.8c0.2-0.4,0.4-0.8,0.5-1.2c0.1-0.4,0.2-0.9,0.2-1.4c0-0.7-0.1-1.4-0.4-2
			c-0.3-0.6-0.6-1.2-1.1-1.6c-0.5-0.5-1-0.8-1.6-1.1c-0.6-0.3-1.3-0.4-2-0.4c-0.7,0-1.3,0.1-2,0.4c-0.6,0.3-1.1,0.6-1.6,1.1
			c-0.5,0.5-0.8,1-1.1,1.6c-0.3,0.6-0.4,1.3-0.4,2c0,0.9,0.2,1.8,0.7,2.6c0.4,0.8,1.1,1.4,1.9,1.8l-0.8,2.5h-9.5v-9l-2.9,6.4h-2.5
			l-2.9-6.4v9h-4.7v-17.2h5.1l3.7,8.1l3.7-8.1h5.1v17.1l5.9-17.1h4.3L-34.3-45.4L-34.3-45.4z M-27.4-45.4h-4.7v-13h-5v-4.1h14.6v4.1
			h-4.9L-27.4-45.4L-27.4-45.4L-27.4-45.4z M-22.2-45.4v-17.2h12v4.1h-7.3v2.4h6.2v3.8h-6.2v2.7h7.5v4.1L-22.2-45.4L-22.2-45.4z
			 M-45.6-50.4l2-2l-1.9-1.9l1.1-1.1l1.9,1.9l2-2l1.3,1.3l-2,2l1.9,1.9l-1.1,1.1l-1.9-1.9l-2,2L-45.6-50.4z"/>
	</g>
</g>
</svg>
