<svg id="Group_426" data-name="Group 426" xmlns="http://www.w3.org/2000/svg" width="1920" height="210.255" viewBox="0 0 1920 210.255">
  <path id="Path_7115" data-name="Path 7115" d="M374.557,73.287v27.593c-.165.206-.325.409-.5.63-.593.747-1.256,1.576-2,2.509-1.5,1.862-3.321,4.133-5.583,6.951,6.516-8.22,6.88-9.748,2.968-6.417-.979.833-2.225,1.97-3.713,3.382l-2.446,2.34-1.719,1.481q-.779.643-1.613,1.331c-4.429,3.637-9.963,7.713-15.894,12.21-5.386,4.293-10.246,8.532-14.769,12.331-4.507,3.814-8.649,7.267-12.535,10.378l-2.866,2.269q-1.25,1.013-2.446,1.979l-4.964,4.111a62.644,62.644,0,0,1-11.22,7.566L266.9,178.21l6.627-12.641-5.923-5.73c-2.509,2.955-5.4,6.319-8.317,9.664-4.07,4.665-8.172,9.287-11.253,12.736-1.509,1.686-2.767,3.089-3.648,4.072-.961,1.037-1.509,1.63-1.509,1.63-1.485,1.422-2.474,2.347-3.133,2.933h-.807c.052-.175-.033-.232-.416,0H207.431l2-3.018,1.091,1.041c.039-.041.082-.08.119-.119l-1.115-1.065.013-.017-4.436-4.232-.015.015-.424-.4c-4.167,2.734-8.229,5.429-11.918,7.8h-3.107c.9-.619,1.808-1.249,2.736-1.9,3.4-2.431,6.958-4.971,10.562-7.545l-.994-.946.017-.015-.416-.4.011-.011.416.4c1.972-1.788,3.094-2.808,3.851-3.494-2.593,2.113,4.4-5.1,9.932-11.77,3.087-3.674,5.808-6.995,6.347-7.952l-.037.017-.262.106-.195.074-.186.063c-.632.546-1.656,1.522-3.219,3.085.9-1.007,1.782-1.979,2.637-2.929a10.977,10.977,0,0,1-1.394.31c-.3.041-.593.069-.885.087-.2.007-.18.013-.554.013h-.017c-.186.2-.377.411-.561.617-7.27,8.038-14.111,15.665-21.1,22.727-.089.132-.191.277-.271.4l-.362.576c-.026-.015.091.05-.175-.1l-.039-.022q-1.672,1.676-3.36,3.308l-5.492,5.3h-2.23l-5.992-4.648a10.777,10.777,0,0,1-2.773-3.254,10.259,10.259,0,0,1-.483-.992c-1.024,1.36-2.054,2.717-3.042,4.089l-.723-.686a27.025,27.025,0,0,1-2.033,1.983l-4.042,3.507H144.031l10.963-17.133c.52-.812,1.052-1.609,1.58-2.412l-.433-.409a6.21,6.21,0,0,0,.738-.71c.113-.128.221-.26.327-.4l.156-.219.654-1,1.771-2.035.494-.721a8.026,8.026,0,0,1-.829-.976c-3.115,2.44-6.293,5.321-9.554,8.285l-3.262,2.949-3.323,2.929q-3.078,2.728-6.025,5.334c-.3.266-.58.513-.877.775-1.806,2.009-3.646,3.91-5.486,5.75h-.706c.838-.827,1.669-1.63,2.513-2.5l-2.827,2.5H101.06L103,189.16l2.215-3.858.79-1.853c-.268.065-.548.13-.84.2l-.747.178-3.975,7.051h-.377l3.927-6.951c-.935.223-1.946.457-2.992.632-1.5.253-3.042.388-4.41.517a13.416,13.416,0,0,1-3.979-.141c-.236-.056-.472-.136-.706-.216-.2.184-.617.563-.894.792l-.565.474-.758.652-.069.058c-.009,0,.011.017-.022-.009l-.489-.5-.5-.5c-2.542,1.756-4.934,3.481-7.231,5.191H68.514l1.931-9.242-3.42-3.728a29.8,29.8,0,0,0,2.011-2.47c-1.608.985-3.113,1.9-4.7,2.823,0,0,1.394-.948,2.786-1.9.968-.641,1.922-1.275,2.431-1.613l.03-.039c-2.392,1.427-4.75,2.879-7.051,4.349q-3.575,2.283-7.031,4.678c-3.371,2.329-6.64,4.726-9.872,7.14H0v-9.818l16.262-23.614a32.019,32.019,0,0,1,4.453-5.131c1.344-1.279,2.548-2.3,3.483-3.137l.645-.58.669-.628,1.578-1.492,3.159-2.981,12.677-11.933c.836-.773,1.682-1.522,2.522-2.286l.344-1.437a17.294,17.294,0,0,1,3.622-6.96c-.286-.439-.572-.853-.935-1.375l-.091-.13,0,0,0,0,.006,0,.017-.013.238-.2c.485-.394,1.271-1.2,2.851-2.5l5.516-4.382.212-.167,5.111-5.862,1.593-3.546a11.5,11.5,0,0,1,2.49-3.295c.875-.894,1.777-1.751,2.691-2.587,1.827-1.671,3.7-3.249,5.52-4.832.8-.7,1.6-1.435,2.392-2.152a14.476,14.476,0,0,1,.9-1.262l-.481.881c2.654-2.39,5.308-4.823,7.96-7.218C92.594,75.675,99.792,69.2,106.94,62.593c7.157-6.627,14.422-13.214,22.047-19.516l11.545-9.1.972-.764,2.736-2.667a24.524,24.524,0,0,0,3.249-3.849l.879,1.13c.459-.323.944-.647,1.483-.972a17.123,17.123,0,0,1,5.618-2.174l13.52-2.522-3.821,7.83,1.79-.684,3.26,4.3a10.549,10.549,0,0,1,.762,1.156,9.573,9.573,0,0,1,.639,1.455,8.643,8.643,0,0,1,.411,3.3,9.218,9.218,0,0,1-1.392,4.189,12.816,12.816,0,0,1-1.292,1.728l-.636.7-.375.413-.368.312c-.113.1-.214.18-.325.275l.593,1.039a14.878,14.878,0,0,0-2.013.948c-.323.182-.636.375-.948.582-.368.251-.351.227-1.541,1.132l-1.476.844-.68.572c-2.018,1.6-3.875,3.07-5.536,4.386-3.323,2.6-5.982,4.538-7.495,5.54-8.956,7.2-16.895,14.407-24.262,21.27-1.684,1.585-3.334,3.141-4.968,4.68L131.923,81.6c7.118-4.325,14.412-8.62,21.718-12.725l13.21-7.41c4.354-2.455,8.7-4.886,13.037-7.151,0,0-1.557.667-3.113,1.336l-3.085,1.355c5.927-3.217,12.06-6.417,18.717-9.344l12.749-5.6v.015c.31-.3.626-.6.935-.9.383-.357.8-.743,1.238-1.141l.026-.056.017.017a25.642,25.642,0,0,1,6.943-4.639l21.283-9.51-1.87,4.819c.115-.087.229-.175.342-.264q2.429-1.857,4.836-3.706a26.794,26.794,0,0,1,3.89-2.555,15.475,15.475,0,0,1,3.312-1.3,12.437,12.437,0,0,1,5.484-.221l4.009.749,1.935,3.414c.251.444.483.875.7,1.349a13.928,13.928,0,0,1,.608,1.634,11.9,11.9,0,0,1-.442,8.058,13.062,13.062,0,0,1-1.719,2.888,15.949,15.949,0,0,1-3.414,3.191,5.975,5.975,0,0,1-.628.409c2.3-.5,4.126-.961,6.438-1.455.632.66,1.316,1.4,2.1,2.362l.6.751a.736.736,0,0,1,.152.292l.149.381.286.747a27.145,27.145,0,0,1,.855,2.678,5.174,5.174,0,0,1,.156,3.063c-.022.08-.071.1-.074.227l0,.422v.859c0,.582-.024,1.206-.052,1.844a37.3,37.3,0,0,1-.591,4.9c3.332-2.905,6.681-5.75,10.047-8.5q2.809-2.3,5.631-4.527c1.883-1.487,3.721-2.9,5.776-4.47.686-.485,1.362-.959,2.042-1.44,3.3-3.42,6.687-6.854,10.205-10.3q4.806-4.54,10.008-9.463a76.534,76.534,0,0,1,6.525-5.555,44.911,44.911,0,0,1,4.3-2.832,33.135,33.135,0,0,1,5.562-2.518l20.456-7,4.942-3.085.156,1.34L357.173,0,349.3,11.537l.688,5.9a12.794,12.794,0,0,1-.238,4.3c-.069.294-.147.615-.227.877l-.253.747a13.261,13.261,0,0,1-.541,1.295,18.042,18.042,0,0,1-1.955,3.15c-.539.706-.963,1.2-1.243,1.539-.1.126-.2.249-.3.364l-.091.126c-2.2,3.022-4.555,5.878-6.824,8.5-2.29,2.641-4.466,5.059-6.676,7.525-.1.115-.206.225-.31.338l-.656,18.583a19.247,19.247,0,0,0,0,2.721c-.219.933-.448,1.754-.68,2.494l3.548,1.442L332.72,73.6l1.964-.929,4.243,6.547a12,12,0,0,1,1.86,6.36,13.52,13.52,0,0,1-.541,3.871,61.438,61.438,0,0,1,7.068-5.975l10.5-7.289.768,3.7a74.133,74.133,0,0,1,7.023-3.875l9.051-4.4v1.676Zm-270.273,52.55c-2.037,2.024-4.148,4.081-6.347,6.111C89.173,140.128,79.225,148.185,69.4,155.9l-7.328,5.728c-1.6,1.249-3.223,2.5-4.849,3.73-.087.132-.178.26-.266.388C63.467,162,68.812,159.3,68.812,159.3c6.293-3.41-.21-.416-4.263,1.539-2.028.972-3.451,1.658-2.431.979,1.035-.649,4.466-2.758,12.5-6.75,4.421-2.091,7.387-3.353,9.519-4.18,4.875-3.964,9.692-8.09,14.479-12.329,1.944-4.351,4.042-8.848,6.337-13.385-.221.221-.444.448-.665.667m28.048-19.562-.907,2.041c-.058.132-.121.253-.182.385q2.611-2.474,5.2-4.971c-1.373.849-2.749,1.686-4.115,2.544m24.829,48.818.45.632c-.061.05-.13.1-.191.156l.362.5.368-.31.5-1.715c.108-.372.219-.745.327-1.115Zm69.691,7.759c.323-.225.649-.476.974-.71l1.249-1.634c.556-.727,1.141-1.515,1.743-2.342l-3.167,3.395-1.039,1.124c.078.056.167.115.24.169m-8.075,10.3c-3.637,2.825-7.391,5.434-11.119,7.93q-1.247,1.188-2.539,2.371l4.431,4.23,3.156-4.756c3.169-4.771,5.657-8.274,7.791-11.16-.574.461-1.143.933-1.721,1.386m-.589-85.9-.342.21c-.21.24-.429.489-.66.751l.413.134c.294-.4.628-.849,1.007-1.355Zm4.916-2.73a.437.437,0,0,0-.037-.071l-.087.017-.171.039a3.3,3.3,0,0,0-.647.264l-2.914,1.821c-.522.667-1,1.282-1.433,1.825l2.684.87.682-1.028q.757-1.143,1.409-2.284c.158-.407.615-.658.584-1.134a.861.861,0,0,0-.071-.318m9.974,70.066c-.827.836-1.587,1.6-2.767,2.855-2.169,2.321-4.587,4.914-7.213,7.726l-1.368,1.47c.753-.613,1.5-1.227,2.254-1.836l-.033-.028c.113-.071.225-.154.338-.225.271-.229.522-.45.758-.667.524-.6,1.089-1.251,1.712-1.968,1.173-1.331,2.522-2.864,4.068-4.615q1.036-1.153,2.206-2.451c.165-.182.355-.388.524-.572l.361-.53-.84.84m3.167-2.745,2.065-1.383,2.959-4.02c-1.507,1.643-3.167,3.431-5.025,5.4m29.364,10.1c.643-.734,1.282-1.47,1.912-2.2l-1.453-1.4c-2.823,3.215-5.9,6.757-9.331,10.766l-1.037,4.014s4.99-5.54,9.909-11.182m4.271-48.787c-3.4,2.864-6.711,5.743-9.993,8.653-.043.1-.084.2-.113.286-.411.974-.859,1.855-1.295,2.676A68.565,68.565,0,0,1,250.4,136.09c-.461.55-.946,1.124-1.45,1.71.329.489,3.806-2.907,15.394-16.62l3.178-3.843c1.933-2.3,4.566-5.323,7.274-8.274l.227-.245c-1.712,1.442-3.418,2.879-5.146,4.341" transform="translate(271.972 0)" fill="#fcc351"/>
  <path id="Path_7116" data-name="Path 7116" d="M126.631,16.558l.092.4.182.646a1.416,1.416,0,0,1,.053.26,3.487,3.487,0,0,1,.131.551,8.8,8.8,0,0,1,.159,1.769c-7.711,6.352-11.162,9.2-12.467,10.273v0c1.1-.906,2.94-2.42.517-.422l.017.025.034.05.509.816,1.023,1.627q1.551,2.448,3.052,4.807c-.8.084-1.523.179-2.426.344s-1.817.408-2.725.66V92.792a3.948,3.948,0,0,1,.333.425,1.84,1.84,0,0,1,.145.26c-.355,4.625,1.051,2.194,2.417,5.5.034.414.059.8.064,1.132v.461c-.006.07-.008.137-.011.2a.337.337,0,0,1-.011.084l-.073-.12c-.45,1.814-1.534,2.227-2.789,3.485a3.54,3.54,0,0,0-.075-.383v8.04c.087.333.176.646.26.88.235.752.4,1.143.4,1.143l.162.307a3.9,3.9,0,0,0,1.076.933.68.68,0,0,0,.869-.17,2.8,2.8,0,0,0,.657-1.193c.07-.243.143-.486.207-.71a1.43,1.43,0,0,0,.089-.383c-.028-.338-.053-.646-.075-.914-.1-1.322.02-1.965.551-.785.713,1.763,1.054,1.671,1.582,2.976l-.629.545a20.631,20.631,0,0,1-2.244,1.61c1.023-.084,1.892,2.1,2.8,4.533a42.4,42.4,0,0,1,3.323,13.761c.8-1.367,1.741-1.914,2.993-.542-.615.011-.875.556-1.017,1.263a17.668,17.668,0,0,0-.165,2.566c-.056,1.9-.218,3.77-1.582,2.906-.293-1.425,1.188-3.34-.238-4.91a5.018,5.018,0,0,1,.061,3.127c-.129.341-.3.648-.472,1.051a7.3,7.3,0,0,0-.265.688c-.045.134-.089.265-.131.439-.031.26-.062.542-.1.844,1.515,5.251,1.912,3.533,2.4,2.518.489-1.09.978-1.409,2.7,5.151.405,2.244.271,4.636.559,6.9.252,2.269.693,4.452,1.118,6.467,1.034,4.008.841,6.956,2.389,9.888H256.987c-.917-1.037-1.912-2.1-2.968-3.183.143-.014.288-.02.43-.036.6-.075,1.126-.154,1.775-.279.785-.151,1.576-.341,2.362-.57a26.241,26.241,0,0,0,12.26-7.747,25.7,25.7,0,0,0,2.387-3.124,27.223,27.223,0,0,0,1.73-3.088c.249-.525.489-1.082.69-1.587l.377-1.012c.238-.679.447-1.372.629-2.068s.338-1.4.461-2.107c.1-.534.143-.88.2-1.333.106-.855.171-1.719.2-2.574.02-.7.014-1.121,0-1.694-.017-.523-.053-1.1-.1-1.571l-.117-1.054-.151-1.042-.137-.769c-.087-.456-.21-1.014-.3-1.369-.492-1.892-.38-1.456-.458-1.817-.039-.187-.078-.363-.112-.528-.129-.612-.215-1.02-.215-1.02.045.453.087.864.123,1.238.022.212.045.414.064.606-.087-.143.271,1.068.534,2.434q.092.532.184,1.048c.067.414.14.953.19,1.411a29.021,29.021,0,0,1,.17,3.711,28.022,28.022,0,0,1-.235,3.071,27.551,27.551,0,0,1-.95,4.323l-.4,1.193c-.162.436-.235.646-.539,1.369a26.382,26.382,0,0,1-1.858,3.558c-.352.565-.724,1.112-1.112,1.638l-.6.788c-.274.347-.562.688-.858,1.023a25.8,25.8,0,0,1-13.345,8.012c-.411.1-.822.187-1.232.266l-.914.151c-.495.075-.995.126-1.5.17q-1.358-1.371-2.784-2.756c.444.008.891.006,1.305-.017a22.316,22.316,0,0,0,5.522-.905,22.962,22.962,0,0,0,14.354-12.353c.187-.4.366-.813.525-1.221l.291-.771q.277-.78.5-1.59c.148-.539.279-1.087.391-1.638l.14-.769.078-.5c.1-.676.165-1.364.2-2.057l.034-.97v-.662c-.006-.442-.022-.889-.053-1.336a25.445,25.445,0,0,0-.478-3.426c-.089-.383-.179-.769-.271-1.157l-.26-.953c-.106-.425-.218-.875-.33-1.327l-.883-3.365c.668,2.761.02,3.412-1.065,2.865a35.641,35.641,0,0,0-1.984-5.693c-.408-1.031-.819-2.085-1.213-3.3a31.56,31.56,0,0,1-1.079-3.862c1.881,1.311,1.445-1.35,3.963,2.278-.374-.861-.755-1.7-1.151-2.521-.193-.411-.411-.808-.615-1.207s-.428-.827-.565-1.062q-.8-1.421-1.559-2.789l-2.94-5.22c-1.981-3.471-4.077-7.018-6.71-11.187,1.663,3.253,7.481,13.565,2.893,9.958l-3.292-6.475-2.208,3.334c.235-6.984-7.627-17.939-11.441-22.754-2.5,1.076-5.126-6.593-6.1-2.06.26-1.383-1.976-6.758-4.265-10.094,3.639,4.114,4.1,1.336,3.387-2.635-3.63-.031-2.325-5.377-3.737-7.174-.69.115,1.481,6.883-2.725.492-.822-4.975,3.066-6.411-1.442-14.882a2.873,2.873,0,0,1-1.993-1.068A16.9,16.9,0,0,1,224.2,43.9c-1.255-1.886-2.457-3.991-3.446-4.748.442,3.194,5.212,7.632,3.742,9.373-8.644-8.979-4.829-11.428-9.4-19.23-1.92-.891-4.863-4.052-6.936-6.489-2.13-2.521-3.225-4.432-3.264-5.24,0,0-.162.355-.293.738s-.274.757-.274.757-.97-1.286-1.548-2.174c-.6-.908-1.191-1.814-1.635-2.493l-1.012-1.467a6.043,6.043,0,0,0,.651,2.342c.226.509.469,1.051.713,1.593a3.539,3.539,0,0,1,.145.693c.168.85.31,1.621-.777,1.313,0,0-.238-.333-.592-.836-.383-.562-.827-1.216-1.3-1.917-.517-.718-1.07-1.487-1.621-2.255-2.16-2.94-4.214-5.461-4.214-5.461.629,1.316,3.3,3.837,2.412,4.39l-2.247-3.08c-1.341-1.8-3.1-4.1-4.9-6.355q-.679-.847-1.35-1.682l-.676-.836-.349-.425-.193-.235L185.8.142l-.014-.017c1.92-1.7-16.637,14.714-8.842,7.811l-.117.089-.936.727c-.394.31-.8.62-1.2.933.025.006.034.028.053.039.05.028.277.266.4.377l1.677,1.677c1.084,1.121,2.1,2.264,3.046,3.443a26.445,26.445,0,0,1,4.427,7.7c.187-.654.928-.327,1.881.467.905.7,2.266,2.342,2.884,2.867.771.732,1.467,1.339,1.766,1.336s.14-.648-.514-2.261l-1.288.341c-5.008-5.785-7.873-14.613-7.641-16.505,3.809,5.888,6.243,9.066,9.019,12.853l1.065,1.5c.224.3.45.6.685.917.523.668,1.073,1.369,1.677,2.135,1.283,1.621,2.976,3.639,5.335,6.833-.931-3.183.539-1.66,2.311.405.883,1.031,1.839,2.253,2.532,2.92.612.556.97.534.987-.439,1.987,2.535,3.549,5.841,5.321,7.772-6-4.67,1.1,6.042-1.325,6.255-2.688-3.412-4.027-8.107-2.677-9.365-1.557-2.317-2.9-1.045-3.574.087l-1.255-1.6c-.433-.551-.939-1.191-1.481-1.878-.573-.707-1.182-1.434-1.786-2.127-2.437-2.792-4.575-5.064-4.575-5.064,1.694,2.141,2.37,3.588,2.387,4.485A1.762,1.762,0,0,1,194.9,36.5c-1.149.732-2.239.984,1.534,5.123,1.859,2.035,2.485-2.144,5.852,4.145.7,1.048.486,1.593-.075,1.635a19.4,19.4,0,0,1,6.394,7.976c.752-.38.9-2.585,3.977,1.825,4.284,6.213-.981,4.955-.7,6.582l-1.16-1.107c1.554,3.138-1.442,1.758.419,6.78-.341-1.5,1.182-1.059,2.909,1.951.5,1.347.156,1.872-.461,2.076l-.7-.509q-1.446-1.111-2.856-2.2c-1.811-1.434-3.463-2.817-4.935-4.1s-2.767-2.468-3.957-3.616a38.933,38.933,0,0,1-3.549-3.764c.7-3,5.461,2.638,2.18-2.208,0,0,1.548,1.028,3.1,2.06l2.943,1.892c-.824-2.543-2.677-3.183-4.779-3.834a12.056,12.056,0,0,1-6.783-4.192c-.66-1.52,4.975,1.691.078-2.241l-.235.841a53.247,53.247,0,0,1-7.367-8.06c-.984-1.266-1.923-2.5-2.926-3.7-.478-.578-1.054-1.218-1.671-1.878s-1.224-1.294-1.872-1.934c-.975.531-1.006,1.557-.349,2.948a14.357,14.357,0,0,0,1.464,2.325c.537.766,1.179,1.585,1.886,2.457,2.828,3.465,6.76,7.73,9.3,11.556l-1.428-1.082c1.942,1.657-2.7-.456-.089,1.7a23.389,23.389,0,0,1-5.964-6.5,28.52,28.52,0,0,0-2.563-3.4,44.266,44.266,0,0,0-5.321-4.877c-2.758-.349-3.01.492-6.084-.411-1.213-3.077-.76-3.024-3.552-6.766,1.819.344,4.533,5.19,4.729,2.985-.47-1.97-3.049-3.5-2.487-5.128a9.207,9.207,0,0,1,3.192,1.52c.679.576,1.311,1.423,3.2,3.345.369-1.269-1.1-3.521,1.392-2.814A44.779,44.779,0,0,0,170.55,27.6c-1.308-.947-2.63-1.853-3.952-2.742a10.739,10.739,0,0,0-.531-1.68,4.1,4.1,0,0,0-.69.861c-.894-.6-1.791-1.193-2.669-1.786-.07-.045-.187-.131-.215-.14h-.022l.106-.131-.858,1.042c-.112-.109-.226-.221-.344-.347-.039-.1-.07-.176-.112-.277,0,0-.056-.008-.14-.025-1.174-1.61-2.4-4.094-3.731-5.989q-.679-2.021-1.406-4.175-.377-1.1-.769-2.225l-.394-1.132a1.168,1.168,0,0,1-.089-.349l-.042-.249-.182-.981-.1-.481-.014-.061-.006-.028,0-.008v0c1.4-.59-3.449,1.442-8.585,3.588-.011-.081-.028-.165-.036-.249-2.426-.827-2.937.506-3.56,1.49a4,4,0,0,1-.274.38l-1.179.492a2.877,2.877,0,0,1-1-.31,7.806,7.806,0,0,1-.81-.469l-.467-.324c-.022-.006-.126-.112-.081-.036l-.243-.232c-.19-.179-.38-.366-.777-.71l-.335-.3a7.767,7.767,0,0,0-.64-.486,8.024,8.024,0,0,0-.707-.408l-.419-.193a6.765,6.765,0,0,0-.97-.307,6.259,6.259,0,0,0-1.009-.159,6.553,6.553,0,0,0-2.18.221,6.271,6.271,0,0,0-2.057,1,6.411,6.411,0,0,0-1.613,1.736,6.008,6.008,0,0,0-.62,1.277,7.16,7.16,0,0,0-.271,1.023l-.067.472-.02.215-.017.433a7.134,7.134,0,0,0,.078,1.14ZM244.677,127.03c-5.863-12.179,4.667-4.79-1.953-17.017,5.43,3.015,5.223,9.742,9.337,15.6l-2.1-2.44a4.064,4.064,0,0,0,1.23,1.858c-.657,2.708-4.877-4.776-6.132-2.968l2.77,2.325c-.942.433,2.046,6.053.307,4.919l-2.107-5.036q1.073,2.662,2,5.248a28.518,28.518,0,0,1,1.431,5.394c.246,1.395.422,2.772.576,4.142-.324-.609-.651-1.221-1.006-1.811-.995-1.621-1.861-2.965-2.711-4.444-1.383-2.35-2.781-4.81-4.435-7.356.422-1.372.891-2.75,2.792,1.587m-5.863-5.894a6.9,6.9,0,0,1,1.14,1.791c-.333-.321-.648-.651-1.014-.956-.117-.1-.249-.17-.366-.263a.79.79,0,0,1,.24-.573m-.852-.537a3.8,3.8,0,0,0-.031.646c-.274-.2-.534-.408-.822-.592-.249-.159-.52-.282-.777-.43.215-.5.414-1.014,1.629.377m-26.93-37.3s.3.176.576.383c.034.014.232.193.433.372.156.145.293.268.43.394,1.218,2.138,1.59,3.144,2.375,4.74a21.1,21.1,0,0,1-2.593-1.406c-.126-.084,1.6,1.395,3.236,2.652.489.908,1.143,2.051,2.065,3.563l-.022-.031a28.751,28.751,0,0,0-2.5-1.886c-.632-.467-1.383-1.048-2.152-1.7-.394-.335-.769-.671-1.118-1-.386-.361-.634-.615-.822-.819-.8-.878-1.031-1.436-.783-1.953-.238-.129-.481-.263-.729-.4-.151-.056-.17,0-.249-.017a.33.33,0,0,1-.277-.123Zm-12.993-4.745a10.7,10.7,0,0,1,2.532,2.4c-2.607-3.588,4-1.716,3.166-3.178a42.3,42.3,0,0,1,3.9,3.485,18.081,18.081,0,0,1,1.6,1.811c.377.537.777,1.109.525,1.305a2.45,2.45,0,0,1-.171.3l-.022-.008-1.157-.679c-.38-.218-.724-.394-1-.528a2.914,2.914,0,0,0-1.193-.374c-.495.017-.469.514-.229,1.193.444,1.35,1.9,3.465,1.249,3.784l.045.036a.787.787,0,0,1-.145.453,17.451,17.451,0,0,0,1.355,1.772,43.734,43.734,0,0,0,3.06,3.222,34.135,34.135,0,0,0,3.753,3.312.722.722,0,0,0,.31.123l.087-.031c.017-.006.036-.011.039-.031l1.051-1.16-.363.4c-.053.059-.067.075-.076.087l.006-.014-.014-.061a1.008,1.008,0,0,0-.12-.2c-.265-.349-.9-.981-1.629-1.738a8.812,8.812,0,0,1-1.613-2.051c-.215-.514.179-.6,1.23-.291,0,0,1.168,1.054,2.334,2.11a4.8,4.8,0,0,1,.919.956c.224-.279.327-.464.263-.674.062.1.112.184.176.285l.031-.034-.031.034c-.067-.1-.117-.19-.176-.288a.767.767,0,0,0-.151-.252c-.869-1.476-.931-2.149-.735-2.6.123.084.254.182.366.254A9.092,9.092,0,0,0,219.312,93a1.316,1.316,0,0,0,.467-1.286c.143.162.274.3.405.436-.151.157-.31.321-.472.492.168-.173.319-.333.472-.489,1.076,1.1,1.791,1.33,3.781,3.4-5.978-2.951,2.211,8.862-5.45,1.9,2.289,5.874,1.165,5.724,4.555,10.762,1.923-2.929-1.752-6.615-.282-10.821l5.877,6.006c.567-2.739-4.815-11.475-.157-9.256,5.246,6.134.83-5.137,5.324,3.144-4.086,1.64,3.535,14.368-1.065,14.736-1.783-3.711-3.077-6.47-4.458-5.274,5.712,8.04-.908,5.061,5.114,11.455l.584-1.719c.794.905.785,1.928,1.093,3.052a17.013,17.013,0,0,0-2.141-.841l2.831,2.73c-5.472-4.5-6.162-1.02-11.21-2.144-4.877-6.137-.162-4.164-7.769-11.679-.836-2.116,1.763-.341,2.926.95-4.625-6.576-6.347-.674-10.567-8.188-2.853-3.829,1.45-.847-2.023-4.458-.674.226,3.449,6.378.892,5.922-1.023-2.988-3.493-4.131-5.466-6.112,2.675,3.569,4.293,7.906,2.932,8.334-1.207-2.286-2.512-3.9-3.966-3.806-2.264-4.058,1-4.164-2.317-9.248,5.064,3.806,3.784-2.311,5.726-2.979l3.879,5.246c-5.357-8.138-2.633-5.763-8.552-14.032a7.607,7.607,0,0,1,.827,2.325c.235.268.481.551.76.878-.3-.3-.534-.556-.755-.81.064,2.183-6.109-4.114-8.5-3.873a20.223,20.223,0,0,1-3.8-5.69c.718.509,1.436,1.017,2.1,1.49s1.409,1,1.783,1.238c.8.511,1.358.8,1.322.469a17.479,17.479,0,0,0,4.019,3.292M176.254,45.095c.422.405.819.788,1.2,1.149.319.293.62.567.9.827a14.432,14.432,0,0,0,1.627,1.26A5.6,5.6,0,0,0,183,49.359c-.922,1.344,1.395,3.681,3.507,6.031s4,4.664,1.8,5.7c1.747-.472,4.678,3.491,6.7,4.919-6.922-4.522-1.5,1.467-6.936-1.775l-2.339-3.806c2.015,3.421.321,2.831-2.009,1.786-.648-1.143-1.308-2.292-2.026-3.446q-.646-1.01-1.3-2.029l-1.291-1.906a6,6,0,0,1,.95,2.1,11.362,11.362,0,0,1-3.259-3.275,25.732,25.732,0,0,1-1.853-3.418l.028.025c2.308,2.04,4.505,3.482,6.545,2.334-2.823-1.107-3.893-2.663-6.023-3.966-2.3-3.013.472-2.2.752-3.53m-11.265,96.551,2,2.009,1.931,1.993c1.789,1.842,3.572,3.56,5.332,5.187a28.068,28.068,0,0,1-4.991-.338c-1.269-.207-2.512-.489-3.764-.662-1.252-.21-2.51-.126-3.756-.254a4.793,4.793,0,0,1-1.8-.495,1.981,1.981,0,0,1-1.054-1.5,12.581,12.581,0,0,1,.036-1.92,14.375,14.375,0,0,0-.165-1.9c-.2-1.255-.243-2.524-.327-3.781L158.3,138.1l-.207-2.166-.157-1.347c.889.919,1.763,1.811,2.613,2.661ZM158.9,19.179a.583.583,0,0,1-.665.1c-.078-.316-.154-.629-.232-.956l-.084-.349-.067-.2a10.322,10.322,0,0,1,1.048,1.4" transform="translate(1099.47 37.493)" fill="#f77966"/>
  <path id="Path_7117" data-name="Path 7117" d="M366.236,192.589v1.173c-1.314.118-2.414.175-3.346.19a25.769,25.769,0,0,1-4.063-.172,56.488,56.488,0,0,0-9.522-.618c-.44-.19-.883-.395-1.32-.606a3.489,3.489,0,0,1-1.088-.657c-.482-.443-.977-.892-1.474-1.3a5.86,5.86,0,0,0-3.038-1.528l2.439-.419a97.625,97.625,0,0,0-21.29-.959l.268.763-8.072-.576-.531.949-11.581-.609,1.6-.214c-1.121-.081-3.322-.235-5.86-.371-1.248.4-2.176.717-2.951,1.052a18.448,18.448,0,0,1-3.849,1.414c-.012-.09.081-.214.163-.338l.47.087c.307-.241.09-.353-.3-.413.054-.25-.3-.395-2.2-.072l.383.069c-2.96.247-7.988,1.007-10.182,1.212l.021.943c-2.68-.69-11.427.407-20.551,1.079-9.109.711-18.52,1.188-22.055.965-7.186.615-15.783-1.372-24.729-1.347-7.09-.326-8.907-.181-9.833.16-.934.319-.977.808-4.612.85-9.058-.4,1.938-.883-1.661-1.347,0,0-2.716.036-5.453,0s-5.456-.136-5.456-.136c6.212,1.052,2.758,1.1,1.552,1.3-4.666-.615-10.668-1.212-15.756-1.953s-9.26-1.537-10.514-2.731c-6.2-.681-9.4-.913-11.7-1.079a37.3,37.3,0,0,1-6.39-.841c1.884.087,5.51.6,5.613.2-5.169-.3-2.333-.714-.259-.452-3.7-1.23-13.76-2.559-23.195-5.417-9.429-2.8-17.908-7.726-17.929-9.266l-.22.3a1.779,1.779,0,0,1,.181-1.57c-3.861-1.049-6.351-1.848-6.351-1.848l-1.673.886a16,16,0,0,0-4.645-2.39c-2.185-.85-4.9-1.733-6.966-2.794a14.491,14.491,0,0,1-4.35-3.014c-.735-.85-.811-1.4.066-1.468a12.242,12.242,0,0,1-3.674-3.548,11.22,11.22,0,0,1-1.414-2.686,15.777,15.777,0,0,1-.841-3.68,31.058,31.058,0,0,1,.084-6.05c.084-1.305-.133-1.8-1.028-.937a19.513,19.513,0,0,1,2.87-6.812,20.257,20.257,0,0,1,3.888-4.241,29.714,29.714,0,0,1,4.036-2.734c.8-.425,1.643-.847,2.526-1.248.262-1.272.546-2.6.9-3.946.06,1.215.187,2.348.32,3.466.627-.253,1.233-.515,1.923-.732.112-.036.235-.063.344-.1.048-.314.078-.609.13-.925.093-.57.193-1.148.317-1.73.136-.642.3-1.3.479-1.932a19.531,19.531,0,0,1,1.4-3.647,13.284,13.284,0,0,1,5.7-5.564,7.741,7.741,0,0,1,4.081-1.163s.359-.2.9-.491c.506-.274,1.188-.624,1.872-.952,1.375-.657,2.734-1.215,2.734-1.215a40.543,40.543,0,0,1,10.11-1.794,13.1,13.1,0,0,1,4.41.443c1.821.567,2.237,1.332,5.854,1.1l9.007-1-8.883-.506c4.558-.145,7.593-.244,10.5-.431,3.023-.16,5.806-.3,9.456-.419,0,.015.078.033.075.048a1.875,1.875,0,0,0-.907.136l1.257.169c1.013.865,5.637,1.932,11.762,2.586,3.026.268,5.821.624,8.778.983,2.785-.124,5.513-.175,7.912-.2,2.372-.03,4.741-.012,7.111.018-.2-.018-.392-.027-.591-.048-7.7-.844-15.765-1.73-22.309-2.451l-.166-.591c7.638.817,16.554,2.155,21.682,2.541a19.5,19.5,0,0,0,4.838-.606c1.106-.317,1.585-.714.509-1.148l3.795,1.182a155.416,155.416,0,0,1,16.678,1.616c4.121.693,7.448,1.227,10.821,1.718,6.743.98,13.661,1.793,27.418,3.379l-2.469.223c5.353,1.272,10.692,2.529,12.362,1.778,16.419,2.466,33.639,4.669,44.7,5.29l2.062,1.914c3.5.612,9.212-.434,10.478,1.953,0,0,1.833.573,3.665,1.148l3.822,1.248c4.971,1.152,7.689,2.815,13.311,3.659l.03.006,1.061.148a.205.205,0,0,1-.1.1,32.569,32.569,0,0,1,4.609,1.378c.645.289.636.455.672.627s.115.35.986.69c.883.362,2.511.8,5.947,1.881a7.724,7.724,0,0,1,4.714,2.586c.636.624,1.326,1.305,2.27,2.077.229.181.467.368.717.567.105.081.214.163.326.25l.576.38c.826.531,1.76,1.088,2.852,1.685,0,0,1.278.437,2.945,1.067v45.9c-.326.214-.292.368,0,.5M131.4,143.029c-.748.232-1.649.479-2.7.72-1.007.223-2.131.467-3.343.735l-1.652.362-.868.2c-.211.045-.1.03-.16.045l-.057.024c-.139.063-.28.124-.428.19-.543.229-1.082.491-1.013.72.024.1.172.211.467.326a2.643,2.643,0,0,0-1.664.326c-.476.265-.672.723-.524.889a3.7,3.7,0,0,0,1.809,1.2c.223.087.458.172.7.247l.371.115.292.075,1.088.25c2.918.651,5.9,1.248,8.925,1.818q4.63.85,9.224,1.694l.193.036a12.955,12.955,0,0,1-.428-3.1,9.78,9.78,0,0,1,.633-3.545,13.776,13.776,0,0,1,3.84-5.362,12.637,12.637,0,0,1,1.664-1.151c-5.432,1.037-10.882,2.119-16.374,3.186m58.842,10.086a7.837,7.837,0,0,0-1.625.356c-.428.148-.681.265-.681.265a12.384,12.384,0,0,0,2.833,1.133,17.376,17.376,0,0,1-.527-1.754m14.14-41.935c1.272.2,2.547.413,3.831.678l.1.018.036-.3c-1.218-.139-2.559-.274-3.964-.4m124.869,61.832c.036-.006.03-.006-.042-.015.072.009.078.009.042.015m-.22.042c-.042.009-.042.006-.1.021l-.121.042q.122-.041.217-.063m-.22-.208c-.09-.042-.2-.1-.316-.169.115.066.226.127.316.169m-.443.464-.015-.033-.021-.042a.405.405,0,0,0-.063-.13l-.018-.042-.009.027c.006-.006.018,0,.027.015l.063.13v0l.036.072c-.021.012-.048.021-.066.033l-.045.03a1.007,1.007,0,0,1,.115-.057l.012.024-.012-.024a3.509,3.509,0,0,1,.347-.166,2.059,2.059,0,0,0-.35.16m-.151.081.021-.012h0l.027-.042-.009-.027,0,0a.521.521,0,0,1-.045.078m.012-.208v0m-.015.214c-.03.054-.057.115-.1.178.042-.069.084-.139.121-.193l-.024.015m.217.051h0l-.006-.012Zm-.006.006-.326.151c.181-.084.3-.139.326-.151m-1.257,2.589c.106-.377.2-.693.3-.977a8.8,8.8,0,0,0-.3.965l-.006.018Zm.928-2.436v0c-.4.184-.841.386-.729.332-.666.3.2-.09.729-.329m-.03-1.206c-.142-.1-.277-.184-.443-.313a2.284,2.284,0,0,1,.211.166c.1.069.148.09.232.148m-.636,1.48v0l-.015.012Zm-.039.033-.012.009-.009.009Zm-.772-2.707.639.588c.075.069.172.142.262.211-.274-.22-.579-.485-.91-.808l.009.009m23.68-8.289c-.31-.2-.63-.392-.952-.579l-.567-.323-1.064-.6-.968-.494a70.054,70.054,0,0,0-9.941-3.65c-3.991-1.251-7.792-2.411-11.629-3.457-1.908-.521-3.81-1.013-5.7-1.462s-3.741-.838-5.806-1.26c-1.9-.392-3.816-.735-5.724-1.106l.3.38c.962.672,1.959,1.384,2.93,2.119.757.69,1.5,1.42,2.249,2.212a37.3,37.3,0,0,1,4.331,5.224,20.69,20.69,0,0,1,2.683,5.932c5.715.2,11.436.386,17.187.609l9.965.32c.567.039,1.158.069,1.766.087s1.236.018,1.875,0a6.5,6.5,0,0,0,.965-.072c.31-.048.645-.253.666-.579-.127-1.432-1.365-2.511-2.571-3.3" transform="translate(1412.764 -39.212)" fill="#4988cd"/>
  <path id="Path_7118" data-name="Path 7118" d="M394.608,19.288a52.47,52.47,0,0,1-11.146,7.727c-.719.744-2.462,2.464-3.788,3.909-1.282,1.449-2.273,2.69-.483,2.424a27.375,27.375,0,0,0,8.463-3.728c2.688-1.666,5.4-4.041,9.2-8.035-.3-2.188-7.254,5-5.121,2.49,1.719-1.587,3.664-4.088,5.746-6.276s4.374-4.2,6.358-4.916c0,0-2.285,1.914-4.466,3.941-2.178,1.989-4.225,4.115-4.225,4.115,2.2,1.421,3.424-3.42,6.015-4.049-.367,1.768-2.059,3.327-4,5.143a28.085,28.085,0,0,0-5.389,6.027l.675-.544c-1.914,1.85-3.286,3.178-4.386,4.245-1.445,1.355-2.579,2.375-3.735,3.323a29.922,29.922,0,0,1-4,2.794,20.658,20.658,0,0,1-2.841,1.4,14.5,14.5,0,0,1-3.944,1.049c-.364-1.041.714-1.5,2.285-2.407a21.128,21.128,0,0,0,5.636-4.483,24.525,24.525,0,0,1-6,3.775,8.676,8.676,0,0,1-3.655.722,7.327,7.327,0,0,1-3.657-1.224c-4.344-2.832-6.974-7.506-8.818-11.808-1.736-4.181-3.373-8.158-5.364-11.988-.983-1.9-2.033-3.739-3.162-5.485-.549-.865-1.183-1.746-1.722-2.528a12.025,12.025,0,0,0-1.525-1.961s.061.482.151,1.207c.024.348.051.754.08,1.188a12.64,12.64,0,0,0,.284,1.574c.461,2.22.92,4.442.92,4.442A30.1,30.1,0,0,1,347.5,8.209c-.233-.571-.469-1.158-.707-1.744a9.038,9.038,0,0,1-.415-1.389,7.913,7.913,0,0,0-1.955-3.818c-.546-.419-1.054-.306-1.53.5a6.159,6.159,0,0,1,.609.552c1.751,2.044-.148,2.124.051,3.682l.313.053a3.055,3.055,0,0,1-.046.924c.068.531-.044.775-.549.176a6.972,6.972,0,0,0-.214-4.328c-.214-.508-.289-1.192-.738-1.585a3.456,3.456,0,0,0-1.518-.9,9.864,9.864,0,0,0-3.4-.308c.833.1.3.639-.311,1.215a7.457,7.457,0,0,0-1.428,1.489c-1.43.359-1.637.147-1.389-.372.228-.514,1-1.277,1.03-1.761-.491.174-1.085.291-1.736.446-.328.07-.673.153-1.013.244s-.869.27-1.289.429c-1.773.659-3.366,1.525-4.089,2.768-1.741,1.625-.138,1.183,1.838.461.981-.355,2.081-.778,3.036-1.066.92-.283,1.872-.508,2.045-.283a2.288,2.288,0,0,0-.486.14c-.415.153-1.008.368-1.719.629L326.2,6.6c-4.046,1.464-8.043,3.042-8.043,3.042l.6.093a11.954,11.954,0,0,0-5.209,2.3c-.85,1.625,2.654-.068,4.743-1.479C311.505,15.94,302.79,15.464,298.52,21.9l2.314-.952a3.91,3.91,0,0,1-2.4,1.1c.015-.045.063-.1.085-.149l-2.319.965c-1.149.5-2.3,1-2.3,1-.2.438-.522,1.268.253.894l-4.5,1.916c-7.836,4.5-.425,2.976-2.419,5.082l.333-.27a13.175,13.175,0,0,1,2.244-1.806l-2.244,1.806c-1.88,1.846-2.751,3.72-1.115,2.792,0,0-2.028,1.132-4.019,2.314l-4.053,2.467.068.006c.857-.215,1.52-.215,1.656.378l-1.656-.378c-4.111,1-15.076,9.719-17.489,7.247-1.741,1.776-2.868,3.454-1.632,3.1.1-.072.272-.193.374-.263a17.347,17.347,0,0,1,2.892-2.042c-1.282.867-2.152,1.5-2.892,2.042-.124.1-.206.168-.323.266-.034.015-.017-.015-.051,0-2.841,2.133-2.059,2.322-1.707,2.84.163.261.248.584-.367,1.294a23.208,23.208,0,0,1-4.153,3.287c.486.429,1.338-.4,2.878-1.219-2.271,1.755-3.322,2.3-3.958,2.341a1.588,1.588,0,0,1,.274,1.44c-.969-.869-4.3,2.15-5.9,3.926l2.249-.506c1.122-.234,2.244-.47,2.244-.47a12.994,12.994,0,0,0-3.422,1.61,16.169,16.169,0,0,0-1.7,1.341,37.814,37.814,0,0,1-3.13,3.019s1.112-.419,2.217-.973c.559-.268,1.1-.576,1.518-.807.124-.042.163-.138.27-.178l.158-.049.138-.042a7.469,7.469,0,0,0-.661.61l-.719.618a15,15,0,0,1-1.246.914,8.062,8.062,0,0,1-1.734.894,2.261,2.261,0,0,1-1.535.045c-.357-.085-.724-.059-1.707.438a58.858,58.858,0,0,1-5.561,2.747l-.214.091c.078-.032.138-.059.214-.091a27.525,27.525,0,0,0,5.207-2.945,24.192,24.192,0,0,0,4.335-4.056,15.9,15.9,0,0,1-5.78,3.42,6.192,6.192,0,0,1-3.079.291c-1.362-.306-1.807-1.054-3.524-1.2a4.166,4.166,0,0,0-.872-.1c-2.868-.053-5.554-1.678-7.62-3.408a27.944,27.944,0,0,1-5.3-6.146c-2.951-4.453-4.194-8.353-5.622-13.858-1.384.442-.913,1.825-3.1,1.264a21.743,21.743,0,0,1,2.9,6.405,8.149,8.149,0,0,1-.015,4.644,10.783,10.783,0,0,0,2.95,5.188,3.986,3.986,0,0,0,2.739,1.071,4.081,4.081,0,0,1,2.647.988,27.753,27.753,0,0,1,2.067,1.88,20.123,20.123,0,0,0,3.89,3.017c-.619.686-2.29.578-4.092-.47a12.861,12.861,0,0,1-4.75-5.105c-.728.317-.43,1.859.724,3.686a17.1,17.1,0,0,0,5.037,5.014,28.635,28.635,0,0,1-7.28-5.611,37.543,37.543,0,0,1-3.1-3.769c-.474-.61-1.022-1.426-1.367-1.925s-.68-.99-1.013-1.479l-.447-.661-.248-.3-.454-.554c-.282-.342-.549-.669-.8-.977a8.9,8.9,0,0,1-1.1-1.57c0,.072.007.174.01.257l-.112-.427c.034.057.07.119.1.17a8.707,8.707,0,0,0-.933-3.491l-.253-.474-.131-.229c-.066-.011-.138-.008-.209-.013a2.844,2.844,0,0,0-2.135.869,3.2,3.2,0,0,1-.59,1.224,1.874,1.874,0,0,1,.59-1.224c.092-.841-1.4-.546-2.917-.085-1.462.387-3.249.952-2.676-1.226a12.415,12.415,0,0,0-2.764,2.817,10.867,10.867,0,0,0-1.015,2.063c-.508,1.224-1.173,2.188-5.151,4.1,3.749-.829-2.557,4.591,1.265,3.312.231-1.519,2.494-3.393,5.238-4.982,3.266-2.006,4.646-1.85,5.644-1.923l-.493.68-.466.663-.253.355a3.674,3.674,0,0,1-.459.537c-1.945,2.031-3.779,4.189-3.779,4.189,1.6-2.26-2.329-.285-3.677.727l.267,2.114c-2.283-.62-5.258,3.493-8.458,8.118s-6.8,9.728-10.819,10.7c2.662-2.7,3.57-5.985,6.593-6.106,3.526-5.881-3.553-.673-2.647-3.913-4.242,3.614-8.48,9.014-13.033,14.26-4.422,5.158-8.512,10.684-13.194,14.725,2.348-1.126,5.277-5.488,7.093-5.029-4.162,7.187-13.235,14.245-20.561,21.474l3.036-.385c-6.637,5.83-1.224,3.053-7.22,10.023-.017-.433,0-1.808-1.217-.117-4.2,6.044,1.2,1.493-1.2,5.717-8.436,5.825-.566,4.67-9.09,13.233l1.224-.314c-3.434,3.361-6.472,7.748-10.826,12a31.115,31.115,0,0,1-8.072,5.789,22.552,22.552,0,0,1-11.377,2.2c-.257-.028-.508-.053-.755-.081a3.429,3.429,0,0,1,.77-.023l3.087-.038a21.259,21.259,0,0,0,3.776-.625c2.38-.618,3.8-1.674,2.934-2.26a22.891,22.891,0,0,1-9.5.809,24.436,24.436,0,0,1-7.154-2.2,15.72,15.72,0,0,1-3.674-1.2c-1.224-.5-2.028-.637-.529.979a15.143,15.143,0,0,0,5.724,2.377s-.646.032-1.292.066l-1.3,0c-3.613-1.923-4.75-3.361-5.024-3.96-.248-.629.51-.578,1.605-.329,2.212.563,6.073,1.249,6.416.346a12.423,12.423,0,0,1-6.4-4.262c-1.207-1.545-1.931-2.987-3.157-4.65-1.462-.351-.816,1.623-.051,3.244.738,1.57,1.367,2.985-1.712,1.375a12.154,12.154,0,0,1-3.3-3.718c-.505-.837-.906-1.634-1.289-2.43-.219-.45-.33-.722-.447-1.016l-.374-.928a17.311,17.311,0,0,0-1.972-3.867,11.239,11.239,0,0,0-2.856-2.626l-5.1,3.053c-.792.474-1.622.969-2.46,1.468-1.037.6-2.251,1.27-3.334,1.931-4.4,2.67-8.247,5.39-7.212,6.709.158-.416-2.477-.125-4.619,1.967l2.047-.344c-6.253,6.159-9.228,2.615-13.138,6.4.5.412,2.037-.4,3.269-.357-8.878,7.493-17.73,8.06-25.141,17.011a2.534,2.534,0,0,0,2.076-.924c.474-.025-.274.684-2.11,1.821H407.461V6.707l-1.246,1.833c-3.924,3.913-7.878,7.559-11.608,10.748M141.016,121.952c-2.416-.242,4.216-7.841,5.3-10.518,1.277,2.9-5.306,6.08-5.3,10.518M324.517,8.938l-6.042,2.513,6.506-3.308Zm16.365-4.6a2.07,2.07,0,0,0-1.515-1.007,6.444,6.444,0,0,0-1.955-.059,7.611,7.611,0,0,1,1.408-.312,5.175,5.175,0,0,1,1.447.034c.066-.03.787,1.241.614,1.345m5.714,12c-1.144-3.971.743-4.706.95-3.956Zm12.186,14.808c-.483-.081-.775.164-1.515-1.385,0,0,.515-.24,1.03-.478l1.02-.5a26.868,26.868,0,0,0,1.163,2.619,24.633,24.633,0,0,0,1.491,2.566c-2.04-2.333-2.666-2.766-3.188-2.826m32.541-.155c-.527.535-1.229,1.251-1.931,1.965-1.751,1.729-3.628,3.365-3.628,3.365-1.634,1.1-1.078.463-.019-.627s2.625-2.726,3.2-3.384L390.7,30.8c.539-.423,1.059-.733,1.343-.563l-.716.75" transform="translate(1512.539 9.509)" fill="#a2e3dd"/>
  <path id="Path_7119" data-name="Path 7119" d="M.189,11.571l1.9-.453c.44-.1.913-.2,1.418-.312l.478-.1c-.044-.1-.08-.185-.126-.285l0,0,.007,0,.027-.006.078-.023.267-.083c.585-.191,1.173-.385,1.763-.576q1.067-.344,2.154-.652a44.923,44.923,0,0,1,4.429-1.011,43.578,43.578,0,0,1,7.244-.6c.619,0,1.243,0,1.867.015.376.006.755.013,1.134.021.136,0,.452,0,1.064-.013,1.209-.017,3.281-.14,6.481.042.389.021.84.059,1.26.1.508.042,1.263.127,1.775.2l.253.036.126.017.032.006.017,0c-.051-.212.464,1.887.25.975l.01-.045.075-.359.073-.361.029-.149,0,0s0,0,.012,0c.063.013.333.047.8.089l2,.168,1.455.134c.508.051,1.127.117,1.812.206q2.007.252,3.995.659l2.4.516c.226.049.459.1.685.153l2.739-.034,1.457,0c.576.008,1.163.026,1.744.055,1.158.053,2.351.164,3.47.314,1.265.17,2.538.34,3.81.512l.469.064c.168.021.277.045.51.064l1.251.13c.833.089,1.663.189,2.494.293q4.983.641,9.905,1.666l4.4.964c1.406.308,2.912.639,4.5,1.018s3.252.8,4.981,1.3c.867.251,1.746.518,2.64.809.449.151.891.291,1.345.455s.92.323,1.285.463a156.192,156.192,0,0,1,17.132,7.661c-.024-.584-4.189-3.134-8.866-5.549,3.108,1.343,7.441,3.65,10.182,4.689-2.759-.937-.651.327,1.564,1.606s4.493,2.573,2.528,1.708c1.94,1.413,3.966,2.8,6.022,4.13s4.206,2.639,6.258,3.816c.109.066.221.132.335.193s.216.117.391.2q.517.245,1.425.629l2.188.935.658.293.7.325q.747.354,1.476.731c2.611,1.355,4.976,2.7,7.215,4.03l3.159,1.91,2.98,1.84a104.344,104.344,0,0,1,10.865,7.584c0,.064,0,.164.146.4a4.044,4.044,0,0,0,.359.459l.3.329a1.5,1.5,0,0,1,.155.172c.022.036.044.076.07.117a7.354,7.354,0,0,0-.775,2.7,7.794,7.794,0,0,0-.024,1.024c-.056.153.177.45.311.705l.469.809a33.345,33.345,0,0,1,1.95,3.83c-.029.7-.078,1.428-.146,2.169-.034.34-.073.69-.109,1.043.121.115.245.232.367.344q1.14,1.074,2.2,2.069c.274.246.777.65,1.442,1.158,1.316,1.011,3.32,2.452,5.488,4.3.277.24.551.48.821.716l.454.406c.049.045.119.108.233.2.211.178.593.472,1.09.843q.969.72,1.86,1.385c.457.344.993.752,1.469,1.139s.952.782,1.4,1.177.869.79,1.277,1.183.826.814,1.149,1.145l1.221,1.273c.131.138.26.27.384.4l.061.062c.1.087.2.174.3.257.508.444,1.049.892,1.576,1.328l-.831-.886c2.118,1.833,5.228,4.162,9.114,7.563.959.839,1.984,1.8,3.011,2.789.525.527,1.042,1.026,1.574,1.6q.586.625,1.178,1.258c1.083,1.173,2.7,2.77,4.711,5.014,1,1.132,2.1,2.433,3.2,3.926.274.365.554.767.828,1.158l.529.756.949,1.355q1.909,2.725,3.888,5.545l.993,1.415.5.712.291.423.34.514c.9,1.377,1.78,2.819,2.623,4.383.42.78.833,1.591,1.234,2.441.206.44.376.809.629,1.392l.24.567.313.771a25.372,25.372,0,0,1,1.5,5.428,21.6,21.6,0,0,1,.231,4.221,21.267,21.267,0,0,1-.714,4.583l-2.868,10.6-11.644,3.408a27.671,27.671,0,0,1-3.878.833c-.661.093-1.324.164-1.982.208-.546.034-.976.045-1.474.049-.964.006-1.935-.034-2.892-.123l-.359-.036-.3-.034-.491-.066c-.328-.049-.656-.1-.981-.157-.653-.117-1.3-.253-1.938-.408q-.67-.172-1.331-.374c-.437-.132-.884-.278-1.3-.425l-.937-.355-.925-.382-.719-.325c-.444-.208-.964-.461-1.277-.631-.347-.183-.741-.4-1.039-.565l-.865-.506c-.321-.2-.61-.378-.884-.552l-11.343,12.532H155.071c-1.365-.863-2.788-1.746-4.293-2.658-2.785-1.689-5.8-3.461-9.026-5.352l-4.806-2.8q-2.353-1.354-4.757-2.69c-.2-.108-.4-.212-.59-.319l-3.242,4.372-.272.892q-.186.628-.347,1.258l-.59,2.2-.678,2.751c-.083.329-.056.215-.061.234h0l-.007,0-.01,0-.1-.017c-.959-.157-1.943-.368-2.9-.61l-2.035,2.747H116.03c-3.084-1.787-5.427-3.376-7.271-4.491l-.891-.542-.629-.357c-.078-.045-.168-.091-.248-.136-.464-.023-.928-.047-1.418-.068l-4.051-.153c-2.754-.085-5.612-.136-8.529-.13-2.943,0-5.8.083-9.1.193-3.23.115-6.542.244-9.93.408-13.531.625-28.131,1.585-41.985,1.846,0,0-4.449.839-8.757,1.717l-8.563,1.712h-.911l-1.782-.047s-.478-.414-1.253-1.156c-.386-.372-.845-.822-1.357-1.347-.126-.13-.26-.266-.379-.406a1.676,1.676,0,0,1-.219-.44c-.129-.3-.27-.622-.437-.952-1.35-2.639-5.624-5.747-7.412-9.6A19.87,19.87,0,0,1,0,150.935v-7.268l.007-.021q.033-.169.066-.351c.085-.463.187-.924.313-1.379A7.042,7.042,0,0,1,1.758,139.2a9.877,9.877,0,0,1,4.182-2.734c.126-.053.282-.108.386-.157l.267-.142.52-.278q.532-.277,1.1-.544c.765-.357,1.586-.7,2.47-1.026a49.362,49.362,0,0,1,6.049-1.774l-.658-.784,7.312-.361c2.2-.249,4.034-.363,5.612-.436.1,0,.187-.008.284-.011l-.347-.1-5.347.361c3.366-.3,4.485-.484,4.446-.62l-.466-.136c-.449-.064-1.168-.119-1.982-.172l-2.79-.164,2.754-.246-1.867-.54c-.034-.011-.066-.032-.1-.042a2.414,2.414,0,0,0-.311-.057l-.777-.121q-1.435-.21-2.863-.419c-1.532-.242-3.05-.525-4.546-.875a44.443,44.443,0,0,1-4.4-1.277c-.709-.27-1.425-.518-2.125-.807l-1.384-.58-1.9-.769-3.009-1.226C1.5,122.828.746,122.471,0,122.1V11.622c.068-.017.119-.032.189-.051M193.523,139.828l.35-.446c-.039.051-.148.189-.35.446M172.49,91.19c-.151.013-.357.03-.617.057s-.537.062-.869.115c.352-.055.631-.089.869-.115s.44-.045.617-.057m-4.218.739c.211-.053.4-.1.595-.142-.143.034-.277.062-.43.1-.323.079-.663.166-1.025.263l.86-.221m-8.021-4.67h0l.012-.011-.01.011m.158-.13-.019.015.022-.017.262-.208.09-.074c-.119.1-.243.191-.355.285m1.195-.945.151-.115.177-.14c-.1.079-.219.172-.328.255M163.177,85l-.024.017.039-.03.01-.006-.024.019m.075-.057-.01.008h0l.012-.011,0,0m.884-.614-.012.006.092-.062Zm.313-.21-.039.028.039-.025.027-.019Zm.09-.057-.01.006.012-.009Zm.865-.574-.391.261-.007,0c.148-.1.287-.191.4-.266m-.731.489h0v0m-.452.3h0l0,0,0,0m-.534.359.044-.03.01-.006,0,0v0l.007-.006.027-.019-.053.036.019-.013.049-.034h0c.393-.266.692-.465.872-.584l0,0-.024.015.007,0,.01-.006-.058.036.012-.006.015-.011.012-.006-.027.017-.044.028.032-.021-.053.036.112-.07c-.415.278-.695.463-.865.578l.109-.076.306-.21-.134.089-.012.009.007,0-.262.181c-.044.03-.085.059-.131.089l0,0,0,0,.027-.017-.015.009.024-.017h0l0,0v0l-.017.011-.034.023-.036.023.036-.023c-.151.106-.248.172-.255.178l-.019.015c-.027.017-.061.042-.087.064.131-.1.26-.185.389-.274l0,0m-.136,8.7c-.044.015-.08.028-.124.04l-.313.11c.158-.053.294-.1.437-.151m-.454-8.277-.51.374c-.117.087-.248.189-.374.285l.884-.659m-.636.47c-.131.1-.265.2-.4.3.032-.025.066-.049.1-.074.1-.079.2-.153.3-.225m-.364.278-.114.085-.075.059c.066-.051.126-.1.189-.144m-.3,8.141-.194.068-.075.028.27-.1m-.7-7.366c-.1.083-.226.183-.34.272.17-.136.342-.27.51-.4-.058.045-.112.085-.17.132m-.51,7.814c.155-.062.316-.119.474-.178l-1.625.605c-.211.083-.432.168-.646.253.6-.236,1.207-.467,1.8-.68m-.743-6.8.789-.642c-.121.1-.231.183-.357.285l-.032.025-.032.028-.024.019-1.066.871-.381.321Zm-6.7,2.458c-.129.17-.26.342-.389.514l-.386.518c.255-.342.515-.688.775-1.032M50.074,78.036,52.959,79.1c.274.1.7.238,1.265.391,1.132.312,2.861.676,5.194,1.171,1.168.251,2.487.537,3.958.907.644.17,1.292.338,1.94.508L67,82.531q3.391.921,6.848,1.906t6.967,2.037l3.516,1.069,1.882.593c.648.21,1.309.412,1.952.635,1.146.382,2.285.782,3.419,1.185-1.161-1.011-2.292-1.916-3.388-2.7-.644-.472-1.28-.882-1.9-1.283-.316-.181-.622-.385-.93-.552l-.459-.261L84.8,85.1,84.62,85l-.376-.2q-3.012-1.616-5.906-3.066c-1.923-.962-3.842-1.88-5.673-2.715l-1.289-.578a4.328,4.328,0,0,0-.542-.185c-1.166-.255-2.266-.5-3.317-.722-.869-.193-1.5-.325-1.935-.41l-.731-.134c-.151-.025-.3-.038-.444-.051L62.1,76.92l-2.105-.032-3.4-.047c-.454,0-.9,0-1.338,0l-.617.013-.869.042-3.358.155c-.947.04-1.867.079-2.773.119.855.291,1.68.582,2.443.86M10.151,59.774a.266.266,0,0,0-.039.032c.044-.034.073-.055.039-.032M5.532,15.325l.267.314.07.079c-.029-.106-.051-.215-.08-.319-.044-.181-.085-.327-.136-.489l-.017-.057-.024.038-.044.091-.078.191-.019.049-.007.023Zm-.59,13.518L4.92,28.82c-.051-.032-.1-.066-.151-.1.053.036.109.076.172.119" transform="translate(0 23.436)" fill="#feb5a6"/>
</svg>
