<svg xmlns="http://www.w3.org/2000/svg" width="223.206" height="160" viewBox="0 0 223.206 160">
  <path id="Path_3534" data-name="Path 3534" d="M.189,163.3l1.9.453c.44.1.913.2,1.418.312l.478.1c-.044.1-.08.185-.126.285l0,0,.007,0,.027.006.078.023.267.083c.585.191,1.173.385,1.763.576q1.067.344,2.154.652a44.923,44.923,0,0,0,4.429,1.011,43.578,43.578,0,0,0,7.244.6c.619,0,1.243,0,1.867-.015.376-.006.755-.013,1.134-.021.136,0,.452,0,1.064.013,1.209.017,3.281.14,6.481-.042.389-.021.84-.059,1.26-.1.508-.042,1.263-.127,1.775-.2l.253-.036.126-.017.032-.006.017,0c-.051.212.464-1.887.25-.975l.01.045.075.359.073.361.029.149,0,0s0,0,.012,0c.063-.013.333-.047.8-.089l2-.168,1.455-.134c.508-.051,1.127-.117,1.812-.206q2.007-.252,3.995-.659l2.4-.516c.226-.049.459-.1.685-.153l2.739.034,1.457,0c.576-.008,1.163-.026,1.744-.055,1.158-.053,2.351-.164,3.47-.314,1.265-.17,2.538-.34,3.81-.512l.469-.064c.168-.021.277-.045.51-.064l1.251-.13c.833-.089,1.663-.189,2.494-.293q4.983-.641,9.905-1.666l4.4-.964c1.406-.308,2.912-.639,4.5-1.018s3.252-.8,4.981-1.3c.867-.251,1.746-.518,2.64-.809.449-.151.891-.291,1.345-.455s.92-.323,1.285-.463a156.192,156.192,0,0,0,17.132-7.661c-.024.584-4.189,3.134-8.866,5.549,3.108-1.343,7.441-3.65,10.182-4.689-2.759.937-.651-.327,1.564-1.606s4.493-2.573,2.528-1.708c1.94-1.413,3.966-2.8,6.022-4.13s4.206-2.639,6.258-3.816c.109-.066.221-.132.335-.193s.216-.117.391-.2q.517-.245,1.425-.629l2.188-.935.658-.293.7-.325q.747-.354,1.476-.731c2.611-1.355,4.976-2.7,7.215-4.03l3.159-1.91,2.98-1.84a104.344,104.344,0,0,0,10.865-7.584c0-.064,0-.164.146-.4a4.044,4.044,0,0,1,.359-.459l.3-.329a1.5,1.5,0,0,0,.155-.172c.022-.036.044-.076.07-.117a7.354,7.354,0,0,1-.775-2.7,7.794,7.794,0,0,1-.024-1.024c-.056-.153.177-.45.311-.705l.469-.809a33.345,33.345,0,0,0,1.95-3.83c-.029-.7-.078-1.428-.146-2.169-.034-.34-.073-.69-.109-1.043.121-.115.245-.232.367-.344q1.14-1.074,2.2-2.069c.274-.246.777-.65,1.442-1.158,1.316-1.011,3.32-2.452,5.488-4.3.277-.24.551-.48.821-.716l.454-.406c.049-.045.119-.108.233-.2.211-.178.593-.472,1.09-.843q.969-.72,1.86-1.385c.457-.344.993-.752,1.469-1.139s.952-.782,1.4-1.177.869-.79,1.277-1.183.826-.814,1.149-1.145l1.221-1.273c.131-.138.26-.27.384-.4l.061-.062c.1-.087.2-.174.3-.257.508-.444,1.049-.892,1.576-1.328l-.831.886c2.118-1.833,5.228-4.162,9.114-7.563.959-.839,1.984-1.8,3.011-2.789.525-.527,1.042-1.026,1.574-1.6q.586-.625,1.178-1.258c1.083-1.173,2.7-2.77,4.711-5.014,1-1.132,2.1-2.433,3.2-3.926.274-.365.554-.767.828-1.158l.529-.756.949-1.355q1.909-2.725,3.888-5.545l.993-1.415.5-.712.291-.423.34-.514c.9-1.377,1.78-2.819,2.623-4.383.42-.78.833-1.591,1.234-2.441.206-.44.376-.809.629-1.392l.24-.567.313-.771a25.372,25.372,0,0,0,1.5-5.428,21.6,21.6,0,0,0,.231-4.221,21.267,21.267,0,0,0-.714-4.583l-2.868-10.6-11.644-3.408a27.671,27.671,0,0,0-3.878-.833c-.661-.093-1.324-.164-1.982-.208-.546-.034-.976-.045-1.474-.049-.964-.006-1.935.034-2.892.123l-.359.036-.3.034-.491.066c-.328.049-.656.1-.981.157-.653.117-1.3.253-1.938.408q-.67.172-1.331.374c-.437.132-.884.278-1.3.425l-.937.355-.925.382-.719.325c-.444.208-.964.461-1.277.631-.347.183-.741.4-1.039.565l-.865.506c-.321.2-.61.378-.884.552L173.044,7.438H155.071c-1.365.863-2.788,1.746-4.293,2.658-2.785,1.689-5.8,3.461-9.026,5.352l-4.806,2.8q-2.353,1.354-4.757,2.69c-.2.108-.4.212-.59.319l-3.242-4.372-.272-.892q-.186-.628-.347-1.258l-.59-2.2-.678-2.751c-.083-.329-.056-.215-.061-.234h0l-.007,0-.01,0-.1.017c-.959.157-1.943.368-2.9.61l-2.035-2.747H116.03c-3.084,1.787-5.427,3.376-7.271,4.491l-.891.542-.629.357c-.078.045-.168.091-.248.136-.464.023-.928.047-1.418.068l-4.051.153c-2.754.085-5.612.136-8.529.13-2.943,0-5.8-.083-9.1-.193-3.23-.115-6.542-.244-9.93-.408-13.531-.625-28.131-1.585-41.985-1.846,0,0-4.449-.839-8.757-1.717L14.655,7.438h-.911l-1.782.047s-.478.414-1.253,1.156c-.386.372-.845.822-1.357,1.347-.126.13-.26.266-.379.406a1.676,1.676,0,0,0-.219.44c-.129.3-.27.622-.437.952-1.35,2.639-5.624,5.747-7.412,9.6A19.871,19.871,0,0,0,0,23.941v7.268l.007.021q.033.169.066.351c.085.463.187.924.313,1.379a7.042,7.042,0,0,0,1.372,2.721A9.877,9.877,0,0,0,5.94,38.415c.126.053.282.108.386.157l.267.142.52.278q.532.277,1.1.544c.765.357,1.586.7,2.47,1.026a49.362,49.362,0,0,0,6.049,1.774l-.658.784,7.312.361c2.2.249,4.034.363,5.612.436.1,0,.187.009.284.011l-.347.1-5.347-.361c3.366.3,4.485.484,4.446.62l-.466.136c-.449.064-1.168.119-1.982.172l-2.79.164,2.754.246-1.867.54c-.034.011-.066.032-.1.042a2.41,2.41,0,0,1-.311.057l-.777.121q-1.435.21-2.863.419c-1.532.242-3.05.525-4.546.875a44.444,44.444,0,0,0-4.4,1.277c-.709.27-1.425.518-2.125.807l-1.384.58-1.9.769L2.268,51.721C1.5,52.048.746,52.4,0,52.774V163.254c.068.017.119.032.189.051M193.523,35.048l.35.446c-.039-.051-.148-.189-.35-.446M172.49,83.686c-.151-.013-.357-.03-.617-.057s-.537-.062-.869-.115c.352.055.631.089.869.115s.44.045.617.057m-4.218-.739c.211.053.4.1.595.142-.143-.034-.277-.062-.43-.1-.323-.079-.663-.166-1.025-.263l.86.221m-8.021,4.67h0l.012.011-.01-.011m.158.13-.019-.015.022.017.262.208.09.074c-.119-.1-.243-.191-.355-.285m1.195.945.151.115.177.14c-.1-.079-.219-.172-.328-.255m1.574,1.185-.024-.017.039.03.01.006-.024-.019m.075.057-.01-.008h0l.012.011,0,0m.884.614-.012-.006.092.062Zm.313.21-.039-.028.039.025.027.019Zm.09.057-.01-.006.012.009Zm.865.574-.391-.261-.007,0c.148.1.287.191.4.266m-.731-.489h0v0m-.452-.3h0l0,0,0,0m-.534-.359.044.03.01.006,0,0v0l.007.006.027.019-.053-.036.019.013.049.034h0c.393.266.692.465.872.584l0,0-.024-.015.007,0,.01.006-.058-.036.012.006.015.011.012.006-.027-.017-.044-.028.032.021-.053-.036.112.07c-.415-.278-.695-.463-.865-.578l.109.076.306.21-.134-.089-.012-.009.007,0-.262-.181c-.044-.03-.085-.059-.131-.089l0,0,0,0,.027.017-.015-.009.024.017h0l0,0v0l-.017-.011-.034-.023-.036-.023.036.023c-.151-.106-.248-.172-.255-.178l-.019-.015c-.027-.017-.061-.042-.087-.064.131.1.26.185.389.274l0,0m-.136-8.7c-.044-.015-.08-.028-.124-.04l-.313-.11c.158.053.294.1.437.151m-.454,8.277-.51-.374c-.117-.087-.248-.189-.374-.285l.884.659m-.636-.47c-.131-.1-.265-.2-.4-.3.032.025.066.049.1.074.1.079.2.153.3.225m-.364-.278-.114-.085-.075-.059c.066.051.126.1.189.144m-.3-8.141-.194-.068-.075-.028.27.1m-.7,7.366c-.1-.083-.226-.183-.34-.272.17.136.342.27.51.4-.058-.045-.112-.085-.17-.132m-.51-7.814c.155.062.316.119.474.178l-1.625-.605c-.211-.083-.432-.168-.646-.253.6.236,1.207.467,1.8.68m-.743,6.8.789.642c-.121-.1-.231-.183-.357-.285l-.032-.025-.032-.028-.024-.019-1.066-.871-.381-.321Zm-6.7-2.458c-.129-.17-.26-.342-.389-.514l-.386-.518c.255.342.515.688.775,1.032M50.074,96.84l2.885-1.064c.274-.1.7-.238,1.265-.391,1.132-.312,2.861-.676,5.194-1.171,1.168-.251,2.487-.537,3.958-.907.644-.17,1.292-.338,1.94-.508L67,92.345q3.391-.921,6.848-1.906T80.82,88.4l3.516-1.069,1.882-.593c.648-.21,1.309-.412,1.952-.635,1.146-.382,2.285-.782,3.419-1.185-1.161,1.011-2.292,1.916-3.388,2.7-.644.472-1.28.882-1.9,1.283-.316.181-.622.385-.93.552l-.459.261-.114.066-.177.1-.376.2q-3.012,1.616-5.906,3.066c-1.923.962-3.842,1.88-5.673,2.715l-1.289.578a4.328,4.328,0,0,1-.542.185c-1.166.255-2.266.5-3.317.722-.869.193-1.5.325-1.935.41l-.731.134c-.151.025-.3.038-.444.051l-2.309.015-2.105.032-3.4.047c-.454,0-.9,0-1.338,0l-.617-.013-.869-.042L50.4,97.82c-.947-.04-1.867-.079-2.773-.119.855-.291,1.68-.582,2.443-.86M10.151,115.1a.266.266,0,0,1-.039-.032c.044.034.073.055.039.032M5.532,159.551l.267-.314.07-.079c-.029.106-.051.215-.08.319-.044.181-.085.327-.136.489l-.017.057-.024-.038-.044-.091-.078-.191-.019-.049-.007-.023Zm-.59-13.518-.022.023c-.051.032-.1.066-.151.1.053-.036.109-.076.172-.119" transform="translate(0 -7.438)" fill="#feb5a6"/>
</svg>
