<svg xmlns="http://www.w3.org/2000/svg" xmlns:xlink="http://www.w3.org/1999/xlink" width="83.006" height="63.628" viewBox="0 0 83.006 63.628">
  <defs>
    <clipPath id="clip-path">
      <rect id="Rectangle_758" data-name="Rectangle 758" width="83.006" height="63.628" transform="translate(0 0)" fill="none"/>
    </clipPath>
  </defs>
  <g id="Group_407" data-name="Group 407" transform="translate(0 0)">
    <g id="Group_406" data-name="Group 406" clip-path="url(#clip-path)">
      <path id="Path_7108" data-name="Path 7108" d="M8.958,53.037a30.977,30.977,0,0,1,0-43.577,30.426,30.426,0,0,1,43.255,0,30.977,30.977,0,0,1,0,43.577,30.426,30.426,0,0,1-43.255,0" fill="#fff36a"/>
      <path id="Path_7109" data-name="Path 7109" d="M29.794,53.6a30.977,30.977,0,0,1,0-43.578,30.426,30.426,0,0,1,43.255,0,30.977,30.977,0,0,1,0,43.577A30.426,30.426,0,0,1,29.794,53.6Z" fill="none" stroke="#000" stroke-miterlimit="10" stroke-width="2"/>
    </g>
  </g>
</svg>
