<svg xmlns="http://www.w3.org/2000/svg" xmlns:xlink="http://www.w3.org/1999/xlink" width="421.521" height="274.745" viewBox="0 0 421.521 274.745">
  <defs>
    <clipPath id="clip-path">
      <rect id="Rectangle_512" data-name="Rectangle 512" width="421.521" height="181.365" fill="none"/>
    </clipPath>
    <clipPath id="clip-path-2">
      <rect id="Rectangle_755" data-name="Rectangle 755" width="153.459" height="190.509" fill="none"/>
    </clipPath>
    <clipPath id="clip-path-3">
      <path id="Path_7103" data-name="Path 7103" d="M.895,59.086v87.05L72.071,88.1V1.052Z" transform="translate(-0.895 -1.052)" fill="none"/>
    </clipPath>
  </defs>
  <g id="Group_486" data-name="Group 486" transform="translate(-1554.969 -247.132)">
    <path id="Path_4555" data-name="Path 4555" d="M366.236,107.583V106.41c-1.314-.118-2.414-.175-3.346-.19a25.769,25.769,0,0,0-4.063.172,56.488,56.488,0,0,1-9.522.618c-.44.19-.883.395-1.32.606a3.489,3.489,0,0,0-1.088.657c-.482.443-.977.892-1.474,1.3a5.86,5.86,0,0,1-3.038,1.528l2.439.419a97.625,97.625,0,0,1-21.29.959l.268-.763-8.072.576-.531-.949-11.581.609,1.6.214c-1.121.081-3.322.235-5.86.371-1.248-.4-2.176-.717-2.951-1.052a18.448,18.448,0,0,0-3.849-1.414c-.012.09.081.214.163.338l.47-.087c.307.241.09.353-.3.413.054.25-.3.395-2.2.072l.383-.069c-2.96-.247-7.988-1.007-10.182-1.212l.021-.943c-2.68.69-11.427-.407-20.551-1.079-9.109-.711-18.52-1.188-22.055-.965-7.186-.615-15.783,1.372-24.729,1.347-7.09.326-8.907.181-9.833-.16-.934-.319-.977-.808-4.612-.85-9.058.4,1.938.883-1.661,1.347,0,0-2.716-.036-5.453,0s-5.456.136-5.456.136c6.212-1.052,2.758-1.1,1.552-1.3-4.666.615-10.668,1.212-15.756,1.953s-9.26,1.537-10.514,2.731c-6.2.681-9.4.913-11.7,1.079a37.3,37.3,0,0,0-6.39.841c1.884-.087,5.51-.6,5.613-.2-5.169.3-2.333.714-.259.452-3.7,1.23-13.76,2.559-23.195,5.417-9.429,2.8-17.908,7.726-17.929,9.266l-.22-.3a1.779,1.779,0,0,0,.181,1.57c-3.861,1.049-6.351,1.848-6.351,1.848l-1.673-.886a16,16,0,0,1-4.645,2.39c-2.185.85-4.9,1.733-6.966,2.794a14.491,14.491,0,0,0-4.35,3.014c-.735.85-.811,1.4.066,1.468a12.242,12.242,0,0,0-3.674,3.548,11.22,11.22,0,0,0-1.414,2.686,15.777,15.777,0,0,0-.841,3.68,31.058,31.058,0,0,0,.084,6.05c.084,1.305-.133,1.8-1.028.937a19.513,19.513,0,0,0,2.87,6.812,20.257,20.257,0,0,0,3.888,4.241,29.714,29.714,0,0,0,4.036,2.734c.8.425,1.643.847,2.526,1.248.262,1.272.546,2.6.9,3.946.06-1.215.187-2.348.32-3.466.627.253,1.233.515,1.923.732.112.036.235.063.344.1.048.314.078.609.13.925.093.57.193,1.148.317,1.73.136.642.3,1.3.479,1.932a19.531,19.531,0,0,0,1.4,3.647,13.284,13.284,0,0,0,5.7,5.564,7.741,7.741,0,0,0,4.081,1.163s.359.2.9.491c.506.274,1.188.624,1.872.952,1.375.657,2.734,1.215,2.734,1.215a40.543,40.543,0,0,0,10.11,1.794,13.1,13.1,0,0,0,4.41-.443c1.821-.567,2.237-1.332,5.854-1.1l9.007,1-8.883.506c4.558.145,7.593.244,10.5.431,3.023.16,5.806.3,9.456.419,0-.015.078-.033.075-.048a1.875,1.875,0,0,1-.907-.136l1.257-.169c1.013-.865,5.637-1.932,11.762-2.586,3.026-.268,5.821-.624,8.778-.983,2.785.124,5.513.175,7.912.2,2.372.03,4.741.012,7.111-.018-.2.018-.392.027-.591.048-7.7.844-15.765,1.73-22.309,2.451l-.166.591c7.638-.817,16.554-2.155,21.682-2.541a19.5,19.5,0,0,1,4.838.606c1.106.317,1.585.714.509,1.148l3.795-1.182a155.416,155.416,0,0,0,16.678-1.616c4.121-.693,7.448-1.227,10.821-1.718,6.743-.98,13.661-1.793,27.418-3.379l-2.469-.223c5.353-1.272,10.692-2.529,12.362-1.778,16.419-2.466,33.639-4.669,44.7-5.29l2.062-1.914c3.5-.612,9.212.434,10.478-1.953,0,0,1.833-.573,3.665-1.148l3.822-1.248c4.971-1.152,7.689-2.815,13.311-3.659l.03-.006,1.061-.148a.205.205,0,0,0-.1-.1,32.569,32.569,0,0,0,4.609-1.378c.645-.289.636-.455.672-.627s.115-.35.986-.69c.883-.362,2.511-.8,5.947-1.881A7.724,7.724,0,0,0,356.551,160c.636-.624,1.326-1.305,2.27-2.077.229-.181.467-.368.717-.567.105-.081.214-.163.326-.25l.576-.38c.826-.531,1.76-1.088,2.852-1.685,0,0,1.278-.437,2.945-1.067v-45.9c-.326-.214-.292-.368,0-.5M131.4,157.144c-.748-.232-1.649-.479-2.7-.72-1.007-.223-2.131-.467-3.343-.735l-1.652-.362-.868-.2c-.211-.045-.1-.03-.16-.045l-.057-.024c-.139-.063-.28-.124-.428-.19-.543-.229-1.082-.491-1.013-.72.024-.1.172-.211.467-.326a2.643,2.643,0,0,1-1.664-.326c-.476-.265-.672-.723-.524-.889a3.7,3.7,0,0,1,1.809-1.2c.223-.087.458-.172.7-.247l.371-.115.292-.075,1.088-.25c2.918-.651,5.9-1.248,8.925-1.818q4.63-.85,9.224-1.694l.193-.036a12.955,12.955,0,0,0-.428,3.1,9.78,9.78,0,0,0,.633,3.545,13.776,13.776,0,0,0,3.84,5.362,12.637,12.637,0,0,0,1.664,1.151c-5.432-1.037-10.882-2.119-16.374-3.186m58.842-10.086a7.837,7.837,0,0,1-1.625-.356c-.428-.148-.681-.265-.681-.265a12.384,12.384,0,0,1,2.833-1.133,17.376,17.376,0,0,0-.527,1.754m14.14,41.935c1.272-.2,2.547-.413,3.831-.678l.1-.018.036.3c-1.218.139-2.559.274-3.964.4m124.869-61.832c.036.006.03.006-.042.015.072-.009.078-.009.042-.015m-.22-.042c-.042-.009-.042-.006-.1-.021l-.121-.042q.122.041.217.063m-.22.208c-.09.042-.2.1-.316.169.115-.066.226-.127.316-.169m-.443-.464-.015.033-.021.042a.405.405,0,0,1-.063.13l-.018.042-.009-.027c.006.006.018,0,.027-.015l.063-.13v0l.036-.072c-.021-.012-.048-.021-.066-.033l-.045-.03a1.007,1.007,0,0,0,.115.057l.012-.024-.012.024a3.509,3.509,0,0,0,.347.166,2.059,2.059,0,0,1-.35-.16m-.151-.081.021.012h0l.027.042-.009.027,0,0a.521.521,0,0,0-.045-.078m.012.208v0m-.015-.214c-.03-.054-.057-.115-.1-.178.042.069.084.139.121.193l-.024-.015m.217-.051h0l-.006.012Zm-.006-.006-.326-.151c.181.084.3.139.326.151m-1.257-2.589c.106.377.2.693.3.977a8.8,8.8,0,0,1-.3-.965l-.006-.018Zm.928,2.436v0c-.4-.184-.841-.386-.729-.332-.666-.3.2.09.729.329m-.03,1.206c-.142.1-.277.184-.443.313a2.284,2.284,0,0,0,.211-.166c.1-.069.148-.09.232-.148m-.636-1.48v0l-.015-.012Zm-.039-.033-.012-.009-.009-.009Zm-.772,2.707.639-.588c.075-.069.172-.142.262-.211-.274.22-.579.485-.91.808l.009-.009m23.68,8.289c-.31.2-.63.392-.952.579l-.567.323-1.064.6-.968.494a70.054,70.054,0,0,1-9.941,3.65c-3.991,1.251-7.792,2.411-11.629,3.457-1.908.521-3.81,1.013-5.7,1.462s-3.741.838-5.806,1.26c-1.9.392-3.816.735-5.724,1.106l.3-.38c.962-.672,1.959-1.384,2.93-2.119.757-.69,1.5-1.42,2.249-2.212a37.3,37.3,0,0,0,4.331-5.224,20.69,20.69,0,0,0,2.683-5.932c5.715-.2,11.436-.386,17.187-.609l9.965-.32c.567-.039,1.158-.069,1.766-.087s1.236-.018,1.875,0a6.5,6.5,0,0,1,.965.072c.31.048.645.253.666.579-.127,1.432-1.365,2.511-2.571,3.3" transform="translate(1553.764 327.914)" fill="#4988cd"/>
    <g id="Group_387" data-name="Group 387" transform="translate(1554.969 247.132)">
      <g id="Group_349" data-name="Group 349" clip-path="url(#clip-path)">
        <path id="Path_3537" data-name="Path 3537" d="M20.379,84.039c.384-3.546,2.744-5.8,5.731-5.46,2.591.291,5.2,3.731,4.862,6.416-.321,2.558-3.407,4.619-6.331,4.228-3.028-.406-4.575-2.286-4.262-5.184" transform="translate(29.053 -74.776)" fill="#3d3f3c"/>
        <path id="Path_3538" data-name="Path 3538" d="M147.824,28.824c.112-2.4,3.623-5.725,6.127-5.864a5.147,5.147,0,0,1,2.38.546c2.584,1.256,2.9,3.476,1.086,6.864-1.632,3.044-4.432,4.534-6.943,3.531-2.608-1.041-2.013-3.433-2.649-5.078" transform="translate(211.154 98.384)" fill="#3d3f3c"/>
        <path id="Path_3539" data-name="Path 3539" d="M100.487,41.31c-1.5-.2-3.062-.289-4.009-1.464-1.263-1.564.461-2.218,1.3-3.212a32.389,32.389,0,0,0,1.7-2.947c1.8-2.681,3.754-3.119,6.824-1.61,2.5,1.226,2.822,2.964.915,5.662a7.915,7.915,0,0,1-6.727,3.571" transform="translate(137.17 73.735)" fill="#3d3f3c"/>
        <path id="Path_3540" data-name="Path 3540" d="M39.176,53.787c-.335-4.374-3.83-5.483-5.8-8.381a12.122,12.122,0,0,1,8.087,5.717c1.612,2.588.957,5.073-1.52,6.31-2.341,1.168-6.489.41-8-1.468a4.409,4.409,0,0,1-.656-.954c-.746-1.751-1.6-3.926.43-5.007a4.065,4.065,0,0,1,5.328,1.638,21.01,21.01,0,0,0,2.125,2.146" transform="translate(43.514 26.912)" fill="#3d3f3c"/>
        <path id="Path_3541" data-name="Path 3541" d="M62.9,31.391c-1.765-.272-4.094.268-4.233-2.311-.214-4,2.283-7.312,5.692-7.516,2.824-.168,4.786,1.487,4.835,4.075.066,3.355-2.465,5.666-6.294,5.753" transform="translate(83.786 104.19)" fill="#3d3f3c"/>
        <path id="Path_3542" data-name="Path 3542" d="M140.8,20.727c2.6-.342,4.332.523,4.361,3.248.029,2.959-2.783,6.465-5.034,6.269-1.2-.1-5.658-5.233-5.6-6.452.075-1.663,2.778-3.038,6.275-3.066" transform="translate(192.158 107.229)" fill="#3d3f3c"/>
        <path id="Path_3543" data-name="Path 3543" d="M47.239,60.789c-.034,3.244-1.151,4.009-5.811,3.988-2.686-.013-5.532-2.428-5.335-4.527C36.34,57.6,38.74,56.113,42.63,56.2c3.754.085,4.648.975,4.609,4.589" transform="translate(51.541 -2.801)" fill="#3d3f3c"/>
        <path id="Path_3544" data-name="Path 3544" d="M57.562,39.145c.2-3.65,2.528-6.647,4.84-6.677A4.673,4.673,0,0,1,66.96,37.5c-.2,3.212-2.581,5.216-6.144,5.084-2.9-.108-3.113-2-3.254-3.442" transform="translate(82.222 69.797)" fill="#3d3f3c"/>
        <path id="Path_3545" data-name="Path 3545" d="M92.251,64.209a7.977,7.977,0,0,1-2.475-.042c-2.3-.62-4.6-1.578-4.381-4.128.2-2.377,2.285-3.535,4.716-3.977,3.252-.593,7.788,3.478,7.229,6.342-.3,1.544-1.4,2.006-5.09,1.806" transform="translate(121.959 -1.905)" fill="#3d3f3c"/>
        <path id="Path_3546" data-name="Path 3546" d="M53.651,16.843c3.373.066,5.367,1.479,5.226,3.694-.143,2.188-3.65,5.233-5.882,5.105-2.314-.134-5.146-2.849-5.226-5.012-.085-2.328,2.29-3.858,5.882-3.788" transform="translate(68.231 119.94)" fill="#3d3f3c"/>
        <path id="Path_3547" data-name="Path 3547" d="M77.2,32.429c.041,3.219-1.35,4.67-4.488,4.678-3.055.008-5.258-1.814-4.927-4.663.206-1.785-.457-4.466,3.077-4.706,3.662-.249,6.3,1.746,6.338,4.691" transform="translate(96.78 85.374)" fill="#3d3f3c"/>
        <path id="Path_3548" data-name="Path 3548" d="M58.285,56.786c-.381,3.176-2.115,4.54-5.294,4.172-3.113-.361-5.136-2.141-4.8-4.223.357-2.192,4.478-5.424,6.528-5.118,2.424.361,3.885,2.484,3.562,5.169" transform="translate(68.789 10.733)" fill="#3d3f3c"/>
        <path id="Path_3549" data-name="Path 3549" d="M82.461,32.925a4.758,4.758,0,0,1-5.214-4.532c-.017-1.676,3.584-4.308,5.84-4.266s4.842,2.394,4.925,4.5c.1,2.443-2.149,4.185-5.551,4.3" transform="translate(110.341 97.178)" fill="#3d3f3c"/>
        <path id="Path_3550" data-name="Path 3550" d="M15.582,70.986c2.433-.1,5.767,3.059,5.988,5.672a3.725,3.725,0,0,1-3.985,4.1c-3.07-.028-5.986-1.986-6.02-4.043-.029-1.772,2.708-5.681,4.017-5.734" transform="translate(16.519 -50.202)" fill="#3d3f3c"/>
        <path id="Path_3551" data-name="Path 3551" d="M98.2,28.656c.09,3.773-2.237,6.157-5.5,6.108-2.635-.038-4.449-1.644-4.337-3.837.107-2.1,4.476-6.932,6.03-6.454a4.941,4.941,0,0,1,3.81,4.183" transform="translate(126.213 94.679)" fill="#3d3f3c"/>
        <path id="Path_3552" data-name="Path 3552" d="M71.617,58.349c.015,3.389-1.882,6.067-4.221,5.959-2.948-.134-6.35-2.182-6.307-3.794.07-2.52,3.429-5.105,6.659-5.124,2.246-.015,3.861,1.222,3.868,2.959" transform="translate(87.261 -0.62)" fill="#3d3f3c"/>
        <path id="Path_3553" data-name="Path 3553" d="M37.8,68.269c-1.637-.062-7.217,2.785-7.382,3.767-.192,1.143,4.332,6,5.765,6.195,2.037.27,5.619-3.325,5.789-5.813A4.18,4.18,0,0,0,37.8,68.269m-1.661,1.717c1.3-.88,1.77.208,2.234.809a1.309,1.309,0,0,1-.342,1.967,5.59,5.59,0,0,1-1.892-2.777" transform="translate(43.446 -41.914)" fill="#3d3f3c"/>
        <path id="Path_3554" data-name="Path 3554" d="M147.35,77.387a4.1,4.1,0,0,1-3.29-3.544c-.6-2.947,2.295-6.486,5.661-6.994a2.988,2.988,0,0,1,1.736.31,3.591,3.591,0,0,1,1.782,4.833c-.947,2.666-3.932,5.519-5.889,5.394" transform="translate(205.663 -37.995)" fill="#3d3f3c"/>
        <path id="Path_3555" data-name="Path 3555" d="M12.112,48.3c.061,2.322-2.266,4.929-4.337,4.859-2.224-.079-5.571-3.17-5.86-5.417-.206-1.6,3.395-3.8,6.129-3.737a4.35,4.35,0,0,1,4.068,4.3" transform="translate(2.723 34.721)" fill="#3d3f3c"/>
        <path id="Path_3556" data-name="Path 3556" d="M120.847,67.378c3.293.026,4.966,1.406,4.791,3.954-.151,2.152-3.208,4.891-5.386,4.823-2.363-.076-4.786-2.917-4.952-5.808-.124-2.184,1.4-3,5.547-2.968" transform="translate(164.686 -37.932)" fill="#3d3f3c"/>
        <path id="Path_3557" data-name="Path 3557" d="M21.949,73.475c-1.4-.013-3.553-3.323-3.451-5.313a4.355,4.355,0,0,1,4.16-4.017c3.1.174,5.9,2.152,5.84,4.132-.066,2.343-3.694,5.224-6.549,5.2" transform="translate(26.418 -28.374)" fill="#3d3f3c"/>
        <path id="Path_3558" data-name="Path 3558" d="M120.813,31.24c-.168-1.663.784-2.923,1.792-4.128,1.4-1.676,3.434-1.392,5.194-.809a2.552,2.552,0,0,1,1.7,3.236,15.5,15.5,0,0,0-.809,2.666c-.063,1.2,1.484,2.928-.316,3.48-2.188.671-4.646-.232-6.537-1.338-.782-.459-.7-2.037-1.02-3.106" transform="translate(172.544 90.536)" fill="#3d3f3c"/>
        <path id="Path_3559" data-name="Path 3559" d="M44.342,42.533c4.165-.183,7.256,1.615,7.412,3.888.165,2.435-3.334,5.732-6.137,5.439-2.96-.31-3.555-2.777-3.436-4.623.1-1.642-.729-4.406,2.161-4.7" transform="translate(60.201 39.154)" fill="#3d3f3c"/>
        <path id="Path_3560" data-name="Path 3560" d="M171.678,68.494a15.09,15.09,0,0,1-.949,3.206c-.68,1.345-1.729,2.821-3.757,2.341-1.773-.421-3.674-1-4.313-2.9-.609-1.806,2.353-6.934,4.378-7.5,1.989-.554,4.536,1.812,4.641,4.852" transform="translate(232.228 -27.801)" fill="#3d3f3c"/>
        <path id="Path_3561" data-name="Path 3561" d="M158.691,80.937c.017-2.981,1.316-4.194,4.42-4.115,2.351.057,5.493,2.252,5.556,3.879.08,2.069-2.87,4.368-5.593,4.362-3.235-.008-4.4-1.1-4.383-4.126" transform="translate(226.676 -66.895)" fill="#3d3f3c"/>
        <path id="Path_3562" data-name="Path 3562" d="M135.3,46.852c0,2.169-2.674,5.207-4.694,5.335-2.062.13-4.565-2.9-4.429-5.349a4.562,4.562,0,0,1,9.124.015" transform="translate(180.22 39.201)" fill="#3d3f3c"/>
        <path id="Path_3563" data-name="Path 3563" d="M108.639,12.166c1.94-.045,4.094,2.061,4.289,4.192.192,2.095-3.176,5.466-5.474,5.475-1.894.006-4.2-2.352-4.208-4.3a5.57,5.57,0,0,1,5.393-5.369" transform="translate(147.476 133.689)" fill="#3d3f3c"/>
        <path id="Path_3564" data-name="Path 3564" d="M37.753,26.171c2.178-.157,5.17,1.94,5.5,3.852.449,2.632-1.962,5.2-5,5.33-2.713.113-4.529-1.294-4.6-3.563-.073-2.235,2.3-5.49,4.106-5.619" transform="translate(48.059 90.423)" fill="#3d3f3c"/>
        <path id="Path_3565" data-name="Path 3565" d="M41.354,25.065c.325-.867-.146-2.169,1.593-2.611a4.85,4.85,0,0,1,4.738.888c1.355,1.211,2.734,2.5,1.848,4.41a12.423,12.423,0,0,1-1.792,2.976C45.9,32.851,43.7,32.586,42.376,30.1a7.689,7.689,0,0,1-1.022-5.031" transform="translate(58.937 102.009)" fill="#3d3f3c"/>
        <path id="Path_3566" data-name="Path 3566" d="M148.917,80.166c1.7.346,4.449-.368,4.553,2.458.078,2.088-3.893,5.917-5.971,6.048-2.122.132-4.6-2.885-4.388-5.343.206-2.392,1.693-3.236,5.806-3.163" transform="translate(204.402 -77.614)" fill="#3d3f3c"/>
        <path id="Path_3567" data-name="Path 3567" d="M152,80.279c-1.583-1.281-.663-2.889-.835-4.319-.4-3.338,2.924-6.021,6.489-5.281,1.615.336,2.637,1.209,2.324,2.838-.77,3.99-3.344,6.327-7.977,6.762" transform="translate(215.769 -48.806)" fill="#3d3f3c"/>
        <path id="Path_3568" data-name="Path 3568" d="M170.181,88.784c-3.077-.093-4.667-1.283-4.609-3.446.07-2.675,3.3-5.456,6.156-5.273,2.154.14,2.8,1.262,2.637,3.034-.481,5.26-.835,5.787-4.184,5.685" transform="translate(236.503 -77.509)" fill="#3d3f3c"/>
        <path id="Path_3569" data-name="Path 3569" d="M150.96,11.475c-2.4.017-4.9,2.161-5.012,4.306a5.106,5.106,0,0,0,2.382,4.353c1.685-1.092,3.393-2.152,5.146-3.153.566-.593,1.1-1.211,1.659-1.81a4.5,4.5,0,0,0-4.174-3.7" transform="translate(208.465 136.852)" fill="#3d3f3c"/>
        <path id="Path_3570" data-name="Path 3570" d="M106.207,41.8c-.107-1.753,1.328-2.921,2.691-4.132s2.766-.574,4.16-.119a2.494,2.494,0,0,1,1.948,2.581c.046,2.7-2.567,5.717-5.515,6.15-2.261.331-3.681-1.528-3.283-4.481" transform="translate(151.612 56.483)" fill="#3d3f3c"/>
        <path id="Path_3571" data-name="Path 3571" d="M118.417,83.94c.223-4.854,2.29-6.41,6.314-4.8,2.586,1.037,3.225,3.04,1.435,5.027a10.675,10.675,0,0,1-2.9,2.184c-1.185.627-2.285,2.08-3.941,1.081a2.512,2.512,0,0,1-.9-3.493" transform="translate(168.665 -73.241)" fill="#3d3f3c"/>
        <path id="Path_3572" data-name="Path 3572" d="M140.653,70.3a3.577,3.577,0,0,1,3.963,3.433c.328,2.577-1.78,4.464-5.085,4.663-2.839.172-4.641-1.183-4.658-3.5-.015-2.01,2.992-4.483,5.78-4.6" transform="translate(192.654 -46.403)" fill="#3d3f3c"/>
        <path id="Path_3573" data-name="Path 3573" d="M36.49,61.153a4.919,4.919,0,0,1-4.354,4.8c-2.387.134-5.425-2.05-5.483-3.941-.068-2.156,2.873-4.823,5.372-4.871a4.465,4.465,0,0,1,4.466,4.009" transform="translate(38.069 -5.997)" fill="#3d3f3c"/>
        <path id="Path_3574" data-name="Path 3574" d="M12.6,73.137c.085,1.81-.25,3.4-2.883,3.416-2.7.017-5.891-2.53-6.1-4.763-.192-2.063,1.727-3.956,4.111-4.058,2.8-.117,4.779,2.08,4.869,5.4" transform="translate(5.147 -39.075)" fill="#3d3f3c"/>
        <path id="Path_3575" data-name="Path 3575" d="M115.678,78.693a6.018,6.018,0,0,1-1.8,4.616c-1.727,1.923-3.24,1.755-4.624-.467a28.64,28.64,0,0,1-1.615-3c-.782-1.678-2.249-3.576.058-4.99,1.2-.733,2.669-2,4.595-1.058,2.2,1.079,3.584,2.564,3.383,4.9" transform="translate(152.066 -59.328)" fill="#3d3f3c"/>
        <path id="Path_3576" data-name="Path 3576" d="M112.05,66.467c-2.5.028-5.4-3.157-5.4-5.685a4.012,4.012,0,0,1,4.293-4.007c2.288.053,4.7,2.473,4.225,4.778-.384,1.882-.515,4.183-3.121,4.914" transform="translate(152.343 -5.717)" fill="#3d3f3c"/>
        <path id="Path_3577" data-name="Path 3577" d="M65.222,14.016c-.432,3.531-2.336,5.447-5.546,5.01-3.779-.518-2.5-3.242-2.336-5.239.272-3.282,1.518-4.313,4.439-4.126,2.528.161,3.764,1.725,3.443,4.355" transform="translate(81.42 141.798)" fill="#3d3f3c"/>
        <path id="Path_3578" data-name="Path 3578" d="M95.55,82.594c-1.559.537-3.1,1.177-4.718,1.6A4.462,4.462,0,0,1,85.3,81.483c-.988-2.08.743-3.669,2.453-4.663,2.268-1.319,4.626-.223,4.932,1.765.3,1.952,3.6,1.772,2.861,4.009" transform="translate(121.438 -64.996)" fill="#3d3f3c"/>
        <path id="Path_3579" data-name="Path 3579" d="M104.973,22.542a4.547,4.547,0,0,1,4.459,4.009c.114,2.3-2.613,5.148-4.888,5.1a4.907,4.907,0,0,1-4.17-4.366c.08-2.239,2.484-4.723,4.6-4.746" transform="translate(143.373 101.821)" fill="#3d3f3c"/>
        <path id="Path_3580" data-name="Path 3580" d="M137.844,55.876c-.036,2.8-2.273,5.677-4.357,5.783-1.734.089-3.451-2.275-3.446-4.75,0-2.728,2.256-5.25,4.633-5.029,2.875.268,2.975,2.277,3.169,4" transform="translate(185.754 9.517)" fill="#3d3f3c"/>
        <path id="Path_3581" data-name="Path 3581" d="M168.643,51.376c3.269,2.15,3.949,4.328,2.929,6.883-1.306,3.272-5.309,4.1-8.147,1.751-1.865-1.544-1.739-3.225.729-4.121a6.9,6.9,0,0,0,4.49-4.512" transform="translate(231.615 10.863)" fill="#3d3f3c"/>
        <path id="Path_3582" data-name="Path 3582" d="M98.443,81.727a2.594,2.594,0,0,1-2.62-1.181,4.928,4.928,0,0,1-.452-4.808c.988-2.2,4.709-3.813,6.693-2.957,2.069.89,2.254,3.227.464,5.821-1.69,2.447-2.453,3.027-4.085,3.125" transform="translate(135.61 -54.499)" fill="#3d3f3c"/>
        <path id="Path_3583" data-name="Path 3583" d="M154.647,47.065c2.509-.153,4.442,1.4,4.551,3.663.112,2.343-2.275,4.721-4.966,4.948a3.632,3.632,0,0,1-4.14-3.323c-.075-2.195,2.479-5.162,4.556-5.288" transform="translate(214.389 25.708)" fill="#3d3f3c"/>
        <path id="Path_3584" data-name="Path 3584" d="M95.408,59.585c-.245-2.243.818-3.7,3.451-3.841,2.39-.127,5,2.161,5.151,4.257.146,2.012-2.387,5.141-4.1,5.067-2.334-.1-4.361-2.571-4.5-5.483" transform="translate(136.233 -2.119)" fill="#3d3f3c"/>
        <path id="Path_3585" data-name="Path 3585" d="M121.549,56.288a5.226,5.226,0,0,1,4.376,4.206c.121,1.844-3.47,5.211-5.311,4.7-2.113-.584-3.538-1.931-3.395-4.132.163-2.494,2.222-4.8,4.33-4.778" transform="translate(167.423 -3.466)" fill="#3d3f3c"/>
        <path id="Path_3586" data-name="Path 3586" d="M156.23,59.84c3.118-.1,5.712,1.334,6.01,3.24.262,1.68-2.033,4.226-4.021,4.459-2.132.251-6.086-3.063-5.816-5.022s1.642-2.932,3.827-2.677" transform="translate(217.675 -13.23)" fill="#3d3f3c"/>
        <path id="Path_3587" data-name="Path 3587" d="M56.436,71.016c-2.4.081-4.1-1.353-4.07-3.442.029-2.241,2.424-4.406,4.874-4.408s5.207,1.848,5.192,3.486c-.015,1.893-3.288,4.272-6,4.364" transform="translate(74.8 -23.85)" fill="#3d3f3c"/>
        <path id="Path_3588" data-name="Path 3588" d="M37.728,82.8c-.481-2.311-.2-4.408,3.567-4.039,2.883.28,5.16,2.779,4.833,5.088-.289,2.027-3.315,3.393-6.71,2.887-2.734-.408-2.72-1.959-1.69-3.937" transform="translate(52.978 -72.709)" fill="#3d3f3c"/>
        <path id="Path_3589" data-name="Path 3589" d="M136.211,80.118a3.118,3.118,0,0,1,2.732,2.059c1,2.239-1.663,6.783-4.306,7.47a2.345,2.345,0,0,1-1.224,0c-1.217-.4-2.96-4.566-2.584-6.1.619-2.52,3.162-2.766,5.381-3.431" transform="translate(186.804 -78.57)" fill="#3d3f3c"/>
        <path id="Path_3590" data-name="Path 3590" d="M82.3,47.94c2.759-.982,5.481-1.972,8.577-1.156s3.82,3.021,1.642,5.073C89.14,55.038,84.543,53.3,82.3,47.94" transform="translate(117.561 29.169)" fill="#3d3f3c"/>
        <path id="Path_3591" data-name="Path 3591" d="M71.544,72.126A3.973,3.973,0,0,1,67.785,76.5c-2.292.059-4.393-.31-4.524-2.877-.1-1.965,2.671-5.893,4.109-5.938,1.7-.053,4.077,2.473,4.174,4.438" transform="translate(90.358 -38.943)" fill="#3d3f3c"/>
        <path id="Path_3592" data-name="Path 3592" d="M96.763,13.32c1.877-.208,4.242,1.984,4.4,4.077.17,2.248-1.972,5.124-4.026,5.037a4.446,4.446,0,0,1-4.454-3.4c-.505-1.959,2.074-5.49,4.08-5.713" transform="translate(132.299 130.661)" fill="#3d3f3c"/>
        <path id="Path_3593" data-name="Path 3593" d="M85.811,24.57c-1.931-.612-4.065-1.158-4.106-3.548-.036-1.995,3-5.322,4.789-5.313a4.54,4.54,0,0,1,4.041,4.3c-.175,2.486-2.414,4.7-4.723,4.561" transform="translate(116.707 123.415)" fill="#3d3f3c"/>
        <path id="Path_3594" data-name="Path 3594" d="M80.682,53.047c.274,2.658-.16,4.209-2.2,5.069A3.313,3.313,0,0,1,75,57.457c-1.644-1.215-2.36-2.811-1.508-4.481.911-1.778,1.656-4.589,4.121-4.423,3.186.215,2.88,3.176,3.065,4.493" transform="translate(104.467 19.862)" fill="#3d3f3c"/>
        <path id="Path_3595" data-name="Path 3595" d="M167.55,28.825c-.036,2.481-2.217,4.816-4.417,4.8a4.716,4.716,0,0,1-4.187-4.291c-.087-2.01,2.975-4.3,5.789-4.151,2.674.138,2.533,2.088,2.815,3.639" transform="translate(227.038 94.245)" fill="#3d3f3c"/>
        <path id="Path_3596" data-name="Path 3596" d="M95.608,39.444c-.228,1.955-3.674,4.6-5.862,4.493-1.853-.087-4.33-3.8-3.645-5.855.772-2.324,3.208-2.182,5.287-2.061,2.545.151,4.405,1.821,4.221,3.423" transform="translate(122.82 61.019)" fill="#3d3f3c"/>
        <path id="Path_3597" data-name="Path 3597" d="M79.678,45.556C77.5,45.5,75.96,44.545,75.5,42.725c-.578-2.284,2.312-5.672,4.808-5.738,2.62-.068,3.737,1.345,3.966,3.474a4.826,4.826,0,0,1-4.6,5.1" transform="translate(107.74 57.237)" fill="#3d3f3c"/>
        <path id="Path_3598" data-name="Path 3598" d="M73.4,74.387c3.271.414,4.412,1.87,5.8,2.989,1.474,1.185,2.8,2.511,1.372,4.345a4.707,4.707,0,0,1-5,1.729,4.213,4.213,0,0,1-3.543-4.132c-.17-1.857,2.409-2.679,1.372-4.931" transform="translate(102.879 -60.267)" fill="#3d3f3c"/>
        <path id="Path_3599" data-name="Path 3599" d="M94.116,7.121c.083,1.7-3.626,6.465-5.143,6.435-2.22-.047-3.477-1.122-3.623-3.1-.2-2.687,2.739-5.983,5.333-6,1.78-.008,3.363,1.219,3.434,2.664" transform="translate(121.901 158.34)" fill="#3d3f3c"/>
        <path id="Path_3600" data-name="Path 3600" d="M138.578,52.054a6.4,6.4,0,0,1-1.438-.805,4.672,4.672,0,0,1,.678-7,4.591,4.591,0,0,1,5.763.287c1.52,1.3.967,2.692-.153,3.986-1.27,1.466-2.37,3.108-4.85,3.533" transform="translate(194.078 37.168)" fill="#3d3f3c"/>
        <path id="Path_3601" data-name="Path 3601" d="M149.953,58.375c-.136,2.392-2.686,4.9-4.74,4.961a3.914,3.914,0,0,1-4.007-4.138c.2-2.377,1.9-3.822,4.49-3.7,2.319.108,4.138.807,4.257,2.879" transform="translate(201.683 0.142)" fill="#3d3f3c"/>
        <path id="Path_3602" data-name="Path 3602" d="M104.08,46.473c-.435,2.067-2.212,3.393-4.429,4.232-2.023.763-4.208,1.1-6.005-.484a2.026,2.026,0,0,1-.163-3.066c1.151-1.428,7.152-4,8.388-3.495a3.266,3.266,0,0,1,2.21,2.813" transform="translate(132.644 37.402)" fill="#3d3f3c"/>
        <path id="Path_3603" data-name="Path 3603" d="M41.014,35.814c1.748.068,3.257.843,3.162,3-.09,2.037-3.091,5.088-5.041,5.228-2.147.155-3.664-1.353-3.711-3.686-.058-2.838,1.9-4.58,5.59-4.544" transform="translate(50.598 61.224)" fill="#3d3f3c"/>
        <path id="Path_3604" data-name="Path 3604" d="M130.479,66.635c2.161-.1,4.981,1.921,5.044,3.616.066,1.725-2.38,3.894-4.609,4.092a4.267,4.267,0,0,1-4.794-3.618c-.165-1.81,2.156-3.988,4.359-4.09" transform="translate(180.139 -34.555)" fill="#3d3f3c"/>
        <path id="Path_3605" data-name="Path 3605" d="M62.59,48.66c-.01,2.114-.86,3.643-3.6,3.635a5,5,0,0,1-4.706-5.069c.017-1.931,1.253-3.089,3.412-3.318,2.39-.255,4.862,2.216,4.893,4.752" transform="translate(77.541 35.829)" fill="#3d3f3c"/>
        <path id="Path_3606" data-name="Path 3606" d="M52.4,69.749c-.3,1.95-1.894,2.887-4.3,3.015-2.827.151-4.58-1.1-4.777-3.406-.2-2.339,1.379-3.444,3.711-3.724,2.526-.3,5.335,1.831,5.364,4.115" transform="translate(61.856 -30.788)" fill="#3d3f3c"/>
        <path id="Path_3607" data-name="Path 3607" d="M148.447,35.4c-.015,1.9-2.9,4.013-5.459,3.945-2.341-.064-3.46-1.239-3.565-3.212-.146-2.685,1.263-4.5,3.482-4.544,2.645-.051,5.554,1.95,5.542,3.811" transform="translate(199.139 74.925)" fill="#3d3f3c"/>
        <path id="Path_3608" data-name="Path 3608" d="M9.291,38.559c-.09,1.944-2.475,3.658-4.9,3.452-2.861-.242-3.031-2.382-3.237-4.094-.26-2.167,2.506-4.865,4.354-4.708,1.365.115,3.864,3.648,3.786,5.349" transform="translate(1.62 68.798)" fill="#3d3f3c"/>
        <path id="Path_3609" data-name="Path 3609" d="M160.791,46.709a2.831,2.831,0,0,1-3.162-2.235c-.6-2.433,1.926-3.172,3.339-4.385a4.156,4.156,0,0,1,5.27-.119c1.554,1.077,1.989,2.362.624,3.879a11.516,11.516,0,0,1-6.071,2.86" transform="translate(225.03 51.612)" fill="#3d3f3c"/>
        <path id="Path_3610" data-name="Path 3610" d="M48.745,31.638c2.543-.117,5.588,1.721,5.617,3.178.039,1.787-3.5,5.014-5.43,4.748-2.555-.351-3.276-2.2-3.395-4.087a3.415,3.415,0,0,1,3.208-3.839" transform="translate(65.031 74.582)" fill="#3d3f3c"/>
        <path id="Path_3611" data-name="Path 3611" d="M103.524,72.154a2.028,2.028,0,0,1-2.343-2.1c-.192-2.571,2.326-6.172,4.388-6.078,2.186.1,3.526,1.185,3.623,3.187.121,2.454-2.764,4.967-5.668,4.988" transform="translate(144.512 -26.706)" fill="#3d3f3c"/>
        <path id="Path_3612" data-name="Path 3612" d="M77,59.882c2.5-.616,2.98.671,2.968,2.42-.015,2.7-2.03,5.294-4.026,4.869-2.178-.463-3.842-1.759-4.075-3.852-.26-2.352,1.566-3.5,5.134-3.437" transform="translate(102.614 -12.737)" fill="#3d3f3c"/>
        <path id="Path_3613" data-name="Path 3613" d="M7.971,19.937c-2.227-.223-4.757-3.18-4.42-5.369.223-1.455.712-3.04,2.768-3.189,2.147-.157,5,3.416,4.806,5.764a2.977,2.977,0,0,1-3.155,2.794" transform="translate(5.029 137.249)" fill="#3d3f3c"/>
        <path id="Path_3614" data-name="Path 3614" d="M84.228,11.758c-.034,1.687-1.146,3.123-3.74,3.136-2.377.011-4.051-.994-4.182-3.274-.124-2.171,1.829-4.44,3.737-4.461a4.465,4.465,0,0,1,4.184,4.6" transform="translate(108.989 151.265)" fill="#3d3f3c"/>
        <path id="Path_3615" data-name="Path 3615" d="M109.812,55.939c-3.577-1.2-6.887-1.224-7.025-4.795a3.912,3.912,0,0,1,2.749-4.056,3.7,3.7,0,0,1,4.077.746c1.088.967,1.119,2.178-.07,2.923-2.424,1.525-.357,2.853.27,5.182" transform="translate(146.815 26.05)" fill="#3d3f3c"/>
        <path id="Path_3616" data-name="Path 3616" d="M137.408,35.149c-.2,2.889-2.479,5.222-4.964,4.952-1.969-.212-3.036-1.222-3.011-3.049.034-2.333,2.657-4.935,5.194-4.927,2.222.008,2.9,1.281,2.78,3.023" transform="translate(184.883 72.992)" fill="#3d3f3c"/>
        <path id="Path_3617" data-name="Path 3617" d="M51.64,6.739a3.727,3.727,0,0,1,3.526,4.672c-.5,2.146-2.018,3.962-4.616,3.835-3.055-.151-2.375-2.581-2.285-4.3.109-2.082.675-4.064,3.375-4.206" transform="translate(68.761 151.797)" fill="#3d3f3c"/>
        <path id="Path_3618" data-name="Path 3618" d="M117.982,31.89c.061,1.729-2.076,3.826-3.9,3.833-1.8.008-4.034-2.052-4.055-3.741a4.332,4.332,0,0,1,4.308-4.094c1.734.034,3.582,2.061,3.65,4" transform="translate(157.159 86.397)" fill="#3d3f3c"/>
        <path id="Path_3619" data-name="Path 3619" d="M74.035,18.293a4.525,4.525,0,0,1-4.1,3.879c-1.935-.03-3.759-2.454-3.5-4.712.228-2.025,1.581-3.1,3.861-2.947,2.642.181,3.434,1.925,3.745,3.779" transform="translate(94.854 128.39)" fill="#3d3f3c"/>
        <path id="Path_3620" data-name="Path 3620" d="M66.305,44.118c1.69-1.9,3.655-2.475,6.081-1,2.169,1.317,1.357,2.991.525,4.474-1.217,2.171-3.728,2.046-6.005,2.118-1.62.051-3.028-.423-3.307-2.016-.34-1.944.576-3.253,2.868-3.673a8.432,8.432,0,0,0-1.2,1.3c-.406.68-.549,1.483.325,1.965a1.985,1.985,0,0,0,2.331-.174c.663-.627.33-1.4-.2-1.982a8.036,8.036,0,0,0-1.416-1.009" transform="translate(90.745 41.82)" fill="#3d3f3c"/>
        <path id="Path_3621" data-name="Path 3621" d="M151.489,42.231a2.717,2.717,0,0,1-2.866-3,4.326,4.326,0,0,1,4.7-4.345c2.424.225,3.072,1.819,3.1,3.641.029,1.88-2.373,3.665-4.935,3.7" transform="translate(212.294 65.054)" fill="#3d3f3c"/>
        <path id="Path_3622" data-name="Path 3622" d="M119.789,36.384c3.062-.1,5.265,1.455,5.408,3.44a3.942,3.942,0,0,1-4.121,4.041,3.72,3.72,0,0,1-4-4.068c.083-1.8.945-3.157,2.717-3.412" transform="translate(167.22 60.213)" fill="#3d3f3c"/>
        <path id="Path_3623" data-name="Path 3623" d="M12.688,22.339c.743-2.118-.661-3.338-2.169-4.729-.814-.748-.9-2.156.882-2.653,2.572-.716,6.46,1.126,7.186,3.48.826,2.677-1.438,3.036-3.562,3.554-.8.2-1.481.767-2.336.348" transform="translate(14.234 127.436)" fill="#3d3f3c"/>
        <path id="Path_3624" data-name="Path 3624" d="M55.954,81.541c-2.237-.034-3.448-1.632-3.256-4.383.124-1.776,1.27-2.624,3.29-2.511,2.472.138,5.556,2.382,5.355,3.862-.223,1.627-2.79,3.072-5.389,3.032" transform="translate(75.246 -58.743)" fill="#3d3f3c"/>
        <path id="Path_3625" data-name="Path 3625" d="M120.541,20.249a7.466,7.466,0,0,1-.852,2.549,3.862,3.862,0,0,1-4.267,1.727c-1.758-.58-1.763-2.156-1.668-3.8.121-2.08,2.708-2.532,3.123-4.444.2-.888,1.867-.423,2.657.227.986.812,1.224,1.918,1.008,3.737" transform="translate(162.442 123.126)" fill="#3d3f3c"/>
        <path id="Path_3626" data-name="Path 3626" d="M93.075,66.406c1.756.894,2.776.495,3.606-.576.544-.7,1.255-1.047,1.96-.234a2.179,2.179,0,0,1,.517,1.517c-.117,1.107-6.168,5.791-7.263,5.581-1.967-.38-2.375-1.974-2.773-3.361a2.247,2.247,0,0,1,1.9-3.021,6.721,6.721,0,0,1,2.054.093" transform="translate(127.126 -29.692)" fill="#3d3f3c"/>
        <path id="Path_3627" data-name="Path 3627" d="M121.2,49.744c-.017,1.266-3.135,3.881-4.7,3.939-2.674.1-4.2-1.646-4.2-4.519,0-2.348,1.7-2.741,3.762-2.758,2.513-.019,5.153,1.751,5.134,3.338" transform="translate(160.411 29.09)" fill="#3d3f3c"/>
        <path id="Path_3628" data-name="Path 3628" d="M39.234,7.758a17.719,17.719,0,0,1,.673-2.2c.561-1.332.77-3.1,3.312-2.433,2.164.574,3.715,3.136,2.674,4.848a9.513,9.513,0,0,1-2.579,2.394,3.232,3.232,0,0,1-2.883.79c-.954-.272-1.333-1.207-1.2-3.4" transform="translate(56.004 163.788)" fill="#3d3f3c"/>
        <path id="Path_3629" data-name="Path 3629" d="M83.06,73.077c-1.714.119-3.876-1.929-3.968-3.76-.087-1.731,2.394-4.264,4.272-4.189,1.909.076,3.172,1.007,3.473,2.715.35,2-1.926,5.105-3.776,5.235" transform="translate(112.973 -30.075)" fill="#3d3f3c"/>
        <path id="Path_3630" data-name="Path 3630" d="M27.909,28.71c2.006.2,4.949,3.459,4.682,5.345a3.458,3.458,0,0,1-3.6,3.2c-1.714.021-4-4.44-3.606-6.558a2.246,2.246,0,0,1,2.521-1.984" transform="translate(36.201 83.119)" fill="#3d3f3c"/>
        <path id="Path_3631" data-name="Path 3631" d="M12.053,81.461c-.272,1.731-.087,3.675-2.946,3.58a4.034,4.034,0,0,1-3.956-4.272,3.551,3.551,0,0,1,3.878-3.508c2.649.459,2.948,2.358,3.023,4.2" transform="translate(7.357 -67.73)" fill="#3d3f3c"/>
        <path id="Path_3632" data-name="Path 3632" d="M14.39,57.544a2.909,2.909,0,0,1-3.062,2.2c-1.795-.089-5.34-3.75-5.007-5.165.345-1.464,1.581-2.107,3.24-2.105,2.392,0,5.061,2.77,4.83,5.069" transform="translate(8.998 10.134)" fill="#3d3f3c"/>
        <path id="Path_3633" data-name="Path 3633" d="M7.955,38.2c.177-1.523.75-3.148,3.273-3.046,1.955.081,4.085,2.792,3.788,4.648-.323,2.042-2.052,2.734-4.109,2.843-1.952.1-3.06-1.534-2.953-4.444" transform="translate(11.353 64.046)" fill="#3d3f3c"/>
        <path id="Path_3634" data-name="Path 3634" d="M27.8,22.05c-.172,1.957-.981,4.323-3.4,4.576-2.47.257-3.045-2.209-3.293-4.017a3.372,3.372,0,0,1,3.679-3.637c2.122.055,2.919,1.192,3.016,3.078" transform="translate(30.099 114.418)" fill="#3d3f3c"/>
        <path id="Path_3635" data-name="Path 3635" d="M17.64,32.285c-2.671-.176-3.7-1.43-3.893-3.291-.214-2.071.69-3.983,3.065-4.2s2.8,1.889,3.067,3.546a3.5,3.5,0,0,1-2.239,3.947" transform="translate(19.593 96.444)" fill="#3d3f3c"/>
        <path id="Path_3636" data-name="Path 3636" d="M15.824,45a3.447,3.447,0,0,1,3.419,3.911c-.267,1.644-.743,3.4-2.917,3.9-1.6.365-3.764-2.3-3.776-4.436A3.157,3.157,0,0,1,15.824,45" transform="translate(17.927 32.93)" fill="#3d3f3c"/>
        <path id="Path_3637" data-name="Path 3637" d="M33.955,15.443c-1.894-.172-4.454-2.938-4.412-4.861.039-1.948,1.608-2.509,3.395-2.539C35.181,8,37.2,10.2,36.645,12.222c-.345,1.264-.112,3.191-2.691,3.221" transform="translate(42.198 148.835)" fill="#3d3f3c"/>
        <path id="Path_3638" data-name="Path 3638" d="M31.894,40.742c-.316,1.557-.636,3.722-3.256,4.432-1.518.41-3.664-2.137-3.366-3.983.27-1.674.9-3.484,3.363-3.257,1.408.132,3.7,0,3.259,2.809" transform="translate(36.058 55.599)" fill="#3d3f3c"/>
        <path id="Path_3639" data-name="Path 3639" d="M10.208,25.1c2.263.346,3.084,1.687,2.914,3.58-.163,1.8-.792,3.331-3.38,3.142-2.2-.161-3.475-1.332-3.752-3.163C5.757,27.136,8.3,25.09,10.208,25.1" transform="translate(8.535 96.201)" fill="#3d3f3c"/>
        <path id="Path_3640" data-name="Path 3640" d="M33.477,18.165c1.778.244,3.366.718,3.524,2.611.148,1.81-1.945,4.049-3.706,3.907a3.779,3.779,0,0,1-3.524-3.5c-.308-2.042,1.554-2.838,3.706-3.015" transform="translate(42.477 118.085)" fill="#3d3f3c"/>
        <path id="Path_3641" data-name="Path 3641" d="M73.563,7.477c-1.5,2.318-1.668,5.46-5.573,4.631a2.786,2.786,0,0,1-2.239-3.956c.818-2.263,2.482-2.441,7.812-.676" transform="translate(93.582 155.764)" fill="#3d3f3c"/>
        <path id="Path_3642" data-name="Path 3642" d="M25.865,12.763c-.389,1.349-.9,2.821-3.04,2.83-2.11.008-4.262-2.29-3.985-4.215.219-1.506.692-3.015,2.938-2.968a4.374,4.374,0,0,1,4.087,4.353" transform="translate(26.876 147.908)" fill="#3d3f3c"/>
        <path id="Path_3643" data-name="Path 3643" d="M40.979,20.324c-2.135-.106-2.628-1.5-2.708-3.038-.112-2.1,1.751-3.544,4.524-3.673,1.535-.072,2.356.622,2.448,1.9a4.835,4.835,0,0,1-4.264,4.81" transform="translate(54.661 132.131)" fill="#3d3f3c"/>
        <path id="Path_3644" data-name="Path 3644" d="M22.1,37.876c-.238,1.717-.784,3.5-3.123,3.66-2.511.17-3.2-1.636-3.286-3.41-.075-1.57.5-3.136,2.63-3.314A3.152,3.152,0,0,1,22.1,37.876" transform="translate(22.408 65.903)" fill="#3d3f3c"/>
        <path id="Path_3645" data-name="Path 3645" d="M25.71,57.762a3.179,3.179,0,0,1-3.881,3.21,5.079,5.079,0,0,1-2.681-2.316,2.6,2.6,0,0,1,1.149-3.92c1.518-.831,2.222.268,3.014,1.194.736.863,2.324,1.071,2.4,1.831" transform="translate(26.685 4.605)" fill="#3d3f3c"/>
        <path id="Path_3646" data-name="Path 3646" d="M24.606,31.119c-.35,1.929-.6,3.686-2.751,4.217-1.559.385-2.951-1.863-2.924-4.172.027-2.09,1.464-3.191,3.458-3.178,2.431.015,1.423,2.254,2.217,3.134" transform="translate(27.041 86.531)" fill="#3d3f3c"/>
        <path id="Path_3647" data-name="Path 3647" d="M12.743,58.258a12.228,12.228,0,0,1,2.47-.291c1.513.221,3.167-1.655,4.531.2.452.614-1.945,4.714-3,5.035a2.232,2.232,0,0,1-2.654-.907,25.187,25.187,0,0,1-1.35-4.039" transform="translate(18.202 -3.773)" fill="#3d3f3c"/>
        <path id="Path_3648" data-name="Path 3648" d="M23.515,45.57c2.929.521,2.543,2.473,2.917,4.043.5,2.076-1.535,2.2-2.732,2.11-2.084-.159-2.375-1.969-2.5-3.4-.131-1.46,1.037-2.335,2.317-2.751" transform="translate(30.265 32.809)" fill="#3d3f3c"/>
      </g>
    </g>
    <g id="Group_405" data-name="Group 405" transform="translate(1689 271.491)">
      <path id="Path_7065" data-name="Path 7065" d="M.9,59.085v87.05L72.072,88.1V1.053Z" transform="translate(0.437 0.514)" fill="#90e0ef"/>
      <g id="Group_398" data-name="Group 398">
        <g id="Group_397" data-name="Group 397" clip-path="url(#clip-path-2)">
          <path id="Path_7066" data-name="Path 7066" d="M72.072,88.1.9,146.134V59.085L72.072,1.053Z" transform="translate(0.437 0.514)" fill="none" stroke="#000" stroke-miterlimit="10" stroke-width="1"/>
        </g>
      </g>
      <g id="Group_400" data-name="Group 400" transform="translate(1.332 1.566)">
        <g id="Group_399" data-name="Group 399" clip-path="url(#clip-path-3)">
          <path id="Path_7067" data-name="Path 7067" d="M42.61,16.512a3.183,3.183,0,1,0-3.16-3.183,3.172,3.172,0,0,0,3.16,3.183" transform="translate(17.929 3.388)"/>
          <path id="Path_7068" data-name="Path 7068" d="M42.61,19.172a3.182,3.182,0,1,0,3.16,3.183,3.171,3.171,0,0,0-3.16-3.183" transform="translate(17.929 7.795)"/>
          <path id="Path_7069" data-name="Path 7069" d="M42.61,28.2a3.182,3.182,0,1,0,3.16,3.182A3.171,3.171,0,0,0,42.61,28.2" transform="translate(17.929 12.201)"/>
          <path id="Path_7070" data-name="Path 7070" d="M42.61,37.222a3.183,3.183,0,1,0,3.16,3.183,3.172,3.172,0,0,0-3.16-3.183" transform="translate(17.929 16.607)"/>
          <path id="Path_7071" data-name="Path 7071" d="M42.61,46.247a3.182,3.182,0,1,0,3.16,3.183,3.172,3.172,0,0,0-3.16-3.183" transform="translate(17.929 21.014)"/>
          <path id="Path_7072" data-name="Path 7072" d="M42.61,55.273a3.182,3.182,0,1,0,3.16,3.182,3.171,3.171,0,0,0-3.16-3.182" transform="translate(17.929 25.421)"/>
          <path id="Path_7073" data-name="Path 7073" d="M39.45,67.48a3.2,3.2,0,0,0,.138.881l4.5-3.673a3.1,3.1,0,0,0-1.484-.39,3.171,3.171,0,0,0-3.16,3.182" transform="translate(17.929 29.827)"/>
          <path id="Path_7074" data-name="Path 7074" d="M35.873,12.47l-3.517,2.869a3.315,3.315,0,0,0,.385.039,3.158,3.158,0,0,0,3.131-2.908" transform="translate(14.465 4.523)"/>
          <path id="Path_7075" data-name="Path 7075" d="M33.65,19.172a3.182,3.182,0,1,0,3.16,3.183,3.17,3.17,0,0,0-3.16-3.183" transform="translate(13.555 7.795)"/>
          <path id="Path_7076" data-name="Path 7076" d="M33.65,28.2a3.182,3.182,0,1,0,3.16,3.182A3.17,3.17,0,0,0,33.65,28.2" transform="translate(13.555 12.201)"/>
          <path id="Path_7077" data-name="Path 7077" d="M33.65,37.222a3.183,3.183,0,1,0,3.16,3.183,3.171,3.171,0,0,0-3.16-3.183" transform="translate(13.555 16.607)"/>
          <path id="Path_7078" data-name="Path 7078" d="M33.65,46.247a3.182,3.182,0,1,0,3.16,3.183,3.171,3.171,0,0,0-3.16-3.183" transform="translate(13.555 21.014)"/>
          <path id="Path_7079" data-name="Path 7079" d="M33.65,55.273a3.182,3.182,0,1,0,3.16,3.182,3.17,3.17,0,0,0-3.16-3.182" transform="translate(13.555 25.421)"/>
          <path id="Path_7080" data-name="Path 7080" d="M33.65,64.3a3.182,3.182,0,1,0,3.16,3.182A3.17,3.17,0,0,0,33.65,64.3" transform="translate(13.555 29.827)"/>
          <path id="Path_7081" data-name="Path 7081" d="M33.65,73.322a3.183,3.183,0,1,0,3.16,3.183,3.171,3.171,0,0,0-3.16-3.183" transform="translate(13.555 34.233)"/>
          <path id="Path_7082" data-name="Path 7082" d="M22.1,24.065a3.132,3.132,0,0,0,2.316,1.028,3.178,3.178,0,0,0,2.572-5.015Z" transform="translate(9.458 8.237)"/>
          <path id="Path_7083" data-name="Path 7083" d="M24.694,28.2a3.182,3.182,0,1,0,3.157,3.182A3.17,3.17,0,0,0,24.694,28.2" transform="translate(9.182 12.201)"/>
          <path id="Path_7084" data-name="Path 7084" d="M24.694,37.222a3.183,3.183,0,1,0,3.157,3.183,3.171,3.171,0,0,0-3.157-3.183" transform="translate(9.182 16.607)"/>
          <path id="Path_7085" data-name="Path 7085" d="M24.694,46.247A3.182,3.182,0,1,0,27.85,49.43a3.171,3.171,0,0,0-3.157-3.183" transform="translate(9.182 21.014)"/>
          <path id="Path_7086" data-name="Path 7086" d="M24.694,55.273a3.182,3.182,0,1,0,3.157,3.182,3.17,3.17,0,0,0-3.157-3.182" transform="translate(9.182 25.421)"/>
          <path id="Path_7087" data-name="Path 7087" d="M24.694,64.3A3.182,3.182,0,1,0,27.85,67.48,3.17,3.17,0,0,0,24.694,64.3" transform="translate(9.182 29.827)"/>
          <path id="Path_7088" data-name="Path 7088" d="M24.694,73.322a3.183,3.183,0,1,0,3.157,3.183,3.171,3.171,0,0,0-3.157-3.183" transform="translate(9.182 34.233)"/>
          <path id="Path_7089" data-name="Path 7089" d="M16.632,28.3,12.593,31.59A3.153,3.153,0,1,0,16.632,28.3" transform="translate(4.816 12.25)"/>
          <path id="Path_7090" data-name="Path 7090" d="M15.735,37.222a3.183,3.183,0,1,0,3.16,3.183,3.172,3.172,0,0,0-3.16-3.183" transform="translate(4.808 16.607)"/>
          <path id="Path_7091" data-name="Path 7091" d="M15.735,46.247a3.182,3.182,0,1,0,3.16,3.183,3.172,3.172,0,0,0-3.16-3.183" transform="translate(4.808 21.014)"/>
          <path id="Path_7092" data-name="Path 7092" d="M15.735,55.273a3.182,3.182,0,1,0,3.16,3.182,3.171,3.171,0,0,0-3.16-3.182" transform="translate(4.808 25.421)"/>
          <path id="Path_7093" data-name="Path 7093" d="M15.735,64.3a3.182,3.182,0,1,0,3.16,3.182,3.171,3.171,0,0,0-3.16-3.182" transform="translate(4.808 29.827)"/>
          <path id="Path_7094" data-name="Path 7094" d="M15.735,73.322a3.183,3.183,0,1,0,3.16,3.183,3.172,3.172,0,0,0-3.16-3.183" transform="translate(4.808 34.233)"/>
          <path id="Path_7095" data-name="Path 7095" d="M15.735,82.348a3.182,3.182,0,1,0,3.16,3.183,3.172,3.172,0,0,0-3.16-3.183" transform="translate(4.808 38.639)"/>
          <path id="Path_7096" data-name="Path 7096" d="M6.775,37.222a3.183,3.183,0,1,0,3.16,3.183,3.171,3.171,0,0,0-3.16-3.183" transform="translate(0.434 16.607)"/>
          <path id="Path_7097" data-name="Path 7097" d="M6.775,46.247a3.182,3.182,0,1,0,3.16,3.183,3.171,3.171,0,0,0-3.16-3.183" transform="translate(0.434 21.014)"/>
          <path id="Path_7098" data-name="Path 7098" d="M6.775,55.273a3.182,3.182,0,1,0,3.16,3.182,3.17,3.17,0,0,0-3.16-3.182" transform="translate(0.434 25.421)"/>
          <path id="Path_7099" data-name="Path 7099" d="M6.775,64.3a3.182,3.182,0,1,0,3.16,3.182A3.17,3.17,0,0,0,6.775,64.3" transform="translate(0.434 29.827)"/>
          <path id="Path_7100" data-name="Path 7100" d="M6.775,73.322a3.183,3.183,0,1,0,3.16,3.183,3.171,3.171,0,0,0-3.16-3.183" transform="translate(0.434 34.233)"/>
          <path id="Path_7101" data-name="Path 7101" d="M6.775,82.348a3.182,3.182,0,1,0,3.16,3.183,3.171,3.171,0,0,0-3.16-3.183" transform="translate(0.434 38.639)"/>
          <path id="Path_7102" data-name="Path 7102" d="M6.775,91.373a3.177,3.177,0,0,0-1.469,5.984L9.8,93.692a3.151,3.151,0,0,0-3.026-2.319" transform="translate(0.434 43.046)"/>
        </g>
      </g>
      <path id="Path_7104" data-name="Path 7104" d="M48.722,88.1l79.618,42.971V44.023L48.722,1.053Z" transform="translate(23.788 0.514)" fill="#e96687"/>
      <g id="Group_402" data-name="Group 402">
        <g id="Group_401" data-name="Group 401" clip-path="url(#clip-path-2)">
          <path id="Path_7105" data-name="Path 7105" d="M48.722,88.1l79.618,42.971V44.023L48.722,1.053Z" transform="translate(23.788 0.514)" fill="none" stroke="#000" stroke-miterlimit="10" stroke-width="1"/>
        </g>
      </g>
      <path id="Path_7106" data-name="Path 7106" d="M.9,117.577l79.618,42.97,71.176-58.032L72.072,59.544Z" transform="translate(0.437 29.071)" fill="#3b6dab"/>
      <g id="Group_404" data-name="Group 404">
        <g id="Group_403" data-name="Group 403" clip-path="url(#clip-path-2)">
          <path id="Path_7107" data-name="Path 7107" d="M72.072,59.543l79.618,42.971L80.513,160.547.9,117.577Z" transform="translate(0.437 29.071)" fill="none" stroke="#000" stroke-miterlimit="10" stroke-width="1"/>
        </g>
      </g>
    </g>
  </g>
</svg>
