<svg id="Group_417" data-name="Group 417" xmlns="http://www.w3.org/2000/svg" xmlns:xlink="http://www.w3.org/1999/xlink" width="355.649" height="212.395" viewBox="0 0 355.649 212.395">
  <defs>
    <clipPath id="clip-path">
      <rect id="Rectangle_761" data-name="Rectangle 761" width="355.649" height="212.395" fill="none"/>
    </clipPath>
  </defs>
  <g id="Group_416" data-name="Group 416" clip-path="url(#clip-path)">
    <path id="Path_7114" data-name="Path 7114" d="M318.542,95.581a37.092,37.092,0,0,0-11.189,1.724,47.98,47.98,0,0,0-66.574-39.032c.066-1.1.166-2.188.166-3.3a54.966,54.966,0,0,0-107.31-16.78A36.969,36.969,0,0,0,85.777,59.636a37.07,37.07,0,0,0-53.289,45.837,49.538,49.538,0,1,0,54.695,78.709,67.68,67.68,0,0,0,67,12.063,60.43,60.43,0,0,0,92.764-12.9A37.014,37.014,0,0,0,301.2,165.482a37.1,37.1,0,1,0,17.346-69.9" fill="#fafeff"/>
  </g>
</svg>
