<svg id="Group_468" data-name="Group 468" xmlns="http://www.w3.org/2000/svg" xmlns:xlink="http://www.w3.org/1999/xlink" width="87.092" height="85.094" viewBox="0 0 87.092 85.094">
  <defs>
    <clipPath id="clip-path">
      <rect id="Rectangle_768" data-name="Rectangle 768" width="87.092" height="85.094" fill="none"/>
    </clipPath>
  </defs>
  <g id="Group_441" data-name="Group 441" clip-path="url(#clip-path)">
    <path id="Path_7163" data-name="Path 7163" d="M204,199.53l-19.208-19.208a3.076,3.076,0,1,1,4.35-4.35l-4.946-4.946a3.068,3.068,0,0,1-.9-2.176,3.168,3.168,0,0,1,.039-.492,3.071,3.071,0,0,1,4.921-1.935l-1.883-1.882a3.077,3.077,0,0,1-.9-2.179,2.935,2.935,0,0,1,.041-.5,3.077,3.077,0,0,1,5.213-1.672l2.155,2.155a3.076,3.076,0,1,1,4.35-4.35l12.483,12.483.035-.05a5.624,5.624,0,0,1,7.961.006l5.821,5.821a5.972,5.972,0,0,1,1.749,4.215l0,3.641a6.427,6.427,0,0,0,1.884,4.54l1.3,1.3-14.846,14.845-1.658-1.658a6.43,6.43,0,0,0-4.126-1.869A5.966,5.966,0,0,1,204,199.53" transform="translate(-152.114 -130.37)" fill="#fecbaa"/>
    <path id="Path_7164" data-name="Path 7164" d="M353.846,358.95,370.7,342.1a1.421,1.421,0,0,1,2.011,0l6,6a1.422,1.422,0,0,1,0,2.011l-16.851,16.851a1.423,1.423,0,0,1-2.011,0l-6-6a1.421,1.421,0,0,1,0-2.011" transform="translate(-293.31 -283.562)" fill="#fdd559"/>
    <path id="Path_7165" data-name="Path 7165" d="M87.616,199.54l19.208-19.208a3.076,3.076,0,1,0-4.35-4.35l4.946-4.946a3.074,3.074,0,0,0-4.057-4.6l1.883-1.882a3.075,3.075,0,0,0,.9-2.178,2.931,2.931,0,0,0-.041-.5,3.064,3.064,0,0,0-2.545-2.536,3.075,3.075,0,0,0-2.668.863l-2.156,2.156a3.076,3.076,0,0,0,.864-2.668,3.044,3.044,0,0,0-.86-1.685,3.079,3.079,0,0,0-4.353,0L81.907,170.488l-.035-.049a5.624,5.624,0,0,0-7.961.006l-5.82,5.821a5.97,5.97,0,0,0-1.749,4.215l0,3.641a6.423,6.423,0,0,1-1.883,4.54l-1.3,1.3L78,204.8l1.659-1.659a6.43,6.43,0,0,1,4.126-1.869,5.973,5.973,0,0,0,3.83-1.737" transform="translate(-52.413 -130.379)" fill="#fecbaa"/>
    <path id="Path_7166" data-name="Path 7166" d="M32.774,358.959,15.923,342.108a1.421,1.421,0,0,0-2.011,0l-6,6a1.423,1.423,0,0,0,0,2.011l16.851,16.85a1.422,1.422,0,0,0,2.011,0l6-6a1.422,1.422,0,0,0,0-2.011" transform="translate(-6.22 -283.569)" fill="#ff84a7"/>
    <path id="Path_7167" data-name="Path 7167" d="M180.561,84.626v27.165a3.076,3.076,0,1,1-6.152,0v6.995a3.074,3.074,0,0,1-6.124.386v2.662a3.075,3.075,0,0,1-.9,2.179,2.875,2.875,0,0,1-.383.325,3.077,3.077,0,0,1-4.868-2.5v-3.049a3.075,3.075,0,1,1-6.151,0V101.131l-.06.011a5.626,5.626,0,0,1-5.625-5.634V87.277a5.974,5.974,0,0,1,1.744-4.217l2.572-2.577a6.428,6.428,0,0,0,1.878-4.542V74.105h21v2.346a6.434,6.434,0,0,0,1.6,4.239,5.967,5.967,0,0,1,1.48,3.936" transform="translate(-124.731 -61.5)" fill="#fedfc5"/>
    <path id="Path_7168" data-name="Path 7168" d="M173.288,175.979a3.078,3.078,0,0,0-4.353,0l4.946-4.946a3.074,3.074,0,0,0-4.057-4.6l1.883-1.883a3.074,3.074,0,0,0,.9-2.178,2.866,2.866,0,0,0-.041-.5,3.077,3.077,0,0,0-5.213-1.672l-2.156,2.156a3.076,3.076,0,1,0-4.35-4.35l-12.483,12.483-.035-.049a5.6,5.6,0,0,0-5.094-1.531,8.255,8.255,0,0,0,4.334,3.278v15.479a5.634,5.634,0,0,0,6.726,5.525,5.639,5.639,0,0,0,3.263,2.865l15.723-15.723a3.075,3.075,0,0,0,0-4.352" transform="translate(-118.873 -130.379)" fill="#ffae85"/>
    <path id="Path_7169" data-name="Path 7169" d="M210.484,180.663V169.8a5.628,5.628,0,0,0-.752.631l-.035.049L197.215,158a3.076,3.076,0,1,0-4.35,4.35l-2.156-2.156a3.074,3.074,0,0,0-5.213,1.672,2.916,2.916,0,0,0-.041.5,3.073,3.073,0,0,0,.9,2.178l1.882,1.882a3.074,3.074,0,0,0-4.058,4.6l4.946,4.946a3.075,3.075,0,1,0-4.349,4.35l12.868,12.868a5.643,5.643,0,0,0,1.057.1A5.576,5.576,0,0,0,202,192.225a5.627,5.627,0,0,0,2.335-4.567v-1.387q.26.024.524.024a5.637,5.637,0,0,0,5.627-5.633" transform="translate(-152.104 -130.372)" fill="#ffae85"/>
    <path id="Path_7170" data-name="Path 7170" d="M180.561,84.626v27.165a3.076,3.076,0,0,1-3.076,3.081c-.046,0-.1,0-.145,0a3.043,3.043,0,0,1-1.651-.578s0,0,0,0a3.074,3.074,0,0,1-1.276-2.5v6.995a3.074,3.074,0,0,1-6.124.386v2.662a3.075,3.075,0,0,1-.9,2.179,2.875,2.875,0,0,1-.383.325,3.077,3.077,0,0,1-4.868-2.5v-3.049a3.075,3.075,0,1,1-6.151,0V101.131l-.06.011a5.626,5.626,0,0,1-5.625-5.634V87.277a5.974,5.974,0,0,1,1.744-4.217l2.572-2.577a6.438,6.438,0,0,0,1.878-4.542V74.105h21v2.346a5.8,5.8,0,0,0,.2,1.588,6.39,6.39,0,0,0,1.393,2.652,6.016,6.016,0,0,1,1.48,3.936" transform="translate(-124.731 -61.5)" fill="#fedfc5"/>
    <path id="Path_7171" data-name="Path 7171" d="M209.378,84.626v27.165a3.076,3.076,0,0,1-3.076,3.081c-.046,0-.1,0-.145,0a3.043,3.043,0,0,1-1.651-.578l.053-26.177a4.011,4.011,0,0,0-.1-.726,11.832,11.832,0,0,0-11.836-9.548h-7.6a6.406,6.406,0,0,0,.287-1.9V74.105h21v2.346a5.8,5.8,0,0,0,.2,1.588A6.391,6.391,0,0,0,207.9,80.69a6.016,6.016,0,0,1,1.48,3.936" transform="translate(-153.548 -61.5)" fill="#fecbaa"/>
    <path id="Path_7172" data-name="Path 7172" d="M194.951,18.83H171.12a1.422,1.422,0,0,1-1.421-1.422V8.922A1.422,1.422,0,0,1,171.12,7.5h23.831a1.422,1.422,0,0,1,1.421,1.422v8.487a1.422,1.422,0,0,1-1.421,1.422" transform="translate(-140.833 -6.224)" fill="#83d9ff"/>
    <path id="Path_7173" data-name="Path 7173" d="M86.305,63.606l-5.989-6a2.694,2.694,0,0,0-3.815,0l-.139.139-.393-.393a5.15,5.15,0,0,1-1.117-1.671,1.257,1.257,0,0,0-.091-.237,5.156,5.156,0,0,1-.3-1.733v-1.7a1.285,1.285,0,1,0-.008-2.268,7.192,7.192,0,0,0-2.108-4.8l-5.81-5.82a6.894,6.894,0,0,0-8.815-.791l-.617-.62V23.127a7.244,7.244,0,0,0-1.8-4.777,5.148,5.148,0,0,1-1.278-3.4V13.882h.088a2.7,2.7,0,0,0,2.7-2.7V2.7a2.7,2.7,0,0,0-2.7-2.7H30.288a2.7,2.7,0,0,0-2.7,2.7v8.486a2.7,2.7,0,0,0,2.7,2.7h.2v.559a5.118,5.118,0,0,1-1.506,3.641l-2.572,2.577a7.2,7.2,0,0,0-2.116,5.118v8.231a6.88,6.88,0,0,0,.741,3.11,6.851,6.851,0,0,0-4.476,2.012l-5.81,5.82a7.2,7.2,0,0,0-2.116,5.118v3.644a5.118,5.118,0,0,1-1.5,3.641l-.389.389,0,0-.138-.139a2.694,2.694,0,0,0-3.815,0l-5.989,6a2.7,2.7,0,0,0,0,3.815l2.051,2.054a1.276,1.276,0,1,0,1.805-1.8L2.593,65.618a.148.148,0,0,1,0-.209l5.989-6a.143.143,0,0,1,.2,0l1.041,1.043h0L24.045,74.695l1.593,1.6a.148.148,0,0,1,0,.209l-5.989,6a.143.143,0,0,1-.2,0L8.256,71.291a1.276,1.276,0,1,0-1.806,1.8L17.64,84.3a2.694,2.694,0,0,0,3.815,0l5.989-6a2.7,2.7,0,0,0,0-3.815l-.065-.065.756-.757a5.125,5.125,0,0,1,3.3-1.5,7.219,7.219,0,0,0,4.645-2.106l5.5-5.514a4.368,4.368,0,0,0,3.158-3.328,4.35,4.35,0,0,0,6.216-3.936V54.257a4.348,4.348,0,0,0,6.151-3.965V41.336l3.924,3.944a1.276,1.276,0,1,0,1.809-1.8l-3.272-3.288a4.345,4.345,0,0,1,5.165.741l5.81,5.819a4.664,4.664,0,0,1,1.371,3.316v3.644a7.654,7.654,0,0,0,2.25,5.443l.4.4-1.851,1.854L61.517,72.617l-.624-.625-.019-.019-.11-.11a7.682,7.682,0,0,0-4.94-2.239,4.679,4.679,0,0,1-3.009-1.365l-4.192-4.17a1.276,1.276,0,1,0-1.8,1.809l4.189,4.166a7.219,7.219,0,0,0,4.646,2.106,5.128,5.128,0,0,1,3.3,1.5l.062.062a1.2,1.2,0,0,0,.106.106l.588.589-.065.066a2.7,2.7,0,0,0,0,3.815l5.989,6a2.7,2.7,0,0,0,3.815,0L86.305,67.421a2.7,2.7,0,0,0,0-3.815M75.319,50.921l-.024,0-.233-.047ZM34.274,68.261a4.669,4.669,0,0,1-3,1.363,7.682,7.682,0,0,0-4.941,2.239l-.753.754-.678-.679-.026-.026L12.533,59.552l.4-.4a7.654,7.654,0,0,0,2.25-5.443V50.068a4.661,4.661,0,0,1,1.371-3.316l5.81-5.819a4.344,4.344,0,0,1,5.172-.738l-3.277,3.282a1.276,1.276,0,0,0,1.806,1.8l3.914-3.922V57.286a4.35,4.35,0,0,0,6.24,3.925,4.373,4.373,0,0,0,2.162,2.938ZM54.555,50.292a1.8,1.8,0,1,1-3.6,0V36.061a1.276,1.276,0,0,0-2.552,0V57.287a1.8,1.8,0,0,1-3.574.3V36.046a1.289,1.289,0,0,0-2.578.015V57.286a4.356,4.356,0,0,0,.027.478v2.571a1.8,1.8,0,1,1-3.6,0v-24.3a1.276,1.276,0,0,0-2.552,0V57.286a1.8,1.8,0,1,1-3.6,0V33.555a1.276,1.276,0,1,0-2.552,0v4.389a1.25,1.25,0,0,0-.307.147,4.366,4.366,0,0,1-2.827-4.083V25.777a4.664,4.664,0,0,1,1.371-3.316l2.572-2.577a7.653,7.653,0,0,0,2.251-5.443v-.559H35.6a1.276,1.276,0,0,0,0-2.552H30.288a.146.146,0,0,1-.146-.146V2.7a.146.146,0,0,1,.146-.146h23.83a.146.146,0,0,1,.146.146v8.486a.146.146,0,0,1-.146.146H41.59a1.276,1.276,0,0,0,0,2.552h9.889v1.069a7.7,7.7,0,0,0,1.911,5.081,4.69,4.69,0,0,1,1.165,3.094ZM84.5,65.618,67.647,82.5a.137.137,0,0,1-.1.043.139.139,0,0,1-.1-.043l-5.989-6a.148.148,0,0,1,0-.209l.964-.966h0l9.783-9.8,6.1-6.115a.142.142,0,0,1,.2,0l5.989,6a.148.148,0,0,1,0,.209" transform="translate(0)"/>
    <path id="Path_7174" data-name="Path 7174" d="M195.175,32.8a1.361,1.361,0,1,0,1.359,1.361,1.361,1.361,0,0,0-1.359-1.361" transform="translate(-160.848 -27.225)"/>
    <path id="Path_7175" data-name="Path 7175" d="M456.773,374.688a1.361,1.361,0,1,0,1.358,1.361,1.361,1.361,0,0,0-1.358-1.361" transform="translate(-377.947 -310.953)"/>
    <path id="Path_7176" data-name="Path 7176" d="M111.728,444.564a1.359,1.359,0,1,0-1.358,1.361,1.361,1.361,0,0,0,1.358-1.361" transform="translate(-90.468 -367.813)"/>
  </g>
</svg>
