<svg xmlns="http://www.w3.org/2000/svg" width="123.037" height="78.53" viewBox="0 0 123.037 78.53">
  <path id="logo" d="M-2903.383,543.973a8.763,8.763,0,0,1-3.433-.693,8.785,8.785,0,0,1-2.8-1.89,8.786,8.786,0,0,1-1.89-2.8,8.764,8.764,0,0,1-.693-3.433V505.46h122.887v29.693a8.764,8.764,0,0,1-.693,3.433,8.79,8.79,0,0,1-1.89,2.8,8.787,8.787,0,0,1-2.8,1.89,8.768,8.768,0,0,1-3.433.693Zm83.958-11.343a17.121,17.121,0,0,0,2.37,1.159,24.5,24.5,0,0,0,2.66.887,23.872,23.872,0,0,0,2.779.58,18.907,18.907,0,0,0,2.728.2,14.44,14.44,0,0,0,3.325-.392,8.974,8.974,0,0,0,2.967-1.279,6.6,6.6,0,0,0,2.114-2.37,7.673,7.673,0,0,0,.8-3.666,7.381,7.381,0,0,0-.511-2.9,5.6,5.6,0,0,0-1.467-2.029,9.4,9.4,0,0,0-2.3-1.449,24.946,24.946,0,0,0-3.018-1.125c-.707-.228-1.344-.423-1.893-.58a11.212,11.212,0,0,1-1.415-.495,2.919,2.919,0,0,1-.886-.563,1.066,1.066,0,0,1-.307-.784.957.957,0,0,1,.528-.921,3.117,3.117,0,0,1,1.416-.273,7.481,7.481,0,0,1,2.234.358,19.373,19.373,0,0,1,2.063.767,18.554,18.554,0,0,1,2.114,1.091l2.865-5.491c-.54-.27-1.159-.562-1.842-.869a23.467,23.467,0,0,0-2.2-.853,20.7,20.7,0,0,0-2.438-.648,13.058,13.058,0,0,0-2.592-.256,11.031,11.031,0,0,0-3.427.529,8.971,8.971,0,0,0-2.882,1.552,7.322,7.322,0,0,0-2,2.558,8.181,8.181,0,0,0-.733,3.547,7.152,7.152,0,0,0,.358,2.353,5.147,5.147,0,0,0,1.108,1.824,7.532,7.532,0,0,0,1.91,1.432,17.939,17.939,0,0,0,2.762,1.177c.728.25,1.422.468,2.063.648s1.222.364,1.722.546a3.917,3.917,0,0,1,1.176.631,1.1,1.1,0,0,1,.427.869.892.892,0,0,1-.427.767,2.872,2.872,0,0,1-1.517.29,9.909,9.909,0,0,1-2.814-.409,17.778,17.778,0,0,1-2.472-.921,20.169,20.169,0,0,1-2.49-1.33Zm-77.516-20.769a12.487,12.487,0,0,0-3.887,2.762,11.9,11.9,0,0,0-2.438,3.854,12.008,12.008,0,0,0-.836,4.365,12.429,12.429,0,0,0,.887,4.57,13.029,13.029,0,0,0,2.507,4.024,12.554,12.554,0,0,0,3.854,2.848,11.274,11.274,0,0,0,4.928,1.074,14.025,14.025,0,0,0,3.155-.375,13.44,13.44,0,0,0,3.035-1.091,10.553,10.553,0,0,0,2.524-1.774,7.453,7.453,0,0,0,.808-.9l-1.371,3.939h6.787l1.432-4.74h6.446l1.466,4.74h13.368v-7.434h2.49l4.263,7.434h7.5l-5.115-8.9a8.065,8.065,0,0,0,2.558-2.984,8.66,8.66,0,0,0,.921-3.939,8.115,8.115,0,0,0-.614-3.052,8.958,8.958,0,0,0-1.688-2.694,8.533,8.533,0,0,0-2.575-1.91,7.389,7.389,0,0,0-3.274-.733h-11.117v24.114l-8.355-24.114h-6.07l-6.48,18.627-5.149-3.076a4.1,4.1,0,0,1-.836,1.381,4.7,4.7,0,0,1-1.193.921,5.237,5.237,0,0,1-1.381.511,6.7,6.7,0,0,1-1.4.153,5.11,5.11,0,0,1-2.336-.529,5.371,5.371,0,0,1-1.756-1.415,6.344,6.344,0,0,1-1.091-2.046,7.855,7.855,0,0,1-.375-2.421,8.313,8.313,0,0,1,.324-2.268,6.358,6.358,0,0,1,.989-2.046,5.109,5.109,0,0,1,1.7-1.466,5.148,5.148,0,0,1,2.473-.563,7.749,7.749,0,0,1,1.415.136,5.338,5.338,0,0,1,1.415.478,4.6,4.6,0,0,1,1.245.921,4.282,4.282,0,0,1,.9,1.466l5.082-3.615a8.965,8.965,0,0,0-1.59-2.153,10.33,10.33,0,0,0-2.247-1.684,10.835,10.835,0,0,0-2.809-1.087,14.194,14.194,0,0,0-3.278-.362A12.353,12.353,0,0,0-2896.941,511.861Zm56.986,23.292h9.31a13.877,13.877,0,0,0,5.013-.869,11.128,11.128,0,0,0,3.853-2.455,10.871,10.871,0,0,0,2.473-3.82,13.738,13.738,0,0,0,.869-5,13.92,13.92,0,0,0-.784-4.689,10.927,10.927,0,0,0-2.319-3.837,10.967,10.967,0,0,0-3.82-2.592,13.681,13.681,0,0,0-5.286-.955h-9.31Zm6.65-5.8V516.737h2.66a5.53,5.53,0,0,1,2.285.46,4.863,4.863,0,0,1,1.722,1.279,5.733,5.733,0,0,1,1.074,1.978,8.306,8.306,0,0,1,.375,2.558,8.561,8.561,0,0,1-.358,2.524,5.889,5.889,0,0,1-1.057,2.012,4.87,4.87,0,0,1-1.722,1.33,5.444,5.444,0,0,1-2.319.477Zm-36.865-3.376h-4.4l2.251-7.5,2.148,7.5h0Zm15.892-4.058v-5.184h4.024a1.73,1.73,0,0,1,1.228.665,2.754,2.754,0,0,1,.614,1.927,3.065,3.065,0,0,1-.529,1.91,1.479,1.479,0,0,1-1.142.682Zm12.82-20.577h-10.012l-1.668-5.392a10.714,10.714,0,0,0,3.783-3.846,10.756,10.756,0,0,0,1.063-2.558,10.9,10.9,0,0,0,.376-2.846,10.782,10.782,0,0,0-.831-4.174,10.7,10.7,0,0,0-2.267-3.409,10.541,10.541,0,0,0-3.362-2.3,10.391,10.391,0,0,0-4.117-.843,10.39,10.39,0,0,0-4.117.843,10.536,10.536,0,0,0-3.362,2.3,10.7,10.7,0,0,0-2.267,3.409,10.791,10.791,0,0,0-.831,4.174,10.823,10.823,0,0,0,1.477,5.47,10.708,10.708,0,0,0,3.874,3.857l-1.606,5.316H-2885.2V482.433l-6.017,13.3h-5.259l-6.017-13.3v18.912h-9.861v-35.9h10.771l7.736,16.889,7.787-16.889h10.72V501.2l12.439-35.756h9l12.439,35.9h0Zm14.31,0h-9.86V474.038h-10.366v-8.6h30.542v8.6h-10.316v27.306h0Zm10.872,0v-35.9h25.131v8.6h-15.271V479.1h13.046v7.99h-13.046v5.663h15.726v8.6h-25.586Zm-48.852-10.412,4.231-4.231-3.9-3.9,2.38-2.38,3.9,3.9,4.231-4.231,2.644,2.644-4.231,4.231,3.9,3.9-2.38,2.38-3.9-3.9-4.231,4.231Z" transform="translate(2912.352 -465.442)" fill="#fff"/>
</svg>
